<?xml version="1.0" encoding="utf-8"?>
<!-- Generator: Adobe Illustrator 18.1.0, SVG Export Plug-In . SVG Version: 6.00 Build 0)  -->
<!DOCTYPE svg PUBLIC "-//W3C//DTD SVG 1.1//EN" "http://www.w3.org/Graphics/SVG/1.1/DTD/svg11.dtd">
<svg version="1.1" id="Layer_1" xmlns="http://www.w3.org/2000/svg" xmlns:xlink="http://www.w3.org/1999/xlink" x="0px" y="0px"
	 viewBox="0 0 267.9 88.8" enable-background="new 0 0 267.9 88.8" xml:space="preserve">
<g>
	<polygon fill="#FFFFFF" points="69.1,39 69.1,39 69.1,6.5 69.1,6.5 69.1,1.3 63,1.3 63,88.8 69.1,88.8 	"/>
	<path fill="#FFFFFF" d="M92.9,44.7c-3.2-2.7-8.1-3.2-9.3-3.3c1.9-0.4,7.7-1.1,9.7-7.3c0.7-2.2,0.6-5.3,0.6-6v-13
		c0-3.5-0.5-7.2-3-10C87.2,0.8,81,1.3,79.6,1.3h-1v5.2c3.5,0.1,7.4,0.8,8.7,4.6c0.4,1,0.6,2.6,0.6,5.1v10.5c0,2.1,0.5,9.3-6.9,11.5
		c-0.9,0.2-1.5,0.4-2.4,0.6v5.6c4.9,0.4,9.6,1.8,11.6,7.1c0.6,1.9,0.7,3.8,0.7,6v12.4c0,6.4-0.5,9.4-3.3,11.7c-1.7,1.2-3.7,2-8.1,2
		h-0.9v5.3h1.9c1.7,0,7.6,0.2,12.2-3.7c3.8-3.5,4.3-7.8,4.3-12.5v-15C97,53,96.9,48,92.9,44.7z"/>
</g>
<g>
	<path fill="#FFFFFF" d="M204.7,0.3v64.4c0,9.1,0.1,13.8-4,16.9c-0.8,0.7-1.7,1.1-2.6,1.4v5.9c4-0.9,9.1-3.2,11.4-9.5
		c1-2.7,1.2-5.8,1.2-8.8V0.3H204.7z"/>
	<path fill="#FFFFFF" d="M188.6,82.8c-2.4-0.9-3.9-2.3-4.7-3.7c-1.5-2.4-2-5.3-2-11V0.3h-6v66.8c0,5.7-0.2,11.2,3.5,16.1
		c0.7,1.1,1.6,2.1,2.7,2.9c2,1.5,4.4,2.3,6.5,2.8V82.8z"/>
</g>
<g>
	<path fill="#FFFFFF" d="M131.2,82.9c-3.6-1.4-5.4-4.2-6-5.9c-0.7-2.2-1-5-1-9.9V18.8c0-1.5-0.2-8.4,5.1-11.9c0.4-0.3,1.1-0.6,1.9-1
		V0.1c-5.3,1.2-9.7,4.4-11.6,10c-1.4,4-1.4,8.9-1.4,9.9v49.3c0,5.2,0.4,10.2,3.8,14.5c2.5,3.1,6.2,4.4,9.1,4.9V82.9z"/>
	<path fill="#FFFFFF" d="M147.4,2.8c-2-1.5-4.4-2.4-6.8-2.8v5.9c0.5,0.2,0.8,0.4,1.1,0.5c2.5,1.2,3.5,3.1,4,4.1
		c1.7,3.3,2.1,7.4,2.1,14.8v42.7c0,5.1-0.2,10.4-5,13.8c-0.7,0.5-1.4,0.9-2.2,1.2v5.8c5.7-1.2,8.9-4.5,10.4-7
		c2.2-3.6,2.6-7.3,2.6-11.4V21.9C153.6,15.1,153.6,7.5,147.4,2.8z"/>
</g>
<g>
	<rect x="261.9" y="1.3" fill="#FFFFFF" width="6" height="5.5"/>
	<rect x="230.9" y="1.3" fill="#FFFFFF" width="5.8" height="5.5"/>
	<polygon fill="#FFFFFF" points="246.2,88.8 252.4,88.8 252.4,6.8 252.4,6.8 252.4,1.3 246.2,1.3 	"/>
</g>
<path fill="#FFFFFF" d="M28.3,19.6l12.6,69.2h-6.3L25.8,36L28.3,19.6z M6.3,88.8H0L16.4,0.7h6.3L6.3,88.8z"/>
</svg>
