<?xml version="1.0" encoding="utf-8"?>
<!-- Generator: Adobe Illustrator 18.1.1, SVG Export Plug-In . SVG Version: 6.00 Build 0)  -->
<!DOCTYPE svg PUBLIC "-//W3C//DTD SVG 1.1//EN" "http://www.w3.org/Graphics/SVG/1.1/DTD/svg11.dtd">
<svg version="1.1" id="Layer_1" xmlns="http://www.w3.org/2000/svg" xmlns:xlink="http://www.w3.org/1999/xlink" x="0px" y="0px"
	 viewBox="0 0 190.7 89" enable-background="new 0 0 190.7 89" xml:space="preserve">
<g>
	<rect x="55.4" y="1.5" fill="#FFFFFF" width="6" height="87.5"/>
	<rect x="70.9" y="83.6" fill="#FFFFFF" width="13.4" height="5.5"/>
</g>
<g>
	<path fill="#FFFFFF" d="M168.1,83.3c-3.1-1.3-4.8-3.8-5.4-5.2c-1.6-3.2-1.7-7.1-1.7-14.3V22.4c0-5.5-0.5-11.3,4.2-15.3
		c1-0.8,2-1.3,2.9-1.6V0c-2.7,0.5-4.6,1.3-6,2.3c-0.6,0.4-1.6,1-2.9,2.4c-3.8,3.8-4.2,9.8-4.2,14.9v46c0,9.2,0.6,13,3.3,17.1
		c2.2,3.5,5.8,5.6,9.8,6.4V83.3z"/>
	<path fill="#FFFFFF" d="M177.6,5.6c3.1,1.1,4.6,3.1,5.4,4.8c1.1,2.6,1.2,6.6,1.2,9.3v9.1h5.8V16.6c0-0.5,0-4.1-0.6-6.4
		c-1.2-3.8-4.2-8.8-11.9-10.2V5.6z"/>
	<path fill="#FFFFFF" d="M177.6,48.2v5.3h7v14c0,2.4,0.1,9.1-5.7,13.9c-0.4,0.4-0.9,0.7-1.3,1v5.9c3.2-1.2,5.2-3.1,6.3-4.2
		c0.7-0.7,1.1-1.2,2.2-2.9v6.9h4.6V48.2H177.6z"/>
</g>
<g>
	<polygon fill="#FFFFFF" points="6.1,39.2 6.1,39.2 6.1,6.7 6.1,6.7 6.1,1.5 0,1.5 0,89 6.1,89 	"/>
	<path fill="#FFFFFF" d="M29.9,44.9c-3.2-2.7-8.1-3.2-9.3-3.3c1.9-0.4,7.7-1.1,9.7-7.3c0.7-2.2,0.6-5.3,0.6-6v-13
		c0-3.5-0.5-7.2-3-10C24.2,1,18,1.5,16.6,1.5h-1v5.2c3.5,0.1,7.4,0.8,8.7,4.6c0.4,1,0.6,2.6,0.6,5.1v10.5c0,2.1,0.5,9.3-6.9,11.5
		c-0.9,0.2-1.5,0.4-2.4,0.6v5.6c4.9,0.4,9.6,1.8,11.6,7.1c0.6,1.9,0.7,3.8,0.7,6v12.4c0,6.4-0.5,9.4-3.3,11.7c-1.7,1.2-3.7,2-8.1,2
		h-0.9V89h1.9c1.7,0,7.6,0.2,12.2-3.7c3.8-3.5,4.3-7.8,4.3-12.5v-15C34,53.2,33.9,48.2,29.9,44.9z"/>
</g>
<g>
	<path fill="#FFFFFF" d="M113,83.1c-3.6-1.4-5.4-4.2-6-5.9c-0.7-2.2-1-5-1-9.9V19c0-1.5-0.2-8.4,5.1-11.9c0.4-0.3,1.1-0.6,1.9-1V0.3
		c-5.3,1.2-9.7,4.4-11.6,10c-1.4,4-1.4,8.9-1.4,9.9v49.3c0,5.2,0.4,10.2,3.8,14.5c2.5,3.1,6.2,4.4,9.1,4.9V83.1z"/>
	<path fill="#FFFFFF" d="M129.3,3c-2-1.5-4.4-2.4-6.8-2.8v5.9c0.5,0.2,0.8,0.4,1.1,0.5c2.5,1.2,3.5,3.1,4,4.1
		c1.7,3.3,2.1,7.4,2.1,14.8v42.7c0,5.1-0.2,10.4-5,13.8c-0.7,0.5-1.4,0.9-2.2,1.2v5.8c5.7-1.2,8.9-4.5,10.4-7
		c2.2-3.6,2.6-7.3,2.6-11.4V22.1C135.5,15.3,135.5,7.8,129.3,3z"/>
</g>
</svg>
