<?xml version="1.0" encoding="utf-8"?>
<!-- Generator: Adobe Illustrator 18.1.0, SVG Export Plug-In . SVG Version: 6.00 Build 0)  -->
<!DOCTYPE svg PUBLIC "-//W3C//DTD SVG 1.1//EN" "http://www.w3.org/Graphics/SVG/1.1/DTD/svg11.dtd">
<svg version="1.1" id="Layer_1" xmlns="http://www.w3.org/2000/svg" xmlns:xlink="http://www.w3.org/1999/xlink" x="0px" y="0px"
	 viewBox="0 0 365 88.8" enable-background="new 0 0 365 88.8" xml:space="preserve">
<g>
	<path fill="#FFFFFF" d="M22.2,6.1c0.4,0.2,0.7,0.3,1,0.5C25,7.7,26,9.1,26.4,9.8c1.5,2.9,1.6,6.4,1.6,13v5.8h6V16.4
		c0-0.9,0-4.7-1.2-7.8c-1.9-4.8-5.9-7.5-10.5-8.5V6.1z"/>
	<path fill="#FFFFFF" d="M28.8,57.8v14c0,1.6,0.2,7.7-5.2,10.5c-0.3,0.2-0.8,0.4-1.3,0.6v5.9c7.1-1.4,10.3-5.6,11.6-9.3
		c0.7-2.1,1.1-3.8,1.1-8.2V57.8H28.8z"/>
	<path fill="#FFFFFF" d="M12.7,82.6c-0.3-0.1-0.6-0.3-1-0.4c-1.5-0.9-2.7-2-3.6-3.6C5.6,74.2,6,66.7,6,62V18.9c0-1.5-0.4-8.7,5.2-12
		c0.5-0.3,1.1-0.6,1.6-0.8V0C9,0.8,5.7,2.7,3.2,6.1C-0.1,10.6,0,15.3,0,20.6v47.5c0,5.5,0.4,7.9,1.2,10.5c1,3.1,4.2,8.6,11.5,10.2
		V82.6z"/>
</g>
<g>
	<path fill="#FFFFFF" d="M298.5,6.1c0.4,0.2,0.7,0.3,1,0.5c1.9,1.1,2.9,2.5,3.2,3.2c1.5,2.9,1.6,6.4,1.6,13v5.8h6V16.4
		c0-0.9,0-4.7-1.2-7.8c-1.9-4.8-5.9-7.5-10.5-8.5V6.1z"/>
	<path fill="#FFFFFF" d="M305,57.8v14c0,1.6,0.2,7.7-5.2,10.5c-0.3,0.2-0.8,0.4-1.3,0.6v5.9c7.1-1.4,10.3-5.6,11.6-9.3
		c0.7-2.1,1.1-3.8,1.1-8.2V57.8H305z"/>
	<path fill="#FFFFFF" d="M289,82.6c-0.3-0.1-0.6-0.3-1-0.4c-1.5-0.9-2.7-2-3.6-3.6c-2.6-4.3-2.2-11.8-2.2-16.5V18.9
		c0-1.5-0.4-8.7,5.2-12c0.5-0.3,1.1-0.6,1.6-0.8V0c-3.7,0.8-7,2.7-9.5,6.1c-3.3,4.5-3.2,9.2-3.2,14.5v47.5c0,5.5,0.4,7.9,1.2,10.5
		c1,3.1,4.2,8.6,11.5,10.2V82.6z"/>
</g>
<g>
	<path fill="#FFFFFF" d="M68,82.9c-3.6-1.4-5.4-4.2-6-5.9c-0.7-2.2-1-5-1-9.9V18.8c0-1.5-0.2-8.4,5.1-11.9c0.4-0.3,1.1-0.6,1.9-1
		V0.1c-5.3,1.2-9.7,4.4-11.6,10c-1.4,4-1.4,8.9-1.4,9.9v49.3c0,5.2,0.4,10.2,3.8,14.5c2.5,3.1,6.2,4.4,9.1,4.9V82.9z"/>
	<path fill="#FFFFFF" d="M84.3,2.8c-2-1.5-4.4-2.4-6.8-2.8v5.9c0.5,0.2,0.8,0.4,1.1,0.5c2.5,1.2,3.5,3.1,4,4.1
		c1.7,3.3,2.1,7.4,2.1,14.8v42.7c0,5.1-0.2,10.4-5,13.8c-0.7,0.5-1.4,0.9-2.2,1.2v5.8c5.7-1.2,8.9-4.5,10.4-7
		c2.2-3.6,2.6-7.3,2.6-11.4V21.9C90.5,15.1,90.5,7.6,84.3,2.8z"/>
</g>
<g>
	<rect x="199" y="1.3" fill="#FFFFFF" width="6" height="5.5"/>
	<rect x="168.1" y="1.3" fill="#FFFFFF" width="5.8" height="5.5"/>
	<polygon fill="#FFFFFF" points="183.3,88.8 189.5,88.8 189.5,6.8 189.5,6.8 189.5,1.3 183.3,1.3 	"/>
</g>
<g>
	<rect x="359" y="1.3" fill="#FFFFFF" width="6" height="5.5"/>
	<rect x="328.1" y="1.3" fill="#FFFFFF" width="5.8" height="5.5"/>
	<polygon fill="#FFFFFF" points="343.3,88.8 349.5,88.8 349.5,6.8 349.5,6.8 349.5,1.3 343.3,1.3 	"/>
</g>
<path fill="#FFFFFF" d="M243.3,19.6l12.6,69.2h-6.3L240.8,36L243.3,19.6z M221.3,88.8H215l16.4-88.1h6.3L221.3,88.8z"/>
<g>
	<polygon fill="#FFFFFF" points="113.1,22.4 113.1,88.8 118.9,88.8 118.7,44.7 	"/>
	<polygon fill="#FFFFFF" points="143,85.5 122,1.3 117.1,1.3 118.5,6.6 118.4,6.1 126.3,38.1 139,88.8 143.9,88.8 143,85.3 	"/>
	<polygon fill="#FFFFFF" points="142.9,1.7 143.4,46.8 148.9,68.8 148.9,1.7 	"/>
</g>
</svg>
