<?xml version="1.0" encoding="utf-8"?>
<!-- Generator: Adobe Illustrator 18.1.0, SVG Export Plug-In . SVG Version: 6.00 Build 0)  -->
<!DOCTYPE svg PUBLIC "-//W3C//DTD SVG 1.1//EN" "http://www.w3.org/Graphics/SVG/1.1/DTD/svg11.dtd">
<svg version="1.1" id="Layer_1" xmlns="http://www.w3.org/2000/svg" xmlns:xlink="http://www.w3.org/1999/xlink" x="0px" y="0px"
	 viewBox="0 0 393.3 89.4" enable-background="new 0 0 393.3 89.4" xml:space="preserve">
<path fill="#FFFFFF" d="M220.8,89.4V1.9h6.3v87.5H220.8z"/>
<g>
	<path fill="#FFFFFF" d="M272.9,6.7c0.4,0.2,0.7,0.3,1,0.5c1.9,1.1,2.9,2.5,3.2,3.2c1.5,2.9,1.6,6.4,1.6,13v5.8h6V17
		c0-0.9,0-4.7-1.2-7.8c-1.9-4.8-5.9-7.5-10.5-8.5V6.7z"/>
	<path fill="#FFFFFF" d="M279.4,58.4v14c0,1.6,0.2,7.7-5.2,10.5c-0.3,0.2-0.8,0.4-1.3,0.6v5.9c7.1-1.4,10.3-5.6,11.6-9.3
		c0.7-2.1,1.1-3.8,1.1-8.2V58.4H279.4z"/>
	<path fill="#FFFFFF" d="M263.4,83.1c-0.3-0.1-0.6-0.3-1-0.4c-1.5-0.9-2.7-2-3.6-3.6c-2.6-4.3-2.2-11.8-2.2-16.5V19.5
		c0-1.5-0.4-8.7,5.2-12c0.5-0.3,1.1-0.6,1.6-0.8V0.6c-3.7,0.8-7,2.7-9.5,6.1c-3.3,4.5-3.2,9.2-3.2,14.5v47.5c0,5.5,0.4,7.9,1.2,10.5
		c1,3.1,4.2,8.6,11.5,10.2V83.1z"/>
</g>
<g>
	<path fill="#FFFFFF" d="M22.9,5.5c4.2,1.4,5.4,4.8,5.8,7.1c0.4,1.7,0.4,2.7,0.4,5.8v7.8h6v-6.3c0-6.3,0-13.8-6.1-17.7
		c-2-1.2-4.1-1.8-6-2.2V5.5z"/>
	<path fill="#FFFFFF" d="M30.6,51.9c-2.7-3.5-5.8-6.4-8.9-9.5c-2.1-2.2-4.1-4.3-6-6.6c-5.3-6.1-7.6-9.4-7.6-17.7
		c0-6.4,1.6-9.9,4.3-11.7c0.3-0.2,0.6-0.3,0.9-0.5V0.3C5.5,2.1,3.3,8.3,2.6,12.4c-0.5,2.5-0.5,6.1-0.5,6.6c0,8.4,2.9,13.4,5,16.2
		c1.9,2.6,5,6.1,10,11C18,47,23.8,52.6,27,57.6c1.6,2.6,3.1,5.7,3.1,12.5c0,7.2-1.7,10.9-4.8,12.8c-0.8,0.5-1.7,0.8-2.4,1.1v5.5
		c5.5-1,8.6-3.6,10.3-6.1c1.7-2.6,3.1-6.9,3.1-14.3C36.2,62.2,35,57.3,30.6,51.9z"/>
	<path fill="#FFFFFF" d="M13.4,83.7c-6.2-2.1-7.1-7.9-7.3-11.3c-0.1-1.9,0-3.6,0-5.5v-7.1H0v12.4c0,2.6,0.1,4.6,1,7.1
		c1,2.6,2.4,4.6,4.3,6.3c1.2,1.1,2.2,1.7,2.9,2.1c1.5,0.8,3.3,1.3,5.2,1.7V83.7z"/>
</g>
<g>
	<path fill="#FFFFFF" d="M380,5.5c4.2,1.4,5.4,4.8,5.8,7.1c0.4,1.7,0.4,2.7,0.4,5.8v7.8h6v-6.3c0-6.3,0-13.8-6.1-17.7
		c-2-1.2-4.1-1.8-6-2.2V5.5z"/>
	<path fill="#FFFFFF" d="M387.7,51.9c-2.7-3.5-5.8-6.4-8.9-9.5c-2.1-2.2-4.1-4.3-6-6.6c-5.3-6.1-7.6-9.4-7.6-17.7
		c0-6.4,1.6-9.9,4.3-11.7c0.3-0.2,0.6-0.3,0.9-0.5V0.3c-7.9,1.9-10.1,8-10.8,12.2c-0.5,2.5-0.5,6.1-0.5,6.6c0,8.4,2.9,13.4,5,16.2
		c1.9,2.6,5,6.1,10,11c0.9,0.7,6.7,6.3,9.9,11.3c1.6,2.6,3.1,5.7,3.1,12.5c0,7.2-1.7,10.9-4.8,12.8c-0.8,0.5-1.7,0.8-2.4,1.1v5.5
		c5.5-1,8.6-3.6,10.3-6.1c1.7-2.6,3.1-6.9,3.1-14.3C393.3,62.2,392.1,57.3,387.7,51.9z"/>
	<path fill="#FFFFFF" d="M370.5,83.7c-6.2-2.1-7.1-7.9-7.3-11.3c-0.1-1.9,0-3.6,0-5.5v-7.1h-6.1v12.4c0,2.6,0.1,4.6,1,7.1
		c1,2.6,2.4,4.6,4.3,6.3c1.2,1.1,2.2,1.7,2.9,2.1c1.5,0.8,3.3,1.3,5.2,1.7V83.7z"/>
</g>
<g>
	<rect x="110.1" y="1.9" fill="#FFFFFF" width="6.1" height="87.5"/>
	<path fill="#FFFFFF" d="M132.1,46.4c1.9-0.4,2.2-0.6,3.2-1c2-0.9,6.8-3,8.4-9.1c0.5-2,0.5-5.3,0.5-5.6V17.1c0-1.7,0.2-8.2-4.8-12.2
		c-3.7-2.9-7.9-3.1-12.4-3.1h-1.4v5.2h1.9c2.2,0,4.2,0.1,6.3,1.2c3.7,2.1,4,6.7,4,10.4v13.5c0,1.7,0.1,6.7-5.3,8.6
		c-2.1,0.7-4.6,0.7-5.2,0.7h-1.7v5.2h0.1l16,42.7h6.4L132.1,46.4z"/>
</g>
<g>
	<polygon fill="#FFFFFF" points="182.7,89.3 168.8,1.9 162.6,1.9 177.4,89.4 183.8,89.4 183.8,89.1 	"/>
	<polygon fill="#FFFFFF" points="188.3,64.3 199.6,1.9 193.4,1.9 185.7,47.4 	"/>
</g>
<path fill="#FFFFFF" d="M322.2,1.3h16.2V7h-16.2V1.3z M313.4,89.4h-6.3V1.3h6.3V89.4z M322.2,83.8h16.1v5.7h-16.1V83.8z M322.2,40.3
	h11.7V46h-11.7V40.3z"/>
<path fill="#FFFFFF" d="M72.2,1.3h16.2V7H72.2V1.3z M63.4,89.4h-6.3V1.3h6.3V89.4z M72.2,83.8h16.1v5.7H72.2V83.8z M72.2,40.3h11.7
	V46H72.2V40.3z"/>
</svg>
