<?xml version="1.0" encoding="utf-8"?>
<!-- Generator: Adobe Illustrator 18.1.0, SVG Export Plug-In . SVG Version: 6.00 Build 0)  -->
<!DOCTYPE svg PUBLIC "-//W3C//DTD SVG 1.1//EN" "http://www.w3.org/Graphics/SVG/1.1/DTD/svg11.dtd">
<svg version="1.1" id="Layer_1" xmlns="http://www.w3.org/2000/svg" xmlns:xlink="http://www.w3.org/1999/xlink" x="0px" y="0px"
	 viewBox="0 0 380.8 89.4" enable-background="new 0 0 380.8 89.4" xml:space="preserve">
<g>
	<g>
		<path fill="#FFFFFF" d="M21.4,89.4h-6.3L0,1.3h6.3L21.4,89.4z M52.9,39.1l6.3-37.8h6.3L55.4,59.8L52.9,39.1z M22.7,41.6L29,1.3
			h8.8l12.6,88.1h-6.3L33.4,14.5l-7.6,45.3L22.7,41.6z"/>
	</g>
</g>
<g>
	<path fill="#FFFFFF" d="M263.9,0.9v64.4c0,9.1,0.1,13.8-4,16.9c-0.8,0.7-1.7,1.1-2.6,1.4v5.9c4-0.9,9.1-3.2,11.4-9.5
		c1-2.7,1.2-5.8,1.2-8.8V0.9H263.9z"/>
	<path fill="#FFFFFF" d="M247.8,83.4c-2.4-0.9-3.9-2.3-4.7-3.7c-1.5-2.4-2-5.3-2-11V0.9h-6v66.8c0,5.7-0.2,11.2,3.5,16.1
		c0.7,1.1,1.6,2.1,2.7,2.9c2,1.5,4.4,2.3,6.5,2.8V83.4z"/>
</g>
<g>
	<path fill="#FFFFFF" d="M315.8,5.5c4.2,1.4,5.4,4.8,5.8,7.1c0.4,1.7,0.4,2.7,0.4,5.8v7.8h6v-6.3c0-6.3,0-13.8-6.1-17.7
		c-2-1.2-4.1-1.8-6-2.2V5.5z"/>
	<path fill="#FFFFFF" d="M323.5,51.9c-2.7-3.5-5.8-6.4-8.9-9.5c-2.1-2.2-4.1-4.3-6-6.6c-5.3-6.1-7.6-9.4-7.6-17.7
		c0-6.4,1.6-9.9,4.3-11.7c0.3-0.2,0.6-0.3,0.9-0.5V0.3c-7.9,1.9-10.1,8-10.8,12.2c-0.5,2.5-0.5,6.1-0.5,6.6c0,8.4,2.9,13.4,5,16.2
		c1.9,2.6,5,6.1,10,11c0.9,0.7,6.7,6.3,9.9,11.3c1.6,2.6,3.1,5.7,3.1,12.5c0,7.2-1.7,10.9-4.8,12.8c-0.8,0.5-1.7,0.8-2.4,1.1v5.5
		c5.5-1,8.6-3.6,10.3-6.1c1.7-2.6,3.1-6.9,3.1-14.3C329.1,62.2,327.9,57.3,323.5,51.9z"/>
	<path fill="#FFFFFF" d="M306.3,83.7c-6.2-2.1-7.1-7.9-7.3-11.3c-0.1-1.9,0-3.6,0-5.5v-7.1h-6.1v12.4c0,2.6,0.1,4.6,1,7.1
		c1,2.6,2.4,4.6,4.3,6.3c1.2,1.1,2.2,1.7,2.9,2.1c1.5,0.8,3.3,1.3,5.2,1.7V83.7z"/>
</g>
<g>
	<polygon fill="#FFFFFF" points="97.5,40.8 91,40.8 91,1.9 85,1.9 85,89.4 91,89.4 91,46.2 97.5,46.2 	"/>
	<polygon fill="#FFFFFF" points="113.5,1.9 113.5,40.8 107,40.8 107,46.2 113.5,46.2 113.5,89.4 119.6,89.4 119.6,1.9 	"/>
</g>
<g>
	<polygon fill="#FFFFFF" points="168.3,36.8 181,1.9 174.3,1.9 165.4,28.3 	"/>
	<polygon fill="#FFFFFF" points="146.4,1.9 140,1.9 157.2,50.7 157.2,89.4 163.2,89.4 163.2,51.2 	"/>
</g>
<g>
	<path fill="#FFFFFF" d="M361,2.6c-4.4,1.3-6.7,4.3-7.8,6.3c-3.3,5.8-2.4,15.4-2.3,21.8h5.7c-0.1-2.4-0.2-5-0.2-7.4
		c0-4.8,0.1-11.3,4.4-14.6c0.1-0.1,0.2-0.1,0.3-0.2V2.6z"/>
	<path fill="#FFFFFF" d="M378.7,9.9c-1.7-3.7-4.6-6.1-8.1-7.2v5.9c3.9,2.8,4.4,8.6,4.5,12.8c0.1,2.1,0.1,4.1,0.1,6.2
		c0,7.7-2,10.5-4,13.6c-1,1.3-1.8,2.7-2.8,4l-2.9,4.3c-2.8,4.1-2.6,6-2.6,8.7v10.1h5.8v-9.5c0-2.3,0.2-3.8,1.3-5.8
		c1.6-2.8,3.8-5.5,5.6-8.2c4.4-6.5,5.2-10.2,5.2-18.2C380.8,17.9,380.5,13.8,378.7,9.9z"/>
	<rect x="362.8" y="78.5" fill="#FFFFFF" width="5.8" height="11"/>
</g>
</svg>
