<?xml version="1.0" encoding="utf-8"?>
<!-- Generator: Adobe Illustrator 18.1.0, SVG Export Plug-In . SVG Version: 6.00 Build 0)  -->
<!DOCTYPE svg PUBLIC "-//W3C//DTD SVG 1.1//EN" "http://www.w3.org/Graphics/SVG/1.1/DTD/svg11.dtd">
<svg version="1.1" id="Layer_1" xmlns="http://www.w3.org/2000/svg" xmlns:xlink="http://www.w3.org/1999/xlink" x="0px" y="0px"
	 viewBox="0 0 235 88.8" enable-background="new 0 0 235 88.8" xml:space="preserve">
<g>
	<g>
		<path fill="#FFFFFF" d="M21.4,88.8h-6.3L0,0.7h6.3L21.4,88.8z M52.9,38.5l6.3-37.8h6.3L55.4,59.3L52.9,38.5z M22.7,41L29,0.7h8.8
			l12.6,88.1h-6.3L33.4,13.9l-7.6,45.3L22.7,41z"/>
	</g>
</g>
<g>
	<rect x="141.9" y="1.3" fill="#FFFFFF" width="6.1" height="87.5"/>
	<path fill="#FFFFFF" d="M164,45.8c1.9-0.4,2.2-0.6,3.2-1c2-0.9,6.8-3,8.4-9.1c0.5-2,0.5-5.3,0.5-5.6V16.5c0-1.7,0.2-8.2-4.8-12.2
		c-3.7-2.9-7.9-3.1-12.4-3.1h-1.4v5.2h1.9c2.2,0,4.2,0.1,6.3,1.2c3.7,2.1,4,6.7,4,10.4v13.5c0,1.7,0.1,6.7-5.3,8.6
		c-2.1,0.7-4.6,0.7-5.2,0.7h-1.7v5.2h0.1l16,42.7h6.4L164,45.8z"/>
</g>
<g>
	<rect x="200" y="1.3" fill="#FFFFFF" width="5.9" height="87.5"/>
	<polygon fill="#FFFFFF" points="216.2,36.1 234.8,1.3 227.9,1.3 212.9,30.8 212.9,44.9 228.4,88.8 235,88.8 	"/>
</g>
<g>
	<path fill="#FFFFFF" d="M96.2,82.9c-3.6-1.4-5.4-4.2-6-5.9c-0.7-2.2-1-5-1-9.9V18.8c0-1.5-0.2-8.4,5.1-11.9c0.4-0.3,1.1-0.6,1.9-1
		V0.1c-5.3,1.2-9.7,4.4-11.6,10c-1.4,4-1.4,8.9-1.4,9.9v49.3c0,5.2,0.4,10.2,3.8,14.5c2.5,3.1,6.2,4.4,9.1,4.9V82.9z"/>
	<path fill="#FFFFFF" d="M112.5,2.8c-2-1.5-4.4-2.4-6.8-2.8v5.9c0.5,0.2,0.8,0.4,1.1,0.5c2.5,1.2,3.5,3.1,4,4.1
		c1.7,3.3,2.1,7.4,2.1,14.8v42.7c0,5.1-0.2,10.4-5,13.8c-0.7,0.5-1.4,0.9-2.2,1.2v5.8c5.7-1.2,8.9-4.5,10.4-7
		c2.2-3.6,2.6-7.3,2.6-11.4V21.9C118.7,15.1,118.7,7.5,112.5,2.8z"/>
</g>
</svg>
