<?xml version="1.0" encoding="utf-8"?>
<!-- Generator: Adobe Illustrator 18.1.0, SVG Export Plug-In . SVG Version: 6.00 Build 0)  -->
<!DOCTYPE svg PUBLIC "-//W3C//DTD SVG 1.1//EN" "http://www.w3.org/Graphics/SVG/1.1/DTD/svg11.dtd">
<svg version="1.1" xmlns="http://www.w3.org/2000/svg" xmlns:xlink="http://www.w3.org/1999/xlink" x="0px" y="0px"
	 viewBox="0 0 204.3 25" enable-background="new 0 0 204.3 25" xml:space="preserve">
<g id="Layer_1">
	<g>
		<g>
			<path fill="#FFFFFF" d="M41.1,25h-1.8V0h1.8V25z"/>
			<path fill="#FFFFFF" d="M43.8,11.4h0.5c2.3,0,3-1.4,3-3.2V4.6c0-1.8-0.7-3.2-3-3.2h-0.5V0h0.5c3.9,0,4.8,2.1,4.8,4.6v3.6
				c0,2.5-0.9,3.9-3.4,4.6L50.2,25h-1.8l-4.6-12.1V11.4z M41.1,25h-1.8V0h1.8V25z"/>
			<path fill="#FFFFFF" d="M77.3,5.4L80.9,25h-1.8l-2.5-15L77.3,5.4z M71.1,25h-1.8l4.6-25h1.8L71.1,25z"/>
			<path fill="#FFFFFF" d="M168.6,0h4.6v1.6h-4.6V0z M166.1,25h-1.8V0h1.8V25z M168.6,23.4h4.6V25h-4.6V23.4z M168.6,11.1h3.3v1.6
				h-3.3V11.1z"/>
			<path fill="#FFFFFF" d="M6.1,25H4.3L0,0h1.8L6.1,25z M15,10.7L16.8,0h1.8l-2.9,16.6L15,10.7z M6.4,11.4L8.2,0h2.5l3.6,25h-1.8
				l-3-21.2L7.3,16.6L6.4,11.4z"/>
			<path fill="#FFFFFF" d="M111.6,8.9c0,2.5-0.9,4.6-4.8,4.6h-0.5v-1.4h0.5c2.3,0,3-1.4,3-3.2V4.6c0-1.8-0.7-3.2-3-3.2h-0.5V0h0.5
				c3.9,0,4.8,2.1,4.8,4.6V8.9z M103.6,25h-1.8V0h1.8V25z"/>
			<path fill="#FFFFFF" d="M142.9,8.9c0,2.5-0.9,4.6-4.8,4.6h-0.5v-1.4h0.5c2.3,0,3-1.4,3-3.2V4.6c0-1.8-0.7-3.2-3-3.2h-0.5V0h0.5
				c3.9,0,4.8,2.1,4.8,4.6V8.9z M134.8,25H133V0h1.8V25z"/>
			<rect x="194.1" y="0" fill="#FFFFFF" width="1.8" height="25"/>
			<path fill="#FFFFFF" d="M204.3,14.6v-4.3c0-3.2-0.2-6.3-1.8-8.2C201,0.3,198.9,0,198.6,0v1.6c0.9,0.2,2.3,0.9,3,2.3
				c0.7,1.4,0.9,3.2,0.9,6.4v4.3c0,3.2-0.2,5-0.9,6.4c-0.7,1.4-2.1,2.1-3,2.3V25c0.4,0,2.4-0.3,3.9-2.1
				C204.1,20.9,204.3,17.9,204.3,14.6z"/>
		</g>
	</g>
</g>
<g id="Layer_2">
</g>
</svg>
