<?xml version="1.0" encoding="utf-8"?>
<!-- Generator: Adobe Illustrator 15.1.0, SVG Export Plug-In . SVG Version: 6.00 Build 0)  -->
<!DOCTYPE svg PUBLIC "-//W3C//DTD SVG 1.1//EN" "http://www.w3.org/Graphics/SVG/1.1/DTD/svg11.dtd">
<svg version="1.1"
	 id="svg2" xmlns:svg="http://www.w3.org/2000/svg" xmlns:rdf="http://www.w3.org/1999/02/22-rdf-syntax-ns#" xmlns:cc="http://creativecommons.org/ns#" xmlns:dc="http://purl.org/dc/elements/1.1/"
	 xmlns="http://www.w3.org/2000/svg" xmlns:xlink="http://www.w3.org/1999/xlink" x="0px" y="0px" width="1000px"
	 height="304.434px" viewBox="0 0 1000 304.434" enable-background="new 0 0 1000 304.434" xml:space="preserve">
<g id="layer1" transform="translate(-0.79666286,-409.603)">
	<g id="g3012" transform="matrix(1.0001318,0,0,-1.0001318,0.66484549,714.35216)">
		<path id="path3014" fill="#D2D4D5" d="M263.291,104.192h-6.929v96.953h6.929V104.192z"/>
		<g id="g3016">
			<g>
				<defs>
					<rect id="SVGID_1_" x="-0.066" y="-0.02" width="1000.132" height="304.749"/>
				</defs>
				<clipPath id="SVGID_2_">
					<use xlink:href="#SVGID_1_"  overflow="visible"/>
				</clipPath>
				<g id="g3018" clip-path="url(#SVGID_2_)">
					<path id="path3024" fill="#373535" d="M263.291,104.192h-6.929v96.953h6.929V104.192z M273.677,156.824h2.08
						c8.999,0,11.772,5.542,11.772,12.466v13.848c0,6.928-2.773,12.431-11.772,12.466h-2.08v5.542h2.08
						c15.215,0,18.696-8.311,18.696-18.008V169.29c0-9.697-3.462-15.215-13.159-18.008l17.314-47.09h-6.923l-18.008,47.09V156.824
						L273.677,156.824z"/>
					<g id="g3026" transform="translate(379.6338,104.1924)">
						<path id="path3028" fill="#373535" d="M0,0h-6.924l18.003,96.953h6.924L0,0z M24.238,76.177L38.091,0h-6.93l-9.697,58.174
							L24.238,76.177z"/>
					</g>
					<path id="path3030" fill="#373535" d="M757.749,158.211h12.881v-6.235h-12.881V158.211z M757.749,110.423h17.734v-6.231
						h-17.734V110.423z M748.052,104.192h-6.924v96.953h6.924V104.192z M757.749,201.146h17.872v-6.23h-17.872V201.146z"/>
					<g id="g3032" transform="translate(128.9404,156.8242)">
						<path id="path3034" fill="#373535" d="M0,0l6.924,44.321h9.697l13.848-96.953h-6.924L11.772,29.775l-8.31-49.858L0,0z
							 M33.242,2.769l6.924,41.552h6.924L36.011-20.083L33.242,2.769z M-1.387-52.632h-6.924l-16.621,96.953h6.924L-1.387-52.632z"
							/>
					</g>
					<path id="path3036" fill="#373535" d="M505.674,104.192h-6.93v96.953h6.93V104.192z M536.841,166.521
						c0-9.697-3.487-18.007-18.702-18.007h-2.08v5.542h2.08c9.005,0.034,11.767,5.537,11.767,12.465v16.617
						c0,6.928-2.762,12.431-11.767,12.466h-2.08v5.542h2.08c15.215,0,18.702-8.311,18.702-18.008V166.521z"/>
					<path id="path3038" fill="#373535" d="M626.86,104.192h-6.924v96.953h6.924V104.192z M658.032,166.521
						c0-9.697-3.487-18.007-18.702-18.007h-2.08v5.542h2.08c9.005,0.034,11.768,5.537,11.768,12.465v16.617
						c0,6.928-2.763,12.431-11.768,12.466h-2.08v5.542h2.08c15.215,0,18.702-8.311,18.702-18.008V166.521z"/>
					<path id="path3040" fill="#373535" d="M863.706,104.192h-6.925v96.953h6.925V104.192z"/>
					<g id="g3042" transform="translate(896.2549,144.3584)">
						<path id="path3044" fill="#373535" d="M0,0.001v16.62c0,12.481-0.693,24.238-6.924,31.856
							c-5.967,7.29-13.858,8.31-15.234,8.31v-6.23c3.458-0.694,8.994-3.467,11.767-9.004c2.774-5.542,3.467-12.466,3.467-24.932
							V0.001c0-12.467-0.693-19.39-3.467-24.932c-2.773-5.537-8.309-8.31-11.767-9.005v-6.23c1.377,0,9.267,1.016,15.234,8.311
							C-0.693-24.238,0-12.48,0,0.001"/>
					</g>
					<g id="g3046" transform="translate(993.208,7.2393)">
						<path id="path3048" fill="#373535" d="M0,0h-986.152v139.888h-6.924V-6.924h1000v146.812H0V0z"/>
					</g>
					<g id="g3050" transform="translate(1000.1318,305.0225)">
						<path id="path3052" fill="#373535" d="M0,0h-1000v-146.812h6.924V-6.924H-6.924v-139.888H0V0z"/>
					</g>
				</g>
			</g>
		</g>
	</g>
</g>
</svg>
