<?xml version="1.0" encoding="UTF-8" standalone="no"?>
<!-- Created with Inkscape (http://www.inkscape.org/) -->

<svg
   xmlns:dc="http://purl.org/dc/elements/1.1/"
   xmlns:cc="http://creativecommons.org/ns#"
   xmlns:rdf="http://www.w3.org/1999/02/22-rdf-syntax-ns#"
   xmlns:svg="http://www.w3.org/2000/svg"
   xmlns="http://www.w3.org/2000/svg"
   version="1.1"
   width="1249.8352"
   height="380.49213"
   id="svg2">
  <defs
     id="defs4">
    <clipPath
       id="clipPath3020">
      <path
         d="m 0,304.709 1000,0 L 1000,0 0,0 0,304.709 z"
         id="path3022" />
    </clipPath>
  </defs>
  <metadata
     id="metadata7">
    <rdf:RDF>
      <cc:Work
         rdf:about="">
        <dc:format>image/svg+xml</dc:format>
        <dc:type
           rdf:resource="http://purl.org/dc/dcmitype/StillImage" />
        <dc:title></dc:title>
      </cc:Work>
    </rdf:RDF>
  </metadata>
  <g
     transform="translate(83.489053,-239.25898)"
     id="layer1">
    <g
       transform="matrix(1.25,0,0,-1.25,-83.653803,620.14523)"
       id="g3012"
       style="fill:#000000">
      <path
         d="m 263.291,104.192 -6.929,0 0,96.953 6.929,0 0,-96.953 z"
         id="path3014"
         style="fill:#000000;fill-opacity:1;fill-rule:nonzero;stroke:none" />
      <g
         id="g3016"
         style="fill:#000000">
        <g
           clip-path="url(#clipPath3020)"
           id="g3018"
           style="fill:#000000">
          <path
             d="m 263.291,104.192 -6.929,0 0,96.953 6.929,0 0,-96.953 z m 10.386,52.632 2.08,0 c 8.999,0 11.772,5.542 11.772,12.466 l 0,13.848 c 0,6.928 -2.773,12.431 -11.772,12.466 l -2.08,0 0,5.542 2.08,0 c 15.215,0 18.696,-8.311 18.696,-18.008 l 0,-13.848 c 0,-9.697 -3.462,-15.215 -13.159,-18.008 l 17.314,-47.09 -6.923,0 -18.008,47.09 0,5.542 z"
             id="path3024"
             style="fill:#000000;fill-opacity:1;fill-rule:nonzero;stroke:none" />
          <g
             transform="translate(379.6338,104.1924)"
             id="g3026"
             style="fill:#000000">
            <path
               d="m 0,0 -6.924,0 18.003,96.953 6.924,0 L 0,0 z M 24.238,76.177 38.091,0 31.162,0 21.465,58.174 24.238,76.177 z"
               id="path3028"
               style="fill:#000000;fill-opacity:1;fill-rule:nonzero;stroke:none" />
          </g>
          <path
             d="m 757.749,158.211 12.881,0 0,-6.235 -12.881,0 0,6.235 z m 0,-47.788 17.734,0 0,-6.23 -17.734,0 0,6.23 z m -9.697,-6.231 -6.924,0 0,96.953 6.924,0 0,-96.953 z m 9.697,96.954 17.871,0 0,-6.23 -17.871,0 0,6.23 z"
             id="path3030"
             style="fill:#000000;fill-opacity:1;fill-rule:nonzero;stroke:none" />
          <g
             transform="translate(128.9404,156.8242)"
             id="g3032"
             style="fill:#000000">
            <path
               d="m 0,0 6.924,44.321 9.697,0 13.848,-96.953 -6.924,0 L 11.772,29.775 3.462,-20.083 0,0 z m 33.242,2.769 6.924,41.552 6.924,0 -11.079,-64.404 -2.769,22.852 z m -34.629,-55.401 -6.924,0 -16.621,96.953 6.924,0 16.621,-96.953 z"
               id="path3034"
               style="fill:#000000;fill-opacity:1;fill-rule:nonzero;stroke:none" />
          </g>
          <path
             d="m 505.674,104.192 -6.929,0 0,96.953 6.929,0 0,-96.953 z m 31.167,62.329 c 0,-9.697 -3.487,-18.007 -18.701,-18.007 l -2.08,0 0,5.542 2.08,0 c 9.004,0.034 11.767,5.537 11.767,12.465 l 0,16.617 c 0,6.928 -2.763,12.431 -11.767,12.466 l -2.08,0 0,5.542 2.08,0 c 15.214,0 18.701,-8.311 18.701,-18.008 l 0,-16.617 z"
             id="path3036"
             style="fill:#000000;fill-opacity:1;fill-rule:nonzero;stroke:none" />
          <path
             d="m 626.86,104.192 -6.924,0 0,96.953 6.924,0 0,-96.953 z m 31.172,62.329 c 0,-9.697 -3.486,-18.007 -18.701,-18.007 l -2.08,0 0,5.542 2.08,0 c 9.004,0.034 11.768,5.537 11.768,12.465 l 0,16.617 c 0,6.928 -2.764,12.431 -11.768,12.466 l -2.08,0 0,5.542 2.08,0 c 15.215,0 18.701,-8.311 18.701,-18.008 l 0,-16.617 z"
             id="path3038"
             style="fill:#000000;fill-opacity:1;fill-rule:nonzero;stroke:none" />
          <path
             d="m 863.706,104.192 -6.924,0 0,96.953 6.924,0 0,-96.953 z"
             id="path3040"
             style="fill:#000000;fill-opacity:1;fill-rule:nonzero;stroke:none" />
          <g
             transform="translate(896.2549,144.3584)"
             id="g3042"
             style="fill:#000000">
            <path
               d="m 0,0 0,16.621 c 0,12.481 -0.693,24.238 -6.924,31.856 -5.967,7.29 -13.857,8.31 -15.234,8.31 l 0,-6.23 c 3.457,-0.694 8.994,-3.467 11.767,-9.004 2.774,-5.542 3.467,-12.466 3.467,-24.932 L -6.924,0 c 0,-12.466 -0.693,-19.39 -3.467,-24.932 -2.773,-5.537 -8.31,-8.31 -11.767,-9.004 l 0,-6.23 c 1.377,0 9.267,1.016 15.234,8.311 C -0.693,-24.238 0,-12.48 0,0"
               id="path3044"
               style="fill:#000000;fill-opacity:1;fill-rule:nonzero;stroke:none" />
          </g>
          <g
             transform="translate(993.208,7.2393)"
             id="g3046"
             style="fill:#000000">
            <path
               d="m 0,0 -986.152,0 0,139.888 -6.924,0 0,-146.812 1000,0 0,146.812 -6.924,0 L 0,0 z"
               id="path3048"
               style="fill:#000000;fill-opacity:1;fill-rule:nonzero;stroke:none" />
          </g>
          <g
             transform="translate(1000.1318,305.0225)"
             id="g3050"
             style="fill:#000000">
            <path
               d="m 0,0 -1000,0 0,-146.812 6.924,0 0,139.888 986.152,0 0,-139.888 6.924,0 L 0,0 z"
               id="path3052"
               style="fill:#000000;fill-opacity:1;fill-rule:nonzero;stroke:none" />
          </g>
        </g>
      </g>
    </g>
  </g>
</svg>
