<?xml version="1.0" encoding="utf-8"?>
<!-- Generator: Adobe Illustrator 18.1.0, SVG Export Plug-In . SVG Version: 6.00 Build 0)  -->
<!DOCTYPE svg PUBLIC "-//W3C//DTD SVG 1.1//EN" "http://www.w3.org/Graphics/SVG/1.1/DTD/svg11.dtd">
<svg version="1.1" id="Layer_1" xmlns="http://www.w3.org/2000/svg" xmlns:xlink="http://www.w3.org/1999/xlink" x="0px" y="0px"
	 viewBox="0 0 157.3 52.3" enable-background="new 0 0 157.3 52.3" xml:space="preserve">
<g>
	<defs>
		<rect id="SVGID_1_" y="0" width="157.3" height="52.3"/>
	</defs>
	<clipPath id="SVGID_2_">
		<use xlink:href="#SVGID_1_"  overflow="visible"/>
	</clipPath>
	<path clip-path="url(#SVGID_2_)" fill="#FFFFFF" d="M157.3,3.7V0.6h-21.5v3.2h8.9v47.7h3.6V3.7H157.3z M123.6,41.3V0.6h-3.5v37.4
		c0,5.3,0.1,8-2.3,9.8c-1.5,1.2-3.7,1.2-4.2,1.2c-3.2,0-4.8-1.4-5.6-2.6c-0.9-1.4-1.2-3.1-1.2-6.4V0.6h-3.5v38.8
		c0,3.3-0.1,6.5,2,9.4c0.4,0.6,0.9,1.2,1.6,1.7c2.4,1.8,5.6,1.9,6.4,1.9c1.6,0,7.4-0.2,9.5-5.8C123.5,44.9,123.6,43.1,123.6,41.3
		 M86.3,39.7c0,3-0.1,6-2.9,8c-1.2,0.9-2.5,1.2-4,1.2c-4,0-5.8-2.6-6.3-4c-0.4-1.3-0.6-2.9-0.6-5.8v-28c0-0.9-0.1-4.9,3-6.9
		c0.6-0.4,1.9-1.1,3.9-1.1c1.7,0,2.9,0.5,3.4,0.8c1.4,0.7,2,1.8,2.3,2.4c1,1.9,1.2,4.3,1.2,8.6V39.7z M89.7,41V13
		c0-4,0-8.4-3.6-11.1C84.2,0.5,81.9,0,79.6,0c-4.3-0.1-8.3,1.9-9.7,6.1c-0.8,2.3-0.8,5.2-0.8,5.8v28.7c0,3,0.2,5.9,2.2,8.4
		c2.5,3,6.9,3.1,7.9,3.1c5.2,0,7.8-2.5,8.9-4.4C89.5,45.6,89.7,43.4,89.7,41 M52.4,40.4c0,3.7-0.3,5.5-1.9,6.8
		c-1,0.7-2.2,1.2-4.7,1.2h-6V25.6h3.6c3.4,0,7.2,0.4,8.6,4.2c0.4,1.1,0.4,2.2,0.4,3.5V40.4z M50.7,15.3c0,1.2,0.3,5.4-4,6.7
		c-1,0.3-1.5,0.4-3.5,0.4h-3.5V3.6h4.5c2.2,0,5.2,0.1,6.1,2.7c0.2,0.6,0.4,1.5,0.4,3V15.3z M55.9,42v-8.7c0-2.7-0.1-5.5-2.4-7.5
		c-1.9-1.6-4.7-1.9-5.4-1.9c1.1-0.2,4.5-0.6,5.6-4.2c0.4-1.3,0.4-3.1,0.4-3.5V8.6c0-2-0.3-4.2-1.7-5.8c-2.2-2.4-5.8-2.2-6.6-2.2
		h-9.6v50.8h10.2c1,0,4.4,0.1,7.1-2.2C55.6,47.2,55.9,44.7,55.9,42 M16.4,32.6H7l4.2-24c0.2-1.4,0.4-2.9,0.6-4.4
		C12,5.8,12.2,7.4,12.5,9L16.4,32.6z M23.4,51.4L14.2,0.3H9.3L0,51.4h3.7l2.7-15.5h10.7l2.6,15.5H23.4z"/>
</g>
</svg>
