<?xml version="1.0" encoding="utf-8"?>
<!-- Generator: Adobe Illustrator 18.1.0, SVG Export Plug-In . SVG Version: 6.00 Build 0)  -->
<!DOCTYPE svg PUBLIC "-//W3C//DTD SVG 1.1//EN" "http://www.w3.org/Graphics/SVG/1.1/DTD/svg11.dtd">
<svg version="1.1" id="Layer_1" xmlns="http://www.w3.org/2000/svg" xmlns:xlink="http://www.w3.org/1999/xlink" x="0px" y="0px"
	 viewBox="0 0 215.9 52.2" enable-background="new 0 0 215.9 52.2" xml:space="preserve">
<g>
	<defs>
		<rect id="SVGID_1_" x="0" y="0" width="215.9" height="52.2"/>
	</defs>
	<clipPath id="SVGID_2_">
		<use xlink:href="#SVGID_1_"  overflow="visible"/>
	</clipPath>
	<path clip-path="url(#SVGID_2_)" fill="#FFFFFF" d="M215.9,3.7V0.6h-21.5v3.2h8.9v47.7h3.6V3.7H215.9z M183.7,41.8v-7.8h-3.6V42
		c0,0.9,0.1,4.5-3,6.1c-0.6,0.3-1.6,0.7-3.2,0.7c-0.6,0-2.2-0.1-3.7-0.9c-0.9-0.5-1.6-1.2-2.1-2.1c-1.5-2.5-1.3-6.8-1.3-9.6V11.3
		c0-0.9-0.2-5,3-7c1.5-0.9,3-1,3.7-1c1.7,0,2.7,0.5,3.3,0.9c1.1,0.6,1.7,1.4,1.9,1.9c0.9,1.7,0.9,3.7,0.9,7.6V17h3.5V9.9
		c0-0.5,0-2.7-0.7-4.5c-1.4-3.7-5.1-5.3-8.9-5.3c-3.2,0-6.2,1-8.2,3.8c-1.9,2.6-1.9,5.3-1.9,8.4v27.6c0,3.2,0.2,4.6,0.7,6.1
		c0.7,2.2,3.2,6.2,9.2,6.2c6.3,0,8.8-3,9.7-5.7C183.5,45.3,183.7,44.3,183.7,41.8 M144.6,32.6h-9.4l4.2-24c0.2-1.4,0.4-2.9,0.6-4.4
		c0.2,1.6,0.4,3.2,0.7,4.8L144.6,32.6z M151.5,51.4l-9.2-51.1h-4.9l-9.3,51.1h3.7l2.7-15.5h10.7l2.6,15.5H151.5z M121.7,3.7V0.6
		h-21.5v3.2h8.9v47.7h3.6V3.7H121.7z M88.1,51.4V0.6h-3.5l0.5,48.9L72.9,0.6h-5.2v50.8h3.4l-0.3-48l11.8,48H88.1z M50.6,39.7
		c0,3-0.1,6-2.9,8c-1.2,0.9-2.5,1.2-4,1.2c-4,0-5.8-2.6-6.3-4c-0.4-1.3-0.6-2.9-0.6-5.8v-28c0-0.9-0.1-4.9,3-6.9
		c0.6-0.4,1.9-1.1,3.9-1.1c1.7,0,2.9,0.5,3.4,0.8c1.4,0.7,2,1.8,2.3,2.4c1,1.9,1.2,4.3,1.2,8.6V39.7z M54,41V13c0-4,0-8.4-3.6-11.1
		C48.6,0.5,46.3,0,43.9,0c-4.3-0.1-8.3,1.9-9.7,6.1c-0.8,2.3-0.8,5.2-0.8,5.8v28.7c0,3,0.2,5.9,2.2,8.4c2.5,3,6.9,3.1,7.9,3.1
		c5.2,0,7.8-2.5,8.9-4.4C53.8,45.6,54,43.4,54,41 M20.3,41.8v-7.8h-3.6V42c0,0.9,0.1,4.5-3,6.1c-0.6,0.3-1.6,0.7-3.2,0.7
		c-0.6,0-2.2-0.1-3.7-0.9c-0.9-0.5-1.6-1.2-2.1-2.1c-1.5-2.5-1.3-6.8-1.3-9.6V11.3c0-0.9-0.2-5,3-7c1.5-0.9,3-1,3.7-1
		c1.7,0,2.7,0.5,3.3,0.9c1.1,0.6,1.7,1.4,1.9,1.9c0.9,1.7,0.9,3.7,0.9,7.6V17h3.5V9.9c0-0.5,0-2.7-0.7-4.5c-1.4-3.7-5.1-5.3-8.9-5.3
		c-3.2,0-6.2,1-8.2,3.8C-0.1,6.5,0,9.2,0,12.3v27.6c0,3.2,0.2,4.6,0.7,6.1c0.7,2.2,3.2,6.2,9.2,6.2c6.3,0,8.8-3,9.7-5.7
		C20.1,45.3,20.3,44.3,20.3,41.8"/>
</g>
</svg>
