<?xml version="1.0" encoding="utf-8"?>
<!-- Generator: Adobe Illustrator 18.1.0, SVG Export Plug-In . SVG Version: 6.00 Build 0)  -->
<!DOCTYPE svg PUBLIC "-//W3C//DTD SVG 1.1//EN" "http://www.w3.org/Graphics/SVG/1.1/DTD/svg11.dtd">
<svg version="1.1" id="Layer_1" xmlns="http://www.w3.org/2000/svg" xmlns:xlink="http://www.w3.org/1999/xlink" x="0px" y="0px"
	 viewBox="0 0 232.5 52.3" enable-background="new 0 0 232.5 52.3" xml:space="preserve">
<g>
	<defs>
		<rect id="SVGID_1_" x="0" y="0" width="232.5" height="52.3"/>
	</defs>
	<clipPath id="SVGID_2_">
		<use xlink:href="#SVGID_1_"  overflow="visible"/>
	</clipPath>
	<path clip-path="url(#SVGID_2_)" fill="#FFFFFF" d="M232.5,40.3c0-4-0.7-6.8-3.2-10c-1.6-2-3.4-3.7-5.2-5.5
		c-1.2-1.3-2.4-2.5-3.5-3.8c-3.1-3.5-4.4-5.5-4.4-10.3c0-3.7,0.9-5.8,2.5-6.8c1.4-0.9,3.1-0.9,3.6-0.9c4.4,0,5.5,2.7,5.8,4.5
		c0.2,1,0.2,1.6,0.2,3.4v4.5h3.5v-3.7c0-3.7,0-8-3.5-10.3c-2.3-1.4-5.2-1.4-6-1.4c-7.1,0-8.8,4.5-9.3,7.4c-0.3,1.4-0.3,3.5-0.3,3.8
		c0,4.9,1.7,7.8,2.9,9.4c1.1,1.5,2.9,3.5,5.8,6.4c0.5,0.4,3.9,3.7,5.8,6.6c0.9,1.5,1.8,3.3,1.8,7.3c0,4.2-1,6.3-2.8,7.4
		c-1.5,0.9-3.1,0.9-3.7,0.9c-6.6,0-7.3-4.6-7.5-7.1c-0.1-1.1,0-2.1,0-3.2v-4.1h-3.5v7.2c0,1.5,0.1,2.7,0.6,4.1
		c0.6,1.5,1.4,2.7,2.5,3.7c0.7,0.6,1.3,1,1.7,1.2c1.6,0.9,3.9,1.2,5.8,1.2c4.9,0,7.4-1.9,8.6-3.7C231.7,47.1,232.5,44.6,232.5,40.3
		 M199.9,3.9V0.7h-18v50.8h17.9v-3.2h-14.5V26.6h12v-3.1h-12V3.9H199.9z M168.6,41.9v-7.8H165v8.1c0,0.9,0.1,4.5-3,6.1
		c-0.6,0.3-1.6,0.7-3.2,0.7c-0.6,0-2.2-0.1-3.7-0.9c-0.9-0.5-1.6-1.2-2.1-2.1c-1.5-2.5-1.3-6.8-1.3-9.6V11.4c0-0.9-0.2-5,3-7
		c1.5-0.9,3-1,3.7-1c1.7,0,2.7,0.5,3.3,0.9c1.1,0.6,1.7,1.4,1.9,1.9c0.9,1.7,0.9,3.7,0.9,7.6v3.4h3.5V10c0-0.5,0-2.7-0.7-4.5
		c-1.4-3.7-5.1-5.3-8.9-5.3c-3.2,0-6.2,1-8.2,3.8c-1.9,2.6-1.9,5.3-1.9,8.4V40c0,3.2,0.2,4.6,0.7,6.1c0.7,2.2,3.2,6.2,9.2,6.2
		c6.3,0,8.8-3,9.7-5.7C168.3,45.4,168.6,44.4,168.6,41.9 M134.6,0.7H131v50.8h3.7V0.7z M118.1,0.7h-3.6l-7.4,43.3l-6.8-43.3h-3.7
		l8.6,50.8h3.7L118.1,0.7z M81.2,18.4c0,1,0.1,3.9-3.1,5c-1.2,0.4-2.7,0.4-3,0.4h-6.5v-20h6.6c1.3,0,2.4,0.1,3.7,0.7
		c2.2,1.2,2.3,3.9,2.3,6V18.4z M87.2,51.6l-9.3-25c1.1-0.2,1.3-0.4,1.9-0.6c1.2-0.5,4-1.7,4.9-5.3c0.3-1.2,0.3-3.1,0.3-3.2V9.6
		c0-1,0.1-4.8-2.8-7.1c-2.2-1.7-4.6-1.8-7.2-1.8h-9.9v50.8h3.5V26.8h5.5l9.3,24.8H87.2z M52.3,3.9V0.7h-18v50.8h17.9v-3.2H37.8V26.6
		h12v-3.1h-12V3.9H52.3z M21,40.3c0-4-0.7-6.8-3.2-10c-1.6-2-3.4-3.7-5.2-5.5c-1.2-1.3-2.4-2.5-3.5-3.8C6,17.4,4.8,15.5,4.8,10.7
		c0-3.7,0.9-5.8,2.5-6.8C8.7,3,10.4,3,10.9,3c4.4,0,5.5,2.7,5.8,4.5c0.2,1,0.2,1.6,0.2,3.4v4.5h3.5v-3.7c0-3.7,0-8-3.5-10.3
		C14.5,0,11.6,0,10.8,0C3.7,0,2,4.5,1.5,7.4c-0.3,1.4-0.3,3.5-0.3,3.8c0,4.9,1.7,7.8,2.9,9.4c1.1,1.5,2.9,3.5,5.8,6.4
		c0.5,0.4,3.9,3.7,5.8,6.6c0.9,1.5,1.8,3.3,1.8,7.3c0,4.2-1,6.3-2.8,7.4c-1.5,0.9-3.1,0.9-3.7,0.9c-6.6,0-7.3-4.6-7.5-7.1
		c-0.1-1.1,0-2.1,0-3.2v-4.1H0v7.2c0,1.5,0.1,2.7,0.6,4.1c0.6,1.5,1.4,2.7,2.5,3.7c0.7,0.6,1.3,1,1.7,1.2c1.6,0.9,3.9,1.2,5.8,1.2
		c4.9,0,7.4-1.9,8.6-3.7C20.2,47.1,21,44.6,21,40.3"/>
</g>
</svg>
