<?xml version="1.0" encoding="utf-8"?>
<!-- Generator: Adobe Illustrator 18.1.0, SVG Export Plug-In . SVG Version: 6.00 Build 0)  -->
<!DOCTYPE svg PUBLIC "-//W3C//DTD SVG 1.1//EN" "http://www.w3.org/Graphics/SVG/1.1/DTD/svg11.dtd">
<svg version="1.1" id="Layer_1" xmlns="http://www.w3.org/2000/svg" xmlns:xlink="http://www.w3.org/1999/xlink" x="0px" y="0px"
	 viewBox="0 0 224.8 52.6" enable-background="new 0 0 224.8 52.6" xml:space="preserve">
<g>
	<defs>
		<rect id="SVGID_1_" x="0" y="0" width="224.8" height="52.6"/>
	</defs>
	<clipPath id="SVGID_2_">
		<use xlink:href="#SVGID_1_"  overflow="visible"/>
	</clipPath>
	<path clip-path="url(#SVGID_2_)" fill="#FFFFFF" d="M217.6,45.2h-3.5v6.5h3.5V45.2z M224.8,14.5c0-5.1-0.2-7.6-1.3-9.9
		C222,1.6,219.2,0,215.8,0c-4.5,0-6.6,2.6-7.4,4.1c-1.9,3.5-1.4,9.1-1.4,12.9h3.4c-0.1-1.4-0.1-3-0.1-4.4c0-2.8,0.1-6.7,2.6-8.6
		c1.2-0.9,2.2-0.9,2.8-0.9c0.9,0,1.6,0.1,2.4,0.5c2.9,1.4,3.2,5.3,3.2,7.9c0.1,1.2,0.1,2.4,0.1,3.7c0,4.5-1.2,6.2-2.4,8.1
		c-0.6,0.8-1.1,1.6-1.7,2.4l-1.7,2.5c-1.7,2.4-1.5,3.5-1.5,5.1v6h3.5v-5.6c0-1.4,0.1-2.2,0.8-3.5c0.9-1.7,2.2-3.2,3.3-4.8
		C224.3,21.5,224.8,19.2,224.8,14.5 M193.6,40.5c0-4-0.7-6.8-3.2-10c-1.6-2-3.4-3.7-5.2-5.5c-1.2-1.3-2.4-2.5-3.5-3.8
		c-3.1-3.5-4.4-5.5-4.4-10.3c0-3.7,0.9-5.8,2.5-6.8c1.4-0.9,3.1-0.9,3.6-0.9c4.4,0,5.5,2.7,5.8,4.5c0.2,1,0.2,1.6,0.2,3.4v4.5h3.5
		v-3.7c0-3.7,0-8-3.5-10.3c-2.3-1.4-5.2-1.4-6-1.4c-7.1,0-8.8,4.5-9.3,7.4c-0.3,1.4-0.3,3.5-0.3,3.8c0,4.9,1.7,7.8,2.9,9.4
		c1.1,1.5,2.9,3.5,5.8,6.4c0.5,0.4,3.9,3.7,5.8,6.6c0.9,1.5,1.8,3.3,1.8,7.3c0,4.2-1,6.3-2.8,7.4c-1.5,0.9-3.1,0.9-3.7,0.9
		c-6.6,0-7.3-4.6-7.5-7.1c-0.1-1.1,0-2.1,0-3.2v-4.1h-3.5v7.2c0,1.5,0.1,2.7,0.6,4.1c0.6,1.5,1.4,2.7,2.5,3.7c0.7,0.6,1.3,1,1.7,1.2
		c1.6,0.9,3.9,1.2,5.8,1.2c4.9,0,7.4-1.9,8.6-3.7C192.9,47.2,193.6,44.7,193.6,40.5 M159.3,41.6V0.9h-3.5v37.4c0,5.3,0.1,8-2.3,9.8
		c-1.5,1.2-3.7,1.2-4.2,1.2c-3.2,0-4.8-1.4-5.6-2.6c-0.9-1.4-1.2-3.1-1.2-6.4V0.9h-3.5v38.8c0,3.3-0.1,6.5,2,9.4
		c0.4,0.6,0.9,1.2,1.6,1.7c2.4,1.8,5.6,1.9,6.4,1.9c1.6,0,7.4-0.2,9.5-5.8C159.2,45.1,159.3,43.3,159.3,41.6 M106.5,0.9h-3.9
		l-8.1,23.9L86.4,0.9h-3.7l10,28.4v22.5h3.5V29.2L106.5,0.9z M70.3,51.7V0.9h-3.5v22.6H53.6V0.9h-3.5v50.8h3.5V26.6h13.1v25.1H70.3z
		 M37.5,0.9H34l-6.6,43.2L20.7,0.9H17l-6.6,43.2L3.6,0.9H0l8.6,50.8h3.7L18.9,8l6.6,43.7h3.8L37.5,0.9z"/>
</g>
</svg>
