<?xml version="1.0" encoding="utf-8"?>
<!-- Generator: Adobe Illustrator 18.1.0, SVG Export Plug-In . SVG Version: 6.00 Build 0)  -->
<!DOCTYPE svg PUBLIC "-//W3C//DTD SVG 1.1//EN" "http://www.w3.org/Graphics/SVG/1.1/DTD/svg11.dtd">
<svg version="1.1" id="Layer_1" xmlns="http://www.w3.org/2000/svg" xmlns:xlink="http://www.w3.org/1999/xlink" x="0px" y="0px"
	 viewBox="0 0 138.4 52.1" enable-background="new 0 0 138.4 52.1" xml:space="preserve">
<g>
	<defs>
		<rect id="SVGID_1_" y="0" width="138.4" height="52.1"/>
	</defs>
	<clipPath id="SVGID_2_">
		<use xlink:href="#SVGID_1_"  overflow="visible"/>
	</clipPath>
	<path clip-path="url(#SVGID_2_)" fill="#FFFFFF" d="M138.4,51.4l-10.9-30.6l10.8-20.2h-4l-12.7,24.9V0.6h-3.5v50.8h3.5V32.1
		l3.7-7.1l9.3,26.4H138.4z M99.9,18.2c0,1,0.1,3.9-3.1,5c-1.2,0.4-2.7,0.4-3,0.4h-6.5v-20h6.6c1.3,0,2.4,0.1,3.7,0.7
		c2.2,1.2,2.3,3.9,2.3,6V18.2z M105.9,51.4l-9.3-25c1.1-0.2,1.3-0.4,1.9-0.6c1.2-0.5,4-1.7,4.9-5.3c0.3-1.2,0.3-3.1,0.3-3.2V9.4
		c0-1,0.1-4.8-2.8-7.1c-2.2-1.7-4.6-1.8-7.2-1.8h-9.9v50.8h3.5V26.6h5.5l9.3,24.8H105.9z M66.5,39.7c0,3-0.1,6-2.9,8
		c-1.2,0.9-2.5,1.2-4,1.2c-4,0-5.8-2.6-6.3-4c-0.4-1.3-0.6-2.9-0.6-5.8v-28c0-0.9-0.1-4.9,3-6.9c0.6-0.4,1.9-1.1,3.9-1.1
		c1.7,0,2.9,0.5,3.4,0.8c1.4,0.7,2,1.8,2.3,2.4c1,1.9,1.2,4.3,1.2,8.6V39.7z M69.9,41V13c0-4,0-8.4-3.6-11.1C64.5,0.5,62.2,0,59.8,0
		c-4.3-0.1-8.3,1.9-9.7,6.1c-0.8,2.3-0.8,5.2-0.8,5.8v28.7c0,3,0.2,5.9,2.2,8.4c2.5,3,6.9,3.1,7.9,3.1c5.2,0,7.8-2.5,8.9-4.4
		C69.7,45.6,69.9,43.4,69.9,41 M37.5,0.6H34l-6.6,43.2L20.7,0.6H17l-6.6,43.2L3.6,0.6H0l8.6,50.8h3.7l6.6-43.7l6.6,43.7h3.8
		L37.5,0.6z"/>
</g>
</svg>
