<?xml version="1.0" encoding="utf-8"?>
<!-- Generator: Adobe Illustrator 18.1.0, SVG Export Plug-In . SVG Version: 6.00 Build 0)  -->
<!DOCTYPE svg PUBLIC "-//W3C//DTD SVG 1.1//EN" "http://www.w3.org/Graphics/SVG/1.1/DTD/svg11.dtd">
<svg version="1.1" xmlns="http://www.w3.org/2000/svg" xmlns:xlink="http://www.w3.org/1999/xlink" x="0px" y="0px"
	 viewBox="0 0 600 600" enable-background="new 0 0 600 600" xml:space="preserve">
<g id="Layer_1" display="none">
	<g display="inline">
		<path d="M476.3,376.7v-63.5H472l0.6,61.1l-15.2-61.1h-6.5v63.5h4.2l-0.4-60l14.8,60H476.3z M432.2,362c0,3.7-0.2,7.6-3.6,10
			c-1.4,1.1-3.1,1.5-4.9,1.5c-5,0-7.3-3.2-7.9-4.9c-0.5-1.6-0.7-3.6-0.7-7.2v-35c0-1.1-0.2-6.1,3.7-8.6c0.7-0.5,2.3-1.4,4.9-1.4
			c2.1,0,3.6,0.6,4.2,1c1.8,0.9,2.5,2.2,2.9,3c1.3,2.4,1.5,5.4,1.5,10.7V362z M436.4,363.7v-35.1c0-4.9,0-10.4-4.5-13.9
			c-2.3-1.7-5.2-2.3-8.1-2.3c-5.4-0.1-10.4,2.3-12.1,7.6c-1,2.9-1,6.5-1,7.2v35.8c0,3.8,0.3,7.4,2.8,10.5c3.1,3.8,8.6,3.9,9.9,3.9
			c6.5,0,9.8-3.2,11.2-5.5C436.2,369.4,436.4,366.7,436.4,363.7 M396.1,313.1h-4.6v63.5h4.6V313.1z M381.1,317.1v-4h-26.8v4h11.1
			v59.6h4.5v-59.6H381.1z M345.5,364.6v-9.8H341V365c0,1.2,0.2,5.6-3.8,7.6c-0.7,0.4-2,0.9-4,0.9c-0.8,0-2.7-0.1-4.6-1.1
			c-1.1-0.6-2-1.4-2.6-2.6c-1.9-3.1-1.6-8.5-1.6-12v-31.3c0-1.1-0.3-6.3,3.8-8.7c1.9-1.2,3.8-1.3,4.6-1.3c2.2,0,3.3,0.6,4.1,1.1
			c1.3,0.8,2.1,1.8,2.3,2.3c1.1,2.1,1.2,4.7,1.2,9.5v4.2h4.3v-8.9c0-0.6,0-3.4-0.9-5.7c-1.8-4.7-6.4-6.6-11.2-6.6
			c-4.1,0-7.7,1.3-10.3,4.8c-2.4,3.2-2.3,6.7-2.3,10.5v34.5c0,4,0.3,5.8,0.9,7.6c0.9,2.7,4,7.7,11.5,7.7c7.8,0,11-3.8,12.2-7.1
			C345.2,369,345.5,367.8,345.5,364.6 M305.7,364.1v-50.9h-4.4v46.7c0,6.6,0.1,10-2.9,12.2c-1.9,1.5-4.6,1.5-5.2,1.5
			c-4,0-6-1.7-7-3.2c-1.1-1.7-1.4-3.9-1.4-8v-49.2h-4.3v48.5c0,4.1-0.2,8.1,2.5,11.7c0.5,0.8,1.2,1.5,2,2.1c3,2.2,7,2.3,8,2.3
			c2,0,9.3-0.3,11.9-7.3C305.5,368.5,305.7,366.2,305.7,364.1 M261.6,353.6c0,9.3-1.1,13.9-5.2,16.9c-2.5,1.7-5,2.2-7.8,2.2h-3.6
			v-55.5h3.3c0.5,0,2.7,0.2,4.5,0.6c1.3,0.4,4.7,1.6,6.6,5.1c2.2,4,2.2,11.6,2.2,16.1V353.6z M265.9,353.3v-14.1
			c0-10.8-0.8-16.6-4.3-20.8c-4-4.8-9.8-5.2-15.6-5.2h-5.5v63.5h8.4c0.4,0,3,0,5-0.5c3.1-0.7,5.3-2.4,6.3-3.2
			c4.3-3.7,5.2-8.6,5.6-14C265.9,357,265.9,355.2,265.9,353.3 M221.3,362c0,3.7-0.2,7.6-3.6,10c-1.4,1.1-3.2,1.5-4.9,1.5
			c-5,0-7.3-3.2-7.9-4.9c-0.5-1.6-0.7-3.6-0.7-7.2v-35c0-1.1-0.2-6.1,3.7-8.6c0.7-0.5,2.3-1.4,4.9-1.4c2.1,0,3.6,0.6,4.2,1
			c1.8,0.9,2.5,2.2,2.9,3c1.3,2.4,1.5,5.4,1.5,10.7V362z M225.6,363.7v-35.1c0-4.9,0-10.4-4.5-13.9c-2.3-1.7-5.2-2.3-8.1-2.3
			c-5.4-0.1-10.4,2.3-12.1,7.6c-1,2.9-1,6.5-1,7.2v35.8c0,3.8,0.3,7.4,2.8,10.5c3.2,3.8,8.6,3.9,9.9,3.9c6.5,0,9.8-3.2,11.2-5.5
			C225.3,369.4,225.6,366.7,225.6,363.7 M182.2,335.2c0,1.3,0.1,4.9-3.9,6.2c-1.5,0.5-3.3,0.5-3.8,0.5h-8.1v-25h8.3
			c1.6,0,3.1,0.1,4.6,0.9c2.7,1.5,2.9,4.9,2.9,7.6V335.2z M189.7,376.7l-11.6-31.2c1.3-0.3,1.6-0.5,2.3-0.7c1.4-0.6,4.9-2.2,6.1-6.6
			c0.4-1.4,0.4-3.9,0.4-4v-9.9c0-1.3,0.2-5.9-3.5-8.8c-2.7-2.1-5.8-2.2-9-2.2H162v63.5h4.4v-31h6.9l11.6,31H189.7z M144.1,334.5
			c0,0.5,0.4,4.9-2.1,7.3c-1.9,2-4.4,2.2-6.8,2.2H128v-27.2h6.8c3.7,0,5.1,0.3,6.8,1.5c2.5,1.9,2.6,4.9,2.6,10.6V334.5z
			 M148.4,334.5v-7.2c0-4.7,0-8.8-3.4-11.6c-3.2-2.7-7.6-2.5-11.4-2.5h-9.9v63.5h4.4v-29h6.5c2.8,0,8.1-0.2,11.3-4
			C148.4,340.8,148.4,337.9,148.4,334.5"/>
		<path d="M371.7,227.1v-4h-26.8v4H356v59.6h4.5v-59.6H371.7z M336.1,272.6c0-5-0.9-8.5-4-12.5c-2-2.5-4.2-4.7-6.5-6.9
			c-1.5-1.6-3-3.1-4.3-4.8c-3.9-4.4-5.5-6.8-5.5-12.9c0-4.7,1.2-7.2,3.1-8.5c1.8-1.1,3.9-1.1,4.5-1.1c5.5,0,6.8,3.4,7.2,5.6
			c0.3,1.3,0.3,2,0.3,4.2v5.7h4.3v-4.6c0-4.6,0-10-4.4-12.9c-2.9-1.8-6.5-1.8-7.5-1.8c-8.9,0-11,5.7-11.6,9.3
			c-0.4,1.8-0.4,4.4-0.4,4.8c0,6.1,2.1,9.7,3.6,11.8c1.4,1.9,3.6,4.4,7.3,8c0.6,0.5,4.9,4.6,7.2,8.2c1.2,1.9,2.2,4.1,2.2,9.1
			c0,5.2-1.3,7.9-3.5,9.3c-1.9,1.2-3.9,1.2-4.6,1.2c-8.2,0-9.2-5.8-9.4-8.8c-0.1-1.4,0-2.6,0-4v-5.1h-4.4v9c0,1.9,0.1,3.3,0.7,5.1
			c0.7,1.9,1.7,3.3,3.1,4.6c0.9,0.8,1.6,1.3,2.1,1.5c2,1.1,4.9,1.5,7.3,1.5c6.1,0,9.3-2.4,10.8-4.7
			C335.1,281.1,336.1,278,336.1,272.6 M292.3,272c0,3.7-0.2,7.6-3.6,10c-1.4,1.1-3.2,1.5-5,1.5c-5,0-7.3-3.2-7.9-5
			c-0.5-1.6-0.7-3.6-0.7-7.2v-35c0-1.1-0.2-6.1,3.7-8.6c0.7-0.4,2.3-1.4,4.9-1.4c2.1,0,3.6,0.6,4.2,1c1.8,0.9,2.5,2.2,2.9,3
			c1.3,2.4,1.5,5.4,1.5,10.7V272z M296.5,273.7v-35.1c0-4.9,0-10.4-4.5-13.9c-2.3-1.7-5.2-2.3-8.1-2.3c-5.4-0.1-10.3,2.3-12.1,7.6
			c-1,2.9-1,6.5-1,7.2v35.8c0,3.8,0.3,7.4,2.8,10.5c3.1,3.8,8.6,3.9,9.9,3.9c6.5,0,9.8-3.1,11.2-5.5
			C296.2,279.4,296.5,276.7,296.5,273.7 M253.3,244.5c0,0.5,0.4,4.9-2.1,7.3c-1.9,2-4.4,2.2-6.8,2.2h-7.2v-27.2h6.8
			c3.7,0,5.1,0.3,6.8,1.5c2.5,1.9,2.6,5,2.6,10.6V244.5z M257.6,244.5v-7.2c0-4.7,0-8.8-3.4-11.6c-3.2-2.7-7.6-2.5-11.4-2.5h-9.9
			v63.5h4.4v-29h6.5c2.8,0,8.1-0.2,11.3-4C257.5,250.8,257.6,247.9,257.6,244.5"/>
	</g>
</g>
<g id="Layer_2">
	<g>
		<path fill="#FFFFFF" d="M326.4,226.9c3,1,3.9,3.4,4.2,5.1c0.3,1.3,0.3,2,0.3,4.2v5.7h4.3v-4.6c0-4.6,0-10-4.4-12.9
			c-1.4-0.9-3-1.3-4.4-1.6V226.9z"/>
		<path fill="#FFFFFF" d="M332.1,260.6c-2-2.5-4.2-4.7-6.5-6.9c-1.5-1.6-3-3.2-4.3-4.8c-3.9-4.4-5.5-6.8-5.5-12.9
			c0-4.7,1.2-7.2,3.2-8.5c0.2-0.1,0.4-0.2,0.6-0.3v-4.1c-5.8,1.4-7.3,5.8-7.8,8.9c-0.4,1.8-0.4,4.4-0.4,4.8c0,6.1,2.1,9.7,3.6,11.8
			c1.4,1.9,3.6,4.4,7.3,8c0.6,0.5,4.9,4.6,7.2,8.2c1.2,1.9,2.3,4.1,2.3,9.1c0,5.2-1.3,7.9-3.5,9.3c-0.6,0.4-1.2,0.6-1.8,0.8v4
			c4-0.7,6.2-2.6,7.4-4.4c1.3-1.9,2.3-5,2.3-10.4C336.1,268,335.2,264.5,332.1,260.6z"/>
		<path fill="#FFFFFF" d="M319.6,283.6c-4.5-1.6-5.2-5.8-5.3-8.2c-0.1-1.4,0-2.6,0-4v-5.1h-4.4v9c0,1.9,0.1,3.3,0.7,5.1
			c0.7,1.9,1.7,3.3,3.2,4.6c0.9,0.8,1.6,1.3,2.1,1.5c1.1,0.6,2.4,1,3.8,1.2V283.6z"/>
	</g>
	<path fill="#FFFFFF" d="M393,377.7v-63.6h4.6v63.6H393z"/>
	<g>
		<path fill="#FFFFFF" d="M337.1,318.1c0.3,0.1,0.5,0.2,0.7,0.4c1.4,0.8,2.1,1.8,2.3,2.3c1.1,2.1,1.2,4.7,1.2,9.5v4.2h4.3v-8.9
			c0-0.6,0-3.4-0.9-5.7c-1.3-3.5-4.3-5.4-7.6-6.2V318.1z"/>
		<path fill="#FFFFFF" d="M341.9,355.7v10.2c0,1.2,0.2,5.6-3.8,7.7c-0.3,0.1-0.6,0.3-1,0.4v4.3c5.2-1,7.5-4,8.4-6.8
			c0.5-1.5,0.8-2.8,0.8-5.9v-9.8H341.9z"/>
		<path fill="#FFFFFF" d="M330.2,373.6c-0.2-0.1-0.5-0.2-0.7-0.3c-1.1-0.6-2-1.4-2.6-2.6c-1.9-3.2-1.6-8.6-1.6-12v-31.3
			c0-1.1-0.3-6.3,3.8-8.7c0.4-0.2,0.8-0.4,1.1-0.6v-4.4c-2.7,0.6-5.1,1.9-6.9,4.4c-2.4,3.2-2.3,6.7-2.3,10.5v34.5
			c0,4,0.3,5.8,0.9,7.7c0.8,2.3,3.1,6.2,8.3,7.4V373.6z"/>
	</g>
	<g>
		<path fill="#FFFFFF" d="M301.9,313.8v46.7c0,6.6,0.1,10-2.9,12.2c-0.6,0.5-1.3,0.8-1.9,1v4.3c2.9-0.6,6.6-2.3,8.3-6.9
			c0.7-2,0.9-4.2,0.9-6.4v-51H301.9z"/>
		<path fill="#FFFFFF" d="M290.2,373.7c-1.7-0.6-2.8-1.7-3.4-2.7c-1.1-1.7-1.4-3.9-1.4-8v-49.2H281v48.5c0,4.1-0.2,8.1,2.5,11.7
			c0.5,0.8,1.2,1.5,2,2.1c1.5,1.1,3.2,1.7,4.7,2V373.7z"/>
	</g>
	<g>
		<rect x="163.2" y="314.2" fill="#FFFFFF" width="4.4" height="63.6"/>
		<path fill="#FFFFFF" d="M179.2,346.5c1.4-0.3,1.6-0.5,2.3-0.7c1.4-0.6,5-2.2,6.1-6.6c0.4-1.4,0.4-3.9,0.4-4.1v-9.9
			c0-1.3,0.2-5.9-3.5-8.8c-2.7-2.1-5.8-2.3-9-2.3h-1v3.8h1.4c1.6,0,3.1,0.1,4.6,0.9c2.7,1.5,2.9,4.9,2.9,7.6v9.8
			c0,1.3,0.1,4.9-3.9,6.2c-1.5,0.5-3.3,0.5-3.8,0.5h-1.2v3.8h0l11.6,31h4.7L179.2,346.5z"/>
	</g>
	<g>
		<path fill="#FFFFFF" d="M209.9,373.9c-2.6-1-3.9-3.1-4.4-4.3c-0.5-1.6-0.7-3.6-0.7-7.2v-35c0-1.1-0.2-6.1,3.7-8.6
			c0.3-0.2,0.8-0.5,1.4-0.7v-4.2c-3.8,0.9-7.1,3.2-8.4,7.3c-1,2.9-1,6.5-1,7.2v35.8c0,3.8,0.3,7.4,2.8,10.5c1.8,2.2,4.5,3.2,6.6,3.6
			V373.9z"/>
		<path fill="#FFFFFF" d="M221.7,315.8c-1.5-1.1-3.2-1.7-4.9-2.1v4.3c0.3,0.1,0.6,0.3,0.8,0.4c1.8,0.9,2.5,2.3,2.9,3
			c1.3,2.4,1.5,5.4,1.5,10.7v31c0,3.7-0.2,7.6-3.6,10c-0.5,0.4-1,0.7-1.6,0.9v4.2c4.1-0.9,6.5-3.3,7.5-5.1c1.6-2.6,1.9-5.3,1.9-8.3
			v-35.1C226.2,324.7,226.2,319.2,221.7,315.8z"/>
	</g>
	<g>
		<path fill="#FFFFFF" d="M281.2,283.3c-2.6-1-3.9-3.1-4.4-4.3c-0.5-1.6-0.7-3.6-0.7-7.2v-35c0-1.1-0.2-6.1,3.7-8.6
			c0.3-0.2,0.8-0.5,1.4-0.7v-4.2c-3.8,0.9-7.1,3.2-8.4,7.3c-1,2.9-1,6.5-1,7.2v35.8c0,3.8,0.3,7.4,2.8,10.5c1.8,2.2,4.5,3.2,6.6,3.6
			V283.3z"/>
		<path fill="#FFFFFF" d="M293,225.2c-1.5-1.1-3.2-1.7-4.9-2.1v4.3c0.3,0.1,0.6,0.3,0.8,0.4c1.8,0.9,2.5,2.3,2.9,3
			c1.3,2.4,1.5,5.4,1.5,10.7v31c0,3.7-0.2,7.6-3.6,10c-0.5,0.4-1,0.7-1.6,0.9v4.2c4.1-0.9,6.5-3.3,7.5-5.1c1.6-2.6,1.9-5.3,1.9-8.3
			V239C297.5,234.1,297.5,228.6,293,225.2z"/>
	</g>
	<g>
		<path fill="#FFFFFF" d="M421.5,373.9c-2.6-1-3.9-3.1-4.4-4.3c-0.5-1.6-0.7-3.6-0.7-7.2v-35c0-1.1-0.2-6.1,3.7-8.6
			c0.3-0.2,0.8-0.5,1.4-0.7v-4.2c-3.8,0.9-7.1,3.2-8.4,7.3c-1,2.9-1,6.5-1,7.2v35.8c0,3.8,0.3,7.4,2.8,10.5c1.8,2.2,4.5,3.2,6.6,3.6
			V373.9z"/>
		<path fill="#FFFFFF" d="M433.3,315.8c-1.5-1.1-3.2-1.7-4.9-2.1v4.3c0.3,0.1,0.6,0.3,0.8,0.4c1.8,0.9,2.5,2.3,2.9,3
			c1.3,2.4,1.5,5.4,1.5,10.7v31c0,3.7-0.2,7.6-3.6,10c-0.5,0.4-1,0.7-1.6,0.9v4.2c4.1-0.9,6.5-3.3,7.5-5.1c1.6-2.6,1.9-5.3,1.9-8.3
			v-35.1C437.8,324.7,437.8,319.2,433.3,315.8z"/>
	</g>
	<g>
		<rect x="241.5" y="314" fill="#FFFFFF" width="4.6" height="64"/>
		<path fill="#FFFFFF" d="M267.6,351.4v-11c0-8.2-0.5-16-4.6-21c-3.9-4.8-9.1-5.5-10.1-5.5v4.1c2.3,0.5,5.9,2.3,7.8,5.9
			c1.8,3.7,2.3,8.2,2.3,16.5v11c0,8.2-0.5,12.8-2.3,16.5c-1.8,3.7-5.5,5.5-7.8,5.9v4.1c0.9,0,6.1-0.7,10.1-5.5
			C267.1,367.4,267.6,359.7,267.6,351.4z"/>
	</g>
	<path fill="#FFFFFF" d="M149.4,336.8c0,6.4-2.3,11.9-12.3,11.9h-1.4V345h1.4c5.9,0,7.8-3.7,7.8-8.2v-11c0-4.6-1.8-8.2-7.8-8.2h-1.4
		V314h1.4c10,0,12.3,5.5,12.3,11.9V336.8z M128.8,377.9h-4.6v-64h4.6V377.9z"/>
	<path fill="#FFFFFF" d="M258.7,246.2c0,6.4-2.3,11.9-12.3,11.9H245v-3.7h1.4c5.9,0,7.8-3.7,7.8-8.2v-11c0-4.6-1.8-8.2-7.8-8.2H245
		v-3.7h1.4c10,0,12.3,5.5,12.3,11.9V246.2z M238.1,287.3h-4.6v-64h4.6V287.3z"/>
	<g>
		<rect x="377.1" y="314.2" fill="#FFFFFF" width="4.3" height="4"/>
		<rect x="354.6" y="314.2" fill="#FFFFFF" width="4.2" height="4"/>
		<polygon fill="#FFFFFF" points="365.7,377.7 370.2,377.7 370.2,318.1 370.2,318.1 370.2,314.2 365.7,314.2 		"/>
	</g>
	<g>
		<rect x="367.9" y="223.6" fill="#FFFFFF" width="4.3" height="4"/>
		<rect x="345.4" y="223.6" fill="#FFFFFF" width="4.2" height="4"/>
		<polygon fill="#FFFFFF" points="356.5,287.1 361,287.1 361,227.5 361,227.5 361,223.6 356.5,223.6 		"/>
	</g>
	<g>
		<polygon fill="#FFFFFF" points="451.6,329.9 451.6,376.1 455.8,376.1 455.6,346.1 		"/>
		<polygon fill="#FFFFFF" points="473.3,375.7 458,314.6 454.5,314.6 455.4,318.4 455.4,318.1 461.1,341.2 470.3,378.1 473.9,378.1 
			473.2,375.5 		"/>
		<polygon fill="#FFFFFF" points="473.2,313.8 473.5,344.6 477.5,360.6 477.5,313.8 		"/>
	</g>
</g>
</svg>
