<?xml version="1.0" encoding="utf-8"?>
<!-- Generator: Adobe Illustrator 18.1.0, SVG Export Plug-In . SVG Version: 6.00 Build 0)  -->
<!DOCTYPE svg PUBLIC "-//W3C//DTD SVG 1.1//EN" "http://www.w3.org/Graphics/SVG/1.1/DTD/svg11.dtd">
<svg version="1.1" xmlns="http://www.w3.org/2000/svg" xmlns:xlink="http://www.w3.org/1999/xlink" x="0px" y="0px"
	 viewBox="0 0 600 600" enable-background="new 0 0 600 600" xml:space="preserve">
<g id="Layer_1" display="none">
	<g display="inline">
		<path d="M406,331.7v-29h-13.8v3.9h9.4v10.2c0,1.7,0.1,6.6-4.1,10.1c-1.4,1.2-3,1.9-4.9,1.9c-4.2,0-6.3-3-6.9-4.3
			c-1.2-2.3-1.3-5.1-1.3-10.4V284c0-4-0.4-8.2,3.1-11.1c2.2-1.7,4.7-1.7,5.6-1.7c4.6,0,6.6,2.2,7.4,4.1c0.8,1.9,0.9,4.8,0.9,6.8v6.6
			h4.2v-8.8c0-0.4,0-3-0.5-4.7c-1-3.2-3.9-7.6-11.8-7.6c-4.2,0-6.5,0.9-8.1,2c-0.4,0.3-1.2,0.7-2.1,1.7c-2.8,2.8-3.1,7.1-3.1,10.8
			v33.4c0,6.7,0.4,9.5,2.4,12.4c2.1,3.2,5.8,4.9,9.5,4.9c4.9,0,7.8-2.6,9-3.9c0.5-0.5,0.8-0.9,1.6-2.1v5H406z M365.3,331.7v-63.5
			H361l0.6,61.1l-15.2-61.1H340v63.5h4.2l-0.4-60l14.8,60H365.3z M325.3,268.1h-4.6v63.5h4.6V268.1z M310.3,272.1v-4h-26.8v4h11.1
			v59.6h4.5v-59.6H310.3z M273.1,268.1h-4.6v63.5h4.6V268.1z M249.6,308.6c0,9.3-1.1,14-5.2,16.9c-2.5,1.7-4.9,2.2-7.8,2.2H233
			v-55.5h3.3c0.5,0,2.7,0.2,4.5,0.6c1.3,0.4,4.7,1.6,6.6,5.1c2.2,4.1,2.2,11.6,2.2,16.1V308.6z M253.9,308.3v-14.1
			c0-10.8-0.8-16.6-4.3-20.8c-4.1-4.8-9.8-5.2-15.6-5.2h-5.5v63.5h8.4c0.4,0,3,0,5-0.5c3.2-0.7,5.3-2.4,6.3-3.2
			c4.3-3.7,5.2-8.6,5.6-14C253.9,312,253.9,310.2,253.9,308.3 M216.5,272.1v-4H194v63.5h22.4v-4h-18.1v-27.3h14.9v-3.9h-14.9v-24.5
			H216.5z"/>
	</g>
</g>
<g id="Layer_2">
	<g>
		<rect x="228.5" y="268.1" fill="#FFFFFF" width="4.6" height="64"/>
		<path fill="#FFFFFF" d="M254.5,305.6v-11c0-8.2-0.5-16-4.6-21c-3.9-4.8-9.1-5.5-10.1-5.5v4.1c2.3,0.5,5.9,2.3,7.8,5.9
			c1.8,3.7,2.3,8.2,2.3,16.5v11c0,8.2-0.5,12.8-2.3,16.5c-1.8,3.7-5.5,5.5-7.8,5.9v4.1c0.9,0,6.1-0.7,10.1-5.5
			C254.1,321.6,254.5,313.8,254.5,305.6z"/>
	</g>
	<path fill="#FFFFFF" d="M268.4,331.9v-63.6h4.6v63.6H268.4z"/>
	<path fill="#FFFFFF" d="M320.6,331.9v-63.6h4.6v63.6H320.6z"/>
	<g>
		<path fill="#FFFFFF" d="M389.8,328.2c-2.3-0.9-3.5-2.8-3.9-3.7c-1.2-2.3-1.3-5.1-1.3-10.4V284c0-4-0.4-8.2,3.1-11.1
			c0.7-0.6,1.4-0.9,2.1-1.2v-4c-2,0.4-3.3,1-4.4,1.7c-0.4,0.3-1.2,0.7-2.1,1.7c-2.8,2.8-3.1,7.1-3.1,10.8v33.4
			c0,6.7,0.5,9.5,2.4,12.4c1.6,2.5,4.2,4.1,7.1,4.6V328.2z"/>
		<path fill="#FFFFFF" d="M396.7,271.8c2.2,0.8,3.4,2.3,3.9,3.5c0.8,1.9,0.9,4.8,0.9,6.8v6.6h4.2v-8.8c0-0.4,0-3-0.4-4.7
			c-0.8-2.8-3.1-6.4-8.6-7.4V271.8z"/>
		<path fill="#FFFFFF" d="M396.7,302.8v3.9h5.1v10.2c0,1.7,0.1,6.6-4.1,10.1c-0.3,0.3-0.6,0.5-1,0.7v4.3c2.3-0.9,3.8-2.3,4.6-3.1
			c0.5-0.5,0.8-0.9,1.6-2.1v5h3.3v-29H396.7z"/>
	</g>
	<g>
		<rect x="306" y="268.3" fill="#FFFFFF" width="4.3" height="4"/>
		<rect x="283.5" y="268.3" fill="#FFFFFF" width="4.2" height="4"/>
		<polygon fill="#FFFFFF" points="294.6,331.9 299.1,331.9 299.1,272.3 299.1,272.3 299.1,268.3 294.6,268.3 		"/>
	</g>
	<g>
		<polygon fill="#FFFFFF" points="340.3,284 340.3,330.2 344.6,330.2 344.4,300.2 		"/>
		<polygon fill="#FFFFFF" points="362,329.8 346.8,268.7 343.2,268.7 344.2,272.5 344.2,272.2 349.9,295.4 359.1,332.2 362.7,332.2 
			362,329.7 		"/>
		<polygon fill="#FFFFFF" points="362,267.9 362.3,298.7 366.3,314.7 366.3,267.9 		"/>
	</g>
	<path fill="#FFFFFF" d="M205.4,268.1h11.8v4.1h-11.8V268.1z M199,332.1h-4.6v-64h4.6V332.1z M205.4,328h11.7v4.1h-11.7V328z
		 M205.4,296.4h8.5v4.1h-8.5V296.4z"/>
</g>
</svg>
