<?xml version="1.0" encoding="utf-8"?>
<!-- Generator: Adobe Illustrator 18.1.0, SVG Export Plug-In . SVG Version: 6.00 Build 0)  -->
<!DOCTYPE svg PUBLIC "-//W3C//DTD SVG 1.1//EN" "http://www.w3.org/Graphics/SVG/1.1/DTD/svg11.dtd">
<svg version="1.1" xmlns="http://www.w3.org/2000/svg" xmlns:xlink="http://www.w3.org/1999/xlink" x="0px" y="0px"
	 viewBox="0 0 600 600" enable-background="new 0 0 600 600" xml:space="preserve">
<g id="Layer_1" display="none">
	<g display="inline">
		<path d="M438.1,376.6v-29h-13.8v3.9h9.4v10.2c0,1.7,0.1,6.6-4.1,10.1c-1.4,1.2-3,1.9-4.9,1.9c-4.2,0-6.3-3-6.9-4.3
			c-1.2-2.3-1.3-5.1-1.3-10.4v-30.1c0-4-0.4-8.2,3.1-11.1c2.2-1.7,4.7-1.7,5.6-1.7c4.6,0,6.6,2.2,7.4,4c0.8,1.9,0.9,4.8,0.9,6.8v6.6
			h4.2v-8.8c0-0.4,0-3-0.5-4.7c-1-3.2-3.9-7.6-11.8-7.6c-4.2,0-6.5,0.9-8.1,2c-0.5,0.3-1.2,0.7-2.1,1.7c-2.8,2.8-3.1,7.1-3.1,10.8
			v33.4c0,6.7,0.5,9.4,2.4,12.4c2.1,3.2,5.8,4.9,9.5,4.9c4.9,0,7.8-2.6,9-3.9c0.5-0.5,0.8-0.9,1.6-2.1v5H438.1z M397.4,376.6v-63.5
			h-4.3l0.6,61.1l-15.2-61.1H372v63.5h4.2l-0.4-60l14.8,60H397.4z M357.4,313.1h-4.6v63.5h4.6V313.1z M342.3,317v-4h-26.8v4h11.1
			v59.6h4.5V317H342.3z M305.2,364v-50.9h-4.4v46.7c0,6.6,0.1,10-2.9,12.2c-1.9,1.5-4.6,1.5-5.2,1.5c-4,0-6-1.7-7-3.2
			c-1.1-1.7-1.4-3.9-1.4-8v-49.2h-4.3v48.5c0,4.1-0.2,8.1,2.5,11.7c0.5,0.8,1.2,1.5,2,2.1c3,2.2,7,2.3,8,2.3c2,0,9.3-0.3,11.9-7.3
			C305,368.4,305.2,366.2,305.2,364 M261,361.9c0,3.7-0.2,7.6-3.6,10c-1.4,1.1-3.1,1.5-4.9,1.5c-5,0-7.3-3.2-7.9-4.9
			c-0.5-1.6-0.7-3.6-0.7-7.2v-35c0-1.1-0.2-6.1,3.7-8.6c0.7-0.5,2.3-1.4,4.9-1.4c2.1,0,3.6,0.6,4.2,1c1.8,0.9,2.5,2.2,2.9,3
			c1.3,2.4,1.5,5.4,1.5,10.7V361.9z M265.2,363.6v-35.1c0-4.9,0-10.4-4.5-13.9c-2.3-1.7-5.2-2.3-8.1-2.3c-5.4-0.1-10.4,2.3-12.1,7.6
			c-1,2.9-1,6.5-1,7.2V363c0,3.8,0.3,7.4,2.8,10.5c3.1,3.8,8.6,3.9,9.9,3.9c6.5,0,9.8-3.2,11.2-5.5
			C264.9,369.3,265.2,366.6,265.2,363.6 M226.4,364.5v-9.8h-4.5v10.2c0,1.2,0.2,5.6-3.8,7.6c-0.7,0.4-2,0.9-4,0.9
			c-0.8,0-2.7-0.1-4.6-1.1c-1.1-0.6-2-1.4-2.6-2.6c-1.9-3.1-1.6-8.5-1.6-12v-31.3c0-1.1-0.3-6.3,3.8-8.7c1.9-1.2,3.8-1.3,4.6-1.3
			c2.2,0,3.3,0.6,4.1,1.1c1.4,0.8,2.1,1.8,2.3,2.3c1.1,2.1,1.2,4.7,1.2,9.5v4.2h4.3v-8.9c0-0.6,0-3.4-0.9-5.7
			c-1.8-4.7-6.4-6.6-11.2-6.6c-4.1,0-7.7,1.3-10.3,4.8c-2.4,3.2-2.3,6.7-2.3,10.5v34.5c0,4,0.3,5.8,0.9,7.7c0.9,2.7,4,7.7,11.5,7.7
			c7.8,0,11-3.8,12.1-7.1C226.2,368.9,226.4,367.7,226.4,364.5 M188.2,362.6c0-5-0.9-8.6-4.1-12.5c-2-2.5-4.2-4.7-6.5-6.9
			c-1.5-1.6-3-3.1-4.3-4.8c-3.9-4.4-5.5-6.8-5.5-12.9c0-4.7,1.2-7.2,3.1-8.5c1.8-1.1,3.9-1.1,4.5-1.1c5.5,0,6.8,3.4,7.2,5.6
			c0.3,1.3,0.3,2,0.3,4.2v5.7h4.3v-4.6c0-4.6,0-10-4.4-12.9c-2.9-1.8-6.5-1.8-7.5-1.8c-8.9,0-11,5.7-11.6,9.3
			c-0.4,1.8-0.4,4.4-0.4,4.8c0,6.1,2.1,9.7,3.6,11.8c1.3,1.9,3.6,4.4,7.3,8c0.6,0.5,4.9,4.6,7.2,8.2c1.2,1.9,2.2,4.1,2.2,9.1
			c0,5.2-1.3,7.9-3.5,9.3c-1.9,1.2-3.9,1.2-4.6,1.2c-8.2,0-9.2-5.8-9.4-8.8c-0.1-1.4,0-2.6,0-4v-5.1h-4.4v9c0,1.9,0.1,3.3,0.7,5.1
			c0.7,1.9,1.7,3.3,3.1,4.6c0.9,0.8,1.6,1.3,2.1,1.5c2,1.1,4.9,1.5,7.3,1.5c6.1,0,9.3-2.4,10.8-4.7
			C187.2,371,188.2,367.9,188.2,362.6"/>
		<path d="M432.2,286.6v-63.5h-4.3l0.6,61.1l-15.2-61.1h-6.5v63.5h4.2l-0.4-60l14.8,60H432.2z M388.1,271.9c0,3.7-0.2,7.6-3.6,10
			c-1.4,1.1-3.1,1.5-4.9,1.5c-5,0-7.3-3.2-7.9-5c-0.5-1.6-0.7-3.6-0.7-7.2v-35c0-1.1-0.2-6.1,3.7-8.6c0.7-0.4,2.3-1.3,4.9-1.3
			c2.1,0,3.6,0.6,4.2,1c1.8,0.9,2.5,2.2,2.9,3c1.3,2.4,1.5,5.4,1.5,10.7V271.9z M392.3,273.6v-35.1c0-4.9,0-10.4-4.5-13.9
			c-2.3-1.7-5.2-2.3-8.1-2.3c-5.4-0.1-10.4,2.3-12.1,7.6c-1,2.9-1,6.5-1,7.2V273c0,3.8,0.3,7.4,2.8,10.5c3.2,3.8,8.6,3.9,9.9,3.9
			c6.5,0,9.8-3.1,11.2-5.5C392.1,279.3,392.3,276.6,392.3,273.6 M352,223.1h-4.6v63.5h4.6V223.1z M337,227v-4h-26.8v4h11.1v59.6h4.5
			V227H337z M297.2,263.1h-11.8l5.2-30c0.3-1.8,0.5-3.6,0.7-5.5c0.3,2,0.5,4,0.9,5.9L297.2,263.1z M305.9,286.6l-11.5-63.9h-6.1
			l-11.6,63.9h4.7l3.3-19.3H298l3.2,19.3H305.9z M266.3,274.5v-9.8h-4.5v10.2c0,1.2,0.2,5.6-3.8,7.6c-0.7,0.4-2,0.9-4,0.9
			c-0.8,0-2.7-0.1-4.6-1.1c-1.1-0.6-2-1.4-2.6-2.6c-1.9-3.2-1.6-8.6-1.6-12v-31.3c0-1.1-0.3-6.3,3.8-8.7c1.9-1.2,3.8-1.3,4.6-1.3
			c2.2,0,3.3,0.6,4.1,1.1c1.4,0.8,2.1,1.8,2.3,2.3c1.1,2.1,1.2,4.7,1.2,9.4v4.2h4.3v-8.9c0-0.6,0-3.4-0.9-5.7
			c-1.8-4.7-6.4-6.6-11.2-6.6c-4,0-7.7,1.3-10.3,4.8c-2.4,3.2-2.3,6.7-2.3,10.5v34.5c0,4,0.3,5.8,0.9,7.6c0.9,2.7,4,7.7,11.5,7.7
			c7.8,0,11-3.8,12.2-7.1C266.1,278.9,266.3,277.7,266.3,274.5 M222.5,271.9c0,3.7-0.2,7.6-3.6,10c-1.4,1.1-3.1,1.5-4.9,1.5
			c-5,0-7.3-3.2-7.9-5c-0.5-1.6-0.7-3.6-0.7-7.2v-35c0-1.1-0.2-6.1,3.7-8.6c0.7-0.4,2.3-1.3,4.9-1.3c2.1,0,3.6,0.6,4.2,1
			c1.8,0.9,2.5,2.2,2.9,3c1.3,2.4,1.5,5.4,1.5,10.7V271.9z M226.7,273.6v-35.1c0-4.9,0-10.4-4.5-13.9c-2.3-1.7-5.2-2.3-8.1-2.3
			c-5.4-0.1-10.4,2.3-12.1,7.6c-1,2.9-1,6.5-1,7.2V273c0,3.8,0.3,7.4,2.8,10.5c3.1,3.8,8.6,3.9,9.9,3.9c6.5,0,9.8-3.1,11.2-5.5
			C226.5,279.3,226.7,276.6,226.7,273.6 M189.7,286.6v-4h-16.6v-59.6h-4.4v63.5H189.7z"/>
	</g>
</g>
<g id="Layer_2">
	<g>
		<rect x="169" y="222.6" fill="#FFFFFF" width="4.4" height="63.6"/>
		<rect x="180.3" y="282.2" fill="#FFFFFF" width="9.7" height="4"/>
	</g>
	<path fill="#FFFFFF" d="M347.6,286v-63.6h4.6V286H347.6z"/>
	<path fill="#FFFFFF" d="M352.6,377v-63.6h4.6V377H352.6z"/>
	<path fill="#FFFFFF" d="M297.7,236.3l9.1,50.3h-4.6l-6.4-38.4L297.7,236.3z M281.7,286.5h-4.6l11.9-64h4.6L281.7,286.5z"/>
	<g>
		<path fill="#FFFFFF" d="M256.8,227.3c0.3,0.1,0.5,0.2,0.7,0.4c1.4,0.8,2.1,1.8,2.3,2.3c1.1,2.1,1.2,4.7,1.2,9.5v4.2h4.3v-8.9
			c0-0.6,0-3.4-0.9-5.7c-1.3-3.5-4.3-5.4-7.6-6.2V227.3z"/>
		<path fill="#FFFFFF" d="M261.5,264.8V275c0,1.2,0.2,5.6-3.8,7.7c-0.3,0.1-0.6,0.3-1,0.4v4.3c5.2-1,7.5-4,8.4-6.8
			c0.5-1.5,0.8-2.8,0.8-5.9v-9.8H261.5z"/>
		<path fill="#FFFFFF" d="M249.9,282.8c-0.2-0.1-0.5-0.2-0.7-0.3c-1.1-0.6-2-1.4-2.6-2.6c-1.9-3.2-1.6-8.6-1.6-12v-31.3
			c0-1.1-0.3-6.3,3.8-8.7c0.4-0.2,0.8-0.4,1.1-0.6v-4.4c-2.7,0.6-5.1,1.9-6.9,4.4c-2.4,3.2-2.3,6.7-2.3,10.5v34.5
			c0,4,0.3,5.8,0.9,7.7c0.8,2.3,3.1,6.2,8.3,7.4V282.8z"/>
	</g>
	<g>
		<path fill="#FFFFFF" d="M217.4,317.6c0.3,0.1,0.5,0.2,0.7,0.4c1.4,0.8,2.1,1.8,2.3,2.3c1.1,2.1,1.2,4.7,1.2,9.5v4.2h4.3v-8.9
			c0-0.6,0-3.4-0.9-5.7c-1.3-3.5-4.3-5.4-7.6-6.2V317.6z"/>
		<path fill="#FFFFFF" d="M222.2,355.1v10.2c0,1.2,0.2,5.6-3.8,7.7c-0.3,0.1-0.6,0.3-1,0.4v4.3c5.2-1,7.5-4,8.4-6.8
			c0.5-1.5,0.8-2.8,0.8-5.9v-9.8H222.2z"/>
		<path fill="#FFFFFF" d="M210.5,373.1c-0.2-0.1-0.5-0.2-0.7-0.3c-1.1-0.6-2-1.4-2.6-2.6c-1.9-3.2-1.6-8.6-1.6-12v-31.3
			c0-1.1-0.3-6.3,3.8-8.7c0.4-0.2,0.8-0.4,1.1-0.6v-4.4c-2.7,0.6-5.1,1.9-6.9,4.4c-2.4,3.2-2.3,6.7-2.3,10.5v34.5
			c0,4,0.3,5.8,0.9,7.7c0.8,2.3,3.1,6.2,8.3,7.4V373.1z"/>
	</g>
	<g>
		<path fill="#FFFFFF" d="M301.7,313v46.7c0,6.6,0.1,10-2.9,12.2c-0.6,0.5-1.3,0.8-1.9,1v4.3c2.9-0.6,6.6-2.3,8.3-6.9
			c0.7-2,0.9-4.2,0.9-6.4v-51H301.7z"/>
		<path fill="#FFFFFF" d="M290,372.9c-1.7-0.6-2.8-1.7-3.4-2.7c-1.1-1.7-1.4-3.9-1.4-8V313h-4.3v48.5c0,4.1-0.2,8.1,2.5,11.7
			c0.5,0.8,1.2,1.5,2,2.1c1.5,1.1,3.2,1.7,4.7,2V372.9z"/>
	</g>
	<g>
		<path fill="#FFFFFF" d="M178.6,316.4c3,1,3.9,3.4,4.2,5.1c0.3,1.3,0.3,2,0.3,4.2v5.7h4.3v-4.6c0-4.6,0-10-4.4-12.9
			c-1.4-0.9-3-1.3-4.4-1.6V316.4z"/>
		<path fill="#FFFFFF" d="M184.2,350c-2-2.5-4.2-4.7-6.5-6.9c-1.5-1.6-3-3.2-4.3-4.8c-3.9-4.4-5.5-6.8-5.5-12.9
			c0-4.7,1.2-7.2,3.2-8.5c0.2-0.1,0.4-0.2,0.6-0.3v-4.1c-5.8,1.4-7.3,5.8-7.8,8.9c-0.4,1.8-0.4,4.4-0.4,4.8c0,6.1,2.1,9.7,3.6,11.8
			c1.4,1.9,3.6,4.4,7.3,8c0.6,0.5,4.9,4.6,7.2,8.2c1.2,1.9,2.3,4.1,2.3,9.1c0,5.2-1.3,7.9-3.5,9.3c-0.6,0.4-1.2,0.6-1.8,0.8v4
			c4-0.7,6.2-2.6,7.4-4.4c1.3-1.9,2.3-5,2.3-10.4C188.3,357.5,187.4,354,184.2,350z"/>
		<path fill="#FFFFFF" d="M171.7,373.1c-4.5-1.6-5.2-5.8-5.3-8.2c-0.1-1.4,0-2.6,0-4v-5.1H162v9c0,1.9,0.1,3.3,0.7,5.1
			c0.7,1.9,1.7,3.3,3.2,4.6c0.9,0.8,1.6,1.3,2.1,1.5c1.1,0.6,2.4,1,3.8,1.2V373.1z"/>
	</g>
	<g>
		<path fill="#FFFFFF" d="M210.3,282c-2.6-1-3.9-3.1-4.4-4.3c-0.5-1.6-0.7-3.6-0.7-7.2v-35c0-1.1-0.2-6.1,3.7-8.6
			c0.3-0.2,0.8-0.5,1.4-0.7v-4.2c-3.8,0.9-7.1,3.2-8.4,7.3c-1,2.9-1,6.5-1,7.2v35.8c0,3.8,0.3,7.4,2.8,10.5c1.8,2.2,4.5,3.2,6.6,3.6
			V282z"/>
		<path fill="#FFFFFF" d="M222.1,223.8c-1.5-1.1-3.2-1.7-4.9-2.1v4.3c0.3,0.1,0.6,0.3,0.8,0.4c1.8,0.9,2.5,2.3,2.9,3
			c1.3,2.4,1.5,5.4,1.5,10.7v31c0,3.7-0.2,7.6-3.6,10c-0.5,0.4-1,0.7-1.6,0.9v4.2c4.1-0.9,6.5-3.3,7.5-5.1c1.6-2.6,1.9-5.3,1.9-8.3
			v-35.1C226.6,232.8,226.6,227.3,222.1,223.8z"/>
	</g>
	<g>
		<path fill="#FFFFFF" d="M249.1,373.3c-2.6-1-3.9-3.1-4.4-4.3c-0.5-1.6-0.7-3.6-0.7-7.2v-35c0-1.1-0.2-6.1,3.7-8.6
			c0.3-0.2,0.8-0.5,1.4-0.7v-4.2c-3.8,0.9-7.1,3.2-8.4,7.3c-1,2.9-1,6.5-1,7.2v35.8c0,3.8,0.3,7.4,2.8,10.5c1.8,2.2,4.5,3.2,6.6,3.6
			V373.3z"/>
		<path fill="#FFFFFF" d="M260.9,315.1c-1.5-1.1-3.2-1.7-4.9-2.1v4.3c0.3,0.1,0.6,0.3,0.8,0.4c1.8,0.9,2.5,2.3,2.9,3
			c1.3,2.4,1.5,5.4,1.5,10.7v31c0,3.7-0.2,7.6-3.6,10c-0.5,0.4-1,0.7-1.6,0.9v4.2c4.1-0.9,6.5-3.3,7.5-5.1c1.6-2.6,1.9-5.3,1.9-8.3
			V329C265.4,324,265.4,318.5,260.9,315.1z"/>
	</g>
	<g>
		<path fill="#FFFFFF" d="M376.3,282.7c-2.6-1-3.9-3.1-4.4-4.3c-0.5-1.6-0.7-3.6-0.7-7.2v-35c0-1.1-0.2-6.1,3.7-8.6
			c0.3-0.2,0.8-0.5,1.4-0.7v-4.2c-3.8,0.9-7.1,3.2-8.4,7.3c-1,2.9-1,6.5-1,7.2v35.8c0,3.8,0.3,7.4,2.8,10.5c1.8,2.2,4.5,3.2,6.6,3.6
			V282.7z"/>
		<path fill="#FFFFFF" d="M388.2,224.5c-1.5-1.1-3.2-1.7-4.9-2.1v4.3c0.3,0.1,0.6,0.3,0.8,0.4c1.8,0.9,2.5,2.3,2.9,3
			c1.3,2.4,1.5,5.4,1.5,10.7v31c0,3.7-0.2,7.6-3.6,10c-0.5,0.4-1,0.7-1.6,0.9v4.2c4.1-0.9,6.5-3.3,7.5-5.1c1.6-2.6,1.9-5.3,1.9-8.3
			v-35.1C392.7,233.5,392.7,228,388.2,224.5z"/>
	</g>
	<g>
		<path fill="#FFFFFF" d="M421.6,373.6c-2.3-0.9-3.5-2.8-3.9-3.7c-1.2-2.3-1.3-5.1-1.3-10.4v-30.1c0-4-0.4-8.2,3.1-11.1
			c0.7-0.6,1.4-0.9,2.1-1.2v-4c-2,0.4-3.3,1-4.4,1.7c-0.4,0.3-1.2,0.7-2.1,1.7c-2.8,2.8-3.1,7.1-3.1,10.8v33.4
			c0,6.7,0.5,9.5,2.4,12.4c1.6,2.5,4.2,4.1,7.1,4.6V373.6z"/>
		<path fill="#FFFFFF" d="M428.5,317.2c2.2,0.8,3.4,2.3,3.9,3.5c0.8,1.9,0.9,4.8,0.9,6.8v6.6h4.2v-8.8c0-0.4,0-3-0.4-4.7
			c-0.8-2.8-3.1-6.4-8.6-7.4V317.2z"/>
		<path fill="#FFFFFF" d="M428.5,348.2v3.9h5.1v10.2c0,1.7,0.1,6.6-4.1,10.1c-0.3,0.3-0.6,0.5-1,0.7v4.3c2.3-0.9,3.8-2.3,4.6-3.1
			c0.5-0.5,0.8-0.9,1.6-2.1v5h3.3v-29H428.5z"/>
	</g>
	<g>
		<rect x="332.6" y="223.1" fill="#FFFFFF" width="4.3" height="4"/>
		<rect x="310.1" y="223.1" fill="#FFFFFF" width="4.2" height="4"/>
		<polygon fill="#FFFFFF" points="321.2,286.7 325.7,286.7 325.7,227.1 325.7,227.1 325.7,223.1 321.2,223.1 		"/>
	</g>
	<g>
		<rect x="338.8" y="313.2" fill="#FFFFFF" width="4.3" height="4"/>
		<rect x="316.3" y="313.2" fill="#FFFFFF" width="4.2" height="4"/>
		<polygon fill="#FFFFFF" points="327.4,376.7 331.9,376.7 331.9,317.1 331.9,317.1 331.9,313.2 327.4,313.2 		"/>
	</g>
	<g>
		<polygon fill="#FFFFFF" points="406.9,239.2 406.9,285.4 411.1,285.4 410.9,255.4 		"/>
		<polygon fill="#FFFFFF" points="428.6,285 413.3,223.9 409.8,223.9 410.7,227.7 410.7,227.4 416.4,250.6 425.6,287.4 429.2,287.4 
			428.6,284.8 		"/>
		<polygon fill="#FFFFFF" points="428.5,223.1 428.9,253.9 432.8,269.9 432.8,223.1 		"/>
	</g>
	<g>
		<polygon fill="#FFFFFF" points="372.6,328.9 372.6,375.2 376.9,375.2 376.7,345.1 		"/>
		<polygon fill="#FFFFFF" points="394.3,374.8 379.1,313.6 375.6,313.6 376.5,317.5 376.5,317.1 382.2,340.3 391.4,377.2 395,377.2 
			394.3,374.6 		"/>
		<polygon fill="#FFFFFF" points="394.3,312.9 394.6,343.7 398.6,359.6 398.6,312.9 		"/>
	</g>
</g>
</svg>
