<?xml version="1.0" encoding="utf-8"?>
<!-- Generator: Adobe Illustrator 18.1.0, SVG Export Plug-In . SVG Version: 6.00 Build 0)  -->
<!DOCTYPE svg PUBLIC "-//W3C//DTD SVG 1.1//EN" "http://www.w3.org/Graphics/SVG/1.1/DTD/svg11.dtd">
<svg version="1.1" xmlns="http://www.w3.org/2000/svg" xmlns:xlink="http://www.w3.org/1999/xlink" x="0px" y="0px"
	 viewBox="0 0 1967 2000" enable-background="new 0 0 1967 2000" xml:space="preserve">
<g id="Layer_1" display="none">
	<rect display="inline" width="1967" height="2000"/>
</g>
<g id="Layer_2">
	<path fill="#FFFFFF" d="M1297,222.1v-63.6h4.6v63.6H1297z"/>
	<path fill="#FFFFFF" d="M347.5,546.2v-55.4c-0.6,0.5-1.3,1.1-2,1.5c-3.6,2.6-6.7,2.8-8.5,3.1v-3.5c5.8-0.8,8.8-4.3,10.1-6.8
		c0.5-0.8,0.5-1.4,0.8-2.2h4.1v63.2H347.5z"/>
	<path fill="#FFFFFF" d="M471.6,546.2v-4.7c0.3-0.8,0.5-1.6,0.8-2.4c0.8-1.9,2.6-5,5.5-9.1c3.8-5.5,8.3-11.1,10.8-17.4
		c1.4-3.6,2.2-6.4,2.2-14v-1.5c0-3.3-0.2-7.2-3-9.5c-0.7-0.6-1.9-1.4-4.1-1.4c-3.6,0-5.2,2.3-5.9,3.5c-1,1.9-1.3,4.5-1.3,9v4.3h-4
		v-6c0-3.3,0.2-5.3,0.5-6.8c0.6-2.7,3.1-7.8,10.5-7.8c1.2,0,4,0.1,6.6,2c4.2,3.2,4.5,8.1,4.5,12.7v3.5c0,3.2-0.1,5.7-0.8,8.8
		c-1.5,7.2-6.7,14-10.9,19.8c-1.9,2.6-3.9,5.1-5.4,7.9c-0.6,1.1-1.4,2.5-2.4,5.1h20v3.8H471.6z"/>
	<path fill="#FFFFFF" d="M630.9,538.4c-2.3,7.9-9.5,8.5-12.1,8.5c-4.3,0-8.2-1.8-10.4-5.7c-1.8-3.2-1.8-7-2.1-14.4h4.1
		c0,2,0.1,3.9,0.2,5.9c0.2,3.2,0.5,7,3.5,9.1c0.9,0.6,2.5,1.4,5,1.4c1.3,0,2.4-0.3,2.9-0.5c2.3-0.8,4.2-3,5-5.2
		c0.5-1.3,0.6-2,0.6-4.3v-3.5c0-2.3-0.1-4.5-0.4-6.8c-0.5-4.1-2.3-5.5-3.9-6.4c-2.3-1.4-4.2-2-9.5-2.3l0.1-4.1
		c1.4,0,5.2,0.1,8.6-2.5c0.4-0.4,1.7-1.4,2.4-2.9c0.5-0.9,0.8-1.8,0.8-3.9v-5.3c0-1.7-0.1-2.5-0.2-3.4c-0.8-5.3-4.9-5.6-6.8-5.6
		c-0.7,0-2.3-0.1-4,1c-2.5,1.6-2.7,4.5-2.7,7.2v6.7h-3.9v-6.9c0-3.2,0.3-4.6,0.9-6.2c1.6-4.1,5.9-5.6,9.9-5.6c6.2,0,9,3.5,9.9,5.8
		c0.6,1.6,0.9,2.8,0.9,6v6c0,0.4,0,2.3-0.5,3.9c-1.5,5.7-7.2,7.2-8.6,7.7c0.6,0.1,1.4,0.3,2,0.4c1.7,0.5,5.5,1.6,7.5,6
		c0.9,2,1.3,3.4,1.3,7.3v6.8C631.5,533.3,631.5,536.1,630.9,538.4z"/>
	<path fill="#FFFFFF" d="M762.4,525.9v20.3h-4.1v-20.3h-17.8v-4.1l16.4-38.7h5.6v39.1h7.6v3.8H762.4z M758.3,488.9l-13.8,33.2h13.8
		V488.9z"/>
	<path fill="#FFFFFF" d="M900.5,539c-0.8,2.9-3.2,7.5-10.7,7.6c-1,0-4.4-0.1-7.1-1.9c-4.3-2.9-4.4-7.6-4.4-12.1v-6.4h4v5
		c0,3.7,0.2,6.1,0.8,7.7c0.5,1.5,2.3,3.9,6.3,3.9c3,0,4.5-0.9,5.4-1.8c2.3-2.2,2.5-5.5,2.5-11.4v-13.1c0-2.6-0.2-5.4-2.2-7.4
		c-1.7-1.8-3.9-1.8-4.8-1.8c-1,0-4.2,0.1-6.1,2.8c-1.3,1.8-1.4,3.8-1.4,5.9h-3.3v-32.9h20.9v3.9h-16.8v18.9c1.2-0.8,3.5-2.4,7.2-2.4
		c1.5,0,5.2,0.3,7.9,3.7c2.4,3.1,2.6,6.9,2.6,10.6v12C901.3,532.1,901.3,536.4,900.5,539z"/>
	<path fill="#FFFFFF" d="M1034.3,499.4c0,0,0-4.7-0.4-7.2c-0.1-0.9-0.5-3.8-3.3-5.2c-0.6-0.4-2.1-0.9-4-0.9c-0.8,0-2.9,0.1-4.9,1.3
		c-4.1,2.5-3.8,7.5-3.8,8.8v15.2c1-0.9,1.5-1.3,2.1-1.6c2.2-1.4,4.9-2.3,7.5-2.3c5.1,0.1,7.8,2.9,8.9,4.5c1.6,2.5,1.9,5.3,1.9,11.2
		v11.7c-0.1,0.6-0.1,2.7-0.8,4.6c-2.3,6.6-9.7,7-11.5,7c-1.5,0-6.6-0.1-9.7-4.1c-2.4-3.1-2.4-6.9-2.4-10.6v-36.4
		c0-3.2,0.4-4.5,0.9-6c1.2-3.1,4.2-7.3,12.2-7.3c1.1,0,6,0.2,8.9,3.5c2.6,2.9,2.6,7.5,2.6,11v3L1034.3,499.4z M1034.2,520.6
		c0-2.8-0.3-5.8-2.6-7.7c-1.6-1.4-3.7-1.4-4.3-1.4c-2.6,0-5.4,1.2-7.1,3c-2,2.1-2.3,4.7-2.3,7.4v9.4c0,3.5,0,7.7,3.3,10
		c0.9,0.5,2.3,1.3,4.7,1.3c4.8,0,6.9-2.7,7.6-4.4c0.4-0.9,0.7-2.2,0.7-4.2V520.6z"/>
	<path fill="#FFFFFF" d="M224.5,592.1c-3.3,8.8-6.8,21.8-7.9,31.1c-0.4,3-0.5,6-0.5,9v7.2h-4.4v-4.2c0-7.2,0.2-13.1,3.5-26.7
		c3.6-14.9,7.1-21.8,10.2-28.4h-20.2v-4h24.4v4C227.8,584.1,226.1,588.1,224.5,592.1z"/>
	<path fill="#FFFFFF" d="M364.2,632.3c-2.1,7.5-9.7,7.8-11.7,7.8c-3.7,0-7.8-1.3-10.2-4.4c-2.2-2.9-2.3-6.3-2.3-9.6v-10.9
		c0-1.4,0.2-3,0.5-4.3c1.2-5,4.7-6.2,6.5-6.9c-1.2-0.5-2.3-1.2-3.2-2c-3-2.5-2.8-5.9-2.8-7.3v-8.8c0-0.4,0-2.9,0.7-4.8
		c1-2.6,4.1-5.8,10.7-5.8c1,0,5.1-0.1,8.1,2.2c0.5,0.4,1.7,1.4,2.4,3c0.6,1.5,1,3.2,1,6.6v7.4c0,0.3,0,2.5-0.4,4
		c-0.9,3.3-3.2,4.4-6.1,5.5c2.3,0.9,4,1.7,5.4,3.9c1.8,2.6,2,5.6,2,8.6V628C364.7,629.6,364.6,630.7,364.2,632.3z M360.5,615.6
		c0-0.7,0-1.4-0.1-2.1c-0.2-2.4-1-4.6-3.1-6.1c-0.8-0.6-2.3-1.5-4.8-1.5c-2.2,0-3.7,0.6-4.3,1c-3.6,1.7-4.1,4.9-4.1,8.4v10.2
		c0,5.6,1,8,3.6,9.5c1.4,0.8,3.1,1.3,4.7,1.3c2.3-0.1,3.9-0.9,4.6-1.4c3.1-1.8,3.4-4.9,3.4-8.1V615.6z M359.8,587.5
		c0-2.5-0.1-3.6-0.5-4.8c-0.7-2-2.8-3.7-7.1-3.7c-0.7,0-2.3,0-3.9,0.8c-2.8,1.4-3.2,3.5-3.2,6.2v8.7c0,1.1,0.1,2.2,0.5,3.1
		c1.2,2.8,4.1,4.1,6.8,4.1c3.1,0,6-1.5,7-4.7c0.3-0.8,0.4-1.6,0.4-3.2V587.5z"/>
	<path fill="#FFFFFF" d="M498.7,632.5c-2.3,7.2-10,7.7-12,7.7c-2,0-9-0.3-11.2-6.9c-0.8-2.3-0.8-4.6-0.8-6.9v-3.9h4.1v5
		c0,1.5,0.2,2.3,0.4,3.1c0.5,2.2,2,5.6,7.4,5.6c1.7,0,3.2-0.3,4.8-1.1c3.5-1.8,4-4.8,4-8.3v-16.2c-0.8,0.8-1.4,1.3-2.3,1.8
		c-1.1,0.7-3.8,2.1-7.3,2.1c-1.1,0-5.8-0.2-8.5-3.4c-2.3-2.6-2.5-5.7-2.5-8.8v-11.3c0-5.2,0.1-10.4,5-13.5c1.3-0.8,3.7-2,7.5-2
		c5.5,0,8.5,2.3,9.8,4.1c2.4,3.2,2.3,7.1,2.3,10.8v36C499.5,629.4,499.2,630.9,498.7,632.5z M495.4,590c0-1.8-0.2-5-0.9-6.7
		c-0.8-1.7-3-4-7.5-4c-1.2,0-6,0.4-7.6,4.9c-0.5,1.4-0.5,2.9-0.5,3.3v15.4c0,0.5,0.1,1.8,0.5,3.2c1,2.7,3.3,4.2,6.1,4.2
		c6.1,0,8.5-4.1,9.2-6.3c0.4-1.2,0.5-2.7,0.5-5.5V590z"/>
	<g>
		<g>
			<path fill="#FFFFFF" d="M481.3,441.7h-4.6l-11-64h4.6L481.3,441.7z M504.2,405.1l4.6-27.4h4.6l-7.3,42.5L504.2,405.1z
				 M482.2,406.9l4.6-29.2h6.4l9.1,64h-4.6l-7.8-54.4l-5.5,32.9L482.2,406.9z"/>
		</g>
	</g>
	<path fill="#FFFFFF" d="M221.3,172.2l9.1,50.3h-4.6l-6.4-38.4L221.3,172.2z M205.3,222.5h-4.6l11.9-64h4.6L205.3,222.5z"/>
	<g>
		<polygon fill="#FFFFFF" points="344.2,185.9 344.1,185.9 344.1,162.3 344.2,162.3 344.2,158.5 339.7,158.5 339.7,222.1 
			344.2,222.1 		"/>
		<path fill="#FFFFFF" d="M361.4,190c-2.3-2-5.9-2.3-6.8-2.4c1.4-0.3,5.6-0.8,7-5.3c0.5-1.6,0.5-3.9,0.5-4.3v-9.5
			c0-2.5-0.4-5.2-2.2-7.3c-2.7-3.1-7.2-2.7-8.2-2.7h-0.7v3.8c2.5,0.1,5.3,0.6,6.3,3.3c0.3,0.7,0.5,1.9,0.5,3.7v7.7
			c0,1.5,0.4,6.8-5,8.4c-0.6,0.2-1.1,0.3-1.7,0.4v4.1c3.5,0.3,7,1.3,8.4,5.1c0.4,1.4,0.5,2.8,0.5,4.3v9c0,4.7-0.4,6.8-2.4,8.5
			c-1.3,0.9-2.7,1.4-5.9,1.4h-0.7v3.9h1.4c1.3,0,5.5,0.2,8.8-2.7c2.8-2.5,3.2-5.7,3.2-9.1v-10.9C364.4,196,364.3,192.4,361.4,190z"
			/>
	</g>
	<g>
		<path fill="#FFFFFF" d="M493.5,162.6c0.3,0.1,0.5,0.2,0.7,0.4c1.4,0.8,2.1,1.8,2.3,2.3c1.1,2.1,1.2,4.7,1.2,9.5v4.2h4.3v-8.9
			c0-0.6,0-3.4-0.9-5.7c-1.3-3.5-4.3-5.4-7.6-6.2V162.6z"/>
		<path fill="#FFFFFF" d="M498.2,200.2v10.2c0,1.2,0.2,5.6-3.8,7.7c-0.3,0.1-0.6,0.3-1,0.4v4.3c5.2-1,7.5-4,8.4-6.8
			c0.5-1.5,0.8-2.8,0.8-5.9v-9.8H498.2z"/>
		<path fill="#FFFFFF" d="M486.6,218.1c-0.2-0.1-0.5-0.2-0.7-0.3c-1.1-0.6-2-1.4-2.6-2.6c-1.9-3.2-1.6-8.6-1.6-12v-31.3
			c0-1.1-0.3-6.3,3.8-8.7c0.4-0.2,0.8-0.4,1.1-0.6v-4.4c-2.7,0.6-5.1,1.9-6.9,4.4c-2.4,3.2-2.3,6.7-2.3,10.5v34.5
			c0,4,0.3,5.8,0.9,7.7c0.8,2.3,3.1,6.2,8.3,7.4V218.1z"/>
	</g>
	<g>
		<path fill="#FFFFFF" d="M1042.9,326.3c-1.4-0.6-2.7-1.5-3.5-2.9c-1.5-2.5-1.8-5.8-1.8-11.9v-30.2c0-1.5-0.5-8.9,5.3-11V266
			c-5.8,1.2-8,5.4-8.9,8.2c-0.5,1.8-0.7,3.1-0.7,6.6v28.7c0,8.4,0.1,12.9,2.4,16.4c0.6,1,1.5,2,2.3,2.6c1.3,1,3,1.6,4.8,2V326.3z"/>
		<path fill="#FFFFFF" d="M1053.5,328.6c1.4-1.1,1.8-1.4,2.4-2.3c2.8-3.4,3.2-7.2,3.2-11.4v-35.2c0-4.1-0.4-5.7-1.3-7.7
			c-1.8-3.9-5.2-5.4-7.9-6v4.4c2,0.9,3.6,2.4,4.3,4.6c0.5,1.4,0.6,3.1,0.6,4.6V315c0,3.8-0.4,7.7-3.8,10.3c-0.4,0.3-0.8,0.5-1.2,0.7
			v4.6l9.4,8.3l2.6-2.8L1053.5,328.6z"/>
	</g>
	<g>
		<path fill="#FFFFFF" d="M223.2,374.6v46.7c0,6.6,0.1,10-2.9,12.2c-0.6,0.5-1.3,0.8-1.9,1v4.3c2.9-0.6,6.6-2.3,8.3-6.9
			c0.7-2,0.9-4.2,0.9-6.4v-51H223.2z"/>
		<path fill="#FFFFFF" d="M211.6,434.5c-1.7-0.6-2.8-1.7-3.4-2.7c-1.1-1.7-1.4-3.9-1.4-8v-49.2h-4.3v48.5c0,4.1-0.2,8.1,2.5,11.7
			c0.5,0.8,1.2,1.5,2,2.1c1.5,1.1,3.2,1.7,4.7,2V434.5z"/>
	</g>
	<g>
		<path fill="#FFFFFF" d="M1325.7,269.9c3,1,3.9,3.4,4.2,5.1c0.3,1.3,0.3,2,0.3,4.2v5.7h4.3v-4.6c0-4.6,0-10-4.4-12.9
			c-1.4-0.9-3-1.3-4.4-1.6V269.9z"/>
		<path fill="#FFFFFF" d="M1331.4,303.5c-2-2.5-4.2-4.7-6.5-6.9c-1.5-1.6-3-3.2-4.3-4.8c-3.9-4.4-5.5-6.8-5.5-12.9
			c0-4.7,1.2-7.2,3.2-8.5c0.2-0.1,0.4-0.2,0.6-0.3v-4.1c-5.8,1.4-7.3,5.8-7.8,8.9c-0.4,1.8-0.4,4.4-0.4,4.8c0,6.1,2.1,9.7,3.6,11.8
			c1.3,1.9,3.6,4.4,7.3,8c0.6,0.5,4.9,4.6,7.2,8.2c1.2,1.9,2.3,4.1,2.3,9.1c0,5.2-1.3,7.9-3.5,9.3c-0.6,0.4-1.2,0.6-1.8,0.8v4
			c4-0.7,6.2-2.6,7.4-4.4c1.3-1.9,2.3-5,2.3-10.4C1335.4,311,1334.5,307.5,1331.4,303.5z"/>
		<path fill="#FFFFFF" d="M1318.9,326.6c-4.5-1.6-5.2-5.8-5.3-8.2c-0.1-1.4,0-2.6,0-4v-5.1h-4.4v9c0,1.9,0.1,3.3,0.7,5.1
			c0.7,1.9,1.7,3.3,3.2,4.6c0.9,0.8,1.6,1.3,2.1,1.5c1.1,0.6,2.4,1,3.8,1.2V326.6z"/>
	</g>
	<g>
		<rect x="1173" y="266.5" fill="#FFFFFF" width="4.4" height="63.6"/>
		<path fill="#FFFFFF" d="M1189,298.9c1.3-0.3,1.6-0.5,2.3-0.7c1.4-0.6,5-2.2,6.1-6.6c0.4-1.4,0.4-3.9,0.4-4.1v-9.9
			c0-1.3,0.2-5.9-3.5-8.8c-2.7-2.1-5.8-2.3-9-2.3h-1v3.8h1.4c1.6,0,3.1,0.1,4.6,0.9c2.7,1.5,2.9,4.9,2.9,7.6v9.8
			c0,1.3,0.1,4.9-3.9,6.2c-1.5,0.5-3.3,0.5-3.8,0.5h-1.2v3.8h0l11.6,31h4.7L1189,298.9z"/>
	</g>
	<g>
		<polygon fill="#FFFFFF" points="353.3,438 343.3,374.6 338.7,374.6 349.5,438.1 354.1,438.1 354.2,437.9 		"/>
		<polygon fill="#FFFFFF" points="357.5,419.9 365.7,374.6 361.2,374.6 355.5,407.6 		"/>
	</g>
	<rect x="556.5" y="249.3" fill="#FFFFFF" width="6.9" height="90.8"/>
	<g>
		<path fill="#FFFFFF" d="M209,541.6c-0.5-0.2-1-0.5-1.5-0.8c-3.6-2.4-3.7-5.9-3.7-9.8v-34.5c0-2.6,0.2-3.7,0.5-5
			c0.9-2.7,2.8-4,4.7-4.6v-4.2c-3.2,0.7-7.2,2.6-8.7,7.8c-0.7,2.4-0.6,5.2-0.6,5.9v35.4c0,3.5,0.4,4.9,0.9,6.5
			c1.5,4.1,4.6,6.6,8.4,7.4V541.6z"/>
		<path fill="#FFFFFF" d="M223,486.7c-1.1-1.5-3.3-3.5-7.1-4.2v4.2c3.9,1.1,5.2,4.3,5.2,9v36.9c0,2-0.3,3-0.5,3.9
			c-1,2.9-2.9,4.3-4.7,5v4.2c4.2-1,7.5-3.8,8.8-8.3c0.4-1.2,0.5-2.3,0.5-4.8v-35.3C225.3,494,225.1,489.6,223,486.7z"/>
	</g>
	<g>
		<polygon fill="#FFFFFF" points="488.3,330.1 480,286.8 476.1,266.5 469.6,266.5 469.1,330.1 473.5,330.1 473.4,271.3 484.7,330.1 
					"/>
		<polygon fill="#FFFFFF" points="503.7,266.5 497.2,266.5 490.2,303.1 492,312.9 500,271.3 500.1,330.1 504.3,330.1 		"/>
	</g>
	<g>
		<polygon fill="#FFFFFF" points="434,267 427.5,267 420.5,303.4 422.3,313 430.3,271.3 430.4,330 434.6,330 		"/>
		<polygon fill="#FFFFFF" points="406.4,267 402.9,267 415,330 418.6,330 410.3,287 		"/>
		<polygon fill="#FFFFFF" points="399.8,287 399.4,330 403.8,330 403.8,308 		"/>
	</g>
	<polygon fill="#FFFFFF" points="914.2,374.6 902.9,374.6 902.9,378.4 912.8,378.4 	"/>
	<g>
		<polygon fill="#FFFFFF" points="1014.5,374.6 1003.2,374.6 1003.2,378.4 1013.1,378.4 		"/>
		<polygon fill="#FFFFFF" points="1020.5,378.4 1020.5,378.4 1015.8,391.2 999.4,435.4 999.4,438.1 1025.5,438.1 1025.5,434.2 
			1004.4,434.2 1025.6,377.5 1025.6,374.6 1021.9,374.6 		"/>
	</g>
	<g>
		<polygon fill="#FFFFFF" points="909.9,438.1 925.2,438.1 925.2,434.2 911.4,434.2 		"/>
		<polygon fill="#FFFFFF" points="925.3,377.5 925.3,374.6 921.6,374.6 920.1,378.4 920.2,378.4 915.4,391.2 899.1,435.4 
			899.1,438.1 902.5,438.1 		"/>
	</g>
	<g>
		<rect x="337.8" y="266.5" fill="#FFFFFF" width="4.4" height="63.6"/>
		<rect x="349" y="326.1" fill="#FFFFFF" width="9.7" height="4"/>
	</g>
	<g>
		<rect x="202.4" y="266.5" fill="#FFFFFF" width="4.3" height="63.6"/>
		<polygon fill="#FFFFFF" points="214.1,291.8 227.6,266.5 222.6,266.5 211.7,287.9 211.7,298.2 223,330.1 227.7,330.1 		"/>
	</g>
	<g>
		<path fill="#FFFFFF" d="M1421.1,217.9c-0.1,0-0.1-0.1-0.2-0.1c-2.6-1.9-2.6-4.7-2.6-7.6V202h-4.3v9.2c0,1.4-0.2,7.7,5,10.5
			c0.7,0.4,1.4,0.6,2,0.8V217.9z"/>
		<path fill="#FFFFFF" d="M1430.7,158.5v53.1c0,1,0.2,4.5-2.8,6.4v4.4c0.9-0.3,1.8-0.7,2.7-1.3c3.9-2.6,4.2-6.8,4.3-8.3
			c0.1-0.8,0.1-1.6,0.1-2.4v-51.9H1430.7z"/>
	</g>
	<g>
		<polygon fill="#FFFFFF" points="1166.9,186.8 1162.1,186.8 1162.1,158.5 1157.8,158.5 1157.8,222.1 1162.1,222.1 1162.1,190.6 
			1166.9,190.6 		"/>
		<polygon fill="#FFFFFF" points="1178.5,158.5 1178.5,186.8 1173.8,186.8 1173.8,190.6 1178.5,190.6 1178.5,222.1 1182.9,222.1 
			1182.9,158.5 		"/>
	</g>
	<g>
		<path fill="#FFFFFF" d="M766.7,326.2c-2.6-1-3.9-3.1-4.4-4.3c-0.5-1.6-0.7-3.6-0.7-7.2v-35c0-1.1-0.2-6.1,3.7-8.6
			c0.3-0.2,0.8-0.5,1.4-0.7v-4.2c-3.8,0.9-7.1,3.2-8.4,7.3c-1,2.9-1,6.5-1,7.2v35.8c0,3.8,0.3,7.4,2.8,10.5c1.8,2.2,4.5,3.2,6.6,3.6
			V326.2z"/>
		<path fill="#FFFFFF" d="M778.5,268.1c-1.5-1.1-3.2-1.7-4.9-2.1v4.3c0.3,0.1,0.6,0.3,0.8,0.4c1.8,0.9,2.5,2.3,2.9,3
			c1.3,2.4,1.5,5.4,1.5,10.7v31c0,3.7-0.2,7.6-3.6,10c-0.5,0.4-1,0.7-1.6,0.9v4.2c4.1-0.9,6.5-3.3,7.5-5.1c1.6-2.6,1.9-5.3,1.9-8.3
			v-35.1C783,277,783,271.5,778.5,268.1z"/>
	</g>
	<g>
		<path fill="#FFFFFF" d="M1028.2,218.5c-2.3-0.9-3.5-2.8-3.9-3.7c-1.2-2.3-1.3-5.1-1.3-10.4v-30.1c0-4-0.4-8.2,3.1-11.1
			c0.7-0.6,1.4-0.9,2.1-1.2v-4c-2,0.4-3.3,1-4.4,1.7c-0.4,0.3-1.2,0.7-2.1,1.7c-2.8,2.8-3.1,7.1-3.1,10.8v33.4
			c0,6.7,0.5,9.5,2.4,12.4c1.6,2.5,4.2,4.1,7.1,4.6V218.5z"/>
		<path fill="#FFFFFF" d="M1035.1,162.1c2.2,0.8,3.4,2.3,3.9,3.5c0.8,1.9,0.9,4.8,0.9,6.8v6.6h4.2v-8.8c0-0.4,0-3-0.4-4.7
			c-0.8-2.8-3.1-6.4-8.6-7.4V162.1z"/>
		<path fill="#FFFFFF" d="M1035.1,193.1v3.9h5.1v10.2c0,1.7,0.1,6.6-4.1,10.1c-0.3,0.3-0.6,0.5-1,0.7v4.3c2.3-0.9,3.8-2.3,4.6-3.1
			c0.5-0.5,0.8-0.9,1.6-2.1v5h3.3v-29H1035.1z"/>
	</g>
	<g>
		<rect x="602.4" y="156.2" fill="#FFFFFF" width="4.6" height="64"/>
		<path fill="#FFFFFF" d="M628.4,193.7v-11c0-8.2-0.5-16-4.6-21c-3.9-4.8-9.1-5.5-10.1-5.5v4.1c2.3,0.5,5.9,2.3,7.8,5.9
			c1.8,3.7,2.3,8.2,2.3,16.5v11c0,8.2-0.5,12.8-2.3,16.5c-1.8,3.7-5.5,5.5-7.8,5.9v4.1c0.9,0,6.1-0.7,10.1-5.5
			C627.9,209.7,628.4,201.9,628.4,193.7z"/>
	</g>
	<path fill="#FFFFFF" d="M762.5,154.9h11.8v4.1h-11.8V154.9z M756.2,218.8h-4.6v-64h4.6V218.8z M762.5,214.7h11.7v4.1h-11.7V214.7z
		 M762.5,183.2h8.5v4.1h-8.5V183.2z"/>
	<path fill="#FFFFFF" d="M904.1,154.9h11.8v4.1h-11.8V154.9z M897.7,218.8h-4.6v-64h4.6V218.8z M904.1,183.2h8.5v4.1h-8.5V183.2z"/>
	<g>
		<polygon fill="#FFFFFF" points="783.1,399.9 792.3,374.6 787.5,374.6 781,393.8 		"/>
		<polygon fill="#FFFFFF" points="767.2,374.6 762.5,374.6 775,410 775,438.1 779.4,438.1 779.4,410.4 		"/>
	</g>
	<g>
		<path fill="#FFFFFF" d="M1270.8,319.4c-0.4,3.5-1.5,5.5-3.4,6.6c-1.9,1.2-3.9,1.2-4.6,1.2c-8.2,0-9.2-5.8-9.4-8.8
			c-0.1-1.4,0-2.6,0-4v-5.1h-4.4v9c0,1.9,0.1,3.3,0.7,5.1c0.7,1.9,1.7,3.3,3.2,4.6c0.9,0.8,1.6,1.3,2.1,1.5c2,1.1,4.9,1.5,7.3,1.5
			c6.1,0,9.3-2.4,10.8-4.7c0.5-0.8,1-1.8,1.4-3.1L1270.8,319.4z"/>
		<path fill="#FFFFFF" d="M1271.3,303.6l-6.4-6.9c0,0-0.1-0.1-0.1-0.1c-0.8-0.9-1.6-1.8-2.4-2.6l-11.7-12.6c0.3,5,2.1,8.1,3.5,10
			l9.5,10.2c0.5,0.5,1,1.1,1.6,1.7l10,10.8C1275,310.1,1274,307,1271.3,303.6z"/>
		<path fill="#FFFFFF" d="M1255.1,276.1c0.4-2.9,1.4-4.7,3-5.6c1.8-1.1,3.9-1.1,4.5-1.1c5.5,0,6.8,3.4,7.2,5.6
			c0.3,1.3,0.3,2,0.3,4.2v5.7h4.3v-4.6c0-4.6,0-10-4.4-12.9c-2.9-1.8-6.5-1.8-7.5-1.8c-7,0-9.7,3.5-10.9,6.7L1255.1,276.1z"/>
	</g>
	<path fill="#FFFFFF" d="M1398.5,328.5c-1.5,2.3-4.7,4.7-10.8,4.7c-2.4,0-5.3-0.4-7.3-1.5c-0.5-0.3-1.2-0.7-2.1-1.5
		c-1.4-1.3-2.4-2.7-3.2-4.6c-0.6-1.8-0.7-3.2-0.7-5.1v-9h4.4v5.1c0,1.4-0.1,2.6,0,4c0.2,3.1,1.2,8.8,9.4,8.8c0.7,0,2.7,0,4.6-1.2
		c2.3-1.4,3.5-4.1,3.5-9.3c0-5-1.1-7.2-2.3-9.1c-2.3-3.6-6.6-7.7-7.2-8.2c-3.7-3.6-5.9-6.1-7.3-8c-1.5-2.1-3.6-5.7-3.6-11.8
		c0-0.4,0-3,0.4-4.8c0.6-3.6,2.7-9.3,11.6-9.3c1,0,4.6,0,7.5,1.8c4.4,2.9,4.4,8.3,4.4,12.9v4.6h-4.3v-5.7c0-2.3,0-3-0.3-4.2
		c-0.4-2.2-1.7-5.6-7.2-5.6c-0.6,0-2.7,0-4.5,1.1c-2,1.3-3.2,3.8-3.2,8.5c0,6,1.6,8.5,5.5,12.9c1.3,1.6,2.8,3.2,4.3,4.8
		c2.3,2.3,4.5,4.4,6.5,6.9c3.2,4,4.1,7.5,4.1,12.5C1400.7,323.5,1399.7,326.6,1398.5,328.5z"/>
	
		<rect x="1381.9" y="243" transform="matrix(0.7314 -0.682 0.682 0.7314 175.4548 1022.2604)" fill="#FFFFFF" width="6.9" height="90.7"/>
	
		<rect x="1374.3" y="251.3" transform="matrix(0.7314 -0.682 0.682 0.7314 167.7867 1019.3323)" fill="#FFFFFF" width="6.9" height="90.7"/>
	<polygon fill="#FFFFFF" points="575.3,403.2 580.2,403.2 589.8,374.6 585.2,374.6 577.8,398.7 571,374.6 566.4,374.6 575.3,403.1 	
		"/>
	<polygon fill="#FFFFFF" points="580.9,409 576,409 566.4,437.6 571,437.6 578.4,413.5 585.2,437.6 589.8,437.6 580.9,409 	"/>
	<path fill="#FFFFFF" d="M944.7,284.4c0,6.4-2.3,11.9-12.3,11.9H931v-3.7h1.4c5.9,0,7.8-3.7,7.8-8.2v-11c0-4.6-1.8-8.2-7.8-8.2H931
		v-3.7h1.4c10,0,12.3,5.5,12.3,11.9V284.4z M924.1,325.5h-4.6v-64h4.6V325.5z"/>
	<polygon fill="#FFFFFF" points="705.1,399.5 714.7,370.8 710.1,370.8 702.8,394.7 702.8,405.4 711.7,434.4 716.3,434.4 	"/>
	<polygon fill="#FFFFFF" points="694.8,399.5 685.2,370.8 689.8,370.8 697.1,394.7 697.1,405.4 688.2,434.4 683.6,434.4 	"/>
	<polygon fill="#FFFFFF" points="642.3,391.5 648.2,373.8 643.6,373.8 640.2,385.1 	"/>
	<g>
		<polygon fill="#FFFFFF" points="636,407.3 636,407.2 636.5,408.9 645.7,437.4 649.8,437.4 629.3,373.8 625.1,373.8 		"/>
		<polygon fill="#FFFFFF" points="630.4,412.5 622.2,437.4 626.7,437.4 632.4,418.8 		"/>
	</g>
	<g>
		<rect x="1465.4" y="266.5" fill="#FFFFFF" width="4.3" height="4"/>
		<rect x="1442.9" y="266.5" fill="#FFFFFF" width="4.2" height="4"/>
		<polygon fill="#FFFFFF" points="1454,330.1 1458.5,330.1 1458.5,270.5 1458.5,270.5 1458.5,266.5 1454,266.5 		"/>
	</g>
	<g>
		<path fill="#FFFFFF" d="M893.4,596.4c-3.2,1-4.9,3.1-5.7,4.6c-2.4,4.2-1.8,11.1-1.7,15.8h4.2c-0.1-1.8-0.2-3.6-0.2-5.4
			c0-3.5,0.1-8.2,3.2-10.6c0.1-0.1,0.1-0.1,0.2-0.1V596.4z"/>
		<path fill="#FFFFFF" d="M906.2,601.7c-1.2-2.7-3.3-4.4-5.9-5.2v4.3c2.9,2,3.2,6.3,3.3,9.3c0.1,1.5,0.1,3,0.1,4.5
			c0,5.6-1.4,7.6-2.9,9.9c-0.7,1-1.3,1.9-2,2.9l-2.1,3.1c-2,3-1.9,4.3-1.9,6.3v7.3h4.2v-6.9c0-1.7,0.2-2.7,1-4.2
			c1.2-2,2.7-4,4.1-5.9c3.2-4.7,3.8-7.4,3.8-13.2C907.8,607.5,907.5,604.5,906.2,601.7z"/>
		<rect x="894.7" y="651.5" fill="#FFFFFF" width="4.2" height="8"/>
	</g>
	<g>
		<polygon fill="#FFFFFF" points="627.2,284.4 627.2,330.6 631.4,330.6 631.2,300.6 		"/>
		<polygon fill="#FFFFFF" points="648.9,330.2 633.7,269.1 630.1,269.1 631.1,272.9 631.1,272.6 636.8,295.8 646,332.6 649.5,332.6 
			648.9,330 		"/>
		<polygon fill="#FFFFFF" points="648.9,268.3 649.2,299.1 653.2,315.1 653.2,268.3 		"/>
	</g>
	<polygon fill="#FFFFFF" points="125,237.3 121,237.3 103,300.8 107.1,300.8 	"/>
</g>
</svg>
