<?xml version="1.0" encoding="utf-8"?>
<!-- Generator: Adobe Illustrator 18.1.0, SVG Export Plug-In . SVG Version: 6.00 Build 0)  -->
<!DOCTYPE svg PUBLIC "-//W3C//DTD SVG 1.1//EN" "http://www.w3.org/Graphics/SVG/1.1/DTD/svg11.dtd">
<svg version="1.1" xmlns="http://www.w3.org/2000/svg" xmlns:xlink="http://www.w3.org/1999/xlink" x="0px" y="0px"
	 viewBox="0 0 600 600" enable-background="new 0 0 600 600" xml:space="preserve">
<g id="Layer_1" display="none">
	<g display="inline">
		<path d="M486.6,376.7v-63.5h-4.3l0.6,61.1l-15.2-61.1h-6.5v63.5h4.2l-0.4-60l14.8,60H486.6z M442.5,362c0,3.7-0.2,7.6-3.6,10
			c-1.4,1.1-3.1,1.5-4.9,1.5c-5,0-7.3-3.2-7.9-4.9c-0.5-1.6-0.7-3.6-0.7-7.2v-35c0-1.1-0.2-6.1,3.7-8.6c0.7-0.5,2.3-1.4,4.9-1.4
			c2.1,0,3.6,0.6,4.2,1c1.8,0.9,2.5,2.2,2.9,3c1.3,2.4,1.5,5.4,1.5,10.7V362z M446.7,363.7v-35.1c0-4.9,0-10.4-4.5-13.9
			c-2.3-1.7-5.2-2.3-8.1-2.3c-5.4-0.1-10.4,2.3-12.1,7.6c-1,2.9-1,6.5-1,7.2v35.8c0,3.8,0.3,7.4,2.8,10.5c3.1,3.8,8.6,3.9,9.9,3.9
			c6.5,0,9.8-3.2,11.2-5.5C446.5,369.4,446.7,366.7,446.7,363.7 M406.4,313.1h-4.6v63.5h4.6V313.1z M391.4,317.1v-4h-26.8v4h11.1
			v59.6h4.5v-59.6H391.4z M355.8,364.6v-9.8h-4.5V365c0,1.2,0.2,5.6-3.8,7.6c-0.7,0.4-2,0.9-4,0.9c-0.8,0-2.7-0.1-4.6-1.1
			c-1.1-0.6-2-1.4-2.6-2.6c-1.9-3.1-1.6-8.5-1.6-12v-31.3c0-1.1-0.3-6.3,3.8-8.7c1.9-1.2,3.8-1.3,4.6-1.3c2.2,0,3.3,0.6,4.1,1.1
			c1.4,0.8,2.1,1.8,2.3,2.3c1.1,2.1,1.2,4.7,1.2,9.5v4.2h4.3v-8.9c0-0.6,0-3.4-0.9-5.7c-1.8-4.7-6.4-6.6-11.2-6.6
			c-4,0-7.7,1.3-10.3,4.8c-2.4,3.2-2.3,6.7-2.3,10.5v34.5c0,4,0.3,5.8,0.9,7.6c0.9,2.7,4,7.7,11.5,7.7c7.8,0,11-3.8,12.1-7.1
			C355.5,369,355.8,367.8,355.8,364.6 M316,364.1v-50.9h-4.4v46.7c0,6.6,0.1,10-2.9,12.2c-1.9,1.5-4.6,1.5-5.2,1.5c-4,0-6-1.7-7-3.2
			c-1.1-1.7-1.4-3.9-1.4-8v-49.2h-4.3v48.5c0,4.1-0.2,8.1,2.5,11.7c0.5,0.8,1.2,1.5,2,2.1c3,2.2,7,2.3,8,2.3c2,0,9.3-0.3,11.9-7.3
			C315.8,368.5,316,366.2,316,364.1 M271.9,353.6c0,9.3-1.1,13.9-5.2,16.9c-2.5,1.7-5,2.2-7.8,2.2h-3.6v-55.5h3.3
			c0.5,0,2.7,0.2,4.5,0.6c1.3,0.4,4.7,1.6,6.6,5.1c2.2,4,2.2,11.6,2.2,16.1V353.6z M276.2,353.3v-14.1c0-10.8-0.8-16.6-4.3-20.8
			c-4-4.8-9.8-5.2-15.6-5.2h-5.5v63.5h8.4c0.5,0,3,0,5-0.5c3.2-0.7,5.3-2.4,6.3-3.2c4.3-3.7,5.2-8.6,5.6-14
			C276.2,357,276.2,355.2,276.2,353.3 M231.6,362c0,3.7-0.2,7.6-3.6,10c-1.4,1.1-3.2,1.5-4.9,1.5c-5,0-7.3-3.2-7.9-4.9
			c-0.5-1.6-0.7-3.6-0.7-7.2v-35c0-1.1-0.2-6.1,3.7-8.6c0.7-0.5,2.3-1.4,4.9-1.4c2.1,0,3.6,0.6,4.2,1c1.8,0.9,2.5,2.2,2.9,3
			c1.3,2.4,1.5,5.4,1.5,10.7V362z M235.9,363.7v-35.1c0-4.9,0-10.4-4.5-13.9c-2.3-1.7-5.2-2.3-8.1-2.3c-5.4-0.1-10.4,2.3-12.1,7.6
			c-1,2.9-1,6.5-1,7.2v35.8c0,3.8,0.3,7.4,2.8,10.5c3.2,3.8,8.6,3.9,9.9,3.9c6.5,0,9.8-3.2,11.2-5.5
			C235.6,369.4,235.9,366.7,235.9,363.7 M192.5,335.2c0,1.3,0.1,4.9-3.9,6.2c-1.5,0.5-3.3,0.5-3.8,0.5h-8.1v-25h8.3
			c1.6,0,3.1,0.1,4.6,0.9c2.7,1.5,2.9,4.9,2.9,7.6V335.2z M200,376.7l-11.6-31.2c1.3-0.3,1.6-0.5,2.3-0.7c1.4-0.6,4.9-2.2,6.1-6.6
			c0.4-1.4,0.4-3.9,0.4-4v-9.9c0-1.3,0.2-5.9-3.5-8.8c-2.7-2.1-5.8-2.2-9-2.2h-12.3v63.5h4.4v-31h6.9l11.6,31H200z M154.4,334.5
			c0,0.5,0.4,4.9-2.1,7.3c-1.9,2-4.4,2.2-6.8,2.2h-7.2v-27.2h6.8c3.7,0,5.1,0.3,6.8,1.5c2.5,1.9,2.6,4.9,2.6,10.6V334.5z
			 M158.7,334.5v-7.2c0-4.7,0-8.8-3.4-11.6c-3.2-2.7-7.6-2.5-11.4-2.5H134v63.5h4.4v-29h6.5c2.8,0,8.1-0.2,11.3-4
			C158.7,340.8,158.7,337.9,158.7,334.5"/>
		<path d="M393.1,223.1h-4.4l-8.3,54l-8.3-54h-4.7l-8.2,54l-8.5-54h-4.5l10.8,63.5h4.6l8.2-54.6l8.2,54.6h4.8L393.1,223.1z
			 M330.6,272c0,3.7-0.2,7.6-3.6,10c-1.4,1.1-3.1,1.5-4.9,1.5c-5,0-7.3-3.2-7.9-5c-0.5-1.6-0.7-3.6-0.7-7.2v-35
			c0-1.1-0.2-6.1,3.7-8.6c0.7-0.4,2.3-1.3,4.9-1.3c2.1,0,3.6,0.6,4.2,1c1.8,0.9,2.5,2.2,2.9,3c1.3,2.4,1.5,5.4,1.5,10.7V272z
			 M334.8,273.7v-35.1c0-4.9,0-10.4-4.5-13.9c-2.3-1.7-5.2-2.3-8.1-2.3c-5.4-0.1-10.4,2.3-12.2,7.6c-1,2.9-1,6.5-1,7.2v35.8
			c0,3.8,0.3,7.4,2.8,10.5c3.2,3.8,8.6,3.9,9.9,3.9c6.5,0,9.8-3.1,11.2-5.5C334.5,279.4,334.8,276.7,334.8,273.7 M294.5,286.7v-63.5
			h-4.4v28.3h-16.4v-28.3h-4.3v63.5h4.3v-31.4h16.4v31.4H294.5z M255.9,272.6c0-5-0.9-8.5-4.1-12.5c-2-2.5-4.2-4.7-6.5-6.9
			c-1.5-1.6-3-3.1-4.3-4.8c-3.9-4.4-5.5-6.8-5.5-12.9c0-4.7,1.2-7.2,3.1-8.5c1.8-1.1,3.9-1.1,4.5-1.1c5.5,0,6.8,3.4,7.2,5.6
			c0.3,1.3,0.3,2,0.3,4.2v5.7h4.3v-4.6c0-4.6,0-10-4.4-12.9c-2.9-1.8-6.5-1.8-7.5-1.8c-8.9,0-11,5.7-11.6,9.3
			c-0.4,1.8-0.4,4.4-0.4,4.8c0,6.1,2.1,9.7,3.6,11.8c1.3,1.9,3.6,4.4,7.3,8c0.6,0.5,4.9,4.6,7.2,8.2c1.2,1.9,2.2,4.1,2.2,9.1
			c0,5.2-1.3,7.9-3.5,9.3c-1.9,1.2-3.9,1.2-4.6,1.2c-8.2,0-9.2-5.8-9.4-8.8c-0.1-1.4,0-2.6,0-4v-5.1h-4.4v9c0,1.9,0.1,3.3,0.7,5.1
			c0.7,1.9,1.7,3.3,3.1,4.6c0.9,0.8,1.6,1.3,2.1,1.5c2,1.1,4.9,1.5,7.3,1.5c6.1,0,9.3-2.4,10.8-4.7
			C254.9,281.1,255.9,278,255.9,272.6"/>
	</g>
</g>
<g id="Layer_2">
	<g>
		<g>
			<path fill="#FFFFFF" d="M361.7,287.4h-4.6l-11-64h4.6L361.7,287.4z M384.6,250.8l4.6-27.4h4.6l-7.3,42.5L384.6,250.8z
				 M362.6,252.6l4.6-29.2h6.4l9.1,64h-4.6l-7.8-54.4l-5.5,32.9L362.6,252.6z"/>
		</g>
	</g>
	<g>
		<polygon fill="#FFFFFF" points="278.2,251.9 273.4,251.9 273.4,223.6 269.1,223.6 269.1,287.2 273.4,287.2 273.4,255.7 
			278.2,255.7 		"/>
		<polygon fill="#FFFFFF" points="289.8,223.6 289.8,251.9 285.1,251.9 285.1,255.7 289.8,255.7 289.8,287.2 294.2,287.2 
			294.2,223.6 		"/>
	</g>
	<g>
		<path fill="#FFFFFF" d="M246.5,226.9c3,1,3.9,3.4,4.2,5.1c0.3,1.3,0.3,2,0.3,4.2v5.7h4.3v-4.6c0-4.6,0-10-4.4-12.9
			c-1.4-0.9-3-1.3-4.4-1.6V226.9z"/>
		<path fill="#FFFFFF" d="M252.2,260.6c-2-2.5-4.2-4.7-6.5-6.9c-1.5-1.6-3-3.2-4.3-4.8c-3.9-4.4-5.5-6.8-5.5-12.9
			c0-4.7,1.2-7.2,3.2-8.5c0.2-0.1,0.4-0.2,0.6-0.3v-4.1c-5.8,1.4-7.3,5.8-7.8,8.9c-0.4,1.8-0.4,4.4-0.4,4.8c0,6.1,2.1,9.7,3.6,11.8
			c1.4,1.9,3.6,4.4,7.3,8c0.6,0.5,4.9,4.6,7.2,8.2c1.2,1.9,2.3,4.1,2.3,9.1c0,5.2-1.3,7.9-3.5,9.3c-0.6,0.4-1.2,0.6-1.8,0.8v4
			c4-0.7,6.2-2.6,7.4-4.4c1.3-1.9,2.3-5,2.3-10.4C256.2,268.1,255.3,264.5,252.2,260.6z"/>
		<path fill="#FFFFFF" d="M239.7,283.7c-4.5-1.6-5.2-5.8-5.3-8.2c-0.1-1.4,0-2.6,0-4v-5.1H230v9c0,1.9,0.1,3.3,0.7,5.1
			c0.7,1.9,1.7,3.3,3.2,4.6c0.9,0.8,1.6,1.3,2.1,1.5c1.1,0.6,2.4,1,3.8,1.2V283.7z"/>
	</g>
	<path fill="#FFFFFF" d="M402.1,377.7v-63.6h4.6v63.6H402.1z"/>
	<g>
		<path fill="#FFFFFF" d="M347.3,318.1c0.3,0.1,0.5,0.2,0.7,0.4c1.4,0.8,2.1,1.8,2.3,2.3c1.1,2.1,1.2,4.7,1.2,9.5v4.2h4.3v-8.9
			c0-0.6,0-3.4-0.9-5.7c-1.3-3.5-4.3-5.4-7.6-6.2V318.1z"/>
		<path fill="#FFFFFF" d="M352,355.6v10.2c0,1.2,0.2,5.6-3.8,7.7c-0.3,0.1-0.6,0.3-1,0.4v4.3c5.2-1,7.5-4,8.4-6.8
			c0.5-1.5,0.8-2.8,0.8-5.9v-9.8H352z"/>
		<path fill="#FFFFFF" d="M340.4,373.6c-0.2-0.1-0.5-0.2-0.7-0.3c-1.1-0.6-2-1.4-2.6-2.6c-1.9-3.2-1.6-8.6-1.6-12v-31.3
			c0-1.1-0.3-6.3,3.8-8.7c0.4-0.2,0.8-0.4,1.1-0.6v-4.4c-2.7,0.6-5.1,1.9-6.9,4.4c-2.4,3.2-2.3,6.7-2.3,10.5v34.5
			c0,4,0.3,5.8,0.9,7.7c0.8,2.3,3.1,6.2,8.3,7.4V373.6z"/>
	</g>
	<g>
		<path fill="#FFFFFF" d="M312.1,313.8v46.7c0,6.6,0.1,10-2.9,12.2c-0.6,0.5-1.3,0.8-1.9,1v4.3c2.9-0.6,6.6-2.3,8.3-6.9
			c0.7-2,0.9-4.2,0.9-6.4v-51H312.1z"/>
		<path fill="#FFFFFF" d="M300.4,373.7c-1.7-0.6-2.8-1.7-3.4-2.7c-1.1-1.7-1.4-3.9-1.4-8v-49.2h-4.3v48.5c0,4.1-0.2,8.1,2.5,11.7
			c0.5,0.8,1.2,1.5,2,2.1c1.5,1.1,3.2,1.7,4.7,2V373.7z"/>
	</g>
	<g>
		<rect x="172.3" y="314.1" fill="#FFFFFF" width="4.4" height="63.6"/>
		<path fill="#FFFFFF" d="M188.3,346.5c1.4-0.3,1.6-0.5,2.3-0.7c1.4-0.6,5-2.2,6.1-6.6c0.4-1.4,0.4-3.9,0.4-4.1v-9.9
			c0-1.3,0.2-5.9-3.5-8.8c-2.7-2.1-5.8-2.3-9-2.3h-1v3.8h1.4c1.6,0,3.1,0.1,4.6,0.9c2.7,1.5,2.9,4.9,2.9,7.6v9.8
			c0,1.3,0.1,4.9-3.9,6.2c-1.5,0.5-3.3,0.5-3.8,0.5h-1.2v3.8h0l11.6,31h4.7L188.3,346.5z"/>
	</g>
	<g>
		<path fill="#FFFFFF" d="M220,373.9c-2.6-1-3.9-3.1-4.4-4.3c-0.5-1.6-0.7-3.6-0.7-7.2v-35c0-1.1-0.2-6.1,3.7-8.6
			c0.3-0.2,0.8-0.5,1.4-0.7v-4.2c-3.8,0.9-7.1,3.2-8.4,7.3c-1,2.9-1,6.5-1,7.2v35.8c0,3.8,0.3,7.4,2.8,10.5c1.8,2.2,4.5,3.2,6.6,3.6
			V373.9z"/>
		<path fill="#FFFFFF" d="M231.8,315.7c-1.5-1.1-3.2-1.7-4.9-2.1v4.3c0.3,0.1,0.6,0.3,0.8,0.4c1.8,0.9,2.5,2.3,2.9,3
			c1.3,2.4,1.5,5.4,1.5,10.7v31c0,3.7-0.2,7.6-3.6,10c-0.5,0.4-1,0.7-1.6,0.9v4.2c4.1-0.9,6.5-3.3,7.5-5.1c1.6-2.6,1.9-5.3,1.9-8.3
			v-35.1C236.3,324.6,236.3,319.1,231.8,315.7z"/>
	</g>
	<g>
		<path fill="#FFFFFF" d="M318.5,283.3c-2.6-1-3.9-3.1-4.4-4.3c-0.5-1.6-0.7-3.6-0.7-7.2v-35c0-1.1-0.2-6.1,3.7-8.6
			c0.3-0.2,0.8-0.5,1.4-0.7v-4.2c-3.8,0.9-7.1,3.2-8.4,7.3c-1,2.9-1,6.5-1,7.2v35.8c0,3.8,0.3,7.4,2.8,10.5c1.8,2.2,4.5,3.2,6.6,3.6
			V283.3z"/>
		<path fill="#FFFFFF" d="M330.3,225.2c-1.5-1.1-3.2-1.7-4.9-2.1v4.3c0.3,0.1,0.6,0.3,0.8,0.4c1.8,0.9,2.5,2.3,2.9,3
			c1.3,2.4,1.5,5.4,1.5,10.7v31c0,3.7-0.2,7.6-3.6,10c-0.5,0.4-1,0.7-1.6,0.9v4.2c4.1-0.9,6.5-3.3,7.5-5.1c1.6-2.6,1.9-5.3,1.9-8.3
			v-35.1C334.8,234.1,334.8,228.6,330.3,225.2z"/>
	</g>
	<g>
		<path fill="#FFFFFF" d="M430.7,373.9c-2.6-1-3.9-3.1-4.4-4.3c-0.5-1.6-0.7-3.6-0.7-7.2v-35c0-1.1-0.2-6.1,3.7-8.6
			c0.3-0.2,0.8-0.5,1.4-0.7v-4.2c-3.8,0.9-7.1,3.2-8.4,7.3c-1,2.9-1,6.5-1,7.2v35.8c0,3.8,0.3,7.4,2.8,10.5c1.8,2.2,4.5,3.2,6.6,3.6
			V373.9z"/>
		<path fill="#FFFFFF" d="M442.5,315.7c-1.5-1.1-3.2-1.7-4.9-2.1v4.3c0.3,0.1,0.6,0.3,0.8,0.4c1.8,0.9,2.5,2.3,2.9,3
			c1.3,2.4,1.5,5.4,1.5,10.7v31c0,3.7-0.2,7.6-3.6,10c-0.5,0.4-1,0.7-1.6,0.9v4.2c4.1-0.9,6.5-3.3,7.5-5.1c1.6-2.6,1.9-5.3,1.9-8.3
			v-35.1C447,324.6,447,319.1,442.5,315.7z"/>
	</g>
	<g>
		<rect x="250.7" y="313.9" fill="#FFFFFF" width="4.6" height="64"/>
		<path fill="#FFFFFF" d="M276.7,351.4v-11c0-8.2-0.5-16-4.6-21c-3.9-4.8-9.1-5.5-10.1-5.5v4.1c2.3,0.5,5.9,2.3,7.8,5.9
			c1.8,3.7,2.3,8.2,2.3,16.5v11c0,8.2-0.5,12.8-2.3,16.5c-1.8,3.7-5.5,5.5-7.8,5.9v4.1c0.9,0,6.1-0.7,10.1-5.5
			C276.3,367.4,276.7,359.6,276.7,351.4z"/>
	</g>
	<path fill="#FFFFFF" d="M158.5,336.8c0,6.4-2.3,11.9-12.3,11.9h-1.4V345h1.4c5.9,0,7.8-3.7,7.8-8.2v-11c0-4.6-1.8-8.2-7.8-8.2h-1.4
		v-3.7h1.4c10,0,12.3,5.5,12.3,11.9V336.8z M137.9,377.9h-4.6v-64h4.6V377.9z"/>
	<g>
		<rect x="387.2" y="314.1" fill="#FFFFFF" width="4.3" height="4"/>
		<rect x="364.8" y="314.1" fill="#FFFFFF" width="4.2" height="4"/>
		<polygon fill="#FFFFFF" points="375.8,377.7 380.3,377.7 380.3,318.1 380.3,318.1 380.3,314.1 375.8,314.1 		"/>
	</g>
	<g>
		<polygon fill="#FFFFFF" points="461.7,329.8 461.7,376.1 465.9,376.1 465.7,346 		"/>
		<polygon fill="#FFFFFF" points="483.4,375.6 468.2,314.5 464.6,314.5 465.6,318.4 465.6,318 471.3,341.2 480.5,378.1 484,378.1 
			483.4,375.5 		"/>
		<polygon fill="#FFFFFF" points="483.3,313.8 483.7,344.6 487.7,360.5 487.7,313.8 		"/>
	</g>
</g>
</svg>
