<?xml version="1.0" encoding="utf-8"?>
<!-- Generator: Adobe Illustrator 18.1.0, SVG Export Plug-In . SVG Version: 6.00 Build 0)  -->
<!DOCTYPE svg PUBLIC "-//W3C//DTD SVG 1.1//EN" "http://www.w3.org/Graphics/SVG/1.1/DTD/svg11.dtd">
<svg version="1.1" xmlns="http://www.w3.org/2000/svg" xmlns:xlink="http://www.w3.org/1999/xlink" x="0px" y="0px"
	 viewBox="0 0 600 600" enable-background="new 0 0 600 600" xml:space="preserve">
<g id="Layer_1" display="none">
	<g display="inline">
		<path d="M367,379.4c0,0.5,0.4,4.9-2.1,7.3c-1.9,2-4.4,2.2-6.8,2.2h-7.2v-27.2h6.8c3.7,0,5.1,0.3,6.8,1.5c2.5,1.9,2.6,5,2.6,10.6
			V379.4z M371.3,379.4v-7.2c0-4.7,0-8.8-3.4-11.6c-3.2-2.7-7.6-2.5-11.4-2.5h-9.9v63.5h4.4v-29h6.5c2.8,0,8.1-0.2,11.3-4
			C371.2,385.7,371.3,382.8,371.3,379.4 M331.6,358.1H327v63.5h4.6V358.1z M309,380.1c0,1.3,0.1,4.9-3.9,6.2
			c-1.5,0.5-3.3,0.5-3.8,0.5h-8.1v-25h8.3c1.6,0,3.1,0.1,4.6,0.9c2.7,1.5,2.9,4.9,2.9,7.6V380.1z M316.5,421.6l-11.6-31.2
			c1.3-0.3,1.6-0.4,2.3-0.7c1.4-0.6,4.9-2.2,6.1-6.6c0.4-1.4,0.4-3.9,0.4-4v-9.9c0-1.3,0.2-5.9-3.5-8.8c-2.7-2.1-5.8-2.2-9-2.2
			h-12.3v63.5h4.4v-31h6.9l11.6,31H316.5z M274.3,421.6v-29h-13.8v3.9h9.4v10.2c0,1.7,0.1,6.6-4.1,10.1c-1.4,1.2-3,1.9-4.9,1.9
			c-4.2,0-6.3-3-6.9-4.3c-1.2-2.3-1.3-5.1-1.3-10.4v-30.1c0-4-0.4-8.2,3.1-11.1c2.2-1.7,4.7-1.7,5.6-1.7c4.6,0,6.6,2.2,7.4,4.1
			c0.8,1.9,0.9,4.8,0.9,6.8v6.6h4.2v-8.8c0-0.4,0-3-0.5-4.7c-1-3.2-3.9-7.6-11.8-7.6c-4.2,0-6.5,0.9-8.1,2c-0.4,0.3-1.2,0.7-2.1,1.7
			c-2.8,2.8-3.1,7.1-3.1,10.8v33.4c0,6.7,0.4,9.5,2.4,12.4c2.1,3.2,5.8,4.9,9.5,4.9c4.9,0,7.8-2.6,9-3.9c0.5-0.5,0.8-0.9,1.6-2.1v5
			H274.3z"/>
		<path d="M463.4,268.1h-4l-18,63.5h4.1L463.4,268.1z M407.7,331.6v-29h-13.8v3.9h9.4v10.2c0,1.7,0.1,6.6-4.1,10.1
			c-1.4,1.2-3,1.9-4.9,1.9c-4.2,0-6.3-3-6.9-4.3c-1.2-2.3-1.3-5.1-1.3-10.4v-30.1c0-4-0.4-8.2,3.1-11.1c2.2-1.7,4.7-1.7,5.6-1.7
			c4.6,0,6.6,2.2,7.4,4c0.8,1.9,0.9,4.8,0.9,6.8v6.6h4.2v-8.8c0-0.4,0-3-0.4-4.7c-1-3.2-3.9-7.7-11.8-7.7c-4.2,0-6.5,0.9-8.1,2
			c-0.5,0.3-1.2,0.7-2.1,1.7c-2.8,2.8-3.1,7.1-3.1,10.8v33.4c0,6.7,0.5,9.5,2.4,12.4c2.1,3.2,5.8,4.9,9.5,4.9c4.9,0,7.8-2.6,9-3.9
			c0.5-0.5,0.8-0.9,1.6-2.1v5H407.7z M367,331.6v-63.5h-4.3l0.6,61.1l-15.2-61.1h-6.5v63.5h4.2l-0.4-60l14.8,60H367z M327,268.1
			h-4.6v63.5h4.6V268.1z M311.9,272.1v-4h-26.8v4h11.1v59.6h4.5v-59.6H311.9z M274.8,331.6v-63.5h-4.4v28.3H254v-28.3h-4.3v63.5h4.3
			v-31.4h16.4v31.4H274.8z M235.1,331.6v-29h-13.8v3.9h9.4v10.2c0,1.7,0.1,6.6-4.1,10.1c-1.4,1.2-3,1.9-4.9,1.9
			c-4.2,0-6.3-3-6.9-4.3c-1.2-2.3-1.3-5.1-1.3-10.4v-30.1c0-4-0.4-8.2,3.1-11.1c2.2-1.7,4.7-1.7,5.6-1.7c4.6,0,6.6,2.2,7.4,4
			c0.8,1.9,0.9,4.8,0.9,6.8v6.6h4.2v-8.8c0-0.4,0-3-0.4-4.7c-1-3.2-3.9-7.7-11.8-7.7c-4.2,0-6.5,0.9-8.1,2c-0.4,0.3-1.2,0.7-2.1,1.7
			c-2.8,2.8-3.1,7.1-3.1,10.8v33.4c0,6.7,0.4,9.5,2.4,12.4c2.1,3.2,5.8,4.9,9.5,4.9c4.9,0,7.8-2.6,9-3.9c0.5-0.5,0.8-0.9,1.6-2.1v5
			H235.1z M194.5,268.1h-4.6v63.5h4.6V268.1z M178.2,331.6v-4h-16.6v-59.6h-4.4v63.5H178.2z"/>
		<path d="M449.4,178.1h-4l-18,63.5h4.1L449.4,178.1z M387.4,218.1h-11.8l5.2-30c0.3-1.8,0.5-3.6,0.7-5.5c0.3,2,0.5,4,0.9,5.9
			L387.4,218.1z M396.1,241.6l-11.5-63.9h-6.1l-11.6,63.9h4.7l3.3-19.4h13.3l3.2,19.4H396.1z M351.9,200.1c0,1.3,0.1,4.9-3.9,6.2
			c-1.5,0.5-3.3,0.5-3.8,0.5h-8.1v-25h8.3c1.6,0,3.1,0.1,4.6,0.9c2.7,1.5,2.9,4.9,2.9,7.6V200.1z M359.4,241.6l-11.6-31.2
			c1.4-0.3,1.6-0.4,2.3-0.7c1.4-0.6,5-2.2,6.1-6.6c0.4-1.4,0.4-3.9,0.4-4.1v-9.9c0-1.3,0.2-5.9-3.5-8.8c-2.7-2.1-5.8-2.2-9-2.2
			h-12.3v63.5h4.4v-31h6.9l11.6,31H359.4z M319.8,182.1v-4h-22.5v63.5h22.4v-4h-18.1v-27.3h14.9v-3.9h-14.9v-24.5H319.8z
			 M282.5,241.6l-0.6-63.5h-6.5l-10.5,54.8l-10.5-54.8h-6.5l-0.5,63.5h4.4l-0.1-58.8l11.3,58.8h4l11.2-58.8l0.1,58.8H282.5z
			 M226.9,218.1h-11.8l5.2-30c0.3-1.8,0.5-3.6,0.7-5.5c0.3,2,0.5,4,0.9,5.9L226.9,218.1z M235.7,241.6l-11.5-63.9H218l-11.6,63.9
			h4.7l3.3-19.4h13.3l3.2,19.4H235.7z M196.1,229.6v-9.8h-4.5v10.2c0,1.2,0.2,5.6-3.8,7.7c-0.7,0.4-2,0.9-4,0.9
			c-0.8,0-2.7-0.1-4.6-1.1c-1.1-0.6-2-1.4-2.6-2.6c-1.9-3.1-1.6-8.5-1.6-12v-31.3c0-1.1-0.3-6.3,3.8-8.7c1.9-1.2,3.8-1.3,4.6-1.3
			c2.2,0,3.3,0.6,4.1,1.1c1.4,0.8,2.1,1.8,2.3,2.3c1.1,2.1,1.2,4.7,1.2,9.5v4.2h4.3v-8.9c0-0.6,0-3.4-0.9-5.7
			c-1.8-4.7-6.4-6.6-11.2-6.6c-4.1,0-7.7,1.3-10.3,4.8c-2.4,3.2-2.3,6.7-2.3,10.5v34.5c0,4,0.3,5.8,0.9,7.7c0.9,2.7,4,7.7,11.5,7.7
			c7.8,0,11-3.8,12.2-7.1C195.8,234,196.1,232.7,196.1,229.6"/>
	</g>
</g>
<g id="Layer_2">
	<path fill="#FFFFFF" d="M326.4,422.2v-63.6h4.6v63.6H326.4z"/>
	<path fill="#FFFFFF" d="M322.9,331.8v-63.6h4.6v63.6H322.9z"/>
	<path fill="#FFFFFF" d="M190.4,331.8v-63.6h4.6v63.6H190.4z"/>
	<path fill="#FFFFFF" d="M386.5,192.2l9.1,50.3h-4.6l-6.4-38.4L386.5,192.2z M370.5,242.4H366l11.9-64h4.6L370.5,242.4z"/>
	<path fill="#FFFFFF" d="M227,192.2l9.1,50.3h-4.6l-6.4-38.4L227,192.2z M211,242.4h-4.6l11.9-64h4.6L211,242.4z"/>
	<g>
		<path fill="#FFFFFF" d="M187.8,182.6c0.3,0.1,0.5,0.2,0.7,0.4c1.4,0.8,2.1,1.8,2.3,2.3c1.1,2.1,1.2,4.7,1.2,9.5v4.2h4.3v-8.9
			c0-0.6,0-3.4-0.9-5.7c-1.3-3.5-4.3-5.4-7.6-6.2V182.6z"/>
		<path fill="#FFFFFF" d="M192.6,220.2v10.2c0,1.2,0.2,5.6-3.8,7.7c-0.3,0.1-0.6,0.3-1,0.4v4.3c5.2-1,7.5-4,8.4-6.8
			c0.5-1.5,0.8-2.8,0.8-5.9v-9.8H192.6z"/>
		<path fill="#FFFFFF" d="M180.9,238.1c-0.2-0.1-0.5-0.2-0.7-0.3c-1.1-0.6-2-1.4-2.6-2.6c-1.9-3.2-1.6-8.6-1.6-12v-31.3
			c0-1.1-0.3-6.3,3.8-8.7c0.4-0.2,0.8-0.4,1.1-0.6v-4.4c-2.7,0.6-5.1,1.9-6.9,4.4c-2.4,3.2-2.3,6.7-2.3,10.5v34.5
			c0,4,0.3,5.8,0.9,7.7c0.8,2.3,3.1,6.2,8.3,7.4V238.1z"/>
	</g>
	<g>
		<rect x="288.4" y="358.6" fill="#FFFFFF" width="4.4" height="63.6"/>
		<path fill="#FFFFFF" d="M304.4,391c1.4-0.3,1.6-0.5,2.3-0.7c1.4-0.6,5-2.2,6.1-6.6c0.4-1.4,0.4-3.9,0.4-4.1v-9.9
			c0-1.3,0.2-5.9-3.5-8.8c-2.7-2.1-5.8-2.3-9-2.3h-1v3.8h1.4c1.6,0,3.1,0.1,4.6,0.9c2.7,1.5,2.9,4.9,2.9,7.6v9.8
			c0,1.3,0.1,4.9-3.9,6.2c-1.5,0.5-3.3,0.5-3.8,0.5h-1.2v3.8h0l11.6,31h4.7L304.4,391z"/>
	</g>
	<g>
		<rect x="331.9" y="178.7" fill="#FFFFFF" width="4.4" height="63.6"/>
		<path fill="#FFFFFF" d="M347.9,211c1.4-0.3,1.6-0.5,2.3-0.7c1.4-0.6,5-2.2,6.1-6.6c0.4-1.4,0.4-3.9,0.4-4.1v-9.9
			c0-1.3,0.2-5.9-3.5-8.8c-2.7-2.1-5.8-2.3-9-2.3h-1v3.8h1.4c1.6,0,3.1,0.1,4.6,0.9c2.7,1.5,2.9,4.9,2.9,7.6v9.8
			c0,1.3,0.1,4.9-3.9,6.2c-1.5,0.5-3.3,0.5-3.8,0.5h-1.2v3.8h0l11.6,31h4.7L347.9,211z"/>
	</g>
	<g>
		<polygon fill="#FFFFFF" points="281,179 274.5,179 267.5,215.4 269.3,225 277.3,183.3 277.4,242 281.6,242 		"/>
		<polygon fill="#FFFFFF" points="253.4,179 249.9,179 262,242 265.6,242 257.3,199 		"/>
		<polygon fill="#FFFFFF" points="246.8,199 246.4,242 250.8,242 250.8,220 		"/>
	</g>
	<g>
		<rect x="157.7" y="268.3" fill="#FFFFFF" width="4.4" height="63.6"/>
		<rect x="169" y="327.9" fill="#FFFFFF" width="9.7" height="4"/>
	</g>
	<g>
		<polygon fill="#FFFFFF" points="259,296.5 254.2,296.5 254.2,268.3 249.9,268.3 249.9,331.8 254.2,331.8 254.2,300.4 259,300.4 		
			"/>
		<polygon fill="#FFFFFF" points="270.6,268.3 270.6,296.5 265.9,296.5 265.9,300.4 270.6,300.4 270.6,331.8 275,331.8 275,268.3 		
			"/>
	</g>
	<g>
		<path fill="#FFFFFF" d="M390.3,328.2c-2.3-0.9-3.5-2.8-3.9-3.7c-1.2-2.3-1.3-5.1-1.3-10.4V284c0-4-0.4-8.2,3.1-11.1
			c0.7-0.6,1.4-0.9,2.1-1.2v-4c-2,0.4-3.3,1-4.4,1.7c-0.4,0.3-1.2,0.7-2.1,1.7c-2.8,2.8-3.1,7.1-3.1,10.8v33.4
			c0,6.7,0.5,9.5,2.4,12.4c1.6,2.5,4.2,4.1,7.1,4.6V328.2z"/>
		<path fill="#FFFFFF" d="M397.2,271.8c2.2,0.8,3.4,2.3,3.9,3.5c0.8,1.9,0.9,4.8,0.9,6.8v6.6h4.2v-8.8c0-0.4,0-3-0.4-4.7
			c-0.8-2.8-3.1-6.4-8.6-7.4V271.8z"/>
		<path fill="#FFFFFF" d="M397.2,302.7v3.9h5.1v10.2c0,1.7,0.1,6.6-4.1,10.1c-0.3,0.3-0.6,0.5-1,0.7v4.3c2.3-0.9,3.8-2.3,4.6-3.1
			c0.5-0.5,0.8-0.9,1.6-2.1v5h3.3v-29H397.2z"/>
	</g>
	<g>
		<path fill="#FFFFFF" d="M257.4,418.5c-2.3-0.9-3.5-2.8-3.9-3.7c-1.2-2.3-1.3-5.1-1.3-10.4v-30.1c0-4-0.4-8.2,3.1-11.1
			c0.7-0.6,1.4-0.9,2.1-1.2v-4c-2,0.4-3.3,1-4.4,1.7c-0.4,0.3-1.2,0.7-2.1,1.7c-2.8,2.8-3.1,7.1-3.1,10.8v33.4
			c0,6.7,0.5,9.5,2.4,12.4c1.6,2.5,4.2,4.1,7.1,4.6V418.5z"/>
		<path fill="#FFFFFF" d="M264.3,362.1c2.2,0.8,3.4,2.3,3.9,3.5c0.8,1.9,0.9,4.8,0.9,6.8v6.6h4.2v-8.8c0-0.4,0-3-0.4-4.7
			c-0.8-2.8-3.1-6.4-8.6-7.4V362.1z"/>
		<path fill="#FFFFFF" d="M264.3,393.1v3.9h5.1v10.2c0,1.7,0.1,6.6-4.1,10.1c-0.3,0.3-0.6,0.5-1,0.7v4.3c2.3-0.9,3.8-2.3,4.6-3.1
			c0.5-0.5,0.8-0.9,1.6-2.1v5h3.3v-29H264.3z"/>
	</g>
	<g>
		<path fill="#FFFFFF" d="M219.7,328.2c-2.3-0.9-3.5-2.8-3.9-3.7c-1.2-2.3-1.3-5.1-1.3-10.4V284c0-4-0.4-8.2,3.1-11.1
			c0.7-0.6,1.4-0.9,2.1-1.2v-4c-2,0.4-3.3,1-4.4,1.7c-0.4,0.3-1.2,0.7-2.1,1.7c-2.8,2.8-3.1,7.1-3.1,10.8v33.4
			c0,6.7,0.5,9.5,2.4,12.4c1.6,2.5,4.2,4.1,7.1,4.6V328.2z"/>
		<path fill="#FFFFFF" d="M226.6,271.8c2.2,0.8,3.4,2.3,3.9,3.5c0.8,1.9,0.9,4.8,0.9,6.8v6.6h4.2v-8.8c0-0.4,0-3-0.4-4.7
			c-0.8-2.8-3.1-6.4-8.6-7.4V271.8z"/>
		<path fill="#FFFFFF" d="M226.6,302.7v3.9h5.1v10.2c0,1.7,0.1,6.6-4.1,10.1c-0.3,0.3-0.6,0.5-1,0.7v4.3c2.3-0.9,3.8-2.3,4.6-3.1
			c0.5-0.5,0.8-0.9,1.6-2.1v5h3.3v-29H226.6z"/>
	</g>
	<path fill="#FFFFFF" d="M307.6,178.5h11.8v4.1h-11.8V178.5z M301.2,242.4h-4.6v-64h4.6V242.4z M307.6,238.3h11.7v4.1h-11.7V238.3z
		 M307.6,206.8h8.5v4.1h-8.5V206.8z"/>
	<path fill="#FFFFFF" d="M372.1,381.3c0,6.4-2.3,11.9-12.3,11.9h-1.4v-3.7h1.4c5.9,0,7.8-3.7,7.8-8.2v-11c0-4.6-1.8-8.2-7.8-8.2
		h-1.4v-3.7h1.4c10,0,12.3,5.5,12.3,11.9V381.3z M351.5,422.4h-4.6v-64h4.6V422.4z"/>
	<g>
		<rect x="306.7" y="268.3" fill="#FFFFFF" width="4.3" height="4"/>
		<rect x="284.2" y="268.3" fill="#FFFFFF" width="4.2" height="4"/>
		<polygon fill="#FFFFFF" points="295.3,331.8 299.8,331.8 299.8,272.2 299.8,272.2 299.8,268.3 295.3,268.3 		"/>
	</g>
	<g>
		<polygon fill="#FFFFFF" points="341.8,284 341.8,330.2 346,330.2 345.8,300.2 		"/>
		<polygon fill="#FFFFFF" points="363.5,329.8 348.3,268.6 344.7,268.6 345.7,272.5 345.7,272.2 351.4,295.3 360.6,332.2 
			364.1,332.2 363.5,329.6 		"/>
		<polygon fill="#FFFFFF" points="363.5,267.9 363.8,298.7 367.8,314.7 367.8,267.9 		"/>
	</g>
	<polygon fill="#FFFFFF" points="449,178.7 445,178.7 427,242.2 431.1,242.2 	"/>
	<polygon fill="#FFFFFF" points="462.5,268.3 458.4,268.3 440.4,331.8 444.6,331.8 	"/>
</g>
</svg>
