<?xml version="1.0" encoding="utf-8"?>
<!-- Generator: Adobe Illustrator 18.1.0, SVG Export Plug-In . SVG Version: 6.00 Build 0)  -->
<!DOCTYPE svg PUBLIC "-//W3C//DTD SVG 1.1//EN" "http://www.w3.org/Graphics/SVG/1.1/DTD/svg11.dtd">
<svg version="1.1" xmlns="http://www.w3.org/2000/svg" xmlns:xlink="http://www.w3.org/1999/xlink" x="0px" y="0px"
	 viewBox="0 0 600 600" enable-background="new 0 0 600 600" xml:space="preserve">
<g id="Layer_1" display="none">
	<g display="inline">
		<path d="M386.8,398.2c0,9.3-1.1,13.9-5.2,16.9c-2.5,1.7-4.9,2.2-7.8,2.2h-3.6v-55.5h3.3c0.5,0,2.7,0.2,4.5,0.6
			c1.3,0.4,4.7,1.6,6.6,5.1c2.2,4,2.2,11.6,2.2,16.1V398.2z M391.1,397.8v-14.1c0-10.8-0.8-16.6-4.3-20.8c-4.1-4.8-9.8-5.2-15.6-5.2
			h-5.5v63.5h8.4c0.4,0,3,0,5-0.5c3.2-0.7,5.3-2.4,6.3-3.2c4.3-3.7,5.2-8.6,5.6-14C391.1,401.5,391.1,399.7,391.1,397.8
			 M350.5,421.2v-63.5h-4.3l0.6,61.1l-15.2-61.1h-6.5v63.5h4.2l-0.4-60l14.8,60H350.5z M310.5,408.6v-50.9h-4.4v46.7
			c0,6.6,0.1,10-2.9,12.2c-1.9,1.5-4.6,1.5-5.2,1.5c-4,0-6-1.7-7-3.2c-1.1-1.7-1.4-3.9-1.4-8v-49.2h-4.3v48.5
			c0,4.1-0.2,8.1,2.5,11.7c0.5,0.8,1.2,1.5,2,2.1c3,2.2,7,2.3,8,2.3c2,0,9.3-0.3,11.9-7.3C310.3,413,310.5,410.8,310.5,408.6
			 M266.3,406.6c0,3.7-0.2,7.6-3.6,10c-1.4,1.1-3.2,1.5-5,1.5c-5,0-7.3-3.2-7.9-4.9c-0.5-1.6-0.7-3.6-0.7-7.2v-35
			c0-1.1-0.2-6.1,3.7-8.6c0.7-0.5,2.3-1.4,4.9-1.4c2.1,0,3.6,0.6,4.2,1c1.8,0.9,2.5,2.2,2.9,3c1.3,2.4,1.5,5.4,1.5,10.7V406.6z
			 M270.5,408.3v-35.1c0-4.9,0-10.4-4.5-13.9c-2.3-1.7-5.2-2.3-8.1-2.3c-5.4-0.1-10.3,2.3-12.1,7.6c-1,2.9-1,6.5-1,7.2v35.8
			c0,3.8,0.3,7.4,2.8,10.5c3.2,3.8,8.6,3.9,9.9,3.9c6.5,0,9.8-3.2,11.2-5.5C270.3,413.9,270.5,411.2,270.5,408.3 M231.7,407.2
			c0-5-0.9-8.6-4.1-12.5c-2-2.5-4.2-4.7-6.5-6.9c-1.5-1.6-3-3.1-4.3-4.8c-3.9-4.4-5.5-6.8-5.5-12.9c0-4.7,1.2-7.2,3.1-8.5
			c1.8-1.1,3.9-1.1,4.5-1.1c5.5,0,6.8,3.4,7.2,5.6c0.3,1.3,0.3,2,0.3,4.2v5.7h4.3v-4.6c0-4.6,0-10-4.4-12.9
			c-2.9-1.8-6.5-1.8-7.5-1.8c-8.9,0-11,5.7-11.6,9.3c-0.4,1.8-0.4,4.4-0.4,4.8c0,6.1,2.1,9.7,3.6,11.8c1.4,1.9,3.6,4.4,7.3,8
			c0.6,0.5,4.9,4.6,7.2,8.2c1.2,1.9,2.2,4.1,2.2,9.1c0,5.2-1.3,7.9-3.5,9.3c-1.9,1.2-3.9,1.2-4.6,1.2c-8.2,0-9.2-5.8-9.4-8.8
			c-0.1-1.4,0-2.6,0-4v-5.1h-4.4v9c0,1.9,0.1,3.3,0.7,5.1c0.7,1.9,1.7,3.3,3.1,4.6c0.9,0.8,1.6,1.3,2.1,1.5c2,1.1,4.9,1.5,7.3,1.5
			c6.1,0,9.3-2.4,10.8-4.7C230.7,415.6,231.7,412.5,231.7,407.2"/>
		<path d="M430.4,267.7h-4l-18,63.5h4.1L430.4,267.7z M377.4,331.2v-4h-16.6v-59.6h-4.4v63.5H377.4z M335.7,307.7h-11.8l5.2-30
			c0.3-1.8,0.5-3.6,0.7-5.5c0.3,2,0.5,4,0.9,5.9L335.7,307.7z M344.4,331.2l-11.5-63.9h-6.1l-11.6,63.9h4.7l3.3-19.3h13.3l3.2,19.3
			H344.4z M311,271.6v-4h-26.8v4h11.1v59.6h4.5v-59.6H311z M273.9,267.7h-4.6v63.5h4.6V267.7z M254.8,331.2v-29H241v3.9h9.4v10.2
			c0,1.7,0.1,6.6-4.1,10.1c-1.4,1.2-3,1.9-4.9,1.9c-4.2,0-6.3-3-6.9-4.3c-1.2-2.3-1.3-5.1-1.3-10.4v-30.1c0-4-0.4-8.2,3.1-11.1
			c2.2-1.7,4.7-1.7,5.6-1.7c4.6,0,6.6,2.2,7.4,4c0.8,1.9,0.9,4.8,0.9,6.8v6.6h4.2v-8.8c0-0.4,0-3-0.4-4.7c-1-3.2-3.9-7.6-11.8-7.6
			c-4.2,0-6.5,0.9-8.1,2c-0.4,0.3-1.2,0.7-2.1,1.7c-2.8,2.8-3.1,7.1-3.1,10.8v33.4c0,6.7,0.5,9.4,2.4,12.4c2.1,3.2,5.8,4.9,9.5,4.9
			c4.9,0,7.8-2.6,9-3.9c0.5-0.5,0.8-0.9,1.6-2.1v5H254.8z M214.2,267.7h-4.6v63.5h4.6V267.7z M190.7,308.2c0,9.3-1.1,14-5.2,16.9
			c-2.5,1.7-4.9,2.2-7.8,2.2H174v-55.5h3.3c0.5,0,2.7,0.2,4.5,0.6c1.3,0.4,4.7,1.6,6.6,5.1c2.2,4,2.2,11.6,2.2,16.1V308.2z
			 M195,307.8v-14.1c0-10.8-0.8-16.6-4.3-20.8c-4.1-4.8-9.8-5.2-15.6-5.2h-5.5v63.5h8.4c0.5,0,3,0,5-0.5c3.1-0.7,5.3-2.4,6.3-3.2
			c4.3-3.7,5.2-8.6,5.6-14C195,311.5,195,309.7,195,307.8"/>
	</g>
	<path display="inline" d="M212.2,177.7v63.5h4.3V210h15.9v-3.9h-15.9v-24.5h18.1v-4H212.2z M244.8,241.2h4.6v-63.5h-4.6V241.2z
		 M264.3,177.7v63.5h21v-4h-16.6v-59.6H264.3z M324.7,177.7l-10.5,54.8l-10.5-54.8h-6.5l-0.5,63.5h4.4l-0.1-58.8l11.2,58.8h4
		l11.2-58.8l0.1,58.8h4.2l-0.6-63.5H324.7z M383.7,177.7l-18,63.5h4.1l17.9-63.5H383.7z"/>
</g>
<g id="Layer_2">
	<g>
		<rect x="169.3" y="267.8" fill="#FFFFFF" width="4.6" height="64"/>
		<path fill="#FFFFFF" d="M195.3,305.2v-11c0-8.2-0.5-16-4.6-21c-3.9-4.8-9.1-5.5-10.1-5.5v4.1c2.3,0.5,5.9,2.3,7.8,5.9
			c1.8,3.7,2.3,8.2,2.3,16.5v11c0,8.2-0.5,12.8-2.3,16.5c-1.8,3.7-5.5,5.5-7.8,5.9v4.1c0.9,0,6.1-0.7,10.1-5.5
			C194.9,321.2,195.3,313.5,195.3,305.2z"/>
	</g>
	<polygon fill="#FFFFFF" points="387.1,177.7 383.1,177.7 365.1,241.3 369.2,241.3 	"/>
	<polygon fill="#FFFFFF" points="430.3,268 426.3,268 408.3,331.5 412.4,331.5 	"/>
	<g>
		<path fill="#FFFFFF" d="M306.5,357.1v46.7c0,6.6,0.1,10-2.9,12.2c-0.6,0.5-1.3,0.8-1.9,1v4.3c2.9-0.6,6.6-2.3,8.3-6.9
			c0.7-2,0.9-4.2,0.9-6.4v-51H306.5z"/>
		<path fill="#FFFFFF" d="M294.8,417c-1.7-0.6-2.8-1.7-3.4-2.7c-1.1-1.7-1.4-3.9-1.4-8v-49.2h-4.3v48.5c0,4.1-0.2,8.1,2.5,11.7
			c0.5,0.8,1.2,1.5,2,2.1c1.5,1.1,3.2,1.7,4.7,2V417z"/>
	</g>
	<path fill="#FFFFFF" d="M209.9,331v-63.6h4.6V331H209.9z"/>
	<path fill="#FFFFFF" d="M270.3,331v-63.6h4.6V331H270.3z"/>
	<path fill="#FFFFFF" d="M242.8,241.2v-63.6h4.6v63.6H242.8z"/>
	<g>
		<rect x="307.4" y="268" fill="#FFFFFF" width="4.3" height="4"/>
		<rect x="284.9" y="268" fill="#FFFFFF" width="4.2" height="4"/>
		<polygon fill="#FFFFFF" points="296,331.5 300.5,331.5 300.5,271.9 300.5,271.9 300.5,268 296,268 		"/>
	</g>
	<g>
		<polygon fill="#FFFFFF" points="326.2,373.2 326.2,419.4 330.4,419.4 330.2,389.4 		"/>
		<polygon fill="#FFFFFF" points="347.9,419 332.7,357.8 329.1,357.8 330.1,361.7 330.1,361.4 335.8,384.5 344.9,421.4 348.5,421.4 
			347.9,418.8 		"/>
		<polygon fill="#FFFFFF" points="347.8,357.1 348.2,387.9 352.1,403.9 352.1,357.1 		"/>
	</g>
	<path fill="#FFFFFF" d="M335.8,281.5l9.1,50.3h-4.6l-6.4-38.4L335.8,281.5z M319.8,331.7h-4.6l11.9-64h4.6L319.8,331.7z"/>
	<g>
		<path fill="#FFFFFF" d="M254.5,417.2c-2.6-1-3.9-3.1-4.4-4.3c-0.5-1.6-0.7-3.6-0.7-7.2v-35c0-1.1-0.2-6.1,3.7-8.6
			c0.3-0.2,0.8-0.5,1.4-0.7v-4.2c-3.8,0.9-7.1,3.2-8.4,7.3c-1,2.9-1,6.5-1,7.2v35.8c0,3.8,0.3,7.4,2.8,10.5c1.8,2.2,4.5,3.2,6.6,3.6
			V417.2z"/>
		<path fill="#FFFFFF" d="M266.3,359.1c-1.5-1.1-3.2-1.7-4.9-2.1v4.3c0.3,0.1,0.6,0.3,0.8,0.4c1.8,0.9,2.5,2.3,2.9,3
			c1.3,2.4,1.5,5.4,1.5,10.7v31c0,3.7-0.2,7.6-3.6,10c-0.5,0.4-1,0.7-1.6,0.9v4.2c4.1-0.9,6.5-3.3,7.5-5.1c1.6-2.6,1.9-5.3,1.9-8.3
			v-35.1C270.8,368,270.8,362.5,266.3,359.1z"/>
	</g>
	<g>
		<rect x="364.7" y="357.3" fill="#FFFFFF" width="4.6" height="64"/>
		<path fill="#FFFFFF" d="M390.7,394.7v-11c0-8.2-0.5-16-4.6-21c-3.9-4.8-9.1-5.5-10.1-5.5v4.1c2.3,0.5,5.9,2.3,7.8,5.9
			c1.8,3.7,2.3,8.2,2.3,16.5v11c0,8.2-0.5,12.8-2.3,16.5c-1.8,3.7-5.5,5.5-7.8,5.9v4.1c0.9,0,6.1-0.7,10.1-5.5
			C390.2,410.7,390.7,403,390.7,394.7z"/>
	</g>
	<g>
		<path fill="#FFFFFF" d="M223.3,360.8c3,1,3.9,3.4,4.2,5.1c0.3,1.3,0.3,2,0.3,4.2v5.7h4.3v-4.6c0-4.6,0-10-4.4-12.9
			c-1.4-0.9-3-1.3-4.4-1.6V360.8z"/>
		<path fill="#FFFFFF" d="M229,394.4c-2-2.5-4.2-4.7-6.5-6.9c-1.5-1.6-3-3.2-4.3-4.8c-3.9-4.4-5.5-6.8-5.5-12.9
			c0-4.7,1.2-7.2,3.2-8.5c0.2-0.1,0.4-0.2,0.6-0.3V357c-5.8,1.4-7.3,5.8-7.8,8.9c-0.4,1.8-0.4,4.4-0.4,4.8c0,6.1,2.1,9.7,3.6,11.8
			c1.4,1.9,3.6,4.4,7.3,8c0.6,0.5,4.9,4.6,7.2,8.2c1.2,1.9,2.3,4.1,2.3,9.1c0,5.2-1.3,7.9-3.5,9.3c-0.6,0.4-1.2,0.6-1.8,0.8v4
			c4-0.7,6.2-2.6,7.4-4.4c1.3-1.9,2.3-5,2.3-10.4C233,401.9,232.1,398.4,229,394.4z"/>
		<path fill="#FFFFFF" d="M216.5,417.5c-4.5-1.6-5.2-5.8-5.3-8.2c-0.1-1.4,0-2.6,0-4v-5.1h-4.4v9c0,1.9,0.1,3.3,0.7,5.1
			c0.7,1.9,1.7,3.3,3.2,4.6c0.9,0.8,1.6,1.3,2.1,1.5c1.1,0.6,2.4,1,3.8,1.2V417.5z"/>
	</g>
	<g>
		<path fill="#FFFFFF" d="M238.2,327.9c-2.3-0.9-3.5-2.8-3.9-3.7c-1.2-2.3-1.3-5.1-1.3-10.4v-30.1c0-4-0.4-8.2,3.1-11.1
			c0.7-0.6,1.4-0.9,2.1-1.2v-4c-2,0.4-3.3,1-4.4,1.7c-0.4,0.3-1.2,0.7-2.1,1.7c-2.8,2.8-3.1,7.1-3.1,10.8V315
			c0,6.7,0.5,9.5,2.4,12.4c1.6,2.5,4.2,4.1,7.1,4.6V327.9z"/>
		<path fill="#FFFFFF" d="M245.1,271.5c2.2,0.8,3.4,2.3,3.9,3.5c0.8,1.9,0.9,4.8,0.9,6.8v6.6h4.2v-8.8c0-0.4,0-3-0.4-4.7
			c-0.8-2.8-3.1-6.4-8.6-7.4V271.5z"/>
		<path fill="#FFFFFF" d="M245.1,302.4v3.9h5.1v10.2c0,1.7,0.1,6.6-4.1,10.1c-0.3,0.3-0.6,0.5-1,0.7v4.3c2.3-0.9,3.8-2.3,4.6-3.1
			c0.5-0.5,0.8-0.9,1.6-2.1v5h3.3v-29H245.1z"/>
	</g>
	<g>
		<rect x="263.7" y="177.7" fill="#FFFFFF" width="4.4" height="63.6"/>
		<rect x="275" y="237.3" fill="#FFFFFF" width="9.7" height="4"/>
	</g>
	<g>
		<rect x="356.7" y="268" fill="#FFFFFF" width="4.4" height="63.6"/>
		<rect x="368" y="327.6" fill="#FFFFFF" width="9.7" height="4"/>
	</g>
	<g>
		<polygon fill="#FFFFFF" points="331,178 324.5,178 317.5,214.4 319.3,224 327.3,182.3 327.4,241 331.6,241 		"/>
		<polygon fill="#FFFFFF" points="303.4,178 299.9,178 312,241 315.6,241 307.3,198 		"/>
		<polygon fill="#FFFFFF" points="296.8,198 296.4,241 300.8,241 300.8,219 		"/>
	</g>
	<path fill="#FFFFFF" d="M222.4,177.5h11.8v4.1h-11.8V177.5z M216,241.5h-4.6v-64h4.6V241.5z M222.4,205.8h8.5v4.1h-8.5V205.8z"/>
</g>
</svg>
