<?xml version="1.0" encoding="utf-8"?>
<!-- Generator: Adobe Illustrator 18.1.0, SVG Export Plug-In . SVG Version: 6.00 Build 0)  -->
<!DOCTYPE svg PUBLIC "-//W3C//DTD SVG 1.1//EN" "http://www.w3.org/Graphics/SVG/1.1/DTD/svg11.dtd">
<svg version="1.1" xmlns="http://www.w3.org/2000/svg" xmlns:xlink="http://www.w3.org/1999/xlink" x="0px" y="0px"
	 viewBox="0 0 600 600" enable-background="new 0 0 600 600" xml:space="preserve">
<g id="Layer_1" display="none">
	<g display="inline">
		<path d="M444.3,376.7v-29h-13.8v3.9h9.4v10.2c0,1.7,0.1,6.6-4.1,10.1c-1.4,1.2-3,1.9-4.9,1.9c-4.2,0-6.3-3-6.9-4.3
			c-1.2-2.3-1.3-5.1-1.3-10.4V329c0-4-0.4-8.2,3.1-11.1c2.2-1.7,4.7-1.7,5.6-1.7c4.6,0,6.6,2.2,7.4,4.1c0.8,1.9,0.9,4.8,0.9,6.8v6.6
			h4.2v-8.8c0-0.4,0-3-0.4-4.7c-1-3.2-3.9-7.6-11.8-7.6c-4.2,0-6.5,0.9-8.1,2c-0.4,0.3-1.2,0.7-2.1,1.7c-2.8,2.8-3.1,7.1-3.1,10.8
			v33.4c0,6.7,0.5,9.4,2.4,12.4c2.1,3.2,5.8,4.9,9.5,4.9c4.9,0,7.8-2.6,9-3.9c0.5-0.5,0.8-0.9,1.6-2.1v5H444.3z M403.6,376.7v-63.5
			h-4.3l0.6,61.1l-15.2-61.1h-6.5v63.5h4.2l-0.4-60l14.8,60H403.6z M363.6,313.2H359v63.5h4.6V313.2z M345.6,362.7
			c0-5-0.9-8.5-4-12.5c-2-2.5-4.2-4.7-6.5-6.9c-1.5-1.6-3-3.1-4.3-4.8c-3.9-4.4-5.5-6.8-5.5-12.9c0-4.7,1.2-7.2,3.1-8.5
			c1.8-1.1,3.9-1.1,4.5-1.1c5.5,0,6.8,3.4,7.2,5.6c0.3,1.3,0.3,2,0.3,4.2v5.7h4.3V327c0-4.6,0-10-4.4-12.9c-2.9-1.8-6.5-1.8-7.5-1.8
			c-8.9,0-11,5.7-11.6,9.3c-0.4,1.8-0.4,4.4-0.4,4.8c0,6.1,2.1,9.7,3.6,11.8c1.4,1.9,3.6,4.4,7.3,8c0.6,0.5,4.9,4.6,7.2,8.2
			c1.2,1.9,2.2,4.1,2.2,9.1c0,5.2-1.3,7.9-3.5,9.3c-1.9,1.2-3.9,1.2-4.6,1.2c-8.2,0-9.2-5.8-9.4-8.8c-0.1-1.4,0-2.6,0-4v-5.1h-4.4v9
			c0,1.9,0.1,3.3,0.7,5.1c0.7,1.9,1.7,3.3,3.2,4.6c0.9,0.8,1.6,1.3,2.1,1.5c2,1.1,4.9,1.5,7.3,1.5c6.1,0,9.3-2.4,10.8-4.7
			C344.6,371.1,345.6,368,345.6,362.7 M305.7,376.7v-63.5h-4.3l0.6,61.1l-15.2-61.1h-6.5v63.5h4.2l-0.4-60l14.8,60H305.7z
			 M268.7,317.1v-4h-22.5v63.5h22.4v-4h-18.1v-27.3h14.9v-3.9h-14.9v-24.5H268.7z M232.7,364.7v-9.8h-4.5V365c0,1.2,0.2,5.6-3.8,7.6
			c-0.7,0.4-2,0.9-4,0.9c-0.8,0-2.7-0.1-4.6-1.1c-1.1-0.6-2-1.4-2.6-2.6c-1.9-3.2-1.6-8.6-1.6-12v-31.3c0-1.1-0.3-6.3,3.8-8.7
			c1.9-1.2,3.8-1.3,4.6-1.3c2.2,0,3.3,0.6,4.1,1.1c1.3,0.8,2.1,1.8,2.3,2.3c1.1,2.1,1.2,4.7,1.2,9.5v4.2h4.3v-8.9
			c0-0.6,0-3.4-0.9-5.7c-1.8-4.7-6.4-6.6-11.2-6.6c-4.1,0-7.7,1.3-10.3,4.8c-2.4,3.2-2.3,6.7-2.3,10.5v34.5c0,4,0.3,5.8,0.9,7.7
			c0.9,2.7,4,7.7,11.5,7.7c7.8,0,11-3.8,12.1-7.1C232.5,369.1,232.7,367.8,232.7,364.7 M192.9,313.2h-4.6v63.5h4.6V313.2z
			 M176.7,376.7v-4h-16.6v-59.6h-4.4v63.5H176.7z"/>
		<path d="M386.7,274.7v-9.8h-4.5V275c0,1.2,0.2,5.6-3.8,7.7c-0.7,0.4-2,0.9-4,0.9c-0.8,0-2.7-0.1-4.6-1.1c-1.1-0.6-2-1.4-2.6-2.6
			c-1.9-3.1-1.6-8.6-1.6-12v-31.3c0-1.1-0.3-6.3,3.8-8.7c1.9-1.2,3.8-1.3,4.6-1.3c2.2,0,3.3,0.6,4.1,1.1c1.4,0.8,2.1,1.8,2.3,2.3
			c1.1,2.1,1.2,4.7,1.2,9.4v4.2h4.3v-8.9c0-0.6,0-3.4-0.9-5.7c-1.8-4.7-6.4-6.6-11.2-6.6c-4,0-7.7,1.3-10.3,4.8
			c-2.4,3.2-2.3,6.7-2.3,10.5v34.5c0,4,0.3,5.8,0.9,7.6c0.9,2.7,4,7.7,11.5,7.7c7.8,0,11-3.8,12.1-7.1
			C386.4,279.1,386.7,277.8,386.7,274.7 M346.9,223.2h-4.6v63.5h4.6V223.2z M328.9,272.7c0-5-0.9-8.5-4.1-12.5
			c-2-2.5-4.2-4.7-6.5-6.9c-1.5-1.6-3-3.1-4.3-4.8c-3.9-4.4-5.5-6.8-5.5-12.9c0-4.7,1.2-7.2,3.1-8.5c1.8-1.1,3.9-1.1,4.5-1.1
			c5.5,0,6.8,3.4,7.2,5.6c0.3,1.3,0.3,2,0.3,4.2v5.7h4.3V237c0-4.6,0-10-4.4-12.9c-2.9-1.8-6.5-1.8-7.5-1.8c-8.9,0-11,5.7-11.6,9.3
			c-0.4,1.8-0.4,4.4-0.4,4.8c0,6.1,2.1,9.7,3.6,11.8c1.3,1.9,3.6,4.4,7.3,8c0.6,0.5,4.9,4.6,7.2,8.2c1.2,1.9,2.2,4.1,2.2,9.1
			c0,5.2-1.3,7.9-3.5,9.3c-1.9,1.2-3.9,1.2-4.6,1.2c-8.2,0-9.2-5.8-9.4-8.8c-0.1-1.3,0-2.6,0-4v-5.1h-4.4v9c0,1.9,0.1,3.3,0.7,5.1
			c0.7,1.9,1.7,3.3,3.2,4.6c0.9,0.8,1.6,1.3,2.1,1.5c2,1.1,4.9,1.5,7.3,1.5c6.1,0,9.3-2.4,10.8-4.7
			C327.9,281.1,328.9,278,328.9,272.7 M289.1,274.1v-50.9h-4.4v46.7c0,6.6,0.1,10-2.9,12.2c-1.9,1.5-4.6,1.5-5.2,1.5
			c-4,0-6-1.7-7-3.2c-1.1-1.7-1.4-3.9-1.4-8v-49.2h-4.3v48.5c0,4.1-0.2,8.1,2.5,11.7c0.5,0.8,1.2,1.5,2,2.1c3,2.2,7,2.3,8,2.3
			c2,0,9.3-0.3,11.9-7.3C288.9,278.5,289.1,276.3,289.1,274.1 M249.2,286.7l-0.6-63.5h-6.5L231.6,278l-10.5-54.8h-6.5l-0.5,63.5h4.4
			l-0.1-58.8l11.2,58.8h4.1l11.2-58.8l0.1,58.8H249.2z"/>
	</g>
</g>
<g id="Layer_2">
	<g>
		<path fill="#FFFFFF" d="M284.5,223.2V270c0,6.6,0.1,10-2.9,12.2c-0.6,0.5-1.3,0.8-1.9,1v4.3c2.9-0.6,6.6-2.3,8.3-6.9
			c0.7-2,0.9-4.2,0.9-6.4v-51H284.5z"/>
		<path fill="#FFFFFF" d="M272.8,283.2c-1.7-0.6-2.8-1.7-3.4-2.7c-1.1-1.7-1.4-3.9-1.4-8v-49.2h-4.3v48.5c0,4.1-0.2,8.1,2.5,11.7
			c0.5,0.8,1.2,1.5,2,2.1c1.5,1.1,3.2,1.7,4.7,2V283.2z"/>
	</g>
	<path fill="#FFFFFF" d="M188.5,377.7v-63.6h4.6v63.6H188.5z"/>
	<path fill="#FFFFFF" d="M359.3,377.7v-63.6h4.6v63.6H359.3z"/>
	<path fill="#FFFFFF" d="M342.1,287.2v-63.6h4.6v63.6H342.1z"/>
	<g>
		<path fill="#FFFFFF" d="M427.2,374.1c-2.3-0.9-3.5-2.8-3.9-3.7c-1.2-2.3-1.3-5.1-1.3-10.4v-30.1c0-4-0.4-8.2,3.1-11.1
			c0.7-0.6,1.4-0.9,2.1-1.2v-4c-2,0.4-3.3,1-4.4,1.7c-0.4,0.3-1.2,0.7-2.1,1.7c-2.8,2.8-3.1,7.1-3.1,10.8v33.4
			c0,6.7,0.5,9.5,2.4,12.4c1.6,2.5,4.2,4.1,7.1,4.6V374.1z"/>
		<path fill="#FFFFFF" d="M434.1,317.7c2.2,0.8,3.4,2.3,3.9,3.5c0.8,1.9,0.9,4.8,0.9,6.8v6.6h4.2v-8.8c0-0.4,0-3-0.4-4.7
			c-0.8-2.8-3.1-6.4-8.6-7.4V317.7z"/>
		<path fill="#FFFFFF" d="M434.1,348.6v3.9h5.1v10.2c0,1.7,0.1,6.6-4.1,10.1c-0.3,0.3-0.6,0.5-1,0.7v4.3c2.3-0.9,3.8-2.3,4.6-3.1
			c0.5-0.5,0.8-0.9,1.6-2.1v5h3.3v-29H434.1z"/>
	</g>
	<g>
		<path fill="#FFFFFF" d="M377.9,227.6c0.3,0.1,0.5,0.2,0.7,0.4c1.4,0.8,2.1,1.8,2.3,2.3c1.1,2.1,1.2,4.7,1.2,9.5v4.2h4.3v-8.9
			c0-0.6,0-3.4-0.9-5.7c-1.3-3.5-4.3-5.4-7.6-6.2V227.6z"/>
		<path fill="#FFFFFF" d="M382.7,265.1v10.2c0,1.2,0.2,5.6-3.8,7.7c-0.3,0.1-0.6,0.3-1,0.4v4.3c5.2-1,7.5-4,8.4-6.8
			c0.5-1.5,0.8-2.8,0.8-5.9v-9.8H382.7z"/>
		<path fill="#FFFFFF" d="M371,283.1c-0.2-0.1-0.5-0.2-0.7-0.3c-1.1-0.6-2-1.4-2.6-2.6c-1.9-3.2-1.6-8.6-1.6-12v-31.3
			c0-1.1-0.3-6.3,3.8-8.7c0.4-0.2,0.8-0.4,1.1-0.6v-4.4c-2.7,0.6-5.1,1.9-6.9,4.4c-2.4,3.2-2.3,6.7-2.3,10.5v34.5
			c0,4,0.3,5.8,0.9,7.7c0.8,2.3,3.1,6.2,8.3,7.4V283.1z"/>
	</g>
	<g>
		<path fill="#FFFFFF" d="M224,318.1c0.3,0.1,0.5,0.2,0.7,0.4c1.4,0.8,2.1,1.8,2.3,2.3c1.1,2.1,1.2,4.7,1.2,9.5v4.2h4.3v-8.9
			c0-0.6,0-3.4-0.9-5.7c-1.3-3.5-4.3-5.4-7.6-6.2V318.1z"/>
		<path fill="#FFFFFF" d="M228.8,355.7v10.2c0,1.2,0.2,5.6-3.8,7.7c-0.3,0.1-0.6,0.3-1,0.4v4.3c5.2-1,7.5-4,8.4-6.8
			c0.5-1.5,0.8-2.8,0.8-5.9v-9.8H228.8z"/>
		<path fill="#FFFFFF" d="M217.1,373.6c-0.2-0.1-0.5-0.2-0.7-0.3c-1.1-0.6-2-1.4-2.6-2.6c-1.9-3.2-1.6-8.6-1.6-12v-31.3
			c0-1.1-0.3-6.3,3.8-8.7c0.4-0.2,0.8-0.4,1.1-0.6v-4.4c-2.7,0.6-5.1,1.9-6.9,4.4c-2.4,3.2-2.3,6.7-2.3,10.5v34.5
			c0,4,0.3,5.8,0.9,7.7c0.8,2.3,3.1,6.2,8.3,7.4V373.6z"/>
	</g>
	<g>
		<rect x="156.6" y="314.2" fill="#FFFFFF" width="4.4" height="63.6"/>
		<rect x="167.8" y="373.8" fill="#FFFFFF" width="9.7" height="4"/>
	</g>
	<path fill="#FFFFFF" d="M256.8,314h11.8v4.1h-11.8V314z M250.4,377.9h-4.6v-64h4.6V377.9z M256.8,373.8h11.7v4.1h-11.7V373.8z
		 M256.8,342.3h8.5v4.1h-8.5V342.3z"/>
	<g>
		<path fill="#FFFFFF" d="M318.9,226.9c3,1,3.9,3.4,4.2,5.1c0.3,1.3,0.3,2,0.3,4.2v5.7h4.3v-4.6c0-4.6,0-10-4.4-12.9
			c-1.4-0.9-3-1.3-4.4-1.6V226.9z"/>
		<path fill="#FFFFFF" d="M324.5,260.6c-2-2.5-4.2-4.7-6.5-6.9c-1.5-1.6-3-3.2-4.3-4.8c-3.9-4.4-5.5-6.8-5.5-12.9
			c0-4.7,1.2-7.2,3.2-8.5c0.2-0.1,0.4-0.2,0.6-0.3v-4.1c-5.8,1.4-7.3,5.8-7.8,8.9c-0.4,1.8-0.4,4.4-0.4,4.8c0,6.1,2.1,9.7,3.6,11.8
			c1.4,1.9,3.6,4.4,7.3,8c0.6,0.5,4.9,4.6,7.2,8.2c1.2,1.9,2.3,4.1,2.3,9.1c0,5.2-1.3,7.9-3.5,9.3c-0.6,0.4-1.2,0.6-1.8,0.8v4
			c4-0.7,6.2-2.6,7.4-4.4c1.3-1.9,2.3-5,2.3-10.4C328.6,268.1,327.7,264.6,324.5,260.6z"/>
		<path fill="#FFFFFF" d="M312,283.7c-4.5-1.6-5.2-5.8-5.3-8.2c-0.1-1.4,0-2.6,0-4v-5.1h-4.4v9c0,1.9,0.1,3.3,0.7,5.1
			c0.7,1.9,1.7,3.3,3.2,4.6c0.9,0.8,1.6,1.3,2.1,1.5c1.1,0.6,2.4,1,3.8,1.2V283.7z"/>
	</g>
	<g>
		<path fill="#FFFFFF" d="M335.4,317.5c3,1,3.9,3.4,4.2,5.1c0.3,1.3,0.3,2,0.3,4.2v5.7h4.3v-4.6c0-4.6,0-10-4.4-12.9
			c-1.4-0.9-3-1.3-4.4-1.6V317.5z"/>
		<path fill="#FFFFFF" d="M341.1,351.1c-2-2.5-4.2-4.7-6.5-6.9c-1.5-1.6-3-3.2-4.3-4.8c-3.9-4.4-5.5-6.8-5.5-12.9
			c0-4.7,1.2-7.2,3.2-8.5c0.2-0.1,0.4-0.2,0.6-0.3v-4.1c-5.8,1.4-7.3,5.8-7.8,8.9c-0.4,1.8-0.4,4.4-0.4,4.8c0,6.1,2.1,9.7,3.6,11.8
			c1.4,1.9,3.6,4.4,7.3,8c0.6,0.5,4.9,4.6,7.2,8.2c1.2,1.9,2.3,4.1,2.3,9.1c0,5.2-1.3,7.9-3.5,9.3c-0.6,0.4-1.2,0.6-1.8,0.8v4
			c4-0.7,6.2-2.6,7.4-4.4c1.3-1.9,2.3-5,2.3-10.4C345.1,358.6,344.2,355.1,341.1,351.1z"/>
		<path fill="#FFFFFF" d="M328.6,374.2c-4.5-1.6-5.2-5.8-5.3-8.2c-0.1-1.4,0-2.6,0-4v-5.1h-4.4v9c0,1.9,0.1,3.3,0.7,5.1
			c0.7,1.9,1.7,3.3,3.2,4.6c0.9,0.8,1.6,1.3,2.1,1.5c1.1,0.6,2.4,1,3.8,1.2V374.2z"/>
	</g>
	<g>
		<polygon fill="#FFFFFF" points="280.2,329.9 280.2,376.1 284.5,376.1 284.3,346.1 		"/>
		<polygon fill="#FFFFFF" points="301.9,375.7 286.7,314.6 283.1,314.6 284.1,318.4 284.1,318.1 289.8,341.2 299,378.1 302.6,378.1 
			301.9,375.5 		"/>
		<polygon fill="#FFFFFF" points="301.9,313.8 302.2,344.6 306.2,360.6 306.2,313.8 		"/>
	</g>
	<g>
		<polygon fill="#FFFFFF" points="377.4,329.9 377.4,376.1 381.6,376.1 381.4,346.1 		"/>
		<polygon fill="#FFFFFF" points="399.1,375.7 383.9,314.6 380.3,314.6 381.3,318.4 381.3,318.1 387,341.2 396.2,378.1 399.7,378.1 
			399.1,375.5 		"/>
		<polygon fill="#FFFFFF" points="399,313.8 399.4,344.6 403.4,360.6 403.4,313.8 		"/>
	</g>
	<g>
		<polygon fill="#FFFFFF" points="249,224 242.5,224 235.5,260.3 237.3,269.9 245.3,228.3 245.4,287 249.6,287 		"/>
		<polygon fill="#FFFFFF" points="221.4,224 217.9,224 230,287 233.6,287 225.3,244 		"/>
		<polygon fill="#FFFFFF" points="214.8,244 214.4,287 218.8,287 218.8,265 		"/>
	</g>
</g>
</svg>
