<?xml version="1.0" encoding="utf-8"?>
<!-- Generator: Adobe Illustrator 18.1.0, SVG Export Plug-In . SVG Version: 6.00 Build 0)  -->
<!DOCTYPE svg PUBLIC "-//W3C//DTD SVG 1.1//EN" "http://www.w3.org/Graphics/SVG/1.1/DTD/svg11.dtd">
<svg version="1.1" xmlns="http://www.w3.org/2000/svg" xmlns:xlink="http://www.w3.org/1999/xlink" x="0px" y="0px"
	 viewBox="0 0 600 600" enable-background="new 0 0 600 600" xml:space="preserve">
<g id="Layer_1" display="none">
	<g display="inline">
		<path d="M545.3,376.6v-63.5H541l0.6,61.1l-15.2-61.1H520v63.5h4.2l-0.4-60l14.8,60H545.3z M501.2,362c0,3.7-0.2,7.6-3.6,10
			c-1.4,1.1-3.1,1.5-5,1.5c-5,0-7.3-3.2-7.9-4.9c-0.5-1.6-0.7-3.6-0.7-7.2v-35c0-1.1-0.2-6.1,3.7-8.6c0.7-0.5,2.3-1.4,4.9-1.4
			c2.1,0,3.6,0.6,4.2,1c1.8,0.9,2.5,2.2,2.9,3c1.3,2.4,1.5,5.4,1.5,10.7V362z M505.5,363.7v-35.1c0-4.9,0-10.4-4.5-13.9
			c-2.3-1.7-5.2-2.3-8.1-2.3c-5.4-0.1-10.3,2.3-12.1,7.6c-1,2.9-1,6.5-1,7.2V363c0,3.8,0.3,7.4,2.8,10.5c3.1,3.8,8.6,3.9,9.9,3.9
			c6.5,0,9.8-3.1,11.2-5.5C505.2,369.3,505.5,366.6,505.5,363.7 M465.1,313.1h-4.6v63.5h4.6V313.1z M450.1,317.1v-4h-26.8v4h11.1
			v59.6h4.5v-59.6H450.1z M410.3,353.1h-11.8l5.2-30c0.3-1.8,0.5-3.6,0.7-5.5c0.3,2,0.5,4,0.9,5.9L410.3,353.1z M419.1,376.6
			l-11.5-63.9h-6.1l-11.6,63.9h4.7l3.3-19.3h13.3l3.2,19.3H419.1z M385.7,317.1v-4h-26.8v4h11.1v59.6h4.5v-59.6H385.7z M345.4,335.1
			c0,1.3,0.1,4.9-3.9,6.2c-1.5,0.5-3.3,0.5-3.8,0.5h-8.1v-25h8.3c1.6,0,3.1,0.1,4.6,0.9c2.7,1.5,2.9,4.9,2.9,7.6V335.1z
			 M352.9,376.6l-11.6-31.2c1.4-0.3,1.6-0.5,2.3-0.7c1.4-0.6,5-2.2,6.1-6.6c0.4-1.4,0.4-3.9,0.4-4v-9.9c0-1.3,0.2-5.9-3.5-8.8
			c-2.7-2.1-5.8-2.2-9-2.2h-12.3v63.5h4.4v-31h6.9l11.6,31H352.9z M306.2,362c0,3.7-0.2,7.6-3.6,10c-1.4,1.1-3.1,1.5-4.9,1.5
			c-5,0-7.3-3.2-7.9-4.9c-0.5-1.6-0.7-3.6-0.7-7.2v-35c0-1.1-0.2-6.1,3.7-8.6c0.7-0.5,2.3-1.4,4.9-1.4c2.1,0,3.6,0.6,4.2,1
			c1.8,0.9,2.5,2.2,2.9,3c1.3,2.4,1.5,5.4,1.5,10.7V362z M310.4,363.7v-35.1c0-4.9,0-10.4-4.5-13.9c-2.3-1.7-5.2-2.3-8.1-2.3
			c-5.4-0.1-10.4,2.3-12.1,7.6c-1,2.9-1,6.5-1,7.2V363c0,3.8,0.3,7.4,2.8,10.5c3.2,3.8,8.6,3.9,9.9,3.9c6.5,0,9.8-3.1,11.2-5.5
			C310.2,369.3,310.4,366.6,310.4,363.7 M267.2,334.4c0,0.5,0.4,4.9-2.1,7.3c-1.9,2-4.4,2.2-6.8,2.2h-7.2v-27.2h6.8
			c3.7,0,5.1,0.3,6.8,1.5c2.5,1.9,2.6,4.9,2.6,10.6V334.4z M271.6,334.4v-7.2c0-4.7,0-8.8-3.4-11.6c-3.2-2.7-7.6-2.5-11.4-2.5h-9.9
			v63.5h4.4v-29h6.5c2.8,0,8.1-0.2,11.3-4.1C271.5,340.7,271.6,337.8,271.6,334.4 M233.4,362.6c0-5-0.9-8.6-4.1-12.5
			c-2-2.5-4.2-4.7-6.5-6.9c-1.5-1.6-3-3.1-4.3-4.8c-3.9-4.4-5.5-6.8-5.5-12.9c0-4.7,1.2-7.2,3.2-8.5c1.8-1.1,3.9-1.1,4.5-1.1
			c5.5,0,6.8,3.4,7.2,5.6c0.3,1.3,0.3,2,0.3,4.2v5.7h4.3v-4.6c0-4.6,0-10-4.4-12.9c-2.9-1.8-6.5-1.8-7.5-1.8c-8.9,0-11,5.7-11.6,9.3
			c-0.4,1.8-0.4,4.4-0.4,4.8c0,6.1,2.1,9.7,3.6,11.8c1.4,1.9,3.6,4.4,7.3,8c0.6,0.5,4.9,4.6,7.2,8.2c1.2,1.9,2.2,4.1,2.2,9.1
			c0,5.2-1.3,7.9-3.5,9.3c-1.9,1.2-3.9,1.2-4.6,1.2c-8.2,0-9.2-5.8-9.4-8.8c-0.1-1.4,0-2.6,0-4v-5.1h-4.4v9c0,1.9,0.1,3.3,0.7,5.1
			c0.7,1.9,1.7,3.3,3.1,4.6c0.9,0.8,1.6,1.3,2.1,1.5c2,1.1,4.9,1.5,7.3,1.5c6.1,0,9.3-2.4,10.8-4.7
			C232.4,371.1,233.4,367.9,233.4,362.6 M193.5,376.6v-63.5h-4.3l0.6,61.1l-15.2-61.1h-6.5v63.5h4.2l-0.4-60l14.8,60H193.5z
			 M147.6,353.1h-11.8l5.2-30c0.3-1.8,0.5-3.6,0.7-5.5c0.3,2,0.5,4,0.9,5.9L147.6,353.1z M156.4,376.6l-11.5-63.9h-6.1l-11.6,63.9
			h4.7l3.3-19.3h13.3l3.2,19.3H156.4z M112.2,335.1c0,1.3,0.1,4.9-3.9,6.2c-1.5,0.5-3.3,0.5-3.8,0.5h-8.1v-25h8.3
			c1.6,0,3.1,0.1,4.6,0.9c2.7,1.5,2.9,4.9,2.9,7.6V335.1z M119.6,376.6L108,345.4c1.3-0.3,1.6-0.5,2.3-0.7c1.4-0.6,4.9-2.2,6.1-6.6
			c0.4-1.4,0.4-3.9,0.4-4v-9.9c0-1.3,0.2-5.9-3.5-8.8c-2.7-2.1-5.8-2.2-9-2.2H92v63.5h4.4v-31h6.9l11.6,31H119.6z M81.5,317.1v-4
			H54.7v4h11.1v59.6h4.5v-59.6H81.5z"/>
		<path d="M410.4,263.6c0,9.3-1.1,14-5.2,16.9c-2.5,1.7-5,2.2-7.8,2.2h-3.6v-55.5h3.3c0.5,0,2.7,0.2,4.5,0.6
			c1.3,0.4,4.7,1.6,6.6,5.1c2.2,4,2.2,11.6,2.2,16.1V263.6z M414.7,263.2v-14.1c0-10.8-0.8-16.6-4.3-20.8c-4.1-4.8-9.8-5.2-15.6-5.2
			h-5.5v63.5h8.4c0.4,0,3,0,5-0.5c3.2-0.7,5.3-2.4,6.3-3.2c4.3-3.7,5.2-8.6,5.6-14C414.7,266.9,414.7,265.1,414.7,263.2
			 M374.1,286.6v-63.5h-4.3l0.6,61.1l-15.2-61.1h-6.5v63.5h4.2l-0.4-60l14.8,60H374.1z M334.1,274v-50.9h-4.4v46.7
			c0,6.6,0.1,10-2.9,12.2c-1.9,1.5-4.6,1.5-5.2,1.5c-4,0-6-1.7-7-3.2c-1.1-1.7-1.4-3.9-1.4-8v-49.2h-4.3v48.5
			c0,4.1-0.2,8.1,2.5,11.7c0.5,0.8,1.2,1.5,2,2.1c3,2.2,7,2.3,8,2.3c2,0,9.3-0.3,11.9-7.3C333.9,278.4,334.1,276.2,334.1,274
			 M289.9,272c0,3.7-0.2,7.6-3.6,10c-1.4,1.1-3.1,1.5-5,1.5c-5,0-7.3-3.2-7.9-5c-0.5-1.6-0.7-3.6-0.7-7.2v-35c0-1.1-0.2-6.1,3.7-8.6
			c0.7-0.5,2.3-1.4,4.9-1.4c2.1,0,3.6,0.6,4.2,1c1.8,0.9,2.5,2.2,2.9,3c1.3,2.4,1.5,5.4,1.5,10.7V272z M294.1,273.7v-35.1
			c0-5,0-10.4-4.5-13.9c-2.3-1.7-5.2-2.3-8.1-2.3c-5.4-0.1-10.3,2.3-12.1,7.6c-1,2.9-1,6.5-1,7.2V273c0,3.8,0.3,7.4,2.8,10.5
			c3.1,3.8,8.6,3.9,9.9,3.9c6.5,0,9.8-3.1,11.2-5.5C293.8,279.3,294.1,276.6,294.1,273.7 M250.7,245.1c0,1.3,0.1,4.9-3.9,6.2
			c-1.5,0.5-3.3,0.5-3.8,0.5H235v-25h8.3c1.6,0,3.1,0.1,4.6,0.9c2.7,1.5,2.9,4.9,2.9,7.6V245.1z M258.2,286.6l-11.6-31.2
			c1.4-0.3,1.6-0.5,2.3-0.7c1.4-0.6,5-2.2,6.1-6.6c0.4-1.4,0.4-3.9,0.4-4v-9.9c0-1.3,0.2-5.9-3.5-8.8c-2.7-2.1-5.8-2.2-9-2.2h-12.3
			v63.5h4.4v-31h6.9l11.6,31H258.2z M216,286.6v-29h-13.8v3.9h9.4v10.2c0,1.7,0.1,6.6-4.1,10.1c-1.4,1.2-3,1.9-4.9,1.9
			c-4.2,0-6.3-3-6.9-4.3c-1.2-2.3-1.3-5.1-1.3-10.4v-30.1c0-4-0.4-8.2,3.1-11.1c2.2-1.7,4.7-1.7,5.6-1.7c4.6,0,6.6,2.2,7.4,4
			c0.8,1.9,0.9,4.8,0.9,6.8v6.6h4.2v-8.8c0-0.4,0-3-0.4-4.7c-1-3.2-3.9-7.6-11.8-7.6c-4.2,0-6.5,0.9-8.1,2c-0.4,0.3-1.2,0.7-2.1,1.7
			c-2.8,2.8-3.1,7.1-3.1,10.8v33.4c0,6.7,0.5,9.4,2.4,12.4c2.1,3.2,5.8,4.9,9.5,4.9c4.9,0,7.8-2.6,9-3.9c0.5-0.5,0.8-0.9,1.6-2.1v5
			H216z"/>
	</g>
</g>
<g id="Layer_2">
	<path fill="#FFFFFF" d="M147.7,326.9l9.1,50.3h-4.6l-6.4-38.4L147.7,326.9z M131.7,377.2h-4.6l11.9-64h4.6L131.7,377.2z"/>
	<g>
		<rect x="91.5" y="313.4" fill="#FFFFFF" width="4.4" height="63.6"/>
		<path fill="#FFFFFF" d="M107.6,345.8c1.4-0.3,1.6-0.5,2.3-0.7c1.4-0.6,5-2.2,6.1-6.6c0.4-1.4,0.4-3.9,0.4-4.1v-9.9
			c0-1.3,0.2-5.9-3.5-8.8c-2.7-2.1-5.8-2.3-9-2.3h-1v3.8h1.4c1.6,0,3.1,0.1,4.6,0.9c2.7,1.5,2.9,4.9,2.9,7.6v9.8
			c0,1.3,0.1,4.9-3.9,6.2c-1.5,0.5-3.3,0.5-3.8,0.5h-1.2v3.8h0l11.6,31h4.7L107.6,345.8z"/>
	</g>
	<g>
		<rect x="77.2" y="313.4" fill="#FFFFFF" width="4.3" height="4"/>
		<rect x="54.7" y="313.4" fill="#FFFFFF" width="4.2" height="4"/>
		<polygon fill="#FFFFFF" points="65.8,377 70.3,377 70.3,317.4 70.3,317.4 70.3,313.4 65.8,313.4 		"/>
	</g>
	<g>
		<path fill="#FFFFFF" d="M223.5,316.7c3,1,3.9,3.4,4.2,5.1c0.3,1.3,0.3,2,0.3,4.2v5.7h4.3v-4.6c0-4.6,0-10-4.4-12.9
			c-1.4-0.9-3-1.3-4.4-1.6V316.7z"/>
		<path fill="#FFFFFF" d="M229.1,350.4c-2-2.5-4.2-4.7-6.5-6.9c-1.5-1.6-3-3.2-4.3-4.8c-3.9-4.4-5.5-6.8-5.5-12.9
			c0-4.7,1.2-7.2,3.2-8.5c0.2-0.1,0.4-0.2,0.6-0.3v-4.1c-5.8,1.4-7.3,5.8-7.8,8.9c-0.4,1.8-0.4,4.4-0.4,4.8c0,6.1,2.1,9.7,3.6,11.8
			c1.4,1.9,3.6,4.4,7.3,8c0.6,0.5,4.9,4.6,7.2,8.2c1.2,1.9,2.3,4.1,2.3,9.1c0,5.2-1.3,7.9-3.5,9.3c-0.6,0.4-1.2,0.6-1.8,0.8v4
			c4-0.7,6.2-2.6,7.4-4.4c1.3-1.9,2.3-5,2.3-10.4C233.2,357.9,232.3,354.4,229.1,350.4z"/>
		<path fill="#FFFFFF" d="M216.6,373.5c-4.5-1.6-5.2-5.8-5.3-8.2c-0.1-1.4,0-2.6,0-4v-5.1h-4.4v9c0,1.9,0.1,3.3,0.7,5.1
			c0.7,1.9,1.7,3.3,3.2,4.6c0.9,0.8,1.6,1.3,2.1,1.5c1.1,0.6,2.4,1,3.8,1.2V373.5z"/>
	</g>
	<g>
		<polygon fill="#FFFFFF" points="167.5,329.1 167.5,375.4 171.7,375.4 171.5,345.3 		"/>
		<polygon fill="#FFFFFF" points="189.2,374.9 173.9,313.8 170.4,313.8 171.3,317.7 171.3,317.3 177,340.5 186.2,377.4 189.8,377.4 
			189.2,374.8 		"/>
		<polygon fill="#FFFFFF" points="189.1,313.1 189.4,343.9 193.4,359.8 193.4,313.1 		"/>
	</g>
	<path fill="#FFFFFF" d="M460.4,377v-63.6h4.6V377H460.4z"/>
	<path fill="#FFFFFF" d="M409.7,326.9l9.1,50.3h-4.6l-6.4-38.4L409.7,326.9z M393.7,377.2h-4.6l11.9-64h4.6L393.7,377.2z"/>
	<g>
		<path fill="#FFFFFF" d="M329.7,222.5v46.7c0,6.6,0.1,10-2.9,12.2c-0.6,0.5-1.3,0.8-1.9,1v4.3c2.9-0.6,6.6-2.3,8.3-6.9
			c0.7-2,0.9-4.2,0.9-6.4v-51H329.7z"/>
		<path fill="#FFFFFF" d="M318,282.4c-1.7-0.6-2.8-1.7-3.4-2.7c-1.1-1.7-1.4-3.9-1.4-8v-49.2h-4.3V271c0,4.1-0.2,8.1,2.5,11.7
			c0.5,0.8,1.2,1.5,2,2.1c1.5,1.1,3.2,1.7,4.7,2V282.4z"/>
	</g>
	<g>
		<rect x="324.9" y="313.4" fill="#FFFFFF" width="4.4" height="63.6"/>
		<path fill="#FFFFFF" d="M341,345.8c1.4-0.3,1.6-0.5,2.3-0.7c1.4-0.6,5-2.2,6.1-6.6c0.4-1.4,0.4-3.9,0.4-4.1v-9.9
			c0-1.3,0.2-5.9-3.5-8.8c-2.7-2.1-5.8-2.3-9-2.3h-1v3.8h1.4c1.6,0,3.1,0.1,4.6,0.9c2.7,1.5,2.9,4.9,2.9,7.6v9.8
			c0,1.3,0.1,4.9-3.9,6.2c-1.5,0.5-3.3,0.5-3.8,0.5h-1.2v3.8h0l11.6,31h4.7L341,345.8z"/>
	</g>
	<g>
		<rect x="230.5" y="222.8" fill="#FFFFFF" width="4.4" height="63.6"/>
		<path fill="#FFFFFF" d="M246.5,255.2c1.3-0.3,1.6-0.5,2.3-0.7c1.4-0.6,5-2.2,6.1-6.6c0.4-1.4,0.4-3.9,0.4-4.1v-9.9
			c0-1.3,0.2-5.9-3.5-8.8c-2.7-2.1-5.8-2.3-9-2.3h-1v3.8h1.4c1.6,0,3.1,0.1,4.6,0.9c2.7,1.5,2.9,4.9,2.9,7.6v9.8
			c0,1.3,0.1,4.9-3.9,6.2c-1.5,0.5-3.3,0.5-3.8,0.5h-1.2v3.8h0l11.6,31h4.7L246.5,255.2z"/>
	</g>
	<g>
		<path fill="#FFFFFF" d="M489.1,373.2c-2.6-1-3.9-3.1-4.4-4.3c-0.5-1.6-0.7-3.6-0.7-7.2v-35c0-1.1-0.2-6.1,3.7-8.6
			c0.3-0.2,0.8-0.5,1.4-0.7V313c-3.8,0.9-7.1,3.2-8.4,7.3c-1,2.9-1,6.5-1,7.2v35.8c0,3.8,0.3,7.4,2.8,10.5c1.8,2.2,4.5,3.2,6.6,3.6
			V373.2z"/>
		<path fill="#FFFFFF" d="M500.9,315c-1.5-1.1-3.2-1.7-4.9-2.1v4.3c0.3,0.1,0.6,0.3,0.8,0.4c1.8,0.9,2.5,2.3,2.9,3
			c1.3,2.4,1.5,5.4,1.5,10.7v31c0,3.7-0.2,7.6-3.6,10c-0.5,0.4-1,0.7-1.6,0.9v4.2c4.1-0.9,6.5-3.3,7.5-5.1c1.6-2.6,1.9-5.3,1.9-8.3
			v-35.1C505.4,323.9,505.4,318.4,500.9,315z"/>
	</g>
	<g>
		<path fill="#FFFFFF" d="M294,373.2c-2.6-1-3.9-3.1-4.4-4.3c-0.5-1.6-0.7-3.6-0.7-7.2v-35c0-1.1-0.2-6.1,3.7-8.6
			c0.3-0.2,0.8-0.5,1.4-0.7V313c-3.8,0.9-7.1,3.2-8.4,7.3c-1,2.9-1,6.5-1,7.2v35.8c0,3.8,0.3,7.4,2.8,10.5c1.8,2.2,4.5,3.2,6.6,3.6
			V373.2z"/>
		<path fill="#FFFFFF" d="M305.8,315c-1.5-1.1-3.2-1.7-4.9-2.1v4.3c0.3,0.1,0.6,0.3,0.8,0.4c1.8,0.9,2.5,2.3,2.9,3
			c1.3,2.4,1.5,5.4,1.5,10.7v31c0,3.7-0.2,7.6-3.6,10c-0.5,0.4-1,0.7-1.6,0.9v4.2c4.1-0.9,6.5-3.3,7.5-5.1c1.6-2.6,1.9-5.3,1.9-8.3
			v-35.1C310.3,323.9,310.3,318.4,305.8,315z"/>
	</g>
	<g>
		<path fill="#FFFFFF" d="M277.6,282.6c-2.6-1-3.9-3.1-4.4-4.3c-0.5-1.6-0.7-3.6-0.7-7.2v-35c0-1.1-0.2-6.1,3.7-8.6
			c0.3-0.2,0.8-0.5,1.4-0.7v-4.2c-3.8,0.9-7.1,3.2-8.4,7.3c-1,2.9-1,6.5-1,7.2v35.8c0,3.8,0.3,7.4,2.8,10.5c1.8,2.2,4.5,3.2,6.6,3.6
			V282.6z"/>
		<path fill="#FFFFFF" d="M289.5,224.4c-1.5-1.1-3.2-1.7-4.9-2.1v4.3c0.3,0.1,0.6,0.3,0.8,0.4c1.8,0.9,2.5,2.3,2.9,3
			c1.3,2.4,1.5,5.4,1.5,10.7v31c0,3.7-0.2,7.6-3.6,10c-0.5,0.4-1,0.7-1.6,0.9v4.2c4.1-0.9,6.5-3.3,7.5-5.1c1.6-2.6,1.9-5.3,1.9-8.3
			v-35.1C294,233.3,294,227.8,289.5,224.4z"/>
	</g>
	<g>
		<path fill="#FFFFFF" d="M199.3,282.7c-2.3-0.9-3.5-2.8-3.9-3.7c-1.2-2.3-1.3-5.1-1.3-10.4v-30.1c0-4-0.4-8.2,3.1-11.1
			c0.7-0.6,1.4-0.9,2.1-1.2v-4c-2,0.4-3.3,1-4.4,1.7c-0.4,0.3-1.2,0.7-2.1,1.7c-2.8,2.8-3.1,7.1-3.1,10.8v33.4
			c0,6.7,0.5,9.5,2.4,12.4c1.6,2.5,4.2,4.1,7.1,4.6V282.7z"/>
		<path fill="#FFFFFF" d="M206.2,226.3c2.2,0.8,3.4,2.3,3.9,3.5c0.8,1.9,0.9,4.8,0.9,6.8v6.6h4.2v-8.8c0-0.4,0-3-0.4-4.7
			c-0.8-2.8-3.1-6.4-8.6-7.4V226.3z"/>
		<path fill="#FFFFFF" d="M206.2,257.3v3.9h5.1v10.2c0,1.7,0.1,6.6-4.1,10.1c-0.3,0.3-0.6,0.5-1,0.7v4.3c2.3-0.9,3.8-2.3,4.6-3.1
			c0.5-0.5,0.8-0.9,1.6-2.1v5h3.3v-29H206.2z"/>
	</g>
	<g>
		<rect x="389.1" y="222.6" fill="#FFFFFF" width="4.6" height="64"/>
		<path fill="#FFFFFF" d="M415.2,260.1v-11c0-8.2-0.5-16-4.6-21c-3.9-4.8-9.1-5.5-10.1-5.5v4.1c2.3,0.5,5.9,2.3,7.8,5.9
			c1.8,3.7,2.3,8.2,2.3,16.5v11c0,8.2-0.5,12.8-2.3,16.5c-1.8,3.7-5.5,5.5-7.8,5.9v4.1c0.9,0,6.1-0.7,10.1-5.5
			C414.7,276.1,415.2,268.3,415.2,260.1z"/>
	</g>
	<path fill="#FFFFFF" d="M271.8,336.1c0,6.4-2.3,11.9-12.3,11.9h-1.4v-3.7h1.4c5.9,0,7.8-3.7,7.8-8.2v-11c0-4.6-1.8-8.2-7.8-8.2
		h-1.4v-3.7h1.4c10,0,12.3,5.5,12.3,11.9V336.1z M251.2,377.2h-4.6v-64h4.6V377.2z"/>
	<g>
		<rect x="445.2" y="313.4" fill="#FFFFFF" width="4.3" height="4"/>
		<rect x="422.7" y="313.4" fill="#FFFFFF" width="4.2" height="4"/>
		<polygon fill="#FFFFFF" points="433.8,377 438.3,377 438.3,317.4 438.3,317.4 438.3,313.4 433.8,313.4 		"/>
	</g>
	<g>
		<rect x="381" y="313.4" fill="#FFFFFF" width="4.3" height="4"/>
		<rect x="358.5" y="313.4" fill="#FFFFFF" width="4.2" height="4"/>
		<polygon fill="#FFFFFF" points="369.6,377 374.1,377 374.1,317.4 374.1,317.4 374.1,313.4 369.6,313.4 		"/>
	</g>
	<g>
		<polygon fill="#FFFFFF" points="520.5,329.1 520.5,375.4 524.7,375.4 524.5,345.3 		"/>
		<polygon fill="#FFFFFF" points="542.2,374.9 527,313.8 523.4,313.8 524.4,317.7 524.4,317.3 530.1,340.5 539.3,377.4 542.8,377.4 
			542.2,374.8 		"/>
		<polygon fill="#FFFFFF" points="542.2,313.1 542.5,343.9 546.5,359.8 546.5,313.1 		"/>
	</g>
	<g>
		<polygon fill="#FFFFFF" points="348.1,238.5 348.1,284.8 352.3,284.8 352.2,254.7 		"/>
		<polygon fill="#FFFFFF" points="369.8,284.3 354.6,223.2 351,223.2 352,227.1 352,226.7 357.7,249.9 366.9,286.8 370.5,286.8 
			369.8,284.2 		"/>
		<polygon fill="#FFFFFF" points="369.8,222.5 370.1,253.3 374.1,269.2 374.1,222.5 		"/>
	</g>
</g>
</svg>
