<?xml version="1.0" encoding="utf-8"?>
<!-- Generator: Adobe Illustrator 18.1.0, SVG Export Plug-In . SVG Version: 6.00 Build 0)  -->
<!DOCTYPE svg PUBLIC "-//W3C//DTD SVG 1.1//EN" "http://www.w3.org/Graphics/SVG/1.1/DTD/svg11.dtd">
<svg version="1.1" xmlns="http://www.w3.org/2000/svg" xmlns:xlink="http://www.w3.org/1999/xlink" x="0px" y="0px"
	 viewBox="0 0 600 600" enable-background="new 0 0 600 600" xml:space="preserve">
<g id="Layer_1" display="none">
	<g display="inline">
		<path d="M461.2,362.7c0-5-0.9-8.5-4.1-12.5c-2-2.5-4.2-4.7-6.5-6.9c-1.5-1.6-3-3.1-4.3-4.8c-3.9-4.4-5.5-6.8-5.5-12.9
			c0-4.7,1.2-7.2,3.1-8.5c1.8-1.1,3.9-1.1,4.5-1.1c5.5,0,6.8,3.4,7.2,5.6c0.3,1.3,0.3,2,0.3,4.2v5.7h4.3V327c0-4.6,0-10-4.4-12.9
			c-2.9-1.8-6.5-1.8-7.5-1.8c-8.9,0-11,5.7-11.6,9.3c-0.4,1.8-0.4,4.4-0.4,4.8c0,6.1,2.1,9.7,3.6,11.8c1.3,1.9,3.6,4.4,7.3,8
			c0.6,0.5,4.9,4.6,7.2,8.2c1.2,1.9,2.2,4.1,2.2,9.1c0,5.2-1.3,7.9-3.5,9.3c-1.9,1.2-3.9,1.2-4.6,1.2c-8.2,0-9.2-5.8-9.4-8.8
			c-0.1-1.4,0-2.6,0-4v-5.1h-4.4v9c0,1.9,0.1,3.3,0.7,5.1c0.7,1.9,1.7,3.3,3.1,4.6c0.9,0.8,1.6,1.3,2.1,1.5c2,1.1,4.9,1.5,7.3,1.5
			c6.1,0,9.3-2.4,10.8-4.7C460.2,371.1,461.2,368,461.2,362.7 M418.3,335.2c0,1.3,0.1,4.9-3.9,6.2c-1.5,0.5-3.3,0.5-3.8,0.5h-8.1
			v-25h8.3c1.6,0,3.1,0.1,4.6,0.9c2.7,1.5,2.9,4.9,2.9,7.6V335.2z M425.8,376.7l-11.6-31.2c1.4-0.3,1.6-0.5,2.3-0.7
			c1.4-0.6,4.9-2.2,6.1-6.6c0.4-1.4,0.4-3.9,0.4-4v-9.9c0-1.3,0.2-5.9-3.5-8.8c-2.7-2.1-5.8-2.2-9-2.2h-12.3v63.5h4.4v-31h6.9
			l11.6,31H425.8z M386.2,317.1v-4h-22.5v63.5h22.4v-4H368v-27.3H383v-3.9H368v-24.5H386.2z M353.5,317.1v-4h-22.4v63.5h4.3v-31.2
			h15.9v-3.9h-15.9v-24.5H353.5z M317.6,362.7c0-5-0.9-8.5-4-12.5c-2-2.5-4.2-4.7-6.5-6.9c-1.5-1.6-3-3.1-4.3-4.8
			c-3.9-4.4-5.5-6.8-5.5-12.9c0-4.7,1.2-7.2,3.1-8.5c1.8-1.1,3.9-1.1,4.5-1.1c5.5,0,6.8,3.4,7.2,5.6c0.3,1.3,0.3,2,0.3,4.2v5.7h4.3
			V327c0-4.6,0-10-4.4-12.9c-2.9-1.8-6.5-1.8-7.5-1.8c-8.9,0-11,5.7-11.6,9.3c-0.4,1.8-0.4,4.4-0.4,4.8c0,6.1,2.1,9.7,3.6,11.8
			c1.4,1.9,3.6,4.4,7.3,8c0.6,0.5,4.9,4.6,7.2,8.2c1.2,1.9,2.2,4.1,2.2,9.1c0,5.2-1.3,7.9-3.5,9.3c-1.9,1.2-3.9,1.2-4.6,1.2
			c-8.2,0-9.2-5.8-9.4-8.8c-0.1-1.4,0-2.6,0-4v-5.1h-4.4v9c0,1.9,0.1,3.3,0.7,5.1c0.7,1.9,1.7,3.3,3.2,4.6c0.9,0.8,1.6,1.3,2.1,1.5
			c2,1.1,4.9,1.5,7.3,1.5c6.1,0,9.3-2.4,10.8-4.7C316.6,371.1,317.6,368,317.6,362.7 M277.7,376.7v-63.5h-4.3l0.6,61.1l-15.2-61.1
			h-6.5v63.5h4.2l-0.4-60l14.8,60H277.7z M231.8,353.2H220l5.2-30c0.3-1.8,0.5-3.6,0.7-5.5c0.3,2,0.5,4,0.9,5.9L231.8,353.2z
			 M240.5,376.7L229,312.8h-6.1l-11.6,63.9h4.7l3.3-19.4h13.3l3.2,19.4H240.5z M196.3,335.2c0,1.3,0.1,4.9-3.9,6.2
			c-1.5,0.5-3.3,0.5-3.8,0.5h-8.1v-25h8.3c1.6,0,3.1,0.1,4.6,0.9c2.7,1.5,2.9,4.9,2.9,7.6V335.2z M203.8,376.7l-11.6-31.2
			c1.3-0.3,1.6-0.5,2.3-0.7c1.4-0.6,4.9-2.2,6.1-6.6c0.4-1.4,0.4-3.9,0.4-4v-9.9c0-1.3,0.2-5.9-3.5-8.8c-2.7-2.1-5.8-2.2-9-2.2
			h-12.3v63.5h4.4v-31h6.9l11.6,31H203.8z M165.6,317.1v-4h-26.8v4h11.1v59.6h4.5v-59.6H165.6z"/>
		<path d="M441.3,223.2h-4l-18,63.5h4.1L441.3,223.2z M386.6,272.7c0-5-0.9-8.5-4-12.5c-2-2.5-4.2-4.7-6.5-6.9
			c-1.5-1.6-3-3.1-4.3-4.8c-3.9-4.4-5.5-6.8-5.5-12.9c0-4.7,1.2-7.2,3.1-8.5c1.8-1.1,3.9-1.1,4.5-1.1c5.5,0,6.8,3.4,7.2,5.6
			c0.3,1.3,0.3,2,0.3,4.2v5.7h4.3V237c0-4.6,0-10-4.4-12.9c-2.9-1.8-6.5-1.8-7.5-1.8c-8.9,0-11,5.7-11.6,9.3
			c-0.4,1.8-0.4,4.4-0.4,4.8c0,6.1,2.1,9.7,3.6,11.8c1.3,1.9,3.6,4.4,7.3,8c0.6,0.5,4.9,4.6,7.2,8.2c1.2,1.9,2.2,4.1,2.2,9.1
			c0,5.2-1.3,7.9-3.5,9.3c-1.9,1.2-3.9,1.2-4.6,1.2c-8.2,0-9.2-5.8-9.4-8.8c-0.1-1.4,0-2.6,0-4v-5.1h-4.4v9c0,1.9,0.1,3.3,0.7,5.1
			c0.7,1.9,1.7,3.3,3.2,4.6c0.9,0.8,1.6,1.3,2.1,1.5c2,1.1,4.9,1.5,7.3,1.5c6.1,0,9.3-2.4,10.8-4.7
			C385.6,281.1,386.6,278,386.6,272.7 M351.3,227.1v-4h-26.8v4h11.1v59.6h4.5v-59.6H351.3z M314.2,286.7v-63.5h-4.4v28.3h-16.4
			v-28.3h-4.3v63.5h4.3v-31.4h16.4v31.4H314.2z M274.5,286.7v-29h-13.8v3.9h9.4v10.2c0,1.7,0.1,6.6-4.1,10.1c-1.4,1.2-3,1.9-4.9,1.9
			c-4.2,0-6.3-3-6.9-4.3c-1.2-2.3-1.3-5.1-1.3-10.4V239c0-4-0.4-8.2,3.1-11.1c2.2-1.7,4.7-1.7,5.6-1.7c4.6,0,6.6,2.2,7.4,4.1
			c0.8,1.9,0.9,4.8,0.9,6.8v6.6h4.2v-8.8c0-0.4,0-3-0.4-4.7c-1-3.2-3.9-7.6-11.8-7.6c-4.2,0-6.5,0.9-8.1,2c-0.4,0.3-1.2,0.7-2.1,1.7
			c-2.8,2.8-3.1,7.1-3.1,10.8v33.4c0,6.7,0.5,9.4,2.4,12.4c2.1,3.2,5.8,4.9,9.5,4.9c4.9,0,7.8-2.6,9-3.9c0.5-0.5,0.8-0.9,1.6-2.1v5
			H274.5z M233.9,223.2h-4.6v63.5h4.6V223.2z M217.6,286.7v-4H201v-59.6h-4.4v63.5H217.6z M186.5,227.1v-4h-22.4v63.5h4.3v-31.2
			h15.9v-3.9h-15.9v-24.5H186.5z"/>
	</g>
</g>
<g id="Layer_2">
	<polygon fill="#FFFFFF" points="441.8,222.9 437.8,222.9 419.8,286.4 423.9,286.4 	"/>
	<path fill="#FFFFFF" d="M230.2,286.8v-63.6h4.6v63.6H230.2z"/>
	<g>
		<rect x="196.6" y="222.9" fill="#FFFFFF" width="4.4" height="63.6"/>
		<rect x="207.8" y="282.5" fill="#FFFFFF" width="9.7" height="4"/>
	</g>
	<path fill="#FFFFFF" d="M232.2,326.9l9.1,50.3h-4.6l-6.4-38.4L232.2,326.9z M216.2,377.1h-4.6l11.9-64h4.6L216.2,377.1z"/>
	<g>
		<rect x="176.1" y="313.4" fill="#FFFFFF" width="4.4" height="63.6"/>
		<path fill="#FFFFFF" d="M192.1,345.7c1.3-0.3,1.6-0.5,2.3-0.7c1.4-0.6,5-2.2,6.1-6.6c0.4-1.4,0.4-3.9,0.4-4.1v-9.9
			c0-1.3,0.2-5.9-3.5-8.8c-2.7-2.1-5.8-2.3-9-2.3h-1v3.8h1.4c1.6,0,3.1,0.1,4.6,0.9c2.7,1.5,2.9,4.9,2.9,7.6v9.8
			c0,1.3,0.1,4.9-3.9,6.2c-1.5,0.5-3.3,0.5-3.8,0.5h-1.2v3.8h0l11.6,31h4.7L192.1,345.7z"/>
	</g>
	<g>
		<rect x="160.7" y="313.4" fill="#FFFFFF" width="4.3" height="4"/>
		<rect x="138.2" y="313.4" fill="#FFFFFF" width="4.2" height="4"/>
		<polygon fill="#FFFFFF" points="149.3,376.9 153.8,376.9 153.8,317.3 153.8,317.3 153.8,313.4 149.3,313.4 		"/>
	</g>
	<g>
		<path fill="#FFFFFF" d="M451.7,316.7c3,1,3.9,3.4,4.2,5.1c0.3,1.3,0.3,2,0.3,4.2v5.7h4.3v-4.6c0-4.6,0-10-4.4-12.9
			c-1.4-0.9-3-1.3-4.4-1.6V316.7z"/>
		<path fill="#FFFFFF" d="M457.3,350.4c-2-2.5-4.2-4.7-6.5-6.9c-1.5-1.6-3-3.2-4.3-4.8c-3.9-4.4-5.5-6.8-5.5-12.9
			c0-4.7,1.2-7.2,3.2-8.5c0.2-0.1,0.4-0.2,0.6-0.3v-4.1c-5.8,1.4-7.3,5.8-7.8,8.9c-0.4,1.8-0.4,4.4-0.4,4.8c0,6.1,2.1,9.7,3.6,11.8
			c1.4,1.9,3.6,4.4,7.3,8c0.6,0.5,4.9,4.6,7.2,8.2c1.2,1.9,2.3,4.1,2.3,9.1c0,5.2-1.3,7.9-3.5,9.3c-0.6,0.4-1.2,0.6-1.8,0.8v4
			c4-0.7,6.2-2.6,7.4-4.4c1.3-1.9,2.3-5,2.3-10.4C461.4,357.8,460.5,354.3,457.3,350.4z"/>
		<path fill="#FFFFFF" d="M444.8,373.4c-4.5-1.6-5.2-5.8-5.3-8.2c-0.1-1.4,0-2.6,0-4v-5.1h-4.4v9c0,1.9,0.1,3.3,0.7,5.1
			c0.7,1.9,1.7,3.3,3.2,4.6c0.9,0.8,1.6,1.3,2.1,1.5c1.1,0.6,2.4,1,3.8,1.2V373.4z"/>
	</g>
	<g>
		<path fill="#FFFFFF" d="M308,316.7c3,1,3.9,3.4,4.2,5.1c0.3,1.3,0.3,2,0.3,4.2v5.7h4.3v-4.6c0-4.6,0-10-4.4-12.9
			c-1.4-0.9-3-1.3-4.4-1.6V316.7z"/>
		<path fill="#FFFFFF" d="M313.6,350.4c-2-2.5-4.2-4.7-6.5-6.9c-1.5-1.6-3-3.2-4.3-4.8c-3.9-4.4-5.5-6.8-5.5-12.9
			c0-4.7,1.2-7.2,3.2-8.5c0.2-0.1,0.4-0.2,0.6-0.3v-4.1c-5.8,1.4-7.3,5.8-7.8,8.9c-0.4,1.8-0.4,4.4-0.4,4.8c0,6.1,2.1,9.7,3.6,11.8
			c1.4,1.9,3.6,4.4,7.3,8c0.6,0.5,4.9,4.6,7.2,8.2c1.2,1.9,2.3,4.1,2.3,9.1c0,5.2-1.3,7.9-3.5,9.3c-0.6,0.4-1.2,0.6-1.8,0.8v4
			c4-0.7,6.2-2.6,7.4-4.4c1.3-1.9,2.3-5,2.3-10.4C317.7,357.8,316.8,354.3,313.6,350.4z"/>
		<path fill="#FFFFFF" d="M301.1,373.4c-4.5-1.6-5.2-5.8-5.3-8.2c-0.1-1.4,0-2.6,0-4v-5.1h-4.4v9c0,1.9,0.1,3.3,0.7,5.1
			c0.7,1.9,1.7,3.3,3.2,4.6c0.9,0.8,1.6,1.3,2.1,1.5c1.1,0.6,2.4,1,3.8,1.2V373.4z"/>
	</g>
	<g>
		<path fill="#FFFFFF" d="M377.2,226.2c3,1,3.9,3.4,4.2,5.1c0.3,1.3,0.3,2,0.3,4.2v5.7h4.3v-4.6c0-4.6,0-10-4.4-12.9
			c-1.4-0.9-3-1.3-4.4-1.6V226.2z"/>
		<path fill="#FFFFFF" d="M382.8,259.9c-2-2.5-4.2-4.7-6.5-6.9c-1.5-1.6-3-3.2-4.3-4.8c-3.9-4.4-5.5-6.8-5.5-12.9
			c0-4.7,1.2-7.2,3.2-8.5c0.2-0.1,0.4-0.2,0.6-0.3v-4.1c-5.8,1.4-7.3,5.8-7.8,8.9c-0.4,1.8-0.4,4.4-0.4,4.8c0,6.1,2.1,9.7,3.6,11.8
			c1.4,1.9,3.6,4.4,7.3,8c0.6,0.5,4.9,4.6,7.2,8.2c1.2,1.9,2.3,4.1,2.3,9.1c0,5.2-1.3,7.9-3.5,9.3c-0.6,0.4-1.2,0.6-1.8,0.8v4
			c4-0.7,6.2-2.6,7.4-4.4c1.3-1.9,2.3-5,2.3-10.4C386.9,267.3,386,263.8,382.8,259.9z"/>
		<path fill="#FFFFFF" d="M370.3,282.9c-4.5-1.6-5.2-5.8-5.3-8.2c-0.1-1.4,0-2.6,0-4v-5.1h-4.4v9c0,1.9,0.1,3.3,0.7,5.1
			c0.7,1.9,1.7,3.3,3.2,4.6c0.9,0.8,1.6,1.3,2.1,1.5c1.1,0.6,2.4,1,3.8,1.2V282.9z"/>
	</g>
	<g>
		<rect x="398.1" y="313.4" fill="#FFFFFF" width="4.4" height="63.6"/>
		<path fill="#FFFFFF" d="M414.1,345.7c1.4-0.3,1.6-0.5,2.3-0.7c1.4-0.6,5-2.2,6.1-6.6c0.4-1.4,0.4-3.9,0.4-4.1v-9.9
			c0-1.3,0.2-5.9-3.5-8.8c-2.7-2.1-5.8-2.3-9-2.3h-1v3.8h1.4c1.6,0,3.1,0.1,4.6,0.9c2.7,1.5,2.9,4.9,2.9,7.6v9.8
			c0,1.3,0.1,4.9-3.9,6.2c-1.5,0.5-3.3,0.5-3.8,0.5h-1.2v3.8h0l11.6,31h4.7L414.1,345.7z"/>
	</g>
	<g>
		<polygon fill="#FFFFFF" points="298.7,251.1 293.9,251.1 293.9,222.9 289.5,222.9 289.5,286.4 293.9,286.4 293.9,255 298.7,255 		
			"/>
		<polygon fill="#FFFFFF" points="310.3,222.9 310.3,251.1 305.6,251.1 305.6,255 310.3,255 310.3,286.4 314.7,286.4 314.7,222.9 		
			"/>
	</g>
	<g>
		<path fill="#FFFFFF" d="M257.4,282.8c-2.3-0.9-3.5-2.8-3.9-3.7c-1.2-2.3-1.3-5.1-1.3-10.4v-30.1c0-4-0.4-8.2,3.1-11.1
			c0.7-0.6,1.4-0.9,2.1-1.2v-4c-2,0.4-3.3,1-4.4,1.7c-0.4,0.3-1.2,0.7-2.1,1.7c-2.8,2.8-3.1,7.1-3.1,10.8v33.4
			c0,6.7,0.5,9.5,2.4,12.4c1.6,2.5,4.2,4.1,7.1,4.6V282.8z"/>
		<path fill="#FFFFFF" d="M264.3,226.4c2.2,0.8,3.4,2.3,3.9,3.5c0.8,1.9,0.9,4.8,0.9,6.8v6.6h4.2v-8.8c0-0.4,0-3-0.4-4.7
			c-0.8-2.8-3.1-6.4-8.6-7.4V226.4z"/>
		<path fill="#FFFFFF" d="M264.3,257.3v3.9h5.1v10.2c0,1.7,0.1,6.6-4.1,10.1c-0.3,0.3-0.6,0.5-1,0.7v4.3c2.3-0.9,3.8-2.3,4.6-3.1
			c0.5-0.5,0.8-0.9,1.6-2.1v5h3.3v-29H264.3z"/>
	</g>
	<path fill="#FFFFFF" d="M375,313.2h11.8v4.1H375V313.2z M368.6,377.1H364v-64h4.6V377.1z M375,373h11.7v4.1H375V373z M375,341.5
		h8.5v4.1H375V341.5z"/>
	<path fill="#FFFFFF" d="M175,222.7h11.8v4.1H175V222.7z M168.6,286.6H164v-64h4.6V286.6z M175,251h8.5v4.1H175V251z"/>
	<path fill="#FFFFFF" d="M342.4,313.2h11.8v4.1h-11.8V313.2z M336,377.1h-4.6v-64h4.6V377.1z M342.4,341.5h8.5v4.1h-8.5V341.5z"/>
	<g>
		<rect x="347.2" y="222.9" fill="#FFFFFF" width="4.3" height="4"/>
		<rect x="324.8" y="222.9" fill="#FFFFFF" width="4.2" height="4"/>
		<polygon fill="#FFFFFF" points="335.8,286.4 340.3,286.4 340.3,226.8 340.3,226.8 340.3,222.9 335.8,222.9 		"/>
	</g>
	<g>
		<polygon fill="#FFFFFF" points="251.4,329.1 251.4,375.3 255.7,375.3 255.5,345.3 		"/>
		<polygon fill="#FFFFFF" points="273.1,374.9 257.9,313.8 254.4,313.8 255.3,317.6 255.3,317.3 261,340.4 270.2,377.3 273.8,377.3 
			273.1,374.7 		"/>
		<polygon fill="#FFFFFF" points="273.1,313 273.4,343.8 277.4,359.8 277.4,313 		"/>
	</g>
</g>
</svg>
