<?xml version="1.0" encoding="utf-8"?>
<!-- Generator: Adobe Illustrator 18.1.0, SVG Export Plug-In . SVG Version: 6.00 Build 0)  -->
<!DOCTYPE svg PUBLIC "-//W3C//DTD SVG 1.1//EN" "http://www.w3.org/Graphics/SVG/1.1/DTD/svg11.dtd">
<svg version="1.1" xmlns="http://www.w3.org/2000/svg" xmlns:xlink="http://www.w3.org/1999/xlink" x="0px" y="0px"
	 viewBox="0 0 600 600" enable-background="new 0 0 600 600" xml:space="preserve">
<g id="Layer_1" display="none">
	<g display="inline">
		<path d="M416.6,331.7v-29h-13.8v3.9h9.4v10.2c0,1.7,0.1,6.6-4.1,10.1c-1.4,1.2-3,1.9-4.9,1.9c-4.2,0-6.3-3-6.9-4.3
			c-1.2-2.3-1.3-5.1-1.3-10.4V284c0-4-0.4-8.2,3.1-11.1c2.2-1.7,4.7-1.7,5.6-1.7c4.6,0,6.6,2.2,7.4,4.1c0.8,1.9,0.9,4.8,0.9,6.8v6.6
			h4.2v-8.8c0-0.4,0-3-0.5-4.7c-1-3.2-3.9-7.6-11.8-7.6c-4.2,0-6.5,0.9-8.1,2c-0.4,0.3-1.2,0.7-2.1,1.7c-2.8,2.8-3.1,7.1-3.1,10.8
			v33.4c0,6.7,0.5,9.5,2.4,12.4c2.1,3.2,5.8,4.9,9.5,4.9c4.9,0,7.8-2.6,9-3.9c0.5-0.5,0.8-0.9,1.6-2.1v5H416.6z M376,331.7v-63.5
			h-4.3l0.6,61.1l-15.2-61.1h-6.5v63.5h4.2l-0.4-60l14.8,60H376z M335.9,268.2h-4.6v63.5h4.6V268.2z M320.9,272.1v-4h-26.8v4h11.1
			v59.6h4.5v-59.6H320.9z M285.2,317.7c0-5-0.9-8.5-4.1-12.5c-2-2.5-4.2-4.7-6.5-6.9c-1.5-1.6-3-3.1-4.3-4.8
			c-3.9-4.4-5.5-6.8-5.5-12.9c0-4.7,1.2-7.2,3.1-8.5c1.8-1.1,3.9-1.1,4.5-1.1c5.5,0,6.8,3.4,7.2,5.6c0.3,1.3,0.3,2,0.3,4.2v5.7h4.3
			V282c0-4.6,0-10-4.4-12.9c-2.9-1.8-6.5-1.8-7.5-1.8c-8.9,0-11,5.7-11.6,9.3c-0.4,1.8-0.4,4.4-0.4,4.8c0,6.1,2.1,9.7,3.6,11.8
			c1.4,1.9,3.6,4.4,7.3,8c0.6,0.5,4.9,4.6,7.2,8.2c1.2,1.9,2.2,4.1,2.2,9.1c0,5.2-1.3,7.9-3.5,9.3c-1.9,1.2-3.9,1.2-4.6,1.2
			c-8.2,0-9.2-5.8-9.4-8.8c-0.1-1.4,0-2.6,0-4v-5.1H259v9c0,1.9,0.1,3.3,0.7,5.1c0.7,1.9,1.7,3.3,3.1,4.6c0.9,0.8,1.6,1.3,2.1,1.5
			c2,1.1,4.9,1.5,7.3,1.5c6.1,0,9.3-2.4,10.8-4.7C284.3,326.1,285.2,323,285.2,317.7 M239.6,308.2h-11.8l5.2-30
			c0.3-1.8,0.5-3.6,0.7-5.5c0.3,2,0.5,4,0.9,5.9L239.6,308.2z M248.3,331.7l-11.5-63.9h-6.1l-11.6,63.9h4.7l3.3-19.4h13.3l3.2,19.4
			H248.3z M208.7,319.7v-9.8h-4.5V320c0,1.2,0.2,5.6-3.8,7.6c-0.7,0.4-2,0.9-4,0.9c-0.8,0-2.7-0.1-4.6-1.1c-1.1-0.6-2-1.4-2.6-2.6
			c-1.9-3.2-1.6-8.6-1.6-12v-31.3c0-1.1-0.3-6.3,3.8-8.7c1.9-1.2,3.8-1.3,4.6-1.3c2.2,0,3.3,0.6,4.1,1.1c1.4,0.8,2.1,1.8,2.3,2.3
			c1.1,2.1,1.2,4.7,1.2,9.5v4.2h4.3v-8.9c0-0.6,0-3.4-0.9-5.7c-1.8-4.7-6.4-6.6-11.2-6.6c-4.1,0-7.7,1.3-10.3,4.8
			c-2.4,3.2-2.3,6.7-2.3,10.5v34.5c0,4,0.3,5.8,0.9,7.6c0.9,2.7,4,7.7,11.5,7.7c7.8,0,11-3.8,12.2-7.1
			C208.5,324.1,208.7,322.8,208.7,319.7"/>
	</g>
</g>
<g id="Layer_2">
	<path fill="#FFFFFF" d="M331.4,331.9v-63.6h4.6v63.6H331.4z"/>
	<path fill="#FFFFFF" d="M239.5,281.8l9.1,50.3h-4.6l-6.4-38.4L239.5,281.8z M223.5,332.1h-4.6l11.9-64h4.6L223.5,332.1z"/>
	<g>
		<path fill="#FFFFFF" d="M199.1,272.3c0.3,0.1,0.5,0.2,0.7,0.4c1.4,0.8,2.1,1.8,2.3,2.3c1.1,2.1,1.2,4.7,1.2,9.5v4.2h4.3v-8.9
			c0-0.6,0-3.4-0.9-5.7c-1.3-3.5-4.3-5.4-7.6-6.2V272.3z"/>
		<path fill="#FFFFFF" d="M203.9,309.8V320c0,1.2,0.2,5.6-3.8,7.7c-0.3,0.1-0.6,0.3-1,0.4v4.3c5.2-1,7.5-4,8.4-6.8
			c0.5-1.5,0.8-2.8,0.8-5.9v-9.8H203.9z"/>
		<path fill="#FFFFFF" d="M192.2,327.8c-0.2-0.1-0.5-0.2-0.7-0.3c-1.1-0.6-2-1.4-2.6-2.6c-1.9-3.2-1.6-8.6-1.6-12v-31.3
			c0-1.1-0.3-6.3,3.8-8.7c0.4-0.2,0.8-0.4,1.1-0.6v-4.4c-2.7,0.6-5.1,1.9-6.9,4.4c-2.4,3.2-2.3,6.7-2.3,10.5v34.5
			c0,4,0.3,5.8,0.9,7.7c0.8,2.3,3.1,6.2,8.3,7.4V327.8z"/>
	</g>
	<g>
		<path fill="#FFFFFF" d="M275.5,271.6c3,1,3.9,3.4,4.2,5.1c0.3,1.3,0.3,2,0.3,4.2v5.7h4.3v-4.6c0-4.6,0-10-4.4-12.9
			c-1.4-0.9-3-1.3-4.4-1.6V271.6z"/>
		<path fill="#FFFFFF" d="M281.2,305.3c-2-2.5-4.2-4.7-6.5-6.9c-1.5-1.6-3-3.2-4.3-4.8c-3.9-4.4-5.5-6.8-5.5-12.9
			c0-4.7,1.2-7.2,3.2-8.5c0.2-0.1,0.4-0.2,0.6-0.3v-4.1c-5.8,1.4-7.3,5.8-7.8,8.9c-0.4,1.8-0.4,4.4-0.4,4.8c0,6.1,2.1,9.7,3.6,11.8
			c1.4,1.9,3.6,4.4,7.3,8c0.6,0.5,4.9,4.6,7.2,8.2c1.2,1.9,2.3,4.1,2.3,9.1c0,5.2-1.3,7.9-3.5,9.3c-0.6,0.4-1.2,0.6-1.8,0.8v4
			c4-0.7,6.2-2.6,7.4-4.4c1.3-1.9,2.3-5,2.3-10.4C285.2,312.8,284.3,309.3,281.2,305.3z"/>
		<path fill="#FFFFFF" d="M268.7,328.4c-4.5-1.6-5.2-5.8-5.3-8.2c-0.1-1.4,0-2.6,0-4v-5.1H259v9c0,1.9,0.1,3.3,0.7,5.1
			c0.7,1.9,1.7,3.3,3.2,4.6c0.9,0.8,1.6,1.3,2.1,1.5c1.1,0.6,2.4,1,3.8,1.2V328.4z"/>
	</g>
	<g>
		<path fill="#FFFFFF" d="M400.2,328.2c-2.3-0.9-3.5-2.8-3.9-3.7c-1.2-2.3-1.3-5.1-1.3-10.4v-30.1c0-4-0.4-8.2,3.1-11.1
			c0.7-0.6,1.4-0.9,2.1-1.2v-4c-2,0.4-3.3,1-4.4,1.7c-0.4,0.3-1.2,0.7-2.1,1.7c-2.8,2.8-3.1,7.1-3.1,10.8v33.4
			c0,6.7,0.5,9.5,2.4,12.4c1.6,2.5,4.2,4.1,7.1,4.6V328.2z"/>
		<path fill="#FFFFFF" d="M407.1,271.8c2.2,0.8,3.4,2.3,3.9,3.5c0.8,1.9,0.9,4.8,0.9,6.8v6.6h4.2v-8.8c0-0.4,0-3-0.4-4.7
			c-0.8-2.8-3.1-6.4-8.6-7.4V271.8z"/>
		<path fill="#FFFFFF" d="M407.1,302.8v3.9h5.1v10.2c0,1.7,0.1,6.6-4.1,10.1c-0.3,0.3-0.6,0.5-1,0.7v4.3c2.3-0.9,3.8-2.3,4.6-3.1
			c0.5-0.5,0.8-0.9,1.6-2.1v5h3.3v-29H407.1z"/>
	</g>
	<g>
		<polygon fill="#FFFFFF" points="349.7,284 349.7,330.3 353.9,330.3 353.7,300.2 		"/>
		<polygon fill="#FFFFFF" points="371.4,329.8 356.2,268.7 352.6,268.7 353.6,272.6 353.6,272.2 359.3,295.4 368.5,332.3 372,332.3 
			371.4,329.7 		"/>
		<polygon fill="#FFFFFF" points="371.3,268 371.7,298.8 375.7,314.7 375.7,268 		"/>
	</g>
	<g>
		<rect x="316.4" y="268.3" fill="#FFFFFF" width="4.3" height="4"/>
		<rect x="293.9" y="268.3" fill="#FFFFFF" width="4.2" height="4"/>
		<polygon fill="#FFFFFF" points="305,331.9 309.5,331.9 309.5,272.3 309.5,272.3 309.5,268.3 305,268.3 		"/>
	</g>
</g>
</svg>
