<?xml version="1.0" encoding="utf-8"?>
<!-- Generator: Adobe Illustrator 18.1.0, SVG Export Plug-In . SVG Version: 6.00 Build 0)  -->
<!DOCTYPE svg PUBLIC "-//W3C//DTD SVG 1.1//EN" "http://www.w3.org/Graphics/SVG/1.1/DTD/svg11.dtd">
<svg version="1.1" xmlns="http://www.w3.org/2000/svg" xmlns:xlink="http://www.w3.org/1999/xlink" x="0px" y="0px"
	 viewBox="0 0 600 600" enable-background="new 0 0 600 600" xml:space="preserve">
<g id="Layer_1" display="none">
	<g display="inline">
		<path d="M504.8,376.5v-63.5h-4.3l0.6,61.1l-15.2-61.1h-6.5v63.5h4.2l-0.4-60l14.8,60H504.8z M460.7,361.8c0,3.7-0.2,7.6-3.6,10
			c-1.4,1.1-3.1,1.5-4.9,1.5c-5,0-7.3-3.2-7.9-4.9c-0.5-1.6-0.7-3.6-0.7-7.2v-35c0-1.1-0.2-6.1,3.7-8.6c0.7-0.5,2.3-1.4,4.9-1.4
			c2.1,0,3.6,0.6,4.2,1c1.8,0.9,2.5,2.2,2.9,3c1.3,2.4,1.5,5.4,1.5,10.7V361.8z M464.9,363.5v-35.1c0-4.9,0-10.4-4.5-13.9
			c-2.3-1.7-5.2-2.3-8.1-2.3c-5.4-0.1-10.4,2.3-12.1,7.6c-1,2.9-1,6.5-1,7.2v35.8c0,3.8,0.3,7.4,2.8,10.5c3.1,3.8,8.6,3.9,9.9,3.9
			c6.5,0,9.8-3.2,11.2-5.5C464.7,369.2,464.9,366.5,464.9,363.5 M424.6,312.9H420v63.5h4.6V312.9z M409.6,316.9v-4h-26.8v4h11.1
			v59.6h4.5v-59.6H409.6z M369.8,353H358l5.2-30c0.3-1.8,0.5-3.6,0.7-5.5c0.3,2,0.5,4,0.9,5.9L369.8,353z M378.5,376.5L367,312.6
			h-6.1l-11.6,63.9h4.7l3.3-19.3h13.3l3.2,19.3H378.5z M337.3,376.5v-63.5H333l0.6,61.1l-15.2-61.1h-6.5v63.5h4.2l-0.4-60l14.8,60
			H337.3z M297.3,312.9h-4.6v63.5h4.6V312.9z M273.8,353.4c0,9.3-1.1,13.9-5.2,16.9c-2.5,1.7-4.9,2.2-7.8,2.2h-3.6V317h3.3
			c0.5,0,2.7,0.2,4.5,0.6c1.3,0.4,4.7,1.6,6.6,5.1c2.2,4,2.2,11.6,2.2,16.1V353.4z M278.1,353.1v-14.1c0-10.8-0.8-16.6-4.3-20.8
			c-4-4.8-9.8-5.2-15.6-5.2h-5.5v63.5h8.4c0.5,0,3,0,5-0.5c3.1-0.7,5.3-2.4,6.3-3.2c4.3-3.7,5.2-8.5,5.6-13.9
			C278.1,356.7,278.1,354.9,278.1,353.1 M234.5,335c0,1.3,0.1,4.9-3.9,6.2c-1.5,0.5-3.3,0.5-3.8,0.5h-8.1v-25h8.3
			c1.6,0,3.1,0.1,4.6,0.9c2.7,1.5,2.9,4.9,2.9,7.6V335z M242,376.5l-11.6-31.2c1.3-0.3,1.6-0.5,2.3-0.7c1.4-0.6,4.9-2.2,6.1-6.6
			c0.4-1.4,0.4-3.9,0.4-4V324c0-1.3,0.2-5.9-3.5-8.8c-2.7-2.1-5.8-2.2-9-2.2h-12.3v63.5h4.4v-31h6.9l11.6,31H242z M195.3,361.8
			c0,3.7-0.2,7.6-3.6,10c-1.4,1.1-3.2,1.5-4.9,1.5c-5,0-7.3-3.2-7.9-4.9c-0.5-1.6-0.7-3.6-0.7-7.2v-35c0-1.1-0.2-6.1,3.7-8.6
			c0.7-0.5,2.3-1.4,4.9-1.4c2.1,0,3.6,0.6,4.2,1c1.8,0.9,2.5,2.2,2.9,3c1.3,2.4,1.5,5.4,1.5,10.7V361.8z M199.5,363.5v-35.1
			c0-4.9,0-10.4-4.5-13.9c-2.3-1.7-5.2-2.3-8.1-2.3c-5.4-0.1-10.3,2.3-12.1,7.6c-1,2.9-1,6.5-1,7.2v35.8c0,3.8,0.3,7.4,2.8,10.5
			c3.2,3.8,8.6,3.9,9.9,3.9c6.5,0,9.8-3.2,11.2-5.5C199.2,369.2,199.5,366.5,199.5,363.5 M155.1,361.8c0,3.7-0.2,7.6-3.6,10
			c-1.4,1.1-3.1,1.5-4.9,1.5c-5,0-7.3-3.2-7.9-4.9c-0.5-1.6-0.7-3.6-0.7-7.2v-35c0-1.1-0.2-6.1,3.7-8.6c0.7-0.5,2.3-1.4,4.9-1.4
			c2.1,0,3.6,0.6,4.2,1c1.8,0.9,2.5,2.2,2.9,3c1.3,2.4,1.5,5.4,1.5,10.7V361.8z M159.4,363.5v-35.1c0-4.9,0-10.4-4.5-13.9
			c-2.3-1.7-5.2-2.3-8.1-2.3c-5.4-0.1-10.4,2.3-12.2,7.6c-1,2.9-1,6.5-1,7.2v35.8c0,3.8,0.3,7.4,2.8,10.5c3.1,3.8,8.6,3.9,9.9,3.9
			c6.5,0,9.8-3.2,11.2-5.5C159.1,369.2,159.4,366.5,159.4,363.5 M120.6,364.4v-9.8h-4.5v10.2c0,1.2,0.2,5.6-3.8,7.6
			c-0.7,0.4-2,0.9-4,0.9c-0.8,0-2.7-0.1-4.6-1.1c-1.1-0.6-2-1.4-2.6-2.6c-1.9-3.1-1.6-8.5-1.6-12v-31.3c0-1.1-0.3-6.3,3.8-8.7
			c1.9-1.2,3.8-1.3,4.6-1.3c2.2,0,3.3,0.6,4.1,1.1c1.3,0.8,2.1,1.8,2.3,2.3c1.1,2.1,1.2,4.7,1.2,9.5v4.2h4.3v-8.9
			c0-0.6,0-3.4-0.9-5.7c-1.8-4.7-6.4-6.6-11.2-6.6c-4.1,0-7.7,1.3-10.3,4.8c-2.4,3.2-2.3,6.7-2.3,10.5v34.5c0,4,0.3,5.8,0.9,7.6
			c0.9,2.7,4,7.7,11.5,7.7c7.8,0,11-3.8,12.1-7.1C120.3,368.8,120.6,367.5,120.6,364.4"/>
		<path d="M401.1,286.5v-4h-16.6v-59.6h-4.4v63.5H401.1z M368.2,226.9v-4h-22.5v63.5h22.4v-4H350v-27.3H365v-3.9H350v-24.5H368.2z
			 M333.4,222.9h-4.5l-9.3,54.2l-8.5-54.2h-4.6l10.8,63.5h4.6L333.4,222.9z M291.2,263h-11.8l5.2-30c0.3-1.8,0.5-3.6,0.7-5.5
			c0.3,2,0.5,4,0.9,5.9L291.2,263z M299.9,286.5l-11.5-63.9h-6.1l-11.6,63.9h4.7l3.3-19.4H292l3.2,19.4H299.9z M255.7,245
			c0,1.3,0.1,4.9-3.9,6.2c-1.5,0.5-3.3,0.5-3.8,0.5H240v-25h8.3c1.6,0,3.1,0.1,4.6,0.9c2.7,1.5,2.9,4.9,2.9,7.6V245z M263.2,286.5
			l-11.6-31.2c1.3-0.3,1.6-0.5,2.3-0.7c1.4-0.6,4.9-2.2,6.1-6.6c0.4-1.4,0.4-3.9,0.4-4V234c0-1.3,0.2-5.9-3.5-8.8
			c-2.7-2.1-5.8-2.2-9-2.2h-12.3v63.5h4.4v-31h6.9l11.6,31H263.2z M225,226.9v-4h-26.8v4h11.1v59.6h4.5v-59.6H225z"/>
	</g>
</g>
<g id="Layer_2">
	<path fill="#FFFFFF" d="M293.4,376.7v-63.6h4.6v63.6H293.4z"/>
	<path fill="#FFFFFF" d="M420.1,376.7v-63.6h4.6v63.6H420.1z"/>
	<path fill="#FFFFFF" d="M291.2,236.2l9.1,50.3h-4.6l-6.4-38.4L291.2,236.2z M275.2,286.5h-4.6l11.9-64h4.6L275.2,286.5z"/>
	<path fill="#FFFFFF" d="M369.6,326.6l9.1,50.3h-4.6l-6.4-38.4L369.6,326.6z M353.7,376.9h-4.6l11.9-64h4.6L353.7,376.9z"/>
	<g>
		<path fill="#FFFFFF" d="M111.4,317.1c0.3,0.1,0.5,0.2,0.7,0.4c1.4,0.8,2.1,1.8,2.3,2.3c1.1,2.1,1.2,4.7,1.2,9.5v4.2h4.3v-8.9
			c0-0.6,0-3.4-0.9-5.7c-1.3-3.5-4.3-5.4-7.6-6.2V317.1z"/>
		<path fill="#FFFFFF" d="M116.1,354.6v10.2c0,1.2,0.2,5.6-3.8,7.7c-0.3,0.1-0.6,0.3-1,0.4v4.3c5.2-1,7.5-4,8.4-6.8
			c0.5-1.5,0.8-2.8,0.8-5.9v-9.8H116.1z"/>
		<path fill="#FFFFFF" d="M104.5,372.6c-0.2-0.1-0.5-0.2-0.7-0.3c-1.1-0.6-2-1.4-2.6-2.6c-1.9-3.2-1.6-8.6-1.6-12v-31.3
			c0-1.1-0.3-6.3,3.8-8.7c0.4-0.2,0.8-0.4,1.1-0.6v-4.4c-2.7,0.6-5.1,1.9-6.9,4.4c-2.4,3.2-2.3,6.7-2.3,10.5v34.5
			c0,4,0.3,5.8,0.9,7.7c0.8,2.3,3.1,6.2,8.3,7.4V372.6z"/>
	</g>
	<g>
		<rect x="236.1" y="222.7" fill="#FFFFFF" width="4.4" height="63.6"/>
		<path fill="#FFFFFF" d="M252.1,255c1.3-0.3,1.6-0.5,2.3-0.7c1.4-0.6,5-2.2,6.1-6.6c0.4-1.4,0.4-3.9,0.4-4.1v-9.9
			c0-1.3,0.2-5.9-3.5-8.8c-2.7-2.1-5.8-2.3-9-2.3h-1v3.8h1.4c1.6,0,3.1,0.1,4.6,0.9c2.7,1.5,2.9,4.9,2.9,7.6v9.8
			c0,1.3,0.1,4.9-3.9,6.2c-1.5,0.5-3.3,0.5-3.8,0.5h-1.2v3.8h0l11.6,31h4.7L252.1,255z"/>
	</g>
	<g>
		<rect x="214.8" y="313.1" fill="#FFFFFF" width="4.4" height="63.6"/>
		<path fill="#FFFFFF" d="M230.8,345.4c1.3-0.3,1.6-0.5,2.3-0.7c1.4-0.6,5-2.2,6.1-6.6c0.4-1.4,0.4-3.9,0.4-4.1v-9.9
			c0-1.3,0.2-5.9-3.5-8.8c-2.7-2.1-5.8-2.3-9-2.3h-1v3.8h1.4c1.6,0,3.1,0.1,4.6,0.9c2.7,1.5,2.9,4.9,2.9,7.6v9.8
			c0,1.3,0.1,4.9-3.9,6.2c-1.5,0.5-3.3,0.5-3.8,0.5h-1.2v3.8h0l11.6,31h4.7L230.8,345.4z"/>
	</g>
	<g>
		<polygon fill="#FFFFFF" points="314.2,286.2 304.1,222.7 299.6,222.7 310.4,286.3 315,286.3 315,286 		"/>
		<polygon fill="#FFFFFF" points="318.3,268 326.5,222.7 322,222.7 316.4,255.8 		"/>
	</g>
	<g>
		<rect x="380" y="222.7" fill="#FFFFFF" width="4.4" height="63.6"/>
		<rect x="391.3" y="282.3" fill="#FFFFFF" width="9.7" height="4"/>
	</g>
	<g>
		<path fill="#FFFFFF" d="M142.9,372.8c-2.6-1-3.9-3.1-4.4-4.3c-0.5-1.6-0.7-3.6-0.7-7.2v-35c0-1.1-0.2-6.1,3.7-8.6
			c0.3-0.2,0.8-0.5,1.4-0.7v-4.2c-3.8,0.9-7.1,3.2-8.4,7.3c-1,2.9-1,6.5-1,7.2V363c0,3.8,0.3,7.4,2.8,10.5c1.8,2.2,4.5,3.2,6.6,3.6
			V372.8z"/>
		<path fill="#FFFFFF" d="M154.7,314.7c-1.5-1.1-3.2-1.7-4.9-2.1v4.3c0.3,0.1,0.6,0.3,0.8,0.4c1.8,0.9,2.5,2.3,2.9,3
			c1.3,2.4,1.5,5.4,1.5,10.7v31c0,3.7-0.2,7.6-3.6,10c-0.5,0.4-1,0.7-1.6,0.9v4.2c4.1-0.9,6.5-3.3,7.5-5.1c1.6-2.6,1.9-5.3,1.9-8.3
			v-35.1C159.2,323.6,159.2,318.1,154.7,314.7z"/>
	</g>
	<g>
		<path fill="#FFFFFF" d="M183.2,372.8c-2.6-1-3.9-3.1-4.4-4.3c-0.5-1.6-0.7-3.6-0.7-7.2v-35c0-1.1-0.2-6.1,3.7-8.6
			c0.3-0.2,0.8-0.5,1.4-0.7v-4.2c-3.8,0.9-7.1,3.2-8.4,7.3c-1,2.9-1,6.5-1,7.2V363c0,3.8,0.3,7.4,2.8,10.5c1.8,2.2,4.5,3.2,6.6,3.6
			V372.8z"/>
		<path fill="#FFFFFF" d="M195,314.7c-1.5-1.1-3.2-1.7-4.9-2.1v4.3c0.3,0.1,0.6,0.3,0.8,0.4c1.8,0.9,2.5,2.3,2.9,3
			c1.3,2.4,1.5,5.4,1.5,10.7v31c0,3.7-0.2,7.6-3.6,10c-0.5,0.4-1,0.7-1.6,0.9v4.2c4.1-0.9,6.5-3.3,7.5-5.1c1.6-2.6,1.9-5.3,1.9-8.3
			v-35.1C199.5,323.6,199.5,318.1,195,314.7z"/>
	</g>
	<g>
		<path fill="#FFFFFF" d="M448.9,372.8c-2.6-1-3.9-3.1-4.4-4.3c-0.5-1.6-0.7-3.6-0.7-7.2v-35c0-1.1-0.2-6.1,3.7-8.6
			c0.3-0.2,0.8-0.5,1.4-0.7v-4.2c-3.8,0.9-7.1,3.2-8.4,7.3c-1,2.9-1,6.5-1,7.2V363c0,3.8,0.3,7.4,2.8,10.5c1.8,2.2,4.5,3.2,6.6,3.6
			V372.8z"/>
		<path fill="#FFFFFF" d="M460.7,314.7c-1.5-1.1-3.2-1.7-4.9-2.1v4.3c0.3,0.1,0.6,0.3,0.8,0.4c1.8,0.9,2.5,2.3,2.9,3
			c1.3,2.4,1.5,5.4,1.5,10.7v31c0,3.7-0.2,7.6-3.6,10c-0.5,0.4-1,0.7-1.6,0.9v4.2c4.1-0.9,6.5-3.3,7.5-5.1c1.6-2.6,1.9-5.3,1.9-8.3
			v-35.1C465.2,323.6,465.2,318.1,460.7,314.7z"/>
	</g>
	<g>
		<rect x="253.2" y="312.9" fill="#FFFFFF" width="4.6" height="64"/>
		<path fill="#FFFFFF" d="M279.3,350.4v-11c0-8.2-0.5-16-4.6-21c-3.9-4.8-9.1-5.5-10.1-5.5v4.1c2.3,0.5,5.9,2.3,7.8,5.9
			c1.8,3.7,2.3,8.2,2.3,16.5v11c0,8.2-0.5,12.8-2.3,16.5c-1.8,3.7-5.5,5.5-7.8,5.9v4.1c0.9,0,6.1-0.7,10.1-5.5
			C278.8,366.4,279.3,358.6,279.3,350.4z"/>
	</g>
	<path fill="#FFFFFF" d="M357.1,222.5h11.8v4.1h-11.8V222.5z M350.7,286.5h-4.6v-64h4.6V286.5z M357.1,282.4h11.7v4.1h-11.7V282.4z
		 M357.1,250.8h8.5v4.1h-8.5V250.8z"/>
	<g>
		<rect x="219.8" y="222.7" fill="#FFFFFF" width="4.3" height="4"/>
		<rect x="197.3" y="222.7" fill="#FFFFFF" width="4.2" height="4"/>
		<polygon fill="#FFFFFF" points="208.4,286.3 212.9,286.3 212.9,226.7 212.9,226.7 212.9,222.7 208.4,222.7 		"/>
	</g>
	<g>
		<rect x="405.2" y="313.1" fill="#FFFFFF" width="4.3" height="4"/>
		<rect x="382.7" y="313.1" fill="#FFFFFF" width="4.2" height="4"/>
		<polygon fill="#FFFFFF" points="393.8,376.7 398.3,376.7 398.3,317.1 398.3,317.1 398.3,313.1 393.8,313.1 		"/>
	</g>
	<g>
		<polygon fill="#FFFFFF" points="311.4,328.8 311.4,375 315.6,375 315.4,345 		"/>
		<polygon fill="#FFFFFF" points="333.1,374.6 317.8,313.5 314.3,313.5 315.2,317.3 315.2,317 320.9,340.2 330.1,377 333.7,377 
			333.1,374.5 		"/>
		<polygon fill="#FFFFFF" points="333,312.7 333.4,343.5 337.3,359.5 337.3,312.7 		"/>
	</g>
	<g>
		<polygon fill="#FFFFFF" points="479.7,328.8 479.7,375 483.9,375 483.8,345 		"/>
		<polygon fill="#FFFFFF" points="501.4,374.6 486.2,313.5 482.6,313.5 483.6,317.3 483.6,317 489.3,340.2 498.5,377 502.1,377 
			501.4,374.5 		"/>
		<polygon fill="#FFFFFF" points="501.4,312.7 501.7,343.5 505.7,359.5 505.7,312.7 		"/>
	</g>
	<g>
		<polygon fill="#FFFFFF" points="320.9,286.2 310.9,222.7 306.3,222.7 317.1,286.3 321.7,286.3 321.7,286 		"/>
		<polygon fill="#FFFFFF" points="325,268 333.2,222.7 328.7,222.7 323.1,255.8 		"/>
	</g>
</g>
</svg>
