<?xml version="1.0" encoding="utf-8"?>
<!-- Generator: Adobe Illustrator 18.1.0, SVG Export Plug-In . SVG Version: 6.00 Build 0)  -->
<!DOCTYPE svg PUBLIC "-//W3C//DTD SVG 1.1//EN" "http://www.w3.org/Graphics/SVG/1.1/DTD/svg11.dtd">
<svg version="1.1" xmlns="http://www.w3.org/2000/svg" xmlns:xlink="http://www.w3.org/1999/xlink" x="0px" y="0px"
	 viewBox="0 0 600 600" enable-background="new 0 0 600 600" xml:space="preserve">
<g id="Layer_1" display="none">
	<g display="inline">
		<path d="M476.3,376.2v-63.5H472l0.6,61.1l-15.2-61.1h-6.5v63.5h4.2l-0.4-60l14.8,60H476.3z M432.2,361.6c0,3.7-0.2,7.6-3.6,10
			c-1.4,1.1-3.1,1.5-4.9,1.5c-5,0-7.3-3.2-7.9-4.9c-0.5-1.6-0.7-3.6-0.7-7.2v-35c0-1.1-0.2-6.1,3.7-8.6c0.7-0.5,2.3-1.4,4.9-1.4
			c2.1,0,3.6,0.6,4.2,1c1.8,0.9,2.5,2.2,2.9,3c1.3,2.4,1.5,5.4,1.5,10.7V361.6z M436.4,363.3v-35.1c0-4.9,0-10.4-4.5-13.9
			c-2.3-1.7-5.2-2.3-8.1-2.3c-5.4-0.1-10.4,2.3-12.1,7.6c-1,2.9-1,6.5-1,7.2v35.8c0,3.8,0.3,7.4,2.8,10.5c3.1,3.8,8.6,3.9,9.9,3.9
			c6.5,0,9.8-3.2,11.2-5.5C436.2,368.9,436.4,366.2,436.4,363.3 M396.1,312.7h-4.6v63.5h4.6V312.7z M381.1,316.6v-4h-26.8v4h11.1
			v59.6h4.5v-59.6H381.1z M345.5,364.2v-9.8H341v10.2c0,1.2,0.2,5.6-3.8,7.6c-0.7,0.4-2,0.9-4,0.9c-0.8,0-2.7-0.1-4.6-1.1
			c-1.1-0.6-2-1.4-2.6-2.6c-1.9-3.1-1.6-8.5-1.6-12v-31.3c0-1.1-0.3-6.3,3.8-8.7c1.9-1.2,3.8-1.3,4.6-1.3c2.2,0,3.3,0.6,4.1,1.1
			c1.4,0.8,2.1,1.8,2.3,2.3c1.1,2.1,1.2,4.7,1.2,9.5v4.2h4.3v-8.9c0-0.6,0-3.4-0.9-5.7c-1.8-4.7-6.4-6.6-11.2-6.6
			c-4,0-7.7,1.3-10.3,4.8c-2.4,3.2-2.3,6.7-2.3,10.5v34.5c0,4,0.3,5.8,0.9,7.6c0.9,2.7,4,7.7,11.5,7.7c7.8,0,11-3.8,12.1-7.1
			C345.2,368.6,345.5,367.3,345.5,364.2 M305.7,363.6v-50.9h-4.4v46.7c0,6.6,0.1,10-2.9,12.2c-1.9,1.5-4.6,1.5-5.2,1.5
			c-4,0-6-1.7-7-3.2c-1.1-1.7-1.4-3.9-1.4-8v-49.2h-4.3v48.5c0,4.1-0.2,8.1,2.5,11.7c0.5,0.8,1.2,1.5,2,2.1c3,2.2,7,2.3,8,2.3
			c2,0,9.3-0.3,11.9-7.3C305.5,368,305.7,365.8,305.7,363.6 M261.6,353.2c0,9.3-1.1,13.9-5.2,16.9c-2.5,1.7-5,2.2-7.8,2.2h-3.6
			v-55.5h3.3c0.5,0,2.7,0.2,4.5,0.6c1.3,0.4,4.7,1.6,6.6,5.1c2.2,4,2.2,11.6,2.2,16.1V353.2z M265.9,352.8v-14.1
			c0-10.8-0.8-16.6-4.3-20.8c-4-4.8-9.8-5.2-15.6-5.2h-5.5v63.5h8.4c0.4,0,3,0,5-0.5c3.2-0.7,5.3-2.4,6.3-3.2
			c4.3-3.7,5.2-8.6,5.6-14C265.9,356.5,265.9,354.7,265.9,352.8 M221.3,361.6c0,3.7-0.2,7.6-3.6,10c-1.4,1.1-3.2,1.5-4.9,1.5
			c-5,0-7.3-3.2-7.9-4.9c-0.5-1.6-0.7-3.6-0.7-7.2v-35c0-1.1-0.2-6.1,3.7-8.6c0.7-0.5,2.3-1.4,4.9-1.4c2.1,0,3.6,0.6,4.2,1
			c1.8,0.9,2.5,2.2,2.9,3c1.3,2.4,1.5,5.4,1.5,10.7V361.6z M225.6,363.3v-35.1c0-4.9,0-10.4-4.5-13.9c-2.3-1.7-5.2-2.3-8.1-2.3
			c-5.4-0.1-10.4,2.3-12.1,7.6c-1,2.9-1,6.5-1,7.2v35.8c0,3.8,0.3,7.4,2.8,10.5c3.2,3.8,8.6,3.9,9.9,3.9c6.5,0,9.8-3.2,11.2-5.5
			C225.3,368.9,225.6,366.2,225.6,363.3 M182.2,334.7c0,1.3,0.1,4.9-3.9,6.2c-1.5,0.5-3.3,0.5-3.8,0.5h-8.1v-25h8.3
			c1.6,0,3.1,0.1,4.6,0.9c2.7,1.5,2.9,4.9,2.9,7.6V334.7z M189.7,376.2L178.1,345c1.3-0.3,1.6-0.5,2.3-0.7c1.4-0.6,4.9-2.2,6.1-6.6
			c0.4-1.4,0.4-3.9,0.4-4v-9.9c0-1.3,0.2-5.9-3.5-8.8c-2.7-2.1-5.8-2.2-9-2.2H162v63.5h4.4v-31h6.9l11.6,31H189.7z M144.1,334
			c0,0.5,0.4,4.9-2.1,7.3c-1.9,2-4.4,2.2-6.8,2.2H128v-27.2h6.8c3.7,0,5.1,0.3,6.8,1.5c2.5,1.9,2.6,4.9,2.6,10.6V334z M148.4,334
			v-7.2c0-4.7,0-8.8-3.4-11.6c-3.2-2.7-7.6-2.5-11.4-2.5h-9.9v63.5h4.4v-29h6.5c2.8,0,8.1-0.2,11.3-4
			C148.4,340.3,148.4,337.4,148.4,334"/>
	</g>
	<path display="inline" d="M240.4,222.7v63.5h4.3V255h15.9v-3.9h-15.9v-24.5h18.1v-4H240.4z M273,286.2h4.6v-63.5H273V286.2z
		 M292.5,222.7v63.5h21v-4h-16.6v-59.6H292.5z M352.9,222.7l-10.5,54.8l-10.5-54.8h-6.5l-0.5,63.5h4.4l-0.1-58.8l11.2,58.8h4.1
		l11.2-58.8l0.1,58.8h4.2l-0.6-63.5H352.9z"/>
</g>
<g id="Layer_2">
	<g>
		<rect x="292.6" y="222.7" fill="#FFFFFF" width="4.4" height="63.6"/>
		<rect x="303.8" y="282.3" fill="#FFFFFF" width="9.7" height="4"/>
	</g>
	<path fill="#FFFFFF" d="M392.1,376.2v-63.6h4.6v63.6H392.1z"/>
	<path fill="#FFFFFF" d="M273.3,286.2v-63.6h4.6v63.6H273.3z"/>
	<g>
		<path fill="#FFFFFF" d="M336.3,316.6c0.3,0.1,0.5,0.2,0.7,0.4c1.4,0.8,2.1,1.8,2.3,2.3c1.1,2.1,1.2,4.7,1.2,9.5v4.2h4.3V324
			c0-0.6,0-3.4-0.9-5.7c-1.3-3.5-4.3-5.4-7.6-6.2V316.6z"/>
		<path fill="#FFFFFF" d="M341,354.1v10.2c0,1.2,0.2,5.6-3.8,7.7c-0.3,0.1-0.6,0.3-1,0.4v4.3c5.2-1,7.5-4,8.4-6.8
			c0.5-1.5,0.8-2.8,0.8-5.9v-9.8H341z"/>
		<path fill="#FFFFFF" d="M329.4,372.1c-0.2-0.1-0.5-0.2-0.7-0.3c-1.1-0.6-2-1.4-2.6-2.6c-1.9-3.2-1.6-8.6-1.6-12v-31.3
			c0-1.1-0.3-6.3,3.8-8.7c0.4-0.2,0.8-0.4,1.1-0.6v-4.4c-2.7,0.6-5.1,1.9-6.9,4.4c-2.4,3.2-2.3,6.7-2.3,10.5v34.5
			c0,4,0.3,5.8,0.9,7.7c0.8,2.3,3.1,6.2,8.3,7.4V372.1z"/>
	</g>
	<g>
		<path fill="#FFFFFF" d="M301,312.2V359c0,6.6,0.1,10-2.9,12.2c-0.6,0.5-1.3,0.8-1.9,1v4.3c2.9-0.6,6.6-2.3,8.3-6.9
			c0.7-2,0.9-4.2,0.9-6.4v-51H301z"/>
		<path fill="#FFFFFF" d="M289.4,372.2c-1.7-0.6-2.8-1.7-3.4-2.7c-1.1-1.7-1.4-3.9-1.4-8v-49.2h-4.3v48.5c0,4.1-0.2,8.1,2.5,11.7
			c0.5,0.8,1.2,1.5,2,2.1c1.5,1.1,3.2,1.7,4.7,2V372.2z"/>
	</g>
	<g>
		<rect x="162.3" y="312.6" fill="#FFFFFF" width="4.4" height="63.6"/>
		<path fill="#FFFFFF" d="M178.3,344.9c1.4-0.3,1.6-0.5,2.3-0.7c1.4-0.6,5-2.2,6.1-6.6c0.4-1.4,0.4-3.9,0.4-4.1v-9.9
			c0-1.3,0.2-5.9-3.5-8.8c-2.7-2.1-5.8-2.3-9-2.3h-1v3.8h1.4c1.6,0,3.1,0.1,4.6,0.9c2.7,1.5,2.9,4.9,2.9,7.6v9.8
			c0,1.3,0.1,4.9-3.9,6.2c-1.5,0.5-3.3,0.5-3.8,0.5h-1.2v3.8h0l11.6,31h4.7L178.3,344.9z"/>
	</g>
	<g>
		<polygon fill="#FFFFFF" points="359,223 352.5,223 345.5,259.4 347.3,269 355.3,227.3 355.4,286 359.6,286 		"/>
		<polygon fill="#FFFFFF" points="331.4,223 327.9,223 340,286 343.6,286 335.3,243 		"/>
		<polygon fill="#FFFFFF" points="324.8,243 324.4,286 328.8,286 328.8,264 		"/>
	</g>
	<g>
		<path fill="#FFFFFF" d="M209,372.3c-2.6-1-3.9-3.1-4.4-4.3c-0.5-1.6-0.7-3.6-0.7-7.2v-35c0-1.1-0.2-6.1,3.7-8.6
			c0.3-0.2,0.8-0.5,1.4-0.7v-4.2c-3.8,0.9-7.1,3.2-8.4,7.3c-1,2.9-1,6.5-1,7.2v35.8c0,3.8,0.3,7.4,2.8,10.5c1.8,2.2,4.5,3.2,6.6,3.6
			V372.3z"/>
		<path fill="#FFFFFF" d="M220.8,314.2c-1.5-1.1-3.2-1.7-4.9-2.1v4.3c0.3,0.1,0.6,0.3,0.8,0.4c1.8,0.9,2.5,2.3,2.9,3
			c1.3,2.4,1.5,5.4,1.5,10.7v31c0,3.7-0.2,7.6-3.6,10c-0.5,0.4-1,0.7-1.6,0.9v4.2c4.1-0.9,6.5-3.3,7.5-5.1c1.6-2.6,1.9-5.3,1.9-8.3
			v-35.1C225.3,323.1,225.3,317.6,220.8,314.2z"/>
	</g>
	<g>
		<path fill="#FFFFFF" d="M420.7,372.3c-2.6-1-3.9-3.1-4.4-4.3c-0.5-1.6-0.7-3.6-0.7-7.2v-35c0-1.1-0.2-6.1,3.7-8.6
			c0.3-0.2,0.8-0.5,1.4-0.7v-4.2c-3.8,0.9-7.1,3.2-8.4,7.3c-1,2.9-1,6.5-1,7.2v35.8c0,3.8,0.3,7.4,2.8,10.5c1.8,2.2,4.5,3.2,6.6,3.6
			V372.3z"/>
		<path fill="#FFFFFF" d="M432.5,314.2c-1.5-1.1-3.2-1.7-4.9-2.1v4.3c0.3,0.1,0.6,0.3,0.8,0.4c1.8,0.9,2.5,2.3,2.9,3
			c1.3,2.4,1.5,5.4,1.5,10.7v31c0,3.7-0.2,7.6-3.6,10c-0.5,0.4-1,0.7-1.6,0.9v4.2c4.1-0.9,6.5-3.3,7.5-5.1c1.6-2.6,1.9-5.3,1.9-8.3
			v-35.1C437,323.1,437,317.6,432.5,314.2z"/>
	</g>
	<g>
		<rect x="240.7" y="312.4" fill="#FFFFFF" width="4.6" height="64"/>
		<path fill="#FFFFFF" d="M266.7,349.9v-11c0-8.2-0.5-16-4.6-21c-3.9-4.8-9.1-5.5-10.1-5.5v4.1c2.3,0.5,5.9,2.3,7.8,5.9
			c1.8,3.7,2.3,8.2,2.3,16.5v11c0,8.2-0.5,12.8-2.3,16.5c-1.8,3.7-5.5,5.5-7.8,5.9v4.1c0.9,0,6.1-0.7,10.1-5.5
			C266.3,365.9,266.7,358.1,266.7,349.9z"/>
	</g>
	<path fill="#FFFFFF" d="M251.4,222.5h11.8v4.1h-11.8V222.5z M245,286.5h-4.6v-64h4.6V286.5z M251.4,250.8h8.5v4.1h-8.5V250.8z"/>
	<path fill="#FFFFFF" d="M148.5,335.3c0,6.4-2.3,11.9-12.3,11.9h-1.4v-3.7h1.4c5.9,0,7.8-3.7,7.8-8.2v-11c0-4.6-1.8-8.2-7.8-8.2
		h-1.4v-3.7h1.4c10,0,12.3,5.5,12.3,11.9V335.3z M127.9,376.4h-4.6v-64h4.6V376.4z"/>
	<g>
		<rect x="376.2" y="312.6" fill="#FFFFFF" width="4.3" height="4"/>
		<rect x="353.8" y="312.6" fill="#FFFFFF" width="4.2" height="4"/>
		<polygon fill="#FFFFFF" points="364.8,376.2 369.3,376.2 369.3,316.6 369.3,316.6 369.3,312.6 364.8,312.6 		"/>
	</g>
	<g>
		<polygon fill="#FFFFFF" points="450.7,328.3 450.7,374.6 454.9,374.6 454.7,344.5 		"/>
		<polygon fill="#FFFFFF" points="472.4,374.1 457.2,313 453.6,313 454.6,316.8 454.6,316.5 460.3,339.7 469.4,376.6 473,376.6 
			472.4,374 		"/>
		<polygon fill="#FFFFFF" points="472.3,312.2 472.7,343 476.7,359 476.7,312.2 		"/>
	</g>
</g>
</svg>
