<?xml version="1.0" encoding="utf-8"?>
<!-- Generator: Adobe Illustrator 18.1.0, SVG Export Plug-In . SVG Version: 6.00 Build 0)  -->
<!DOCTYPE svg PUBLIC "-//W3C//DTD SVG 1.1//EN" "http://www.w3.org/Graphics/SVG/1.1/DTD/svg11.dtd">
<svg version="1.1" xmlns="http://www.w3.org/2000/svg" xmlns:xlink="http://www.w3.org/1999/xlink" x="0px" y="0px"
	 viewBox="0 0 600 600" enable-background="new 0 0 600 600" xml:space="preserve">
<g id="Layer_1" display="none">
	<g display="inline">
		<path d="M528.5,331.7v-29h-13.8v3.9h9.4v10.2c0,1.7,0.1,6.6-4.1,10.1c-1.4,1.2-3,1.9-4.9,1.9c-4.2,0-6.3-3-6.9-4.3
			c-1.2-2.3-1.3-5.1-1.3-10.4V284c0-4-0.4-8.2,3.1-11.1c2.2-1.7,4.7-1.7,5.6-1.7c4.6,0,6.6,2.2,7.4,4c0.8,1.9,0.9,4.8,0.9,6.8v6.6
			h4.2v-8.8c0-0.4,0-3-0.5-4.7c-1-3.2-3.9-7.6-11.8-7.6c-4.2,0-6.5,0.9-8.1,2c-0.5,0.3-1.2,0.7-2.1,1.7c-2.8,2.8-3.1,7.1-3.1,10.8
			v33.4c0,6.7,0.4,9.4,2.4,12.4c2.1,3.2,5.8,4.9,9.5,4.9c4.9,0,7.8-2.6,9-3.9c0.5-0.5,0.8-0.9,1.6-2.1v5H528.5z M487.8,331.7v-63.5
			h-4.3l0.6,61.1l-15.2-61.1h-6.5v63.5h4.2l-0.4-60l14.8,60H487.8z M447.8,268.1h-4.6v63.5h4.6V268.1z M429.8,319.6v-9.8h-4.5V320
			c0,1.2,0.2,5.6-3.8,7.6c-0.7,0.4-2,0.9-4,0.9c-0.8,0-2.7-0.1-4.6-1.1c-1.1-0.6-2-1.4-2.6-2.6c-1.9-3.1-1.6-8.5-1.6-12v-31.3
			c0-1.1-0.3-6.3,3.8-8.7c1.9-1.2,3.8-1.3,4.6-1.3c2.2,0,3.3,0.6,4.1,1.1c1.4,0.8,2.1,1.8,2.3,2.3c1.1,2.1,1.2,4.7,1.2,9.5v4.2h4.3
			v-8.9c0-0.6,0-3.4-0.9-5.7c-1.8-4.7-6.4-6.6-11.2-6.6c-4,0-7.7,1.3-10.3,4.8c-2.4,3.2-2.3,6.7-2.3,10.5v34.5c0,4,0.3,5.8,0.9,7.6
			c0.9,2.7,4,7.7,11.5,7.7c7.8,0,11-3.8,12.1-7.1C429.5,324,429.8,322.8,429.8,319.6 M386.9,290.2c0,1.3,0.1,4.9-3.9,6.2
			c-1.5,0.5-3.3,0.5-3.8,0.5h-8.1v-25h8.3c1.6,0,3.1,0.1,4.6,0.9c2.7,1.5,2.9,4.9,2.9,7.6V290.2z M394.4,331.7l-11.6-31.2
			c1.4-0.3,1.6-0.5,2.3-0.7c1.4-0.6,4.9-2.2,6.1-6.6c0.4-1.4,0.4-3.9,0.4-4v-9.9c0-1.3,0.2-5.9-3.5-8.8c-2.7-2.1-5.8-2.2-9-2.2
			h-12.3v63.5h4.4v-31h6.9l11.6,31H394.4z M351.7,319.1v-50.9h-4.4v46.7c0,6.6,0.1,10-2.9,12.2c-1.9,1.5-4.6,1.5-5.2,1.5
			c-4,0-6-1.7-7-3.2c-1.1-1.7-1.4-3.9-1.4-8v-49.2h-4.3v48.5c0,4.1-0.2,8.1,2.5,11.7c0.5,0.8,1.2,1.5,2,2.1c3,2.2,7,2.3,8,2.3
			c2,0,9.3-0.3,11.9-7.3C351.6,323.5,351.7,321.2,351.7,319.1 M307.6,317c0,3.7-0.2,7.6-3.6,10c-1.4,1.1-3.1,1.5-4.9,1.5
			c-5,0-7.3-3.2-7.9-4.9c-0.5-1.6-0.7-3.6-0.7-7.2v-35c0-1.1-0.2-6.1,3.7-8.6c0.7-0.5,2.3-1.4,4.9-1.4c2.1,0,3.6,0.6,4.2,1
			c1.8,0.9,2.5,2.2,2.9,3c1.3,2.4,1.5,5.4,1.5,10.7V317z M311.8,318.7v-35.1c0-4.9,0-10.4-4.5-13.9c-2.3-1.7-5.2-2.3-8.1-2.3
			c-5.4-0.1-10.4,2.3-12.1,7.6c-1,2.9-1,6.5-1,7.2v35.8c0,3.8,0.3,7.4,2.8,10.5c3.2,3.8,8.6,3.9,9.9,3.9c6.5,0,9.8-3.2,11.2-5.5
			C311.5,324.4,311.8,321.7,311.8,318.7 M273,317.6c0-5-0.9-8.6-4.1-12.5c-2-2.5-4.2-4.7-6.5-6.9c-1.5-1.6-3-3.1-4.3-4.8
			c-3.9-4.4-5.5-6.8-5.5-12.9c0-4.7,1.2-7.2,3.2-8.5c1.8-1.1,3.9-1.1,4.5-1.1c5.5,0,6.8,3.4,7.2,5.6c0.3,1.3,0.3,2,0.3,4.2v5.7h4.3
			v-4.6c0-4.6,0-10-4.4-12.9c-2.9-1.8-6.5-1.8-7.5-1.8c-8.9,0-11,5.7-11.6,9.3c-0.4,1.8-0.4,4.4-0.4,4.8c0,6.1,2.1,9.7,3.6,11.8
			c1.4,1.9,3.6,4.4,7.3,8c0.6,0.5,4.9,4.6,7.2,8.2c1.2,1.9,2.2,4.1,2.2,9.1c0,5.2-1.3,7.9-3.5,9.3c-1.9,1.2-3.9,1.2-4.6,1.2
			c-8.2,0-9.2-5.8-9.4-8.8c-0.1-1.4,0-2.6,0-4v-5.1h-4.4v9c0,1.9,0.1,3.3,0.7,5.1c0.7,1.9,1.7,3.3,3.2,4.6c0.9,0.8,1.6,1.3,2.1,1.5
			c2,1.1,4.9,1.5,7.3,1.5c6.1,0,9.3-2.4,10.8-4.7C272,326.1,273,323,273,317.6 M209,289.5c0,0.5,0.4,4.9-2.1,7.3
			c-1.9,2-4.4,2.2-6.8,2.2h-7.2v-27.2h6.8c3.7,0,5.1,0.3,6.8,1.5c2.5,1.9,2.6,4.9,2.6,10.6V289.5z M213.3,289.5v-7.2
			c0-4.7,0-8.8-3.4-11.6c-3.2-2.7-7.6-2.5-11.4-2.5h-9.9v63.5h4.4v-29h6.5c2.8,0,8.1-0.2,11.3-4
			C213.2,295.8,213.3,292.9,213.3,289.5 M169.6,317c0,3.7-0.2,7.6-3.6,10c-1.4,1.1-3.2,1.5-4.9,1.5c-5,0-7.3-3.2-7.9-4.9
			c-0.5-1.6-0.7-3.6-0.7-7.2v-35c0-1.1-0.2-6.1,3.7-8.6c0.7-0.5,2.3-1.4,4.9-1.4c2.1,0,3.6,0.6,4.2,1c1.8,0.9,2.5,2.2,2.9,3
			c1.3,2.4,1.5,5.4,1.5,10.7V317z M173.8,318.7v-35.1c0-4.9,0-10.4-4.5-13.9c-2.3-1.7-5.2-2.3-8.1-2.3c-5.4-0.1-10.4,2.3-12.1,7.6
			c-1,2.9-1,6.5-1,7.2v35.8c0,3.8,0.3,7.4,2.8,10.5c3.2,3.8,8.6,3.9,9.9,3.9c6.5,0,9.8-3.2,11.2-5.5
			C173.6,324.4,173.8,321.7,173.8,318.7 M130.4,290.2c0,1.3,0.1,4.9-3.9,6.2c-1.5,0.5-3.3,0.5-3.8,0.5h-8.1v-25h8.3
			c1.6,0,3.1,0.1,4.6,0.9c2.7,1.5,2.9,4.9,2.9,7.6V290.2z M137.9,331.7l-11.6-31.2c1.3-0.3,1.6-0.5,2.3-0.7c1.4-0.6,4.9-2.2,6.1-6.6
			c0.4-1.4,0.4-3.9,0.4-4v-9.9c0-1.3,0.2-5.9-3.5-8.8c-2.7-2.1-5.8-2.2-9-2.2h-12.3v63.5h4.4v-31h6.9l11.6,31H137.9z M92.4,289.5
			c0,0.5,0.4,4.9-2.1,7.3c-1.9,2-4.4,2.2-6.8,2.2h-7.2v-27.2H83c3.7,0,5.1,0.3,6.8,1.5c2.5,1.9,2.6,4.9,2.6,10.6V289.5z M96.7,289.5
			v-7.2c0-4.7,0-8.8-3.4-11.6c-3.2-2.7-7.6-2.5-11.4-2.5h-9.9v63.5h4.4v-29h6.5c2.8,0,8.1-0.2,11.3-4
			C96.6,295.8,96.7,292.9,96.7,289.5"/>
	</g>
</g>
<g id="Layer_2">
	<g>
		<path fill="#FFFFFF" d="M512.1,328.2c-2.3-0.9-3.5-2.8-3.9-3.7c-1.2-2.3-1.3-5.1-1.3-10.4V284c0-4-0.4-8.2,3.1-11.1
			c0.7-0.6,1.4-0.9,2.1-1.2v-4c-2,0.4-3.3,1-4.4,1.7c-0.4,0.3-1.2,0.7-2.1,1.7c-2.8,2.8-3.1,7.1-3.1,10.8v33.4
			c0,6.7,0.5,9.5,2.4,12.4c1.6,2.5,4.2,4.1,7.1,4.6V328.2z"/>
		<path fill="#FFFFFF" d="M519,271.7c2.2,0.8,3.4,2.3,3.9,3.5c0.8,1.9,0.9,4.8,0.9,6.8v6.6h4.2v-8.8c0-0.4,0-3-0.4-4.7
			c-0.8-2.8-3.1-6.4-8.6-7.4V271.7z"/>
		<path fill="#FFFFFF" d="M519,302.7v3.9h5.1v10.2c0,1.7,0.1,6.6-4.1,10.1c-0.3,0.3-0.6,0.5-1,0.7v4.3c2.3-0.9,3.8-2.3,4.6-3.1
			c0.5-0.5,0.8-0.9,1.6-2.1v5h3.3v-29H519z"/>
	</g>
	<g>
		<path fill="#FFFFFF" d="M262.9,271.5c3,1,3.9,3.4,4.2,5.1c0.3,1.3,0.3,2,0.3,4.2v5.7h4.3V282c0-4.6,0-10-4.4-12.9
			c-1.4-0.9-3-1.3-4.4-1.6V271.5z"/>
		<path fill="#FFFFFF" d="M268.5,305.2c-2-2.5-4.2-4.7-6.5-6.9c-1.5-1.6-3-3.2-4.3-4.8c-3.9-4.4-5.5-6.8-5.5-12.9
			c0-4.7,1.2-7.2,3.2-8.5c0.2-0.1,0.4-0.2,0.6-0.3v-4.1c-5.8,1.4-7.3,5.8-7.8,8.9c-0.4,1.8-0.4,4.4-0.4,4.8c0,6.1,2.1,9.7,3.6,11.8
			c1.4,1.9,3.6,4.4,7.3,8c0.6,0.5,4.9,4.6,7.2,8.2c1.2,1.9,2.3,4.1,2.3,9.1c0,5.2-1.3,7.9-3.5,9.3c-0.6,0.4-1.2,0.6-1.8,0.8v4
			c4-0.7,6.2-2.6,7.4-4.4c1.3-1.9,2.3-5,2.3-10.4C272.6,312.7,271.7,309.2,268.5,305.2z"/>
		<path fill="#FFFFFF" d="M256.1,328.3c-4.5-1.6-5.2-5.8-5.3-8.2c-0.1-1.4,0-2.6,0-4V311h-4.4v9c0,1.9,0.1,3.3,0.7,5.1
			c0.7,1.9,1.7,3.3,3.2,4.6c0.9,0.8,1.6,1.3,2.1,1.5c1.1,0.6,2.4,1,3.8,1.2V328.3z"/>
	</g>
	<path fill="#FFFFFF" d="M443,331.8v-63.6h4.6v63.6H443z"/>
	<g>
		<path fill="#FFFFFF" d="M419.8,272.2c0.3,0.1,0.5,0.2,0.7,0.4c1.4,0.8,2.1,1.8,2.3,2.3c1.1,2.1,1.2,4.7,1.2,9.5v4.2h4.3v-8.9
			c0-0.6,0-3.4-0.9-5.7c-1.3-3.5-4.3-5.4-7.6-6.2V272.2z"/>
		<path fill="#FFFFFF" d="M424.6,309.8v10.2c0,1.2,0.2,5.6-3.8,7.7c-0.3,0.1-0.6,0.3-1,0.4v4.3c5.2-1,7.5-4,8.4-6.8
			c0.5-1.5,0.8-2.8,0.8-5.9v-9.8H424.6z"/>
		<path fill="#FFFFFF" d="M412.9,327.7c-0.2-0.1-0.5-0.2-0.7-0.3c-1.1-0.6-2-1.4-2.6-2.6c-1.9-3.2-1.6-8.6-1.6-12v-31.3
			c0-1.1-0.3-6.3,3.8-8.7c0.4-0.2,0.8-0.4,1.1-0.6v-4.4c-2.7,0.6-5.1,1.9-6.9,4.4c-2.4,3.2-2.3,6.7-2.3,10.5v34.5
			c0,4,0.3,5.8,0.9,7.7c0.8,2.3,3.1,6.2,8.3,7.4V327.7z"/>
	</g>
	<g>
		<path fill="#FFFFFF" d="M347.3,267.9v46.7c0,6.6,0.1,10-2.9,12.2c-0.6,0.5-1.3,0.8-1.9,1v4.3c2.9-0.6,6.6-2.3,8.3-6.9
			c0.7-2,0.9-4.2,0.9-6.4v-51H347.3z"/>
		<path fill="#FFFFFF" d="M335.7,327.8c-1.7-0.6-2.8-1.7-3.4-2.7c-1.1-1.7-1.4-3.9-1.4-8v-49.2h-4.3v48.5c0,4.1-0.2,8.1,2.5,11.7
			c0.5,0.8,1.2,1.5,2,2.1c1.5,1.1,3.2,1.7,4.7,2V327.8z"/>
	</g>
	<g>
		<rect x="110.1" y="268.2" fill="#FFFFFF" width="4.4" height="63.6"/>
		<path fill="#FFFFFF" d="M126.1,300.6c1.4-0.3,1.6-0.5,2.3-0.7c1.4-0.6,5-2.2,6.1-6.6c0.4-1.4,0.4-3.9,0.4-4.1v-9.9
			c0-1.3,0.2-5.9-3.5-8.8c-2.7-2.1-5.8-2.3-9-2.3h-1v3.8h1.4c1.6,0,3.1,0.1,4.6,0.9c2.7,1.5,2.9,4.9,2.9,7.6v9.8
			c0,1.3,0.1,4.9-3.9,6.2c-1.5,0.5-3.3,0.5-3.8,0.5h-1.2v3.8h0l11.6,31h4.7L126.1,300.6z"/>
	</g>
	<g>
		<rect x="367.3" y="268.2" fill="#FFFFFF" width="4.4" height="63.6"/>
		<path fill="#FFFFFF" d="M383.3,300.6c1.4-0.3,1.6-0.5,2.3-0.7c1.4-0.6,5-2.2,6.1-6.6c0.4-1.4,0.4-3.9,0.4-4.1v-9.9
			c0-1.3,0.2-5.9-3.5-8.8c-2.7-2.1-5.8-2.3-9-2.3h-1v3.8h1.4c1.6,0,3.1,0.1,4.6,0.9c2.7,1.5,2.9,4.9,2.9,7.6v9.8
			c0,1.3,0.1,4.9-3.9,6.2c-1.5,0.5-3.3,0.5-3.8,0.5h-1.2v3.8h0l11.6,31h4.7L383.3,300.6z"/>
	</g>
	<g>
		<path fill="#FFFFFF" d="M157.8,328c-2.6-1-3.9-3.1-4.4-4.3c-0.5-1.6-0.7-3.6-0.7-7.2v-35c0-1.1-0.2-6.1,3.7-8.6
			c0.3-0.2,0.8-0.5,1.4-0.7v-4.2c-3.8,0.9-7.1,3.2-8.4,7.3c-1,2.9-1,6.5-1,7.2v35.8c0,3.8,0.3,7.4,2.8,10.5c1.8,2.2,4.5,3.2,6.6,3.6
			V328z"/>
		<path fill="#FFFFFF" d="M169.6,269.8c-1.5-1.1-3.2-1.7-4.9-2.1v4.3c0.3,0.1,0.6,0.3,0.8,0.4c1.8,0.9,2.5,2.3,2.9,3
			c1.3,2.4,1.5,5.4,1.5,10.7v31c0,3.7-0.2,7.6-3.6,10c-0.5,0.4-1,0.7-1.6,0.9v4.2c4.1-0.9,6.5-3.3,7.5-5.1c1.6-2.6,1.9-5.3,1.9-8.3
			v-35.1C174.1,278.7,174.1,273.3,169.6,269.8z"/>
	</g>
	<g>
		<path fill="#FFFFFF" d="M295.6,328c-2.6-1-3.9-3.1-4.4-4.3c-0.5-1.6-0.7-3.6-0.7-7.2v-35c0-1.1-0.2-6.1,3.7-8.6
			c0.3-0.2,0.8-0.5,1.4-0.7v-4.2c-3.8,0.9-7.1,3.2-8.4,7.3c-1,2.9-1,6.5-1,7.2v35.8c0,3.8,0.3,7.4,2.8,10.5c1.8,2.2,4.5,3.2,6.6,3.6
			V328z"/>
		<path fill="#FFFFFF" d="M307.4,269.8c-1.5-1.1-3.2-1.7-4.9-2.1v4.3c0.3,0.1,0.6,0.3,0.8,0.4c1.8,0.9,2.5,2.3,2.9,3
			c1.3,2.4,1.5,5.4,1.5,10.7v31c0,3.7-0.2,7.6-3.6,10c-0.5,0.4-1,0.7-1.6,0.9v4.2c4.1-0.9,6.5-3.3,7.5-5.1c1.6-2.6,1.9-5.3,1.9-8.3
			v-35.1C311.9,278.7,311.9,273.3,307.4,269.8z"/>
	</g>
	<path fill="#FFFFFF" d="M97.2,290.9c0,6.4-2.3,11.9-12.3,11.9h-1.4v-3.7h1.4c5.9,0,7.8-3.7,7.8-8.2v-11c0-4.6-1.8-8.2-7.8-8.2h-1.4
		V268h1.4c10,0,12.3,5.5,12.3,11.9V290.9z M76.7,332h-4.6v-64h4.6V332z"/>
	<path fill="#FFFFFF" d="M213.2,290.9c0,6.4-2.3,11.9-12.3,11.9h-1.4v-3.7h1.4c5.9,0,7.8-3.7,7.8-8.2v-11c0-4.6-1.8-8.2-7.8-8.2
		h-1.4V268h1.4c10,0,12.3,5.5,12.3,11.9V290.9z M192.7,332h-4.6v-64h4.6V332z"/>
	<g>
		<polygon fill="#FFFFFF" points="462,283.9 462,330.2 466.2,330.2 466,300.1 		"/>
		<polygon fill="#FFFFFF" points="483.7,329.8 468.5,268.6 464.9,268.6 465.9,272.5 465.9,272.1 471.6,295.3 480.8,332.2 
			484.3,332.2 483.7,329.6 		"/>
		<polygon fill="#FFFFFF" points="483.6,267.9 484,298.7 488,314.6 488,267.9 		"/>
	</g>
</g>
</svg>
