<?xml version="1.0" encoding="utf-8"?>
<!-- Generator: Adobe Illustrator 18.1.0, SVG Export Plug-In . SVG Version: 6.00 Build 0)  -->
<!DOCTYPE svg PUBLIC "-//W3C//DTD SVG 1.1//EN" "http://www.w3.org/Graphics/SVG/1.1/DTD/svg11.dtd">
<svg version="1.1" xmlns="http://www.w3.org/2000/svg" xmlns:xlink="http://www.w3.org/1999/xlink" x="0px" y="0px"
	 viewBox="0 0 600 600" enable-background="new 0 0 600 600" xml:space="preserve">
<g id="Layer_1" display="none">
	<g display="inline">
		<g>
			<path fill="#231F20" d="M247,280.3c-1.2,3.3-4.3,7.1-12.1,7.1c-7.6,0-10.6-5-11.5-7.7c-0.6-1.9-0.9-3.7-0.9-7.6v-34.5
				c0-3.9-0.1-7.3,2.3-10.5c2.5-3.5,6.2-4.8,10.3-4.8c4.8,0,9.4,1.9,11.2,6.6c0.9,2.2,0.9,5,0.9,5.7v8.9h-4.3v-4.2
				c0-4.8-0.1-7.4-1.2-9.4c-0.3-0.5-1-1.5-2.3-2.3c-0.8-0.5-2-1.1-4.1-1.1c-0.8,0-2.7,0.1-4.6,1.3c-4,2.4-3.8,7.6-3.8,8.7v31.3
				c0,3.4-0.3,8.8,1.6,12c0.6,1.2,1.5,2,2.6,2.6c1.9,1,3.8,1.1,4.6,1.1c2,0,3.2-0.5,4-0.9c4-2.1,3.8-6.5,3.8-7.6v-10.2h4.5v9.8
				C247.8,277.5,247.6,278.8,247,280.3z"/>
			<path fill="#231F20" d="M284.3,286.4l-11.6-31h-6.9v31h-4.4v-63.5h12.3c3.2,0,6.3,0.2,9,2.2c3.7,2.9,3.5,7.6,3.5,8.8v9.9
				c0,0.2,0,2.6-0.4,4c-1.2,4.4-4.7,5.9-6.1,6.6c-0.7,0.3-1,0.5-2.3,0.7l11.6,31.2H284.3z M281.5,235.1c0-2.7-0.2-6-2.9-7.6
				c-1.5-0.8-3-0.9-4.6-0.9h-8.3v25h8.1c0.5,0,2.2,0,3.8-0.5c4-1.4,3.9-5,3.9-6.2V235.1z"/>
			<path fill="#231F20" d="M303.9,226.8v24.5h14.9v3.9h-14.9v27.3H322v4h-22.4v-63.5h22.5v4H303.9z"/>
			<path fill="#231F20" d="M367.2,286.4h-4.8l-8.2-54.6l-8.2,54.6h-4.6l-10.8-63.5h4.5l8.5,54l8.2-54h4.7l8.3,54l8.3-54h4.4
				L367.2,286.4z"/>
		</g>
		<g>
			<path fill="#231F20" d="M137.3,376.4l-0.1-58.8l-11.2,58.8h-4l-11.2-58.8l0.1,58.8h-4.4l0.5-63.5h6.5l10.5,54.8l10.5-54.8h6.5
				l0.6,63.5H137.3z"/>
			<path fill="#231F20" d="M177.7,376.4l-3.2-19.3h-13.3l-3.3,19.3h-4.7l11.6-63.9h6.1l11.5,63.9H177.7z M168.7,323.4
				c-0.4-2-0.6-4-0.9-5.9c-0.2,1.9-0.5,3.7-0.7,5.5l-5.2,30h11.8L168.7,323.4z"/>
			<path fill="#231F20" d="M212.8,376.4l-14.8-60l0.4,60h-4.2v-63.5h6.5l15.2,61.1l-0.6-61.1h4.3v63.5H212.8z"/>
			<path fill="#231F20" d="M256.1,376.4l-3.2-19.3h-13.3l-3.3,19.3h-4.7l11.6-63.9h6.1l11.5,63.9H256.1z M247.1,323.4
				c-0.4-2-0.6-4-0.9-5.9c-0.2,1.9-0.4,3.7-0.7,5.5l-5.2,30H252L247.1,323.4z"/>
			<path fill="#231F20" d="M295.1,376.4v-5c-0.8,1.2-1.1,1.5-1.6,2.1c-1.2,1.3-4.1,3.9-9,3.9c-3.8,0-7.5-1.6-9.5-4.9
				c-2-3-2.4-5.8-2.4-12.4v-33.4c0-3.7,0.3-8,3.1-10.8c0.9-1,1.6-1.4,2.1-1.7c1.6-1.1,3.9-2,8.1-2c7.9,0,10.8,4.4,11.8,7.7
				c0.5,1.7,0.5,4.3,0.5,4.7v8.8h-4.2v-6.6c0-2-0.1-4.9-0.9-6.8c-0.8-1.8-2.8-4-7.4-4c-0.9,0-3.4,0-5.6,1.7
				c-3.4,2.9-3.1,7.1-3.1,11.1v30.1c0,5.2,0.1,8,1.3,10.3c0.6,1.4,2.7,4.3,6.9,4.3c1.9,0,3.4-0.7,4.9-1.9c4.2-3.5,4.1-8.4,4.1-10.1
				v-10.2h-9.4v-3.9h13.8v29H295.1z"/>
			<path fill="#231F20" d="M317.4,316.8v24.5h14.9v3.9h-14.9v27.3h18.1v4h-22.4v-63.5h22.5v4H317.4z"/>
			<path fill="#231F20" d="M378,376.4l-0.1-58.8l-11.2,58.8h-4l-11.2-58.8l0.1,58.8h-4.4l0.5-63.5h6.5l10.5,54.8l10.5-54.8h6.5
				l0.6,63.5H378z"/>
			<path fill="#231F20" d="M401.3,316.8v24.5h14.9v3.9h-14.9v27.3h18.1v4H397v-63.5h22.5v4H401.3z"/>
			<path fill="#231F20" d="M449.8,376.4l-14.8-60l0.4,60h-4.2v-63.5h6.5l15.2,61.1l-0.6-61.1h4.3v63.5H449.8z"/>
			<path fill="#231F20" d="M482.4,316.8v59.6h-4.5v-59.6h-11.1v-4h26.8v4H482.4z"/>
		</g>
	</g>
</g>
<g id="Layer_2">
	<path fill="#FFFFFF" d="M173.7,326.2l9.1,50.3h-4.6l-6.4-38.4L173.7,326.2z M157.7,376.5h-4.6l11.9-64h4.6L157.7,376.5z"/>
	<g>
		<polygon fill="#FFFFFF" points="141,313 134.5,313 127.5,349.4 129.3,359 137.3,317.3 137.4,376 141.6,376 		"/>
		<polygon fill="#FFFFFF" points="113.4,313 109.9,313 122,376 125.6,376 117.3,333 		"/>
		<polygon fill="#FFFFFF" points="106.8,333 106.4,376 110.8,376 110.8,354 		"/>
	</g>
	<g>
		<polygon fill="#FFFFFF" points="382,313 375.5,313 368.5,349.4 370.3,359 378.3,317.3 378.4,376 382.6,376 		"/>
		<polygon fill="#FFFFFF" points="354.4,313 350.9,313 363,376 366.6,376 358.3,333 		"/>
		<polygon fill="#FFFFFF" points="347.8,333 347.4,376 351.8,376 351.8,354 		"/>
	</g>
	<g>
		<path fill="#FFFFFF" d="M282.1,372.6c-2.3-0.9-3.5-2.8-3.9-3.7c-1.2-2.3-1.3-5.1-1.3-10.4v-30.1c0-4-0.4-8.2,3.1-11.1
			c0.7-0.6,1.4-0.9,2.1-1.2v-4c-2,0.4-3.3,1-4.4,1.7c-0.4,0.3-1.2,0.7-2.1,1.7c-2.8,2.8-3.1,7.1-3.1,10.8v33.4
			c0,6.7,0.5,9.5,2.4,12.4c1.6,2.5,4.2,4.1,7.1,4.6V372.6z"/>
		<path fill="#FFFFFF" d="M289,316.2c2.2,0.8,3.4,2.3,3.9,3.5c0.8,1.9,0.9,4.8,0.9,6.8v6.6h4.2v-8.8c0-0.4,0-3-0.4-4.7
			c-0.8-2.8-3.1-6.4-8.6-7.4V316.2z"/>
		<path fill="#FFFFFF" d="M289,347.2v3.9h5.1v10.2c0,1.7,0.1,6.6-4.1,10.1c-0.3,0.3-0.6,0.5-1,0.7v4.3c2.3-0.9,3.8-2.3,4.6-3.1
			c0.5-0.5,0.8-0.9,1.6-2.1v5h3.3v-29H289z"/>
	</g>
	<path fill="#FFFFFF" d="M251.8,326.2l9.1,50.3h-4.6l-6.4-38.4L251.8,326.2z M235.9,376.5h-4.6l11.9-64h4.6L235.9,376.5z"/>
	<g>
		<polygon fill="#FFFFFF" points="430.8,328.4 430.8,374.6 435.1,374.6 434.9,344.6 		"/>
		<polygon fill="#FFFFFF" points="452.5,374.2 437.3,313.1 433.8,313.1 434.7,316.9 434.7,316.6 440.4,339.8 449.6,376.6 
			453.2,376.6 452.5,374.1 		"/>
		<polygon fill="#FFFFFF" points="452.5,312.3 452.8,343.1 456.8,359.1 456.8,312.3 		"/>
	</g>
	<g>
		<polygon fill="#FFFFFF" points="193.5,328.4 193.5,374.6 197.7,374.6 197.5,344.6 		"/>
		<polygon fill="#FFFFFF" points="215.2,374.2 200,313.1 196.4,313.1 197.4,316.9 197.4,316.6 203.1,339.8 212.3,376.6 215.8,376.6 
			215.2,374.1 		"/>
		<polygon fill="#FFFFFF" points="215.2,312.3 215.5,343.1 219.5,359.1 219.5,312.3 		"/>
	</g>
	<g>
		<rect x="489.3" y="312.7" fill="#FFFFFF" width="4.3" height="4"/>
		<rect x="466.9" y="312.7" fill="#FFFFFF" width="4.2" height="4"/>
		<polygon fill="#FFFFFF" points="477.9,376.3 482.4,376.3 482.4,316.7 482.4,316.7 482.4,312.7 477.9,312.7 		"/>
	</g>
	<g>
		<g>
			<path fill="#FFFFFF" d="M345.9,286.8h-4.6l-11-64h4.6L345.9,286.8z M368.7,250.2l4.6-27.4h4.6l-7.3,42.5L368.7,250.2z
				 M346.8,252.1l4.6-29.2h6.4l9.1,64h-4.6l-7.8-54.4l-5.5,32.9L346.8,252.1z"/>
		</g>
	</g>
	<g>
		<path fill="#FFFFFF" d="M238.6,227c0.3,0.1,0.5,0.2,0.7,0.4c1.4,0.8,2.1,1.8,2.3,2.3c1.1,2.1,1.2,4.7,1.2,9.5v4.2h4.3v-8.9
			c0-0.6,0-3.4-0.9-5.7c-1.3-3.5-4.3-5.4-7.6-6.2V227z"/>
		<path fill="#FFFFFF" d="M243.4,264.5v10.2c0,1.2,0.2,5.6-3.8,7.7c-0.3,0.1-0.6,0.3-1,0.4v4.3c5.2-1,7.5-4,8.4-6.8
			c0.5-1.5,0.8-2.8,0.8-5.9v-9.8H243.4z"/>
		<path fill="#FFFFFF" d="M231.7,282.5c-0.2-0.1-0.5-0.2-0.7-0.3c-1.1-0.6-2-1.4-2.6-2.6c-1.9-3.2-1.6-8.6-1.6-12v-31.3
			c0-1.1-0.3-6.3,3.8-8.7c0.4-0.2,0.8-0.4,1.1-0.6v-4.4c-2.7,0.6-5.1,1.9-6.9,4.4c-2.4,3.2-2.3,6.7-2.3,10.5V272
			c0,4,0.3,5.8,0.9,7.7c0.8,2.3,3.1,6.2,8.3,7.4V282.5z"/>
	</g>
	<g>
		<rect x="261" y="223" fill="#FFFFFF" width="4.4" height="63.6"/>
		<path fill="#FFFFFF" d="M277,255.4c1.4-0.3,1.6-0.5,2.3-0.7c1.4-0.6,5-2.2,6.1-6.6c0.4-1.4,0.4-3.9,0.4-4.1v-9.9
			c0-1.3,0.2-5.9-3.5-8.8c-2.7-2.1-5.8-2.3-9-2.3h-1v3.8h1.4c1.6,0,3.1,0.1,4.6,0.9c2.7,1.5,2.9,4.9,2.9,7.6v9.8
			c0,1.3,0.1,4.9-3.9,6.2c-1.5,0.5-3.3,0.5-3.8,0.5h-1.2v3.8h0l11.6,31h4.7L277,255.4z"/>
	</g>
	<path fill="#FFFFFF" d="M310.4,222.8h11.8v4.1h-11.8V222.8z M304,286.8h-4.6v-64h4.6V286.8z M310.4,282.7h11.7v4.1h-11.7V282.7z
		 M310.4,251.2h8.5v4.1h-8.5V251.2z"/>
	<path fill="#FFFFFF" d="M407.9,312.5h11.8v4.1h-11.8V312.5z M401.5,376.5h-4.6v-64h4.6V376.5z M407.9,372.4h11.7v4.1h-11.7V372.4z
		 M407.9,340.8h8.5v4.1h-8.5V340.8z"/>
	<path fill="#FFFFFF" d="M323.9,312.5h11.8v4.1h-11.8V312.5z M317.5,376.5h-4.6v-64h4.6V376.5z M323.9,372.4h11.7v4.1h-11.7V372.4z
		 M323.9,340.8h8.5v4.1h-8.5V340.8z"/>
</g>
</svg>
