<?xml version="1.0" encoding="utf-8"?>
<!-- Generator: Adobe Illustrator 18.1.0, SVG Export Plug-In . SVG Version: 6.00 Build 0)  -->
<!DOCTYPE svg PUBLIC "-//W3C//DTD SVG 1.1//EN" "http://www.w3.org/Graphics/SVG/1.1/DTD/svg11.dtd">
<svg version="1.1" xmlns="http://www.w3.org/2000/svg" xmlns:xlink="http://www.w3.org/1999/xlink" x="0px" y="0px"
	 viewBox="0 0 600 600" enable-background="new 0 0 600 600" xml:space="preserve">
<g id="Layer_1" display="none">
	<g display="inline">
		<path d="M504,317.1v-4h-26.8v4h11.1v59.6h4.5v-59.6H504z M466.8,376.7v-63.5h-4.3l0.6,61.1l-15.2-61.1h-6.5v63.5h4.2l-0.4-60
			l14.8,60H466.8z M429.8,317.1v-4h-22.5v63.5h22.4v-4h-18.1v-27.3h14.9v-3.9h-14.9v-24.5H429.8z M392.5,376.7l-0.6-63.5h-6.5
			L374.9,368l-10.5-54.8h-6.5l-0.5,63.5h4.4l-0.1-58.8l11.2,58.8h4.1l11.2-58.8l0.1,58.8H392.5z M345.8,317.1v-4h-22.5v63.5h22.4v-4
			h-18.1v-27.3h14.9v-3.9h-14.9v-24.5H345.8z M308.7,376.7v-29H295v3.9h9.4v10.2c0,1.7,0.1,6.6-4.1,10.1c-1.4,1.2-3,1.9-4.9,1.9
			c-4.2,0-6.3-3-6.9-4.3c-1.2-2.3-1.3-5.1-1.3-10.3V329c0-4-0.4-8.2,3.1-11.1c2.2-1.7,4.7-1.7,5.6-1.7c4.6,0,6.6,2.2,7.4,4.1
			c0.8,1.9,0.9,4.8,0.9,6.8v6.6h4.2v-8.8c0-0.4,0-3-0.4-4.7c-1-3.2-3.9-7.6-11.8-7.6c-4.2,0-6.5,0.9-8.1,2c-0.5,0.3-1.2,0.7-2.1,1.7
			c-2.8,2.8-3.1,7.1-3.1,10.8v33.4c0,6.7,0.5,9.5,2.4,12.4c2.1,3.2,5.8,4.9,9.5,4.9c4.9,0,7.8-2.6,9-3.9c0.5-0.5,0.8-0.9,1.6-2.1v5
			H308.7z M262.3,353.2h-11.8l5.2-30c0.3-1.8,0.5-3.6,0.7-5.5c0.3,2,0.5,4,0.9,5.9L262.3,353.2z M271,376.7l-11.5-63.9h-6.1
			l-11.6,63.9h4.7l3.3-19.4h13.3l3.2,19.4H271z M229.8,376.7v-63.5h-4.3l0.6,61.1l-15.2-61.1h-6.5v63.5h4.2l-0.4-60l14.8,60H229.8z
			 M183.9,353.2h-11.8l5.2-30c0.3-1.8,0.5-3.6,0.7-5.5c0.3,2,0.5,4,0.9,5.9L183.9,353.2z M192.6,376.7l-11.5-63.9H175l-11.6,63.9
			h4.7l3.3-19.4h13.3l3.2,19.4H192.6z M151.8,376.7l-0.6-63.5h-6.5L134.1,368l-10.5-54.8h-6.5l-0.5,63.5h4.4l-0.1-58.8l11.2,58.8
			h4.1l11.2-58.8l0.1,58.8H151.8z"/>
		<path d="M439.9,286.7v-63.5h-4.3l0.6,61.1L421,223.1h-6.5v63.5h4.2l-0.4-60l14.8,60H439.9z M395.8,272c0,3.7-0.2,7.6-3.6,10
			c-1.4,1.1-3.1,1.5-5,1.5c-5,0-7.3-3.2-7.9-5c-0.5-1.6-0.7-3.6-0.7-7.2v-35c0-1.1-0.2-6.1,3.7-8.6c0.7-0.5,2.3-1.4,4.9-1.4
			c2.1,0,3.6,0.6,4.2,1c1.8,0.9,2.5,2.2,2.9,3c1.3,2.4,1.5,5.4,1.5,10.7V272z M400.1,273.7v-35.1c0-4.9,0-10.4-4.5-13.9
			c-2.3-1.7-5.2-2.3-8.1-2.3c-5.4-0.1-10.3,2.3-12.1,7.7c-1,2.9-1,6.5-1,7.2v35.8c0,3.8,0.3,7.4,2.8,10.5c3.1,3.8,8.6,3.9,9.9,3.9
			c6.5,0,9.8-3.1,11.2-5.5C399.8,279.4,400.1,276.7,400.1,273.7 M359.8,223.1h-4.6v63.5h4.6V223.1z M344.7,227.1v-4h-26.8v4H329
			v59.6h4.5v-59.6H344.7z M305,263.2h-11.8l5.2-30c0.3-1.8,0.5-3.6,0.7-5.5c0.3,2,0.5,4,0.9,5.9L305,263.2z M313.7,286.7l-11.5-63.9
			H296l-11.6,63.9h4.7l3.3-19.4h13.3l3.2,19.4H313.7z M274.1,274.6v-9.8h-4.5V275c0,1.2,0.2,5.6-3.8,7.6c-0.7,0.4-2,0.9-4,0.9
			c-0.8,0-2.7-0.1-4.6-1.1c-1.1-0.6-2-1.4-2.6-2.6c-1.9-3.1-1.6-8.5-1.6-12v-31.3c0-1.1-0.3-6.3,3.8-8.7c1.9-1.2,3.8-1.3,4.6-1.3
			c2.2,0,3.3,0.6,4.1,1.1c1.4,0.8,2.1,1.8,2.3,2.3c1.1,2.1,1.2,4.7,1.2,9.4v4.2h4.3v-8.9c0-0.6,0-3.4-0.9-5.7
			c-1.8-4.7-6.4-6.6-11.2-6.6c-4,0-7.7,1.3-10.3,4.8c-2.4,3.2-2.3,6.7-2.3,10.5v34.5c0,4,0.3,5.8,0.9,7.6c0.9,2.7,4,7.7,11.5,7.7
			c7.8,0,11-3.8,12.1-7.1C273.8,279,274.1,277.8,274.1,274.6 M230.3,272c0,3.7-0.2,7.6-3.6,10c-1.4,1.1-3.1,1.5-5,1.5
			c-5,0-7.3-3.2-7.9-5c-0.5-1.6-0.7-3.6-0.7-7.2v-35c0-1.1-0.2-6.1,3.7-8.6c0.7-0.5,2.3-1.4,4.9-1.4c2.1,0,3.6,0.6,4.2,1
			c1.8,0.9,2.5,2.2,2.9,3c1.3,2.4,1.5,5.4,1.5,10.7V272z M234.5,273.7v-35.1c0-4.9,0-10.4-4.5-13.9c-2.3-1.7-5.2-2.3-8.1-2.3
			c-5.4-0.1-10.3,2.3-12.2,7.7c-1,2.9-1,6.5-1,7.2v35.8c0,3.8,0.3,7.4,2.8,10.5c3.1,3.8,8.6,3.9,9.9,3.9c6.5,0,9.8-3.1,11.2-5.5
			C234.2,279.4,234.5,276.7,234.5,273.7 M197.4,286.7v-4h-16.6v-59.6h-4.4v63.5H197.4z"/>
	</g>
</g>
<g id="Layer_2">
	<path fill="#FFFFFF" d="M183.7,326.2l9.1,50.3h-4.6l-6.4-38.4L183.7,326.2z M167.7,376.5h-4.6l11.9-64h4.6L167.7,376.5z"/>
	<g>
		<polygon fill="#FFFFFF" points="151,313 144.5,313 137.5,349.4 139.3,359 147.3,317.3 147.4,376 151.6,376 		"/>
		<polygon fill="#FFFFFF" points="123.4,313 119.9,313 132,376 135.6,376 127.3,333 		"/>
		<polygon fill="#FFFFFF" points="116.8,333 116.4,376 120.8,376 120.8,354 		"/>
	</g>
	<g>
		<polygon fill="#FFFFFF" points="392,313 385.5,313 378.5,349.4 380.3,359 388.3,317.3 388.4,376 392.6,376 		"/>
		<polygon fill="#FFFFFF" points="364.4,313 360.9,313 373,376 376.6,376 368.3,333 		"/>
		<polygon fill="#FFFFFF" points="357.8,333 357.4,376 361.8,376 361.8,354 		"/>
	</g>
	<g>
		<path fill="#FFFFFF" d="M292.1,372.6c-2.3-0.9-3.5-2.8-3.9-3.7c-1.2-2.3-1.3-5.1-1.3-10.4v-30.1c0-4-0.4-8.2,3.1-11.1
			c0.7-0.6,1.4-0.9,2.1-1.2v-4c-2,0.4-3.3,1-4.4,1.7c-0.4,0.3-1.2,0.7-2.1,1.7c-2.8,2.8-3.1,7.1-3.1,10.8v33.4
			c0,6.7,0.5,9.5,2.4,12.4c1.6,2.5,4.2,4.1,7.1,4.6V372.6z"/>
		<path fill="#FFFFFF" d="M299,316.2c2.2,0.8,3.4,2.3,3.9,3.5c0.8,1.9,0.9,4.8,0.9,6.8v6.6h4.2v-8.8c0-0.4,0-3-0.4-4.7
			c-0.8-2.8-3.1-6.4-8.6-7.4V316.2z"/>
		<path fill="#FFFFFF" d="M299,347.2v3.9h5.1v10.2c0,1.7,0.1,6.6-4.1,10.1c-0.3,0.3-0.6,0.5-1,0.7v4.3c2.3-0.9,3.8-2.3,4.6-3.1
			c0.5-0.5,0.8-0.9,1.6-2.1v5h3.3v-29H299z"/>
	</g>
	<path fill="#FFFFFF" d="M261.8,326.2l9.1,50.3h-4.6l-6.4-38.4L261.8,326.2z M245.9,376.5h-4.6l11.9-64h4.6L245.9,376.5z"/>
	<g>
		<polygon fill="#FFFFFF" points="440.8,328.4 440.8,374.6 445.1,374.6 444.9,344.6 		"/>
		<polygon fill="#FFFFFF" points="462.5,374.2 447.3,313.1 443.8,313.1 444.7,316.9 444.7,316.6 450.4,339.8 459.6,376.6 
			463.2,376.6 462.5,374.1 		"/>
		<polygon fill="#FFFFFF" points="462.5,312.3 462.8,343.1 466.8,359.1 466.8,312.3 		"/>
	</g>
	<g>
		<polygon fill="#FFFFFF" points="203.5,328.4 203.5,374.6 207.7,374.6 207.5,344.6 		"/>
		<polygon fill="#FFFFFF" points="225.2,374.2 210,313.1 206.4,313.1 207.4,316.9 207.4,316.6 213.1,339.8 222.3,376.6 225.8,376.6 
			225.2,374.1 		"/>
		<polygon fill="#FFFFFF" points="225.2,312.3 225.5,343.1 229.5,359.1 229.5,312.3 		"/>
	</g>
	<g>
		<rect x="499.3" y="312.7" fill="#FFFFFF" width="4.3" height="4"/>
		<rect x="476.9" y="312.7" fill="#FFFFFF" width="4.2" height="4"/>
		<polygon fill="#FFFFFF" points="487.9,376.3 492.4,376.3 492.4,316.7 492.4,316.7 492.4,312.7 487.9,312.7 		"/>
	</g>
	<path fill="#FFFFFF" d="M417.9,312.5h11.8v4.1h-11.8V312.5z M411.5,376.5h-4.6v-64h4.6V376.5z M417.9,372.4h11.7v4.1h-11.7V372.4z
		 M417.9,340.8h8.5v4.1h-8.5V340.8z"/>
	<path fill="#FFFFFF" d="M333.9,312.5h11.8v4.1h-11.8V312.5z M327.5,376.5h-4.6v-64h4.6V376.5z M333.9,372.4h11.7v4.1h-11.7V372.4z
		 M333.9,340.8h8.5v4.1h-8.5V340.8z"/>
	<g>
		<rect x="176.6" y="222.6" fill="#FFFFFF" width="4.4" height="63.6"/>
		<rect x="187.8" y="282.2" fill="#FFFFFF" width="9.7" height="4"/>
	</g>
	<path fill="#FFFFFF" d="M355.1,286v-63.6h4.6V286H355.1z"/>
	<path fill="#FFFFFF" d="M305.2,236.3l9.1,50.3h-4.6l-6.4-38.4L305.2,236.3z M289.2,286.5h-4.6l11.9-64h4.6L289.2,286.5z"/>
	<g>
		<path fill="#FFFFFF" d="M264.3,227.3c0.3,0.1,0.5,0.2,0.7,0.4c1.4,0.8,2.1,1.8,2.3,2.3c1.1,2.1,1.2,4.7,1.2,9.5v4.2h4.3v-8.9
			c0-0.6,0-3.4-0.9-5.7c-1.3-3.5-4.3-5.4-7.6-6.2V227.3z"/>
		<path fill="#FFFFFF" d="M269.1,264.8V275c0,1.2,0.2,5.6-3.8,7.7c-0.3,0.1-0.6,0.3-1,0.4v4.3c5.2-1,7.5-4,8.4-6.8
			c0.5-1.5,0.8-2.8,0.8-5.9v-9.8H269.1z"/>
		<path fill="#FFFFFF" d="M257.4,282.8c-0.2-0.1-0.5-0.2-0.7-0.3c-1.1-0.6-2-1.4-2.6-2.6c-1.9-3.2-1.6-8.6-1.6-12v-31.3
			c0-1.1-0.3-6.3,3.8-8.7c0.4-0.2,0.8-0.4,1.1-0.6v-4.4c-2.7,0.6-5.1,1.9-6.9,4.4c-2.4,3.2-2.3,6.7-2.3,10.5v34.5
			c0,4,0.3,5.8,0.9,7.7c0.8,2.3,3.1,6.2,8.3,7.4V282.8z"/>
	</g>
	<g>
		<path fill="#FFFFFF" d="M217.8,282c-2.6-1-3.9-3.1-4.4-4.3c-0.5-1.6-0.7-3.6-0.7-7.2v-35c0-1.1-0.2-6.1,3.7-8.6
			c0.3-0.2,0.8-0.5,1.4-0.7v-4.2c-3.8,0.9-7.1,3.2-8.4,7.3c-1,2.9-1,6.5-1,7.2v35.8c0,3.8,0.3,7.4,2.8,10.5c1.8,2.2,4.5,3.2,6.6,3.6
			V282z"/>
		<path fill="#FFFFFF" d="M229.7,223.8c-1.5-1.1-3.2-1.7-4.9-2.1v4.3c0.3,0.1,0.6,0.3,0.8,0.4c1.8,0.9,2.5,2.3,2.9,3
			c1.3,2.4,1.5,5.4,1.5,10.7v31c0,3.7-0.2,7.6-3.6,10c-0.5,0.4-1,0.7-1.6,0.9v4.2c4.1-0.9,6.5-3.3,7.5-5.1c1.6-2.6,1.9-5.3,1.9-8.3
			v-35.1C234.2,232.8,234.2,227.3,229.7,223.8z"/>
	</g>
	<g>
		<path fill="#FFFFFF" d="M383.9,282.7c-2.6-1-3.9-3.1-4.4-4.3c-0.5-1.6-0.7-3.6-0.7-7.2v-35c0-1.1-0.2-6.1,3.7-8.6
			c0.3-0.2,0.8-0.5,1.4-0.7v-4.2c-3.8,0.9-7.1,3.2-8.4,7.3c-1,2.9-1,6.5-1,7.2v35.8c0,3.8,0.3,7.4,2.8,10.5c1.8,2.2,4.5,3.2,6.6,3.6
			V282.7z"/>
		<path fill="#FFFFFF" d="M395.7,224.5c-1.5-1.1-3.2-1.7-4.9-2.1v4.3c0.3,0.1,0.6,0.3,0.8,0.4c1.8,0.9,2.5,2.3,2.9,3
			c1.3,2.4,1.5,5.4,1.5,10.7v31c0,3.7-0.2,7.6-3.6,10c-0.5,0.4-1,0.7-1.6,0.9v4.2c4.1-0.9,6.5-3.3,7.5-5.1c1.6-2.6,1.9-5.3,1.9-8.3
			v-35.1C400.2,233.5,400.2,228,395.7,224.5z"/>
	</g>
	<g>
		<rect x="340.1" y="223.1" fill="#FFFFFF" width="4.3" height="4"/>
		<rect x="317.6" y="223.1" fill="#FFFFFF" width="4.2" height="4"/>
		<polygon fill="#FFFFFF" points="328.7,286.7 333.2,286.7 333.2,227.1 333.2,227.1 333.2,223.1 328.7,223.1 		"/>
	</g>
	<g>
		<polygon fill="#FFFFFF" points="414.4,239.2 414.4,285.4 418.6,285.4 418.5,255.4 		"/>
		<polygon fill="#FFFFFF" points="436.1,285 420.9,223.9 417.3,223.9 418.3,227.7 418.3,227.4 424,250.6 433.2,287.4 436.8,287.4 
			436.1,284.8 		"/>
		<polygon fill="#FFFFFF" points="436.1,223.1 436.4,253.9 440.4,269.9 440.4,223.1 		"/>
	</g>
</g>
</svg>
