<?xml version="1.0" encoding="utf-8"?>
<!-- Generator: Adobe Illustrator 18.1.0, SVG Export Plug-In . SVG Version: 6.00 Build 0)  -->
<!DOCTYPE svg PUBLIC "-//W3C//DTD SVG 1.1//EN" "http://www.w3.org/Graphics/SVG/1.1/DTD/svg11.dtd">
<svg version="1.1" xmlns="http://www.w3.org/2000/svg" xmlns:xlink="http://www.w3.org/1999/xlink" x="0px" y="0px"
	 viewBox="0 0 600 600" enable-background="new 0 0 600 600" xml:space="preserve">
<g id="Layer_1" display="none">
	<g display="inline">
		<path d="M479.9,376.8v-63.5h-4.3l0.6,61.1L461,313.2h-6.5v63.5h4.2l-0.4-60l14.8,60H479.9z M435.8,362.1c0,3.7-0.2,7.6-3.6,10
			c-1.4,1.1-3.1,1.5-4.9,1.5c-5,0-7.3-3.2-7.9-5c-0.5-1.6-0.7-3.6-0.7-7.2v-35c0-1.1-0.2-6.1,3.7-8.6c0.7-0.4,2.3-1.3,4.9-1.3
			c2.1,0,3.6,0.6,4.2,1c1.8,0.9,2.5,2.2,2.9,3c1.3,2.4,1.5,5.4,1.5,10.7V362.1z M440,363.8v-35.1c0-5,0-10.4-4.5-13.9
			c-2.3-1.7-5.2-2.3-8.1-2.3c-5.4-0.1-10.4,2.3-12.1,7.6c-1,2.9-1,6.5-1,7.2v35.8c0,3.8,0.3,7.4,2.8,10.5c3.2,3.8,8.6,3.9,9.9,3.9
			c6.5,0,9.8-3.1,11.2-5.5C439.8,369.5,440,366.8,440,363.8 M399.7,313.2h-4.6v63.5h4.6V313.2z M384.7,317.2v-4h-26.8v4h11.1v59.6
			h4.5v-59.6H384.7z M344.9,353.3h-11.8l5.2-30c0.3-1.8,0.5-3.6,0.7-5.5c0.3,2,0.5,4,0.9,5.9L344.9,353.3z M353.6,376.8l-11.5-63.9
			H336l-11.6,63.9h4.7l3.3-19.4h13.3l3.2,19.4H353.6z M312.5,313.2h-4.6v63.5h4.6V313.2z M297.5,317.2v-4h-26.8v4h11.1v59.6h4.5
			v-59.6H297.5z M256.3,362.1c0,3.7-0.2,7.6-3.6,10c-1.4,1.1-3.2,1.5-5,1.5c-5,0-7.3-3.2-7.9-5c-0.5-1.6-0.7-3.6-0.7-7.2v-35
			c0-1.1-0.2-6.1,3.7-8.6c0.7-0.4,2.3-1.3,4.9-1.3c2.1,0,3.6,0.6,4.2,1c1.8,0.9,2.5,2.2,2.9,3c1.3,2.4,1.5,5.4,1.5,10.7V362.1z
			 M260.5,363.8v-35.1c0-5,0-10.4-4.5-13.9c-2.3-1.7-5.2-2.3-8.1-2.3c-5.4-0.1-10.3,2.3-12.2,7.6c-1,2.9-1,6.5-1,7.2v35.8
			c0,3.8,0.3,7.4,2.8,10.5c3.1,3.8,8.6,3.9,9.9,3.9c6.5,0,9.8-3.1,11.2-5.5C260.2,369.5,260.5,366.8,260.5,363.8 M220.6,376.8v-29
			h-13.8v3.9h9.4v10.2c0,1.7,0.1,6.6-4.1,10.1c-1.4,1.2-3,1.9-4.9,1.9c-4.2,0-6.3-3-6.9-4.3c-1.2-2.3-1.3-5.1-1.3-10.4v-30.1
			c0-4-0.4-8.2,3.1-11.1c2.2-1.7,4.7-1.7,5.6-1.7c4.6,0,6.6,2.2,7.4,4.1c0.8,1.9,0.9,4.8,0.9,6.8v6.6h4.2v-8.8c0-0.4,0-3-0.4-4.7
			c-1-3.2-3.9-7.6-11.8-7.6c-4.2,0-6.5,0.9-8.1,2c-0.4,0.3-1.2,0.7-2.1,1.7c-2.8,2.8-3.1,7.1-3.1,10.8v33.4c0,6.7,0.4,9.5,2.4,12.4
			c2.1,3.2,5.8,4.9,9.5,4.9c4.9,0,7.8-2.6,9-3.9c0.5-0.5,0.8-0.9,1.6-2.1v5H220.6z M183.1,317.2v-4h-22.5v63.5H183v-4h-18.1v-27.3
			h14.9v-3.9h-14.9v-24.5H183.1z M145.5,376.8v-63.5h-4.3l0.6,61.1l-15.2-61.1h-6.5v63.5h4.2l-0.4-60l14.8,60H145.5z"/>
		<path d="M479.9,227.2v-4h-22.5v63.5h22.4v-4h-18.1v-27.3h14.9v-3.9h-14.9v-24.5H479.9z M445.4,227.2v-4h-22.5v63.5h22.4v-4h-18.1
			v-27.3h14.9v-3.9h-14.9v-24.5H445.4z M412.6,227.2v-4h-22.4v63.5h4.3v-31.2h15.9v-3.9h-15.9v-24.5H412.6z M356,223.2H352l-18,63.5
			h4.1L356,223.2z M302.9,227.2v-4h-22.5v63.5h22.4v-4h-18.1v-27.3h14.9v-3.9h-14.9v-24.5H302.9z M265.8,286.8v-29h-13.8v3.9h9.4
			v10.2c0,1.7,0.1,6.6-4.1,10.1c-1.4,1.2-3,1.9-4.9,1.9c-4.2,0-6.3-3-6.9-4.3c-1.2-2.3-1.3-5.1-1.3-10.3v-30.1c0-4-0.4-8.2,3.1-11.1
			c2.2-1.7,4.7-1.7,5.6-1.7c4.6,0,6.6,2.2,7.4,4c0.8,1.9,0.9,4.8,0.9,6.8v6.6h4.2v-8.8c0-0.4,0-3-0.4-4.7c-1-3.2-3.9-7.6-11.8-7.6
			c-4.2,0-6.5,0.9-8.1,2c-0.4,0.3-1.2,0.7-2.1,1.7c-2.8,2.8-3.1,7.1-3.1,10.8v33.4c0,6.7,0.5,9.5,2.4,12.4c2.1,3.2,5.8,4.9,9.5,4.9
			c4.9,0,7.8-2.6,9-3.9c0.5-0.5,0.8-0.9,1.6-2.1v5H265.8z M219.4,263.3h-11.8l5.2-30c0.3-1.8,0.5-3.6,0.7-5.5c0.3,2,0.5,4,0.9,5.9
			L219.4,263.3z M228.1,286.8l-11.5-63.9h-6.1l-11.6,63.9h4.7l3.3-19.4h13.3l3.2,19.4H228.1z M188.5,272.7c0-5-0.9-8.5-4.1-12.5
			c-2-2.5-4.2-4.7-6.5-6.9c-1.5-1.6-3-3.2-4.3-4.8c-3.9-4.4-5.5-6.8-5.5-12.9c0-4.7,1.2-7.2,3.2-8.5c1.8-1.1,3.9-1.1,4.5-1.1
			c5.5,0,6.8,3.4,7.2,5.6c0.3,1.3,0.3,2,0.3,4.2v5.7h4.3V237c0-4.6,0-10-4.4-12.9c-2.9-1.8-6.5-1.8-7.5-1.8c-8.9,0-11,5.7-11.6,9.3
			c-0.4,1.8-0.4,4.4-0.4,4.8c0,6.1,2.1,9.7,3.6,11.8c1.4,1.9,3.6,4.4,7.3,8c0.6,0.5,4.9,4.6,7.2,8.2c1.2,1.9,2.2,4.1,2.2,9.1
			c0,5.2-1.3,7.9-3.5,9.3c-1.9,1.2-3.9,1.2-4.6,1.2c-8.2,0-9.2-5.8-9.4-8.8c-0.1-1.3,0-2.6,0-4V266h-4.4v9c0,1.9,0.1,3.3,0.7,5.1
			c0.7,1.9,1.7,3.3,3.2,4.6c0.9,0.8,1.6,1.3,2.1,1.5c2,1.1,4.9,1.5,7.3,1.5c6.1,0,9.3-2.4,10.8-4.7
			C187.5,281.2,188.5,278,188.5,272.7 M148.8,274.2v-50.9h-4.4v46.7c0,6.6,0.1,10-2.9,12.2c-1.9,1.5-4.6,1.5-5.2,1.5
			c-4,0-6-1.7-7-3.2c-1.1-1.7-1.4-3.9-1.4-8v-49.2h-4.3v48.5c0,4.1-0.2,8.1,2.5,11.7c0.5,0.8,1.2,1.5,2,2.1c3,2.2,7,2.3,8,2.3
			c2,0,9.3-0.3,11.9-7.3C148.6,278.6,148.8,276.3,148.8,274.2"/>
	</g>
</g>
<g id="Layer_2">
	<path fill="#FFFFFF" d="M344,326.8l9.1,50.3h-4.6l-6.4-38.4L344,326.8z M328,377.1h-4.6l11.9-64h4.6L328,377.1z"/>
	<path fill="#FFFFFF" d="M219.8,236.7l9.1,50.3h-4.6l-6.4-38.4L219.8,236.7z M203.8,287h-4.6l11.9-64h4.6L203.8,287z"/>
	<g>
		<path fill="#FFFFFF" d="M204.2,373.2c-2.3-0.9-3.5-2.8-3.9-3.7c-1.2-2.3-1.3-5.1-1.3-10.4V329c0-4-0.4-8.2,3.1-11.1
			c0.7-0.6,1.4-0.9,2.1-1.2v-4c-2,0.4-3.3,1-4.4,1.7c-0.4,0.3-1.2,0.7-2.1,1.7c-2.8,2.8-3.1,7.1-3.1,10.8v33.4
			c0,6.7,0.5,9.5,2.4,12.4c1.6,2.5,4.2,4.1,7.1,4.6V373.2z"/>
		<path fill="#FFFFFF" d="M211.1,316.8c2.2,0.8,3.4,2.3,3.9,3.5c0.8,1.9,0.9,4.8,0.9,6.8v6.6h4.2v-8.8c0-0.4,0-3-0.4-4.7
			c-0.8-2.8-3.1-6.4-8.6-7.4V316.8z"/>
		<path fill="#FFFFFF" d="M211.1,347.8v3.9h5.1v10.2c0,1.7,0.1,6.6-4.1,10.1c-0.3,0.3-0.6,0.5-1,0.7v4.3c2.3-0.9,3.8-2.3,4.6-3.1
			c0.5-0.5,0.8-0.9,1.6-2.1v5h3.3v-29H211.1z"/>
	</g>
	<g>
		<path fill="#FFFFFF" d="M249.4,283.1c-2.3-0.9-3.5-2.8-3.9-3.7c-1.2-2.3-1.3-5.1-1.3-10.4V239c0-4-0.4-8.2,3.1-11.1
			c0.7-0.6,1.4-0.9,2.1-1.2v-4c-2,0.4-3.3,1-4.4,1.7c-0.4,0.3-1.2,0.7-2.1,1.7c-2.8,2.8-3.1,7.1-3.1,10.8v33.4
			c0,6.7,0.5,9.5,2.4,12.4c1.6,2.5,4.2,4.1,7.1,4.6V283.1z"/>
		<path fill="#FFFFFF" d="M256.3,226.7c2.2,0.8,3.4,2.3,3.9,3.5c0.8,1.9,0.9,4.8,0.9,6.8v6.6h4.2v-8.8c0-0.4,0-3-0.4-4.7
			c-0.8-2.8-3.1-6.4-8.6-7.4V226.7z"/>
		<path fill="#FFFFFF" d="M256.3,257.7v3.9h5.1v10.2c0,1.7,0.1,6.6-4.1,10.1c-0.3,0.3-0.6,0.5-1,0.7v4.3c2.3-0.9,3.8-2.3,4.6-3.1
			c0.5-0.5,0.8-0.9,1.6-2.1v5h3.3v-29H256.3z"/>
	</g>
	<path fill="#FFFFFF" d="M308.1,376.9v-63.6h4.6v63.6H308.1z"/>
	<path fill="#FFFFFF" d="M395.1,376.9v-63.6h4.6v63.6H395.1z"/>
	<g>
		<polygon fill="#FFFFFF" points="119.9,329 119.9,375.2 124.1,375.2 123.9,345.2 		"/>
		<polygon fill="#FFFFFF" points="141.6,374.8 126.4,313.7 122.8,313.7 123.8,317.5 123.7,317.2 129.4,340.4 138.6,377.2 
			142.2,377.2 141.6,374.7 		"/>
		<polygon fill="#FFFFFF" points="141.5,312.9 141.9,343.7 145.8,359.7 145.8,312.9 		"/>
	</g>
	<g>
		<polygon fill="#FFFFFF" points="454.6,329 454.6,375.2 458.8,375.2 458.6,345.2 		"/>
		<polygon fill="#FFFFFF" points="476.3,374.8 461.1,313.7 457.5,313.7 458.5,317.5 458.5,317.2 464.2,340.4 473.3,377.2 
			476.9,377.2 476.3,374.7 		"/>
		<polygon fill="#FFFFFF" points="476.2,312.9 476.6,343.7 480.6,359.7 480.6,312.9 		"/>
	</g>
	<g>
		<rect x="293.5" y="313.3" fill="#FFFFFF" width="4.3" height="4"/>
		<rect x="271" y="313.3" fill="#FFFFFF" width="4.2" height="4"/>
		<polygon fill="#FFFFFF" points="282.1,376.9 286.6,376.9 286.6,317.3 286.6,317.3 286.6,313.3 282.1,313.3 		"/>
	</g>
	<g>
		<rect x="380.4" y="313.3" fill="#FFFFFF" width="4.3" height="4"/>
		<rect x="357.9" y="313.3" fill="#FFFFFF" width="4.2" height="4"/>
		<polygon fill="#FFFFFF" points="369,376.9 373.5,376.9 373.5,317.3 373.5,317.3 373.5,313.3 369,313.3 		"/>
	</g>
	<path fill="#FFFFFF" d="M171.8,313.1h11.8v4.1h-11.8V313.1z M165.4,377.1h-4.6v-64h4.6V377.1z M171.8,373h11.7v4.1h-11.7V373z
		 M171.8,341.4h8.5v4.1h-8.5V341.4z"/>
	<path fill="#FFFFFF" d="M291.3,223h11.8v4.1h-11.8V223z M284.9,287h-4.6v-64h4.6V287z M291.3,282.9H303v4.1h-11.7V282.9z
		 M291.3,251.4h8.5v4.1h-8.5V251.4z"/>
	<path fill="#FFFFFF" d="M433.3,223h11.8v4.1h-11.8V223z M426.9,287h-4.6v-64h4.6V287z M433.3,282.9H445v4.1h-11.7V282.9z
		 M433.3,251.4h8.5v4.1h-8.5V251.4z"/>
	<path fill="#FFFFFF" d="M467.8,223h11.8v4.1h-11.8V223z M461.4,287h-4.6v-64h4.6V287z M467.8,282.9h11.7v4.1h-11.7V282.9z
		 M467.8,251.4h8.5v4.1h-8.5V251.4z"/>
	<polygon fill="#FFFFFF" points="356,223.2 352,223.2 334,286.8 338.1,286.8 	"/>
	<g>
		<path fill="#FFFFFF" d="M244.5,373c-2.6-1-3.9-3.1-4.4-4.3c-0.5-1.6-0.7-3.6-0.7-7.2v-35c0-1.1-0.2-6.1,3.7-8.6
			c0.3-0.2,0.8-0.5,1.4-0.7v-4.2c-3.8,0.9-7.1,3.2-8.4,7.3c-1,2.9-1,6.5-1,7.2v35.8c0,3.8,0.3,7.4,2.8,10.5c1.8,2.2,4.5,3.2,6.6,3.6
			V373z"/>
		<path fill="#FFFFFF" d="M256.4,314.9c-1.5-1.1-3.2-1.7-4.9-2.1v4.3c0.3,0.1,0.6,0.3,0.8,0.4c1.8,0.9,2.5,2.3,2.9,3
			c1.3,2.4,1.5,5.4,1.5,10.7v31c0,3.7-0.2,7.6-3.6,10c-0.5,0.4-1,0.7-1.6,0.9v4.2c4.1-0.9,6.5-3.3,7.5-5.1c1.6-2.6,1.9-5.3,1.9-8.3
			v-35.1C260.9,323.8,260.9,318.3,256.4,314.9z"/>
	</g>
	<g>
		<path fill="#FFFFFF" d="M423.9,373c-2.6-1-3.9-3.1-4.4-4.3c-0.5-1.6-0.7-3.6-0.7-7.2v-35c0-1.1-0.2-6.1,3.7-8.6
			c0.3-0.2,0.8-0.5,1.4-0.7v-4.2c-3.8,0.9-7.1,3.2-8.4,7.3c-1,2.9-1,6.5-1,7.2v35.8c0,3.8,0.3,7.4,2.8,10.5c1.8,2.2,4.5,3.2,6.6,3.6
			V373z"/>
		<path fill="#FFFFFF" d="M435.7,314.9c-1.5-1.1-3.2-1.7-4.9-2.1v4.3c0.3,0.1,0.6,0.3,0.8,0.4c1.8,0.9,2.5,2.3,2.9,3
			c1.3,2.4,1.5,5.4,1.5,10.7v31c0,3.7-0.2,7.6-3.6,10c-0.5,0.4-1,0.7-1.6,0.9v4.2c4.1-0.9,6.5-3.3,7.5-5.1c1.6-2.6,1.9-5.3,1.9-8.3
			v-35.1C440.2,323.8,440.2,318.3,435.7,314.9z"/>
	</g>
	<g>
		<path fill="#FFFFFF" d="M179.2,226.5c3,1,3.9,3.4,4.2,5.1c0.3,1.3,0.3,2,0.3,4.2v5.7h4.3V237c0-4.6,0-10-4.4-12.9
			c-1.4-0.9-3-1.3-4.4-1.6V226.5z"/>
		<path fill="#FFFFFF" d="M184.8,260.2c-2-2.5-4.2-4.7-6.5-6.9c-1.5-1.6-3-3.2-4.3-4.8c-3.9-4.4-5.5-6.8-5.5-12.9
			c0-4.7,1.2-7.2,3.2-8.5c0.2-0.1,0.4-0.2,0.6-0.3v-4.1c-5.8,1.4-7.3,5.8-7.8,8.9c-0.4,1.8-0.4,4.4-0.4,4.8c0,6.1,2.1,9.7,3.6,11.8
			c1.3,1.9,3.6,4.4,7.3,8c0.6,0.5,4.9,4.6,7.2,8.2c1.2,1.9,2.3,4.1,2.3,9.1c0,5.2-1.3,7.9-3.5,9.3c-0.6,0.4-1.2,0.6-1.8,0.8v4
			c4-0.7,6.2-2.6,7.4-4.4c1.3-1.9,2.3-5,2.3-10.4C188.9,267.7,188,264.2,184.8,260.2z"/>
		<path fill="#FFFFFF" d="M172.3,283.3c-4.5-1.6-5.2-5.8-5.3-8.2c-0.1-1.4,0-2.6,0-4V266h-4.4v9c0,1.9,0.1,3.3,0.7,5.1
			c0.7,1.9,1.7,3.3,3.2,4.6c0.9,0.8,1.6,1.3,2.1,1.5c1.1,0.6,2.4,1,3.8,1.2V283.3z"/>
	</g>
	<g>
		<path fill="#FFFFFF" d="M145,222.9v46.7c0,6.6,0.1,10-2.9,12.2c-0.6,0.5-1.3,0.8-1.9,1v4.3c2.9-0.6,6.6-2.3,8.3-6.9
			c0.7-2,0.9-4.2,0.9-6.4v-51H145z"/>
		<path fill="#FFFFFF" d="M133.3,282.8c-1.7-0.6-2.8-1.7-3.4-2.7c-1.1-1.7-1.4-3.9-1.4-8v-49.2h-4.3v48.5c0,4.1-0.2,8.1,2.5,11.7
			c0.5,0.8,1.2,1.5,2,2.1c1.5,1.1,3.2,1.7,4.7,2V282.8z"/>
	</g>
	<path fill="#FFFFFF" d="M401,223h11.8v4.1H401V223z M394.6,287H390v-64h4.6V287z M401,251.4h8.5v4.1H401V251.4z"/>
</g>
</svg>
