<?xml version="1.0" encoding="utf-8"?>
<!-- Generator: Adobe Illustrator 18.1.0, SVG Export Plug-In . SVG Version: 6.00 Build 0)  -->
<!DOCTYPE svg PUBLIC "-//W3C//DTD SVG 1.1//EN" "http://www.w3.org/Graphics/SVG/1.1/DTD/svg11.dtd">
<svg version="1.1" xmlns="http://www.w3.org/2000/svg" xmlns:xlink="http://www.w3.org/1999/xlink" x="0px" y="0px"
	 viewBox="0 0 600 600" enable-background="new 0 0 600 600" xml:space="preserve">
<g id="Layer_1" display="none">
	<g display="inline">
		<path d="M466.8,331.7v-29H453v3.9h9.4v10.2c0,1.7,0.1,6.6-4.1,10.1c-1.4,1.2-3,1.9-4.9,1.9c-4.2,0-6.3-3-6.9-4.3
			c-1.2-2.3-1.3-5.1-1.3-10.4V284c0-4-0.4-8.2,3.1-11.1c2.2-1.7,4.7-1.7,5.6-1.7c4.6,0,6.6,2.2,7.4,4c0.8,1.9,0.9,4.8,0.9,6.8v6.6
			h4.2v-8.8c0-0.4,0-3-0.4-4.7c-1-3.2-3.9-7.6-11.8-7.6c-4.2,0-6.5,0.9-8.1,2c-0.4,0.3-1.2,0.7-2.1,1.7c-2.8,2.8-3.1,7.1-3.1,10.8
			v33.4c0,6.7,0.5,9.5,2.4,12.4c2.1,3.2,5.8,4.9,9.5,4.9c4.9,0,7.8-2.6,9-3.9c0.5-0.5,0.8-0.9,1.6-2.1v5H466.8z M426.1,331.7v-63.5
			h-4.3l0.6,61.1l-15.2-61.1h-6.5v63.5h4.2l-0.4-60l14.8,60H426.1z M386.1,268.1h-4.6v63.5h4.6V268.1z M371.1,272.1v-4h-26.8v4h11.1
			v59.6h4.5v-59.6H371.1z M335.4,272.1v-4h-26.8v4h11.1v59.6h4.5v-59.6H335.4z M298.2,268.1h-4.6v63.5h4.6V268.1z M279,331.7
			l-0.6-63.5h-6.5L261.3,323l-10.5-54.8h-6.5l-0.5,63.5h4.4l-0.1-58.8l11.2,58.8h4l11.2-58.8l0.1,58.8H279z M226.2,290.2
			c0,1.3,0.1,4.9-3.9,6.2c-1.5,0.5-3.3,0.5-3.8,0.5h-8.1v-25h8.3c1.6,0,3.1,0.1,4.6,0.9c2.7,1.5,2.9,4.9,2.9,7.6V290.2z
			 M233.6,331.7L222,300.5c1.3-0.3,1.6-0.5,2.3-0.7c1.4-0.6,4.9-2.2,6.1-6.6c0.4-1.4,0.4-3.9,0.4-4v-9.9c0-1.3,0.2-5.9-3.5-8.8
			c-2.7-2.1-5.8-2.2-9-2.2H206v63.5h4.4v-31h6.9l11.6,31H233.6z M194,272.1v-4h-22.5v63.5h22.4v-4h-18.1v-27.3h14.9v-3.9h-14.9
			v-24.5H194z M153.6,289.5c0,0.5,0.4,4.9-2.1,7.3c-1.9,2-4.4,2.2-6.8,2.2h-7.2v-27.2h6.8c3.7,0,5.1,0.3,6.8,1.5
			c2.5,1.9,2.6,5,2.6,10.6V289.5z M157.9,289.5v-7.2c0-4.7,0-8.8-3.4-11.6c-3.2-2.7-7.6-2.5-11.4-2.5h-9.9v63.5h4.4v-29h6.5
			c2.8,0,8.1-0.2,11.3-4.1C157.8,295.8,157.9,292.9,157.9,289.5"/>
	</g>
</g>
<g id="Layer_2">
	<path fill="#FFFFFF" d="M293.7,332.1v-63.6h4.6v63.6H293.7z"/>
	<path fill="#FFFFFF" d="M382.3,332.1v-63.6h4.6v63.6H382.3z"/>
	<g>
		<rect x="205.1" y="268.5" fill="#FFFFFF" width="4.4" height="63.6"/>
		<path fill="#FFFFFF" d="M221.1,300.8c1.4-0.3,1.6-0.5,2.3-0.7c1.4-0.6,5-2.2,6.1-6.6c0.4-1.4,0.4-3.9,0.4-4.1v-9.9
			c0-1.3,0.2-5.9-3.5-8.8c-2.7-2.1-5.8-2.3-9-2.3h-1v3.8h1.4c1.6,0,3.1,0.1,4.6,0.9c2.7,1.5,2.9,4.9,2.9,7.6v9.8
			c0,1.3,0.1,4.9-3.9,6.2c-1.5,0.5-3.3,0.5-3.8,0.5h-1.2v3.8h0l11.6,31h4.7L221.1,300.8z"/>
	</g>
	<g>
		<polygon fill="#FFFFFF" points="279,269 272.5,269 265.5,305.2 267.3,314.7 275.3,273.2 275.4,332 279.6,332 		"/>
		<polygon fill="#FFFFFF" points="251.4,269 247.9,269 260,332 263.6,332 255.3,289 		"/>
		<polygon fill="#FFFFFF" points="244.8,288.8 244.4,332 248.8,332 248.8,309.9 		"/>
	</g>
	<g>
		<path fill="#FFFFFF" d="M451,328.4c-2.3-0.9-3.5-2.8-3.9-3.7c-1.2-2.3-1.3-5.1-1.3-10.4v-30.1c0-4-0.4-8.2,3.1-11.1
			c0.7-0.6,1.4-0.9,2.1-1.2v-4c-2,0.4-3.3,1-4.4,1.7c-0.4,0.3-1.2,0.7-2.1,1.7c-2.8,2.8-3.1,7.1-3.1,10.8v33.4
			c0,6.7,0.5,9.5,2.4,12.4c1.6,2.5,4.2,4.1,7.1,4.6V328.4z"/>
		<path fill="#FFFFFF" d="M457.9,272c2.2,0.8,3.4,2.3,3.9,3.5c0.8,1.9,0.9,4.8,0.9,6.8v6.6h4.2V280c0-0.4,0-3-0.4-4.7
			c-0.8-2.8-3.1-6.4-8.6-7.4V272z"/>
		<path fill="#FFFFFF" d="M457.9,303v3.9h5.1V317c0,1.7,0.1,6.6-4.1,10.1c-0.3,0.3-0.6,0.5-1,0.7v4.3c2.3-0.9,3.8-2.3,4.6-3.1
			c0.5-0.5,0.8-0.9,1.6-2.1v5h3.3v-29H457.9z"/>
	</g>
	<path fill="#FFFFFF" d="M182.6,268.3h11.8v4.1h-11.8V268.3z M176.2,332.3h-4.6v-64h4.6V332.3z M182.6,328.2h11.7v4.1h-11.7V328.2z
		 M182.6,296.6h8.5v4.1h-8.5V296.6z"/>
	<path fill="#FFFFFF" d="M158.1,291.2c0,6.4-2.3,11.9-12.3,11.9h-1.4v-3.7h1.4c5.9,0,7.8-3.7,7.8-8.2v-11c0-4.6-1.8-8.2-7.8-8.2
		h-1.4v-3.7h1.4c10,0,12.3,5.5,12.3,11.9V291.2z M137.6,332.3H133v-64h4.6V332.3z"/>
	<g>
		<rect x="331.9" y="268.5" fill="#FFFFFF" width="4.3" height="4"/>
		<rect x="309.4" y="268.5" fill="#FFFFFF" width="4.2" height="4"/>
		<polygon fill="#FFFFFF" points="320.5,332.1 325,332.1 325,272.5 325,272.5 325,268.5 320.5,268.5 		"/>
	</g>
	<g>
		<rect x="367.2" y="268.5" fill="#FFFFFF" width="4.3" height="4"/>
		<rect x="344.7" y="268.5" fill="#FFFFFF" width="4.2" height="4"/>
		<polygon fill="#FFFFFF" points="355.8,332.1 360.3,332.1 360.3,272.5 360.3,272.5 360.3,268.5 355.8,268.5 		"/>
	</g>
	<g>
		<polygon fill="#FFFFFF" points="400.7,284.2 400.7,330.5 404.9,330.5 404.7,300.4 		"/>
		<polygon fill="#FFFFFF" points="422.4,330 407.1,268.9 403.6,268.9 404.5,272.7 404.5,272.4 410.2,295.6 419.4,332.5 423,332.5 
			422.4,329.9 		"/>
		<polygon fill="#FFFFFF" points="422.3,268.1 422.7,298.9 426.6,314.9 426.6,268.1 		"/>
	</g>
</g>
</svg>
