<?xml version="1.0" encoding="utf-8"?>
<!-- Generator: Adobe Illustrator 18.1.0, SVG Export Plug-In . SVG Version: 6.00 Build 0)  -->
<!DOCTYPE svg PUBLIC "-//W3C//DTD SVG 1.1//EN" "http://www.w3.org/Graphics/SVG/1.1/DTD/svg11.dtd">
<svg version="1.1" xmlns="http://www.w3.org/2000/svg" xmlns:xlink="http://www.w3.org/1999/xlink" x="0px" y="0px"
	 viewBox="0 0 600 600" enable-background="new 0 0 600 600" xml:space="preserve">
<g id="Layer_1" display="none">
	<g display="inline">
		<path d="M493.7,317.1v-4h-26.8v4H478v59.6h4.5v-59.6H493.7z M456.5,376.7v-63.5h-4.3l0.6,61.1l-15.2-61.1h-6.5v63.5h4.2l-0.4-60
			l14.8,60H456.5z M419.5,317.1v-4H397v63.5h22.4v-4h-18.1v-27.3h14.9v-3.9h-14.9v-24.5H419.5z M382.2,376.7l-0.6-63.5h-6.5
			L364.6,368L354,313.1h-6.5l-0.5,63.5h4.4l-0.1-58.8l11.2,58.8h4.1l11.2-58.8l0.1,58.8H382.2z M335.5,317.1v-4H313v63.5h22.4v-4
			h-18.1v-27.3h14.9v-3.9h-14.9v-24.5H335.5z M298.4,376.7v-29h-13.8v3.9h9.4v10.2c0,1.7,0.1,6.6-4.1,10.1c-1.4,1.2-3,1.9-4.9,1.9
			c-4.2,0-6.3-3-6.9-4.3c-1.2-2.3-1.3-5.1-1.3-10.4V329c0-4-0.4-8.2,3.1-11.1c2.2-1.7,4.7-1.7,5.6-1.7c4.6,0,6.6,2.2,7.4,4.1
			c0.8,1.9,0.9,4.8,0.9,6.8v6.6h4.2v-8.8c0-0.4,0-3-0.4-4.7c-1-3.2-3.9-7.6-11.8-7.6c-4.2,0-6.5,0.9-8.1,2c-0.5,0.3-1.2,0.7-2.1,1.7
			c-2.8,2.8-3.1,7.1-3.1,10.8v33.4c0,6.7,0.5,9.5,2.4,12.4c2.1,3.2,5.8,4.9,9.5,4.9c4.9,0,7.8-2.6,9-3.9c0.5-0.5,0.8-0.9,1.6-2.1v5
			H298.4z M252,353.2h-11.8l5.2-30c0.3-1.8,0.5-3.6,0.7-5.5c0.3,2,0.5,4,0.9,5.9L252,353.2z M260.7,376.7l-11.5-63.9h-6.1
			l-11.6,63.9h4.7l3.3-19.4h13.3l3.2,19.4H260.7z M219.5,376.7v-63.5h-4.3l0.6,61.1l-15.2-61.1h-6.5v63.5h4.2l-0.4-60l14.8,60H219.5
			z M173.6,353.2h-11.8l5.2-30c0.3-1.8,0.5-3.6,0.7-5.5c0.3,2,0.5,4,0.9,5.9L173.6,353.2z M182.3,376.7l-11.5-63.9h-6.1l-11.6,63.9
			h4.7l3.3-19.4h13.3l3.2,19.4H182.3z M141.5,376.7l-0.6-63.5h-6.5L123.8,368l-10.5-54.8h-6.5l-0.5,63.5h4.4l-0.1-58.8l11.2,58.8h4
			l11.2-58.8l0.1,58.8H141.5z"/>
		<path d="M407.9,227.1v-4H381v4h11.1v59.6h4.5v-59.6H407.9z M373.8,227.1v-4h-22.5v63.5h22.4v-4h-18.1v-27.3h14.9v-3.9h-14.9v-24.5
			H373.8z M336.7,286.7v-29h-13.8v3.9h9.4v10.2c0,1.7,0.1,6.6-4.1,10.1c-1.4,1.2-3,1.9-4.9,1.9c-4.2,0-6.3-3-6.9-4.3
			c-1.2-2.3-1.3-5.1-1.3-10.4V239c0-4-0.4-8.2,3.1-11.1c2.2-1.7,4.7-1.7,5.6-1.7c4.6,0,6.6,2.2,7.4,4c0.8,1.9,0.9,4.8,0.9,6.8v6.6
			h4.2v-8.8c0-0.4,0-3-0.4-4.7c-1-3.2-3.9-7.7-11.8-7.7c-4.2,0-6.5,0.9-8.1,2c-0.5,0.3-1.2,0.7-2.1,1.7c-2.8,2.8-3.1,7.1-3.1,10.8
			v33.4c0,6.7,0.5,9.4,2.4,12.4c2.1,3.2,5.8,4.9,9.5,4.9c4.9,0,7.8-2.6,9-3.9c0.5-0.5,0.8-0.9,1.6-2.1v5H336.7z M292.1,263.6
			c0,9.3-1.1,14-5.2,16.9c-2.5,1.7-5,2.2-7.8,2.2h-3.6v-55.5h3.3c0.5,0,2.7,0.2,4.5,0.6c1.3,0.4,4.7,1.6,6.6,5.1
			c2.2,4,2.2,11.6,2.2,16.1V263.6z M296.4,263.3v-14.1c0-10.8-0.8-16.6-4.3-20.8c-4.1-4.8-9.8-5.2-15.6-5.2h-5.5v63.5h8.4
			c0.4,0,3,0,5-0.5c3.1-0.7,5.3-2.4,6.3-3.2c4.3-3.7,5.2-8.5,5.6-14C296.4,267,296.4,265.2,296.4,263.3 M255.9,274.1v-50.9h-4.4
			v46.7c0,6.6,0.1,10-2.9,12.2c-1.9,1.5-4.6,1.5-5.2,1.5c-4,0-6-1.7-7-3.2c-1.1-1.7-1.4-3.9-1.4-8v-49.2h-4.3v48.5
			c0,4.1-0.2,8.1,2.5,11.7c0.5,0.8,1.2,1.5,2,2.1c3,2.2,7,2.3,8,2.3c2,0,9.3-0.3,11.9-7.3C255.8,278.5,255.9,276.2,255.9,274.1
			 M212.8,272.9c0,4.7-0.4,6.8-2.4,8.5c-1.3,0.9-2.7,1.4-5.9,1.4h-7.5v-28.4h4.5c4.2,0,9,0.5,10.7,5.2c0.4,1.3,0.5,2.8,0.5,4.3
			V272.9z M210.7,241.6c0,1.5,0.4,6.8-5,8.4c-1.3,0.4-1.9,0.5-4.3,0.5H197v-23.6h5.6c2.8,0,6.5,0.1,7.7,3.3c0.3,0.7,0.4,1.9,0.4,3.7
			V241.6z M217.2,274.9V264c0-3.3-0.1-6.9-3-9.4c-2.3-2-5.8-2.3-6.8-2.4c1.4-0.3,5.6-0.8,7-5.3c0.5-1.6,0.4-3.9,0.4-4.3v-9.4
			c0-2.5-0.4-5.2-2.2-7.3c-2.7-3.1-7.2-2.7-8.2-2.7h-12.1v63.5h12.7c1.3,0,5.5,0.2,8.8-2.7C216.9,281.5,217.2,278.3,217.2,274.9"/>
	</g>
</g>
<g id="Layer_2">
	<path fill="#FFFFFF" d="M173.7,326.2l9.1,50.3h-4.6l-6.4-38.4L173.7,326.2z M157.7,376.5h-4.6l11.9-64h4.6L157.7,376.5z"/>
	<g>
		<polygon fill="#FFFFFF" points="141,313 134.5,313 127.5,349.4 129.3,359 137.3,317.3 137.4,376 141.6,376 		"/>
		<polygon fill="#FFFFFF" points="113.4,313 109.9,313 122,376 125.6,376 117.3,333 		"/>
		<polygon fill="#FFFFFF" points="106.8,333 106.4,376 110.8,376 110.8,354 		"/>
	</g>
	<g>
		<polygon fill="#FFFFFF" points="382,313 375.5,313 368.5,349.4 370.3,359 378.3,317.3 378.4,376 382.6,376 		"/>
		<polygon fill="#FFFFFF" points="354.4,313 350.9,313 363,376 366.6,376 358.3,333 		"/>
		<polygon fill="#FFFFFF" points="347.8,333 347.4,376 351.8,376 351.8,354 		"/>
	</g>
	<g>
		<path fill="#FFFFFF" d="M282.1,372.6c-2.3-0.9-3.5-2.8-3.9-3.7c-1.2-2.3-1.3-5.1-1.3-10.4v-30.1c0-4-0.4-8.2,3.1-11.1
			c0.7-0.6,1.4-0.9,2.1-1.2v-4c-2,0.4-3.3,1-4.4,1.7c-0.4,0.3-1.2,0.7-2.1,1.7c-2.8,2.8-3.1,7.1-3.1,10.8v33.4
			c0,6.7,0.5,9.5,2.4,12.4c1.6,2.5,4.2,4.1,7.1,4.6V372.6z"/>
		<path fill="#FFFFFF" d="M289,316.2c2.2,0.8,3.4,2.3,3.9,3.5c0.8,1.9,0.9,4.8,0.9,6.8v6.6h4.2v-8.8c0-0.4,0-3-0.4-4.7
			c-0.8-2.8-3.1-6.4-8.6-7.4V316.2z"/>
		<path fill="#FFFFFF" d="M289,347.2v3.9h5.1v10.2c0,1.7,0.1,6.6-4.1,10.1c-0.3,0.3-0.6,0.5-1,0.7v4.3c2.3-0.9,3.8-2.3,4.6-3.1
			c0.5-0.5,0.8-0.9,1.6-2.1v5h3.3v-29H289z"/>
	</g>
	<path fill="#FFFFFF" d="M251.8,326.2l9.1,50.3h-4.6l-6.4-38.4L251.8,326.2z M235.9,376.5h-4.6l11.9-64h4.6L235.9,376.5z"/>
	<g>
		<polygon fill="#FFFFFF" points="430.8,328.4 430.8,374.6 435.1,374.6 434.9,344.6 		"/>
		<polygon fill="#FFFFFF" points="452.5,374.2 437.3,313.1 433.8,313.1 434.7,316.9 434.7,316.6 440.4,339.8 449.6,376.6 
			453.2,376.6 452.5,374.1 		"/>
		<polygon fill="#FFFFFF" points="452.5,312.3 452.8,343.1 456.8,359.1 456.8,312.3 		"/>
	</g>
	<g>
		<polygon fill="#FFFFFF" points="193.5,328.4 193.5,374.6 197.7,374.6 197.5,344.6 		"/>
		<polygon fill="#FFFFFF" points="215.2,374.2 200,313.1 196.4,313.1 197.4,316.9 197.4,316.6 203.1,339.8 212.3,376.6 215.8,376.6 
			215.2,374.1 		"/>
		<polygon fill="#FFFFFF" points="215.2,312.3 215.5,343.1 219.5,359.1 219.5,312.3 		"/>
	</g>
	<g>
		<rect x="489.3" y="312.7" fill="#FFFFFF" width="4.3" height="4"/>
		<rect x="466.9" y="312.7" fill="#FFFFFF" width="4.2" height="4"/>
		<polygon fill="#FFFFFF" points="477.9,376.3 482.4,376.3 482.4,316.7 482.4,316.7 482.4,312.7 477.9,312.7 		"/>
	</g>
	<path fill="#FFFFFF" d="M407.9,312.5h11.8v4.1h-11.8V312.5z M401.5,376.5h-4.6v-64h4.6V376.5z M407.9,372.4h11.7v4.1h-11.7V372.4z
		 M407.9,340.8h8.5v4.1h-8.5V340.8z"/>
	<path fill="#FFFFFF" d="M323.9,312.5h11.8v4.1h-11.8V312.5z M317.5,376.5h-4.6v-64h4.6V376.5z M323.9,372.4h11.7v4.1h-11.7V372.4z
		 M323.9,340.8h8.5v4.1h-8.5V340.8z"/>
	<g>
		<polygon fill="#FFFFFF" points="197.2,250.6 197.2,250.6 197.2,227.1 197.2,227.1 197.2,223.3 192.8,223.3 192.8,286.8 
			197.2,286.8 		"/>
		<path fill="#FFFFFF" d="M214.5,254.8c-2.3-2-5.9-2.3-6.8-2.4c1.4-0.3,5.6-0.8,7-5.3c0.5-1.6,0.5-3.9,0.5-4.3v-9.5
			c0-2.5-0.4-5.2-2.2-7.3c-2.7-3.1-7.2-2.7-8.2-2.7h-0.7v3.8c2.5,0.1,5.3,0.6,6.3,3.3c0.3,0.7,0.5,1.9,0.5,3.7v7.7
			c0,1.5,0.4,6.8-5,8.4c-0.6,0.2-1.1,0.3-1.7,0.4v4.1c3.5,0.3,7,1.3,8.4,5.1c0.4,1.4,0.5,2.8,0.5,4.3v9c0,4.7-0.4,6.8-2.4,8.5
			c-1.3,0.9-2.7,1.4-5.9,1.4h-0.7v3.9h1.4c1.3,0,5.5,0.2,8.8-2.7c2.8-2.5,3.2-5.7,3.2-9.1v-10.9
			C217.5,260.8,217.4,257.2,214.5,254.8z"/>
	</g>
	<g>
		<path fill="#FFFFFF" d="M252.2,222.9v46.7c0,6.6,0.1,10-2.9,12.2c-0.6,0.5-1.3,0.8-1.9,1v4.3c2.9-0.6,6.6-2.3,8.3-6.9
			c0.7-2,0.9-4.2,0.9-6.4v-51H252.2z"/>
		<path fill="#FFFFFF" d="M240.5,282.9c-1.7-0.6-2.8-1.7-3.4-2.7c-1.1-1.7-1.4-3.9-1.4-8v-49.2h-4.3v48.5c0,4.1-0.2,8.1,2.5,11.7
			c0.5,0.8,1.2,1.5,2,2.1c1.5,1.1,3.2,1.7,4.7,2V282.9z"/>
	</g>
	<g>
		<path fill="#FFFFFF" d="M320.9,283.1c-2.3-0.9-3.5-2.8-3.9-3.7c-1.2-2.3-1.3-5.1-1.3-10.4v-30.1c0-4-0.4-8.2,3.1-11.1
			c0.7-0.6,1.4-0.9,2.1-1.2v-4c-2,0.4-3.3,1-4.4,1.7c-0.4,0.3-1.2,0.7-2.1,1.7c-2.8,2.8-3.1,7.1-3.1,10.8v33.4
			c0,6.7,0.5,9.5,2.4,12.4c1.6,2.5,4.2,4.1,7.1,4.6V283.1z"/>
		<path fill="#FFFFFF" d="M327.7,226.7c2.2,0.8,3.4,2.3,3.9,3.5c0.8,1.9,0.9,4.8,0.9,6.8v6.6h4.2v-8.8c0-0.4,0-3-0.4-4.7
			c-0.8-2.8-3.1-6.4-8.6-7.4V226.7z"/>
		<path fill="#FFFFFF" d="M327.7,257.7v3.9h5.1v10.2c0,1.7,0.1,6.6-4.1,10.1c-0.3,0.3-0.6,0.5-1,0.7v4.3c2.3-0.9,3.8-2.3,4.6-3.1
			c0.5-0.5,0.8-0.9,1.6-2.1v5h3.3v-29H327.7z"/>
	</g>
	<g>
		<rect x="270.2" y="223" fill="#FFFFFF" width="4.6" height="64"/>
		<path fill="#FFFFFF" d="M296.2,260.5v-11c0-8.2-0.5-16-4.6-21c-3.9-4.8-9.1-5.5-10.1-5.5v4.1c2.3,0.5,5.9,2.3,7.8,5.9
			c1.8,3.7,2.3,8.2,2.3,16.5v11c0,8.2-0.5,12.8-2.3,16.5c-1.8,3.7-5.5,5.5-7.8,5.9v4.1c0.9,0,6.1-0.7,10.1-5.5
			C295.8,276.5,296.2,268.8,296.2,260.5z"/>
	</g>
	<path fill="#FFFFFF" d="M362.8,223h11.8v4.1h-11.8V223z M356.4,287h-4.6v-64h4.6V287z M362.8,282.9h11.7v4.1h-11.7V282.9z
		 M362.8,251.4h8.5v4.1h-8.5V251.4z"/>
	<g>
		<rect x="403.6" y="223.3" fill="#FFFFFF" width="4.3" height="4"/>
		<rect x="381.1" y="223.3" fill="#FFFFFF" width="4.2" height="4"/>
		<polygon fill="#FFFFFF" points="392.2,286.9 396.7,286.9 396.7,227.3 396.7,227.3 396.7,223.3 392.2,223.3 		"/>
	</g>
</g>
</svg>
